<svg width="440" height="68" viewBox="0 0 440 68" fill="none" xmlns="http://www.w3.org/2000/svg">
<path d="M106.73 41.4311C104.677 39.2009 104.658 39.2445 102.493 41.3857C99.9987 43.8515 97.3123 45.9909 93.8746 47.0431C90.9078 47.9523 88.147 47.4061 85.6631 45.8269C82.6842 43.9335 80.9654 40.9931 80.0307 37.6024C78.9039 33.5155 78.9679 29.3972 80.0411 25.326C80.6331 23.0784 81.3618 20.8552 82.7638 18.9234C85.0833 15.73 88.8792 14.4857 92.1853 16.0511C94.5688 17.1784 96.0452 19.1904 96.8172 21.6998C97.134 22.7276 97.5719 25.9612 97.5719 25.9612H113.074V0.108276H99.0017V3.60362C98.723 4.39238 98.1968 5.14973 97.3175 5.50049C96.9315 5.16369 96.542 4.80944 96.1352 4.47265C93.3675 2.1814 90.1688 0.879588 86.6255 0.609105C81.2302 0.199018 76.4892 2.04179 72.1377 5.14449C68.3521 7.84408 65.4303 11.2975 63.2078 15.36C61.3852 18.6913 59.9883 22.2669 59.6058 26.0205C59.0692 31.2958 58.9168 36.6235 60.4262 41.8377C61.5652 45.7693 63.2684 49.4164 65.8735 52.5488C71.1857 58.9392 78.2617 61.6806 86.3157 62.2094C88.1851 62.3315 93.5752 62.1815 94.3403 61.9773C98.2124 60.9407 102.071 59.8763 105.557 57.763C108.399 56.0424 110.95 53.964 113.249 51.5803C114.376 50.4128 114.358 50.0342 113.315 48.8231C111.158 46.3225 108.961 43.8532 106.727 41.4241L106.73 41.4311Z" fill="#F7F7F7"/>
<path d="M417.268 10.4771H422.149L414.28 28.6815L406.465 10.4771H411.365V0.113281H382.829V10.4771H387.03L402.84 40.1412V50.5854H398.324V61.0033H424.771V50.5854H420.546V40.3611L435.846 10.4771H440V0.113281H417.268V10.4771Z" fill="#F7F7F7"/>
<path d="M45.8211 10.4757H49.9442L49.9597 0.104858H8.33788V10.4757H12.4436C12.4436 10.4757 6.21922 46.1463 5.36241 50.5839H0V61.0036H24.2711V56.1018C24.2814 53.8262 24.2711 52.7129 24.2711 50.5839H21.145L23.8141 43.7625L33.5229 43.7521L36.6056 50.5839H33.6735V61.0036H57.9688V50.5839H52.4904L45.8211 10.4757ZM23.8626 34.7703L28.0012 14.9518L33.6735 34.7703H23.8626Z" fill="#F7F7F7"/>
<path d="M164.067 10.4756H168.19L168.205 0.115234H126.589V10.4756H130.694C130.694 10.4756 124.465 46.1462 123.613 50.5838H118.22V61.0035H142.515V56.1017C142.525 53.8261 142.515 52.7128 142.515 50.5838H139.389L142.058 43.7624L151.767 43.7519L154.85 50.5838H151.917V61.0035H176.213V50.5838H170.734L164.065 10.4756H164.067ZM142.108 34.7702L146.247 14.9517L151.919 34.7702H142.108Z" fill="#F7F7F7"/>
<path d="M241.792 10.4772H247.051V50.5837H241.792V61.0034H292.946V44.1846H278.027V50.5837H264.872C264.872 50.5837 264.824 36.4557 264.872 35.824H281.068V24.3503H264.943C264.922 22.7187 264.917 11.423 264.917 10.4789H278.031V18.0978H292.95V0.116821H241.795V10.4789L241.792 10.4772Z" fill="#F7F7F7"/>
<path d="M235.285 13.4317C232.716 9.50888 228.825 5.7134 224.52 3.88633C218.554 1.36299 212.211 0.535836 205.854 0.265354C198.573 -0.0435203 181.321 0.113535 181.321 0.113535V10.4739H186.55C186.512 15.3164 186.55 50.5769 186.55 50.5769L181.321 50.5821V61.0018H186.564V60.9809C189.754 60.9652 193.18 60.9861 197.661 60.9861C205.483 60.8989 215.1 61.4294 224.219 57.3913C228.904 55.3164 232.78 52.3917 235.778 48.2944C238.485 44.5914 240.49 40.4626 240.645 35.8365C240.791 31.6099 240.801 27.2386 239.884 23.1517C239.117 19.7244 237.241 16.4123 235.285 13.4283V13.4317ZM220.494 35.7318C220.484 39.7907 219.191 43.3367 216.215 46.1357C213.562 48.6329 210.333 49.5299 206.813 48.8109C206.196 48.6818 205.456 47.2979 205.435 46.476C205.307 41.4224 205.371 36.3635 205.371 31.3046C205.366 26.2945 205.435 21.2845 205.328 16.2744C205.289 14.4369 206.373 13.772 207.74 13.5766C211.905 12.9815 217.406 17.0457 219.019 20.8674C221.082 25.764 220.509 30.7304 220.494 35.73V35.7318Z" fill="#F7F7F7"/>
<path d="M340.596 10.4774H345.037C343.341 17.0057 337.935 39.1486 337.935 39.1486C337.935 39.1486 331.633 16.0075 329.861 10.4774H334.292V0.113563H297.196V10.4774H302.491C302.45 19.9408 302.474 40.8535 302.484 50.5857H297.285V61.0036H322.629V50.5857H318.314C318.27 41.8429 318.301 28.5003 318.352 21.1833H319.16C320.249 24.2703 331.817 61.0036 331.817 61.0036H342.389C342.389 61.0036 354.867 21.9058 355.342 21.2077L356.075 21.2287C356.1 27.6662 356.093 44.1482 356.098 50.5839H351.715V61.0019H377.06V50.5839H372.32C372.322 41.3369 372.32 20.7104 372.32 10.4757H377.69V0.111816H340.594V10.4757L340.596 10.4774Z" fill="#F7F7F7"/>
</svg>
