<svg width="300" height="80" viewBox="0 0 300 80" fill="none" xmlns="http://www.w3.org/2000/svg">
<g clip-path="url(#clip0_6283_1676)">
<path fill-rule="evenodd" clip-rule="evenodd" d="M152.285 60.3961C152.042 60.4075 151.869 60.4303 151.695 60.4303C149.277 60.4303 146.86 60.4303 144.453 60.4303C142.174 60.4303 139.895 60.4075 137.616 60.3961C137.293 60.3961 137.107 60.3391 137.003 59.9744C136.332 57.7062 135.615 55.4608 134.933 53.2041C134.84 52.8849 134.69 52.7823 134.366 52.7823C129.253 52.7823 124.128 52.7823 119.015 52.7823C118.668 52.7823 118.506 52.9077 118.413 53.2383C117.754 55.4722 117.083 57.7062 116.412 59.9402C116.331 60.2137 116.215 60.3961 115.857 60.3961C111.195 60.3847 106.533 60.3961 101.87 60.3961C101.778 60.3961 101.697 60.3847 101.523 60.3733C101.616 60.0997 101.697 59.8604 101.79 59.621C103.004 56.4183 104.23 53.2269 105.457 50.0241C106.718 46.7187 108.002 43.4133 109.263 40.108C110.234 37.5549 111.195 34.9904 112.178 32.4258C113.161 29.8613 114.156 27.2968 115.128 24.7209C116.169 21.9854 117.21 19.2386 118.24 16.5031C118.459 15.9332 118.644 15.3405 118.911 14.7934C118.992 14.6339 119.281 14.4971 119.477 14.4857C120.75 14.4629 122.034 14.4743 123.307 14.4743C126.951 14.4743 130.595 14.4743 134.239 14.4629C134.69 14.4629 134.909 14.5997 135.06 15.01C135.939 17.3921 136.841 19.7743 137.744 22.145C138.565 24.3106 139.398 26.4762 140.219 28.6418C141.203 31.2291 142.174 33.8164 143.158 36.4037C143.91 38.3527 144.673 40.3017 145.425 42.2508C146.108 44.0402 146.79 45.8297 147.473 47.6077C148.167 49.4314 148.872 51.2664 149.566 53.0901C150.249 54.8909 150.932 56.6918 151.614 58.4927C151.788 58.9486 151.973 59.4159 152.146 59.8718C152.204 60.02 152.239 60.1795 152.308 60.3847L152.285 60.3961ZM126.754 26.6244C126.627 26.8979 126.522 27.0575 126.465 27.2398C125.886 29.0977 125.319 30.9441 124.741 32.802C123.769 35.9706 122.809 39.1506 121.814 42.3192C121.687 42.7295 121.791 42.8207 122.184 42.8207C125.204 42.8207 128.235 42.8207 131.254 42.8207C131.67 42.8207 131.763 42.6953 131.636 42.3078C131.265 41.168 130.907 40.0282 130.56 38.8884C130.016 37.1445 129.496 35.4007 128.952 33.6682C128.466 32.1067 127.98 30.5566 127.494 28.9951C127.263 28.2429 127.02 27.502 126.742 26.6244H126.754Z" fill="#231F20"/>
<path fill-rule="evenodd" clip-rule="evenodd" d="M198.5 60.4306H197.713C193.109 60.4306 188.505 60.4306 183.901 60.4306C183.519 60.4306 183.311 60.3622 183.184 59.9519C182.652 58.1168 182.073 56.2932 181.506 54.4581C181.379 54.0478 181.217 53.6375 181.125 53.2158C181.055 52.8738 180.859 52.8055 180.546 52.8055C175.445 52.8055 170.331 52.8055 165.23 52.8055C164.871 52.8055 164.698 52.9308 164.594 53.2842C164.061 55.1078 163.495 56.9201 162.951 58.7437C162.824 59.1768 162.696 59.6099 162.581 60.0431C162.5 60.328 162.349 60.442 162.025 60.442C160.429 60.4192 158.833 60.4192 157.236 60.442C156.808 60.442 156.692 60.2824 156.692 59.8835C156.692 52.3951 156.692 44.9182 156.727 37.4298C156.727 36.6661 157.063 35.8911 157.329 35.1502C158.219 32.7225 159.156 30.3176 160.082 27.9012C161.135 25.1657 162.187 22.4303 163.228 19.6948C163.842 18.0991 164.443 16.5148 165.033 14.9077C165.137 14.6228 165.299 14.5088 165.6 14.5088C170.632 14.5088 175.653 14.5088 180.685 14.5088C180.939 14.5088 181.055 14.6 181.148 14.8393C181.911 16.8795 182.698 18.9197 183.485 20.96C184.329 23.1711 185.162 25.3709 186.006 27.5821C186.758 29.5653 187.51 31.5485 188.262 33.5317C189.095 35.7201 189.94 37.9199 190.773 40.1083C191.594 42.2739 192.415 44.4395 193.237 46.605C194.069 48.8048 194.902 50.9932 195.724 53.193C196.487 55.2218 197.251 57.2506 198.026 59.2794C198.165 59.6327 198.315 59.9861 198.5 60.4306ZM173.004 26.7728C173.004 26.7728 172.934 26.7614 172.9 26.75C172.819 26.921 172.726 27.092 172.668 27.2743C171.905 29.7591 171.164 32.2438 170.401 34.7285C169.637 37.2132 168.862 39.698 168.087 42.1827C167.879 42.8438 167.89 42.8438 168.573 42.8438C171.5 42.8438 174.438 42.8438 177.365 42.8438C177.434 42.8438 177.515 42.8438 177.596 42.8438C177.851 42.8438 177.966 42.7298 177.874 42.4676C177.781 42.1941 177.712 41.9319 177.619 41.6584C177.006 39.6866 176.405 37.7147 175.792 35.7429C175.248 33.9877 174.693 32.2324 174.149 30.4771C173.767 29.2348 173.374 28.0038 172.992 26.7614L173.004 26.7728Z" fill="#231F20"/>
<path fill-rule="evenodd" clip-rule="evenodd" d="M119.478 13.4373C119.79 12.5825 120.091 11.7846 120.38 10.9982C120.993 9.34551 121.618 7.69283 122.242 6.05154C122.462 5.47025 122.67 4.87757 122.925 4.29628C122.983 4.1709 123.179 4.05692 123.341 4.02273C123.596 3.97714 123.85 4.01133 124.116 4.01133H176.151C176.902 4.01133 176.914 4.01133 177.18 4.7066C178.268 7.54466 179.343 10.3827 180.431 13.2322C180.442 13.2664 180.431 13.312 180.454 13.4259C180.269 13.4487 180.084 13.4829 179.899 13.4829C172.078 13.4829 164.247 13.4829 156.427 13.4829C155.956 13.4829 155.721 13.7109 155.721 14.1668C155.721 29.2347 155.709 44.6787 155.709 59.7467C155.709 60.3621 155.652 60.4305 155.038 60.4305C154.668 60.4305 154.391 60.3849 154.02 60.4305C153.5 60.4875 153.396 60.2596 153.211 59.7695C150.365 52.2697 147.334 44.3938 144.488 36.894C144.315 36.4381 144.303 35.9024 144.303 35.4009C144.303 28.3343 144.303 21.2676 144.303 14.2124C144.303 13.7337 144.064 13.4943 143.586 13.4943C135.719 13.4943 127.853 13.4943 119.975 13.4943C119.836 13.4943 119.686 13.4715 119.478 13.4487V13.4373Z" fill="#231F20"/>
<path fill-rule="evenodd" clip-rule="evenodd" d="M188.783 69.9925C189.766 70.2432 190.356 70.9385 190.877 71.6907C191.351 72.3746 191.756 73.1269 192.184 73.8449C192.461 74.3122 192.739 74.7681 193.005 75.2355C193.075 75.3608 193.132 75.4976 193.225 75.68C193.028 75.7028 192.901 75.7256 192.774 75.7256C191.351 75.7256 189.916 75.7256 188.493 75.7256C188.181 75.7256 187.996 75.623 187.834 75.3494C187.071 74.0729 186.284 72.8191 185.52 71.5426C185.15 70.9271 184.688 70.4484 183.924 70.323C183.346 70.2204 183.218 70.323 183.207 70.8929C183.207 72.2948 183.207 73.7081 183.207 75.1101C183.207 75.6686 183.172 75.7028 182.617 75.7028C181.402 75.7028 180.187 75.7028 178.973 75.7028C178.66 75.7028 178.533 75.623 178.533 75.3038C178.533 71.1664 178.533 67.0176 178.533 62.8688C178.533 62.5725 178.637 62.4471 178.961 62.4471C181.68 62.4471 184.398 62.4243 187.117 62.4699C188.112 62.4927 189.107 62.5497 190.055 62.96C191.571 63.6211 192.265 65.0572 192.068 66.5731C191.86 68.203 190.807 69.1148 189.292 69.6163C189.118 69.6733 188.956 69.7531 188.783 69.8215C188.783 69.8671 188.771 69.9013 188.76 69.9469L188.783 69.9925ZM184.745 65.08C184.745 65.08 184.745 65.137 184.734 65.1712C184.34 65.1712 183.936 65.1484 183.554 65.1826C183.427 65.194 183.23 65.3763 183.23 65.4903C183.195 66.1514 183.207 66.8125 183.23 67.4621C183.23 67.5875 183.392 67.8041 183.473 67.8155C184.595 67.8497 185.729 67.9409 186.805 67.5191C187.221 67.3482 187.487 66.8581 187.441 66.3794C187.406 65.912 187.186 65.5131 186.712 65.3991C186.076 65.251 185.405 65.194 184.757 65.0914L184.745 65.08Z" fill="#231F20"/>
<path fill-rule="evenodd" clip-rule="evenodd" d="M119.721 68.1932C120.773 68.1932 121.814 68.1932 122.867 68.1932C123.156 68.1932 123.284 68.2844 123.272 68.5693C123.272 70.2334 123.272 71.8975 123.26 73.5502C123.26 73.6984 123.145 73.8921 123.018 73.9719C121.236 75.0433 119.362 75.8298 117.233 75.8867C116.643 75.8981 116.053 76.0463 115.475 75.9893C114.052 75.8639 112.618 75.7272 111.31 75.0319C109.54 74.0859 108.534 72.6042 108.152 70.7121C107.817 69.0367 107.932 67.3726 108.754 65.8225C109.656 64.1128 111.102 63.0756 112.976 62.6197C114.839 62.1524 116.736 62.2094 118.622 62.4373C120.681 62.6881 122.173 63.7139 122.925 65.6743C123.029 65.9478 123.018 66.0618 122.728 66.1074C121.421 66.3126 120.125 66.5177 118.818 66.7001C118.714 66.7115 118.529 66.5861 118.46 66.4721C117.789 65.4691 116.609 65.0018 115.417 65.264C113.682 65.6515 112.918 66.4835 112.71 68.2274C112.606 69.162 112.652 70.0739 112.895 70.9857C113.184 72.0799 114.226 72.8891 115.498 73.0487C116.701 73.1969 117.812 72.9005 118.888 72.399C119.177 72.2622 119.362 71.2934 119.131 71.0769C119.05 70.9971 118.876 70.9857 118.749 70.9857C118.008 70.9857 117.257 70.9857 116.516 70.9857C116.215 70.9857 116.111 70.8831 116.123 70.5868C116.134 69.9485 116.146 69.2988 116.123 68.6605C116.123 68.3186 116.215 68.1818 116.586 68.1932C117.627 68.216 118.679 68.1932 119.732 68.1932H119.721Z" fill="#231F20"/>
<path fill-rule="evenodd" clip-rule="evenodd" d="M139.305 75.7264C137.362 75.7264 135.418 75.7264 133.475 75.7264C133.128 75.7264 133.023 75.6238 133.023 75.2932C133.023 71.1786 133.023 67.064 133.023 62.9494C133.023 62.6075 133.116 62.4707 133.486 62.4707C137.304 62.4821 141.11 62.4707 144.927 62.4707C145.297 62.4707 145.448 62.5619 145.436 62.9494C145.413 63.5763 145.413 64.2032 145.436 64.8301C145.436 65.1948 145.332 65.3316 144.939 65.3202C142.718 65.2974 140.508 65.3202 138.287 65.3202C137.697 65.3202 137.697 65.3202 137.697 65.89C137.697 66.2206 137.72 66.5511 137.697 66.8817C137.674 67.2806 137.847 67.406 138.229 67.406C140.184 67.406 142.151 67.406 144.106 67.406C144.846 67.406 144.846 67.406 144.846 68.1582C144.846 68.5913 144.846 69.0244 144.846 69.4576C144.846 70.1072 144.846 70.1072 144.198 70.1072C142.255 70.1072 140.311 70.1072 138.368 70.1072C137.921 70.1072 137.697 70.3352 137.697 70.7911C137.697 71.2698 137.709 71.7485 137.697 72.2272C137.674 72.6262 137.847 72.7515 138.229 72.7515C140.508 72.7515 142.787 72.7515 145.066 72.7515C145.644 72.7515 145.656 72.7515 145.656 73.3214C145.656 73.9597 145.644 74.6094 145.656 75.2477C145.668 75.6238 145.517 75.7378 145.147 75.7378C143.204 75.7264 141.26 75.7378 139.317 75.7378L139.305 75.7264Z" fill="#231F20"/>
<path fill-rule="evenodd" clip-rule="evenodd" d="M161.805 62.4939C162.534 62.4939 163.263 62.4939 163.992 62.4939C164.246 62.4939 164.397 62.5737 164.512 62.8245C165.206 64.4772 165.924 66.1184 166.618 67.7711C167.451 69.7201 168.272 71.6806 169.105 73.6296C169.348 74.1881 169.568 74.758 169.822 75.3165C169.961 75.6356 169.845 75.7268 169.533 75.7268C168.168 75.7268 166.803 75.7268 165.438 75.7268C165.311 75.7268 165.114 75.5672 165.068 75.4418C164.848 74.9175 164.697 74.3705 164.466 73.8462C164.408 73.7094 164.188 73.5498 164.05 73.5498C162.546 73.527 161.042 73.5498 159.538 73.5384C159.249 73.5384 159.11 73.6638 159.029 73.9373C158.902 74.416 158.728 74.872 158.566 75.3393C158.474 75.6014 158.323 75.7496 157.999 75.7382C156.738 75.7268 155.478 75.7382 154.217 75.7382C153.754 75.7382 153.708 75.6584 153.881 75.2367C155.431 71.5552 156.981 67.8851 158.532 64.2036C158.705 63.7933 158.89 63.383 159.041 62.9612C159.156 62.5965 159.376 62.4825 159.758 62.4939C160.44 62.5167 161.123 62.4939 161.805 62.4939ZM161.84 66.107C161.84 66.107 161.736 66.1184 161.69 66.1298C161.262 67.6457 160.602 69.0819 160.209 70.6434H163.402C162.87 69.0933 162.361 67.6002 161.84 66.107Z" fill="#231F20"/>
</g>
<defs>
<clipPath id="clip0_6283_1676">
<rect width="97" height="72" fill="white" transform="translate(101.5 4)"/>
</clipPath>
</defs>
</svg>
