<svg width="300" height="80" viewBox="0 0 300 80" fill="none" xmlns="http://www.w3.org/2000/svg">
<g clip-path="url(#clip0_6283_1589)">
<path fill-rule="evenodd" clip-rule="evenodd" d="M46.1134 58.8956H54.7949L54.7995 49.4235C54.9371 46.8335 56.0423 45.4212 56.721 43.0888C57.4227 40.6875 57.276 38.3321 56.4138 35.9997C55.3544 33.1199 54.8041 32.6691 54.7995 29.3706C54.7949 26.6196 54.7995 23.864 54.7995 21.1084H46.1088C46.1134 23.5926 45.774 24.8623 47.0581 27.098C47.8653 28.5058 48.9522 29.8491 50.0162 31.0727C52.4514 33.8698 54.9783 35.9629 54.9783 39.9974C54.9783 44.0227 52.4606 46.1251 50.0253 48.9175C48.9568 50.1412 47.879 51.4799 47.0627 52.8876C45.7694 55.1233 46.1134 56.4068 46.1042 58.8956H46.1134Z" fill="#6B7821"/>
<path fill-rule="evenodd" clip-rule="evenodd" d="M36.8771 58.8959H44.9899V58.8867L45.022 55.3675C45.3705 52.4462 48.0626 49.4376 49.9796 47.3168C52.4102 44.6256 54.5519 42.3577 53.7264 38.3922C53.1532 35.6458 50.1034 32.9454 48.3286 30.7832C47.3655 29.6101 46.3703 28.2714 45.7053 26.9051C44.7422 24.927 45.0174 23.2478 45.0128 21.1133H36.8771C36.8817 22.5302 36.845 23.9885 36.8771 25.3962C36.9046 26.6981 37.4503 27.3421 38.3676 28.1886C39.8214 29.5319 41.7842 30.6636 43.5223 31.6021C46.9069 33.433 52.2589 35.402 52.2589 40.0023C52.2589 44.6026 46.9115 46.5808 43.5269 48.4071C41.7934 49.341 39.8259 50.4773 38.3813 51.8114C37.4733 52.6532 36.9092 53.2973 36.8817 54.5946C36.8496 56.0069 36.8862 57.479 36.8817 58.9005L36.8771 58.8959Z" fill="#6B7821"/>
<path fill-rule="evenodd" clip-rule="evenodd" d="M27.1086 56.9957L27.0994 58.9002H35.8084H35.7625L35.7901 56.2274C35.7992 54.9899 35.602 53.757 36.2578 52.6484C37.5603 50.4494 40.9311 48.5541 43.1003 47.3856C44.866 46.4333 46.6178 45.642 48.2734 44.492C50.1308 43.2039 51.4287 41.787 51.1214 39.3488C50.6811 35.8341 44.9485 33.6673 42.1968 32.1262C40.2982 31.0589 36.322 28.7266 35.8634 26.3528C35.68 25.4005 35.7901 23.4638 35.7901 22.4103L35.7671 21.1084L27.0902 21.1176C27.0856 22.7645 27.1223 24.416 27.1131 26.063C27.104 27.7743 26.8105 28.7542 28.1771 29.9871C29.8189 31.473 32.8458 32.5219 34.9508 33.1751C37.5236 33.9756 40.2156 34.5046 42.7426 35.3235C44.5495 35.9077 48.1496 37.2694 48.8375 39.2108C49.7547 41.8008 46.0446 43.4569 44.1826 44.1791C41.697 45.1406 39.0095 45.6604 36.4413 46.3919C34.1253 47.0543 31.3324 47.9238 29.287 49.1981C26.6316 50.8496 27.1407 51.8571 27.1177 54.4977C27.1086 55.3304 27.1177 56.163 27.1177 57.0003L27.1086 56.9957Z" fill="#6B7821"/>
<path fill-rule="evenodd" clip-rule="evenodd" d="M261.05 35.1631C262.284 30.48 266.535 29.4219 270.814 29.4219H278.739C279.464 29.4219 280.005 30.0567 280.005 30.7836V49.2218C280.005 49.9762 279.372 50.5835 278.62 50.5835H275.845C275.061 50.5835 274.46 49.9808 274.46 49.1942V45.4771H264.004L263.009 49.1942C262.798 49.9808 262.046 50.5835 261.261 50.5835H258.368C257.583 50.5835 257.134 49.9808 257.345 49.2218L261.05 35.1677V35.1631ZM265.086 41.3H274.456V33.5944H270.269C268.37 33.5944 266.866 34.7445 266.384 36.557L265.086 41.3Z" fill="#6B7821"/>
<path fill-rule="evenodd" clip-rule="evenodd" d="M234.717 50.5788C233.965 50.5788 233.332 49.944 233.332 49.1573V30.8112C233.332 30.0245 233.965 29.3896 234.717 29.3896H237.492C238.244 29.3896 238.877 30.0245 238.877 30.8112V37.8819H242.041C243.756 37.8819 244.994 37.0078 246.169 34.8917L248.457 30.8112C248.998 29.8451 249.814 29.3896 250.567 29.3896H253.974C254.726 29.3896 254.878 29.9969 254.424 30.8112L251.232 36.6122C250.479 37.9693 249.484 39.3954 247.434 39.8738C248.879 40.1775 250.388 42.0222 251.232 43.3195L254.91 49.1849C255.391 49.9716 255.18 50.5742 254.396 50.5742H251.021C250.269 50.5742 249.241 49.9716 248.76 49.1849L246.169 45.0722C245.054 43.2873 243.94 42.0498 242.041 42.0498H238.877V49.2125C238.877 49.967 238.244 50.5742 237.492 50.5742H234.717V50.5788Z" fill="#6B7821"/>
<path fill-rule="evenodd" clip-rule="evenodd" d="M223.329 50.5789C222.577 50.5789 221.944 49.944 221.944 49.1896V35.4989L214.263 49.1896C213.841 49.944 212.905 50.5789 212.125 50.5789H207.246C206.462 50.5789 205.861 49.944 205.861 49.1896V30.8112C205.861 30.0245 206.462 29.4219 207.246 29.4219H209.837C210.589 29.4219 211.222 30.0245 211.222 30.7836V45.5645L219.596 30.8158C220.018 30.0889 220.89 29.4265 221.614 29.4265H225.953C226.705 29.4265 227.31 30.0613 227.31 30.8158V49.1896C227.31 49.944 226.677 50.5789 225.925 50.5789H223.334H223.329Z" fill="#6B7821"/>
<path fill-rule="evenodd" clip-rule="evenodd" d="M200.257 29.4219C201.041 29.4219 201.642 30.0245 201.642 30.8112V32.2005C201.642 32.9871 201.041 33.5898 200.257 33.5898H193.689V49.2172C193.689 49.9716 193.057 50.5789 192.304 50.5789H189.53C188.778 50.5789 188.145 49.9762 188.145 49.2172V33.5944H181.578C180.793 33.5944 180.188 32.9917 180.188 32.2051V30.8158C180.188 30.0291 180.793 29.4265 181.578 29.4265H200.257V29.4219Z" fill="#6B7821"/>
<path fill-rule="evenodd" clip-rule="evenodd" d="M165.879 29.3018H169.163C173.258 29.3018 177.629 31.5099 177.629 35.802C177.629 37.1637 176.515 37.4352 176.12 37.4352H174.373C173.529 37.4352 172.837 37.0441 172.263 35.802C171.603 34.3805 170.456 33.4743 168.649 33.4743H166.031C161.692 33.4743 160.518 35.0752 160.518 40.0022C160.518 44.9291 161.692 46.53 166.031 46.53H168.952C170.759 46.53 171.906 45.6238 172.566 44.2023C173.139 42.9648 173.832 42.5692 174.676 42.5692H176.423C176.817 42.5692 177.932 42.8406 177.932 44.2023C177.932 48.4944 173.561 50.7026 169.466 50.7026H165.879C158.679 50.7026 154.974 47.3489 154.974 40.0022C154.974 32.6554 158.679 29.3018 165.879 29.3018Z" fill="#6B7821"/>
<path fill-rule="evenodd" clip-rule="evenodd" d="M144.609 30.8112C144.609 30.0245 145.242 29.4219 145.994 29.4219H148.736C149.521 29.4219 150.153 30.0245 150.153 30.8112V49.185C150.153 49.9394 149.521 50.5743 148.736 50.5743H145.994C145.242 50.5743 144.609 49.9716 144.609 49.2126V30.8112Z" fill="#6B7821"/>
<path fill-rule="evenodd" clip-rule="evenodd" d="M137.23 50.5782H134.428C133.676 50.5782 133.043 49.9755 133.043 49.1889V33.5937H129.456C127.558 33.5937 126.054 34.7438 125.567 36.5563L122.192 49.1889C121.981 49.9755 121.229 50.5782 120.445 50.5782H117.464C116.799 50.5782 116.317 50.0031 116.496 49.3407L120.234 35.167C121.467 30.4839 125.714 29.4258 129.993 29.4258H137.345C138.037 29.4258 138.578 30.0882 138.578 30.8151V49.1889C138.578 49.9755 137.977 50.5782 137.221 50.5782H137.23Z" fill="#6B7821"/>
<path fill-rule="evenodd" clip-rule="evenodd" d="M93.2722 35.1631C94.5058 30.48 98.7572 29.4219 103.036 29.4219H110.961C111.685 29.4219 112.227 30.0567 112.227 30.7836V49.2218C112.227 49.9762 111.594 50.5835 110.842 50.5835H108.067C107.283 50.5835 106.682 49.9808 106.682 49.1942V45.4771H96.2256L95.2304 49.1942C95.0195 49.9808 94.2674 50.5835 93.4831 50.5835H90.5893C89.8051 50.5835 89.3556 49.9808 89.5666 49.2218L93.2722 35.1677V35.1631ZM97.3079 41.3H106.677V33.5944H102.49C100.592 33.5944 99.0874 34.7445 98.6012 36.557L97.3079 41.3Z" fill="#6B7821"/>
<path fill-rule="evenodd" clip-rule="evenodd" d="M78.4821 37.1597C83.004 37.1597 86.4986 39.216 86.4986 43.867C86.4986 48.5179 83.004 50.5789 78.4821 50.5789H67.0031C66.251 50.5789 65.6777 49.9762 65.6777 49.2172V30.8112C65.6777 30.0245 66.2785 29.4219 67.0627 29.4219H83.6323C84.3845 29.4219 85.0173 30.0245 85.0173 30.8112V32.2005C85.0173 32.9549 84.4166 33.5898 83.6598 33.5898H71.2177V37.1551H78.4776L78.4821 37.1597ZM71.2223 41.3276V46.4064H78.4821C80.0781 46.4064 80.9541 45.5599 80.9541 43.867C80.9541 42.174 80.0781 41.3276 78.4821 41.3276H71.2223Z" fill="#6B7821"/>
<path fill-rule="evenodd" clip-rule="evenodd" d="M26.0812 21.1133H56.753C57.551 21.1593 58.2206 21.5365 58.5737 22.2726C58.9314 23.0178 58.7709 26.9649 58.7709 28.046V51.931C58.7709 53.0167 58.9314 56.9638 58.5783 57.7136C58.2344 58.4497 57.5648 58.8407 56.7714 58.8867L53.7904 58.8959C52.9924 58.8959 44.0541 58.9235 43.9899 58.8821H26.0812C25.0493 58.8867 22.8526 59.0937 22.0271 58.5509C20.8484 57.778 21.1053 56.2783 21.1053 55.0592V46.222C25.0906 46.176 31.6166 45.5549 35.5698 44.8833C37.9684 44.4784 42.6278 43.448 44.8475 42.3071C45.9069 41.7642 46.5169 41.2766 46.5169 39.9931C46.5169 38.7142 45.9115 38.2358 44.8567 37.6883C43.9624 37.2283 42.9443 36.8879 41.9812 36.6026C39.8578 35.9632 37.7574 35.4756 35.5698 35.1075L21.1053 33.7642V24.9546C21.1053 23.7355 20.8484 22.2358 22.0179 21.4537C22.8159 20.9201 25.0768 21.0903 26.0812 21.1133ZM23.0864 20C23.0222 20.0046 22.9626 20.0092 22.9076 20.0184C22.4948 20.0736 21.4767 20.4692 21.1236 20.7131C20.5778 21.0903 20.3119 21.6193 20.1651 22.2542C20.0825 22.6084 20.0321 22.9948 20 23.3997V26.4359C20.0046 26.6705 20.0092 26.8959 20.0092 27.1121C20.0459 34.8315 20 42.5601 20 50.2795C20 50.8821 20.0046 51.4848 20.0092 52.0828C20.0092 52.3956 20.0092 52.7223 20 53.0535V56.5543C20.0138 56.7246 20.0275 56.8902 20.0504 57.0512C20.2385 58.5187 20.7567 59.4572 22.2609 59.8252C22.6141 59.9126 22.9993 59.9678 23.3983 60H26.4297C26.659 59.9954 26.8792 59.9908 27.0901 59.9862C30.4059 59.9724 33.7308 60 37.0465 60H50.1766C50.7773 60 51.3827 59.9954 51.9835 59.9908C52.2953 59.9908 52.621 59.9908 52.9466 60H56.4458C56.6109 59.9862 56.776 59.9724 56.9365 59.9494C58.404 59.7608 59.3304 59.2363 59.7019 57.732C59.789 57.3732 59.8441 56.9868 59.8762 56.5773V23.4503C59.8624 23.28 59.8441 23.1144 59.8257 22.9488C59.6377 21.4813 59.1149 20.5474 57.6152 20.1748C57.2575 20.0874 56.8677 20.0322 56.4595 20H53.4373C53.2126 20.0046 52.997 20.0092 52.7861 20.0092C49.4703 20.023 46.1454 20 42.8296 20C37.872 20 32.9007 20.0138 27.9385 20H23.0864Z" fill="#727270"/>
</g>
<defs>
<clipPath id="clip0_6283_1589">
<rect width="260" height="40" fill="white" transform="translate(20 20)"/>
</clipPath>
</defs>
</svg>
