<svg width="32" height="32" viewBox="0 0 32 32" fill="none" xmlns="http://www.w3.org/2000/svg">
<path d="M27.658 2.09436H26.2444L25.8404 3.60509C25.5039 4.97848 24.1912 6.00852 22.8448 6.00852C22.1043 6.00852 21.3975 5.69951 20.9936 5.11582C20.556 4.53213 20.4214 3.74243 20.6233 2.98706L20.859 2.09436H16.315L15.9111 3.60509C15.5409 4.97848 14.2618 6.00852 12.8818 6.00852C12.1413 6.00852 11.4682 5.69951 11.0306 5.11582C10.593 4.53213 10.4584 3.74243 10.6603 2.98706L10.896 2.09436H9.41498C7.15984 2.09436 4.9047 3.87977 4.3325 6.1802L0.158818 21.8712C-0.17777 23.1072 0.0241829 24.3433 0.731017 25.236C1.40419 26.1287 2.44761 26.6437 3.62567 26.6437H5.67885V27.5708C5.67885 30.0085 7.63106 31.9999 10.0208 31.9999H27.658C30.0478 31.9999 32 30.0085 32 27.5708V6.52355C32 4.08578 30.0478 2.09436 27.658 2.09436ZM3.65933 23.9656C3.39006 23.9656 3.05347 23.8969 2.85152 23.6223C2.64957 23.3819 2.61591 23.0042 2.75054 22.5922L6.18373 9.47634H27.1195L23.8546 21.9055C23.5517 23.0386 22.3736 23.9999 21.2965 23.9999H3.65933V23.9656ZM29.3746 27.5708C29.3746 28.5321 28.6005 29.3218 27.658 29.3218H10.0545C9.11205 29.3218 8.3379 28.5321 8.3379 27.5708V26.6437H21.2965C23.5517 26.6437 25.8068 24.8583 26.379 22.5579L29.3746 11.1931V27.5708Z" fill="white"/>
<path d="M12.8812 4.77253C13.689 4.77253 14.4968 4.12017 14.6988 3.29614L15.17 1.47639C15.372 0.65236 14.9007 0 14.1266 0C13.3188 0 12.511 0.65236 12.309 1.47639L11.8378 3.29614C11.6358 4.08584 12.1071 4.77253 12.8812 4.77253Z" fill="white"/>
<path d="M22.8444 4.77253C23.6522 4.77253 24.46 4.12017 24.662 3.29614L25.1332 1.47639C25.3352 0.65236 24.864 0 24.0898 0C23.282 0 22.4742 0.65236 22.2722 1.47639L21.7673 3.29614C21.5654 4.08584 22.0366 4.77253 22.8444 4.77253Z" fill="white"/>
<path d="M16.0788 17.5451H12.9486C12.7466 17.5451 12.511 17.7168 12.4437 17.9228L11.8378 20.2576C11.7705 20.4636 11.9051 20.6352 12.1071 20.6352H15.2374C15.4393 20.6352 15.6749 20.4636 15.7422 20.2576L16.3481 17.9228C16.4154 17.7168 16.2808 17.5451 16.0788 17.5451Z" fill="white"/>
<path d="M10.5603 17.5451H7.43001C7.22806 17.5451 6.99244 17.7168 6.92513 17.9228L6.31927 20.2576C6.25195 20.4636 6.38659 20.6352 6.58854 20.6352H9.7188C9.92076 20.6352 10.1564 20.4636 10.2237 20.2576L10.8295 17.9228C10.8969 17.7168 10.7959 17.5451 10.5603 17.5451Z" fill="white"/>
<path d="M21.5993 17.5451H18.4691C18.2671 17.5451 18.0315 17.7168 17.9642 17.9228L17.3583 20.2576C17.291 20.4636 17.4256 20.6352 17.6276 20.6352H20.7579C20.9598 20.6352 21.1954 20.4636 21.2627 20.2576L21.8686 17.9228C21.9359 17.7168 21.8013 17.5451 21.5993 17.5451Z" fill="white"/>
<path d="M17.3591 12.6352H14.2288C14.0269 12.6352 13.7913 12.8069 13.724 13.0129L13.1181 15.3476C13.0508 15.5536 13.1854 15.7253 13.3874 15.7253H16.5176C16.7196 15.7253 16.9552 15.5536 17.0225 15.3476L17.6284 13.0129C17.6957 12.8069 17.5947 12.6352 17.3591 12.6352Z" fill="white"/>
<path d="M11.8728 12.6352H8.74251C8.54056 12.6352 8.30494 12.8069 8.23763 13.0129L7.63177 15.3476C7.56445 15.5536 7.69909 15.7253 7.90104 15.7253H11.0313C11.2333 15.7253 11.4689 15.5536 11.5362 15.3476L12.142 13.0129C12.2094 12.8069 12.0747 12.6352 11.8728 12.6352Z" fill="white"/>
<path d="M18.9401 15.7597H22.0704C22.2724 15.7597 22.508 15.588 22.5753 15.382L23.1811 13.0472C23.2485 12.8412 23.1138 12.6696 22.9119 12.6696H19.7816C19.5796 12.6696 19.344 12.8412 19.2767 13.0472L18.6709 15.382C18.6035 15.5537 18.7045 15.7597 18.9401 15.7597Z" fill="white"/>
</svg>
