<svg width="20" height="21" viewBox="0 0 20 21" fill="none" xmlns="http://www.w3.org/2000/svg">
<path d="M-7.76729e-07 17.7695C-7.76729e-07 19.362 1.38382 20.5224 2.92187 20.5225L17.0703 20.5225C18.6084 20.5225 19.9922 19.362 19.9922 17.7695L19.9922 4.79981C19.9919 3.2076 18.6082 2.04688 17.0703 2.04688L15.6699 2.04688L15.6699 0.900391C15.6697 0.403521 15.2665 6.45597e-07 14.7695 6.45597e-07C14.2727 8.56771e-05 13.8694 0.403573 13.8691 0.900391L13.8691 2.04688L6.11914 2.04688L6.11914 0.900391C6.11892 0.403522 5.71567 2.28119e-07 5.21875 2.28119e-07C4.72185 1.87656e-05 4.31858 0.403533 4.31836 0.900391L4.31836 2.04688L2.92187 2.04688C1.38399 2.04689 0.000289332 3.20761 -2.09804e-07 4.7998L-7.76729e-07 17.7695ZM1.80078 4.7998C1.80109 4.34582 2.22757 3.84767 2.92187 3.84766L4.31836 3.84766L4.31836 4.99316C4.31836 5.49021 4.72171 5.89354 5.21875 5.89355C5.71581 5.89355 6.11914 5.49022 6.11914 4.99316L6.11914 3.84766L13.8691 3.84766L13.8691 4.99316C13.8691 5.49017 14.2725 5.89347 14.7695 5.89356C15.2666 5.89356 15.6699 5.49022 15.6699 4.99316L15.6699 3.84766L17.0703 3.84766C17.7646 3.84766 18.1921 4.34581 18.1924 4.79981L18.1924 9.39063L1.80078 9.39063L1.80078 4.7998Z" fill="#F7F7F7"/>
</svg>
