<svg width="46" height="32" viewBox="0 0 46 32" fill="none" xmlns="http://www.w3.org/2000/svg">
<path fill-rule="evenodd" clip-rule="evenodd" d="M9.64706 29.0555C9.64706 29.5751 9.64706 30.0947 9.64706 30.6143C9.64706 31.3649 9 32 8.23529 32H2.11765C1.35294 32 0.764706 31.3649 0.764706 30.6143C0.764706 26.5728 0.764706 22.5313 0.823529 18.4899C0.882353 13.6401 2.94118 12.2544 3.35294 11.7925H0.882353C0.411765 11.7925 0 11.3884 0 10.9265V9.8295C0 9.36761 0.588235 8.90573 1.05882 8.84799L5.35294 8.27064L8.17647 3.07442C8.41176 2.72801 9.94118 1.11141 11.8235 0.822733C19.0588 -0.274244 26.8824 -0.274244 34.1765 0.822733C36 1.11141 37.5294 2.72801 37.7647 3.07442L40.6471 8.27064L44.9412 8.84799C45.4118 8.90573 46 9.36761 46 9.8295V10.9265C46 11.3884 45.5882 11.7925 45.1176 11.7925H42.5882C43.0588 12.2544 45.1176 13.6401 45.1765 18.4899C45.1765 22.5313 45.2353 26.5728 45.2353 30.6143C45.2353 31.3649 44.5882 32 43.8824 32H37.7059C36.9412 32 36.3529 31.3649 36.3529 30.6143C36.3529 30.0947 36.3529 29.5751 36.3529 29.0555C27.4118 29.5751 18.5294 29.5751 9.64706 29.0555ZM12.0588 3.30537C11.3529 3.47857 10.7059 3.76725 10.1176 4.63329C9.29412 6.19215 8.47059 7.80875 7.64706 9.36761H38.3529C37.5294 7.80875 36.7059 6.19215 35.8824 4.63329C35.2941 3.76725 34.6471 3.47857 33.9412 3.30537C26.6471 2.43933 19.3529 2.43933 12.0588 3.30537ZM42.3529 19.2404C39.5294 19.76 36.7647 20.1064 34.0588 20.6838C33.4118 21.0302 32.9412 21.6076 32.5294 22.3004C32.4118 22.5891 32.4118 23.051 32.4706 23.5129C35.1176 23.1087 37.7647 22.7046 40.3529 22.2427C41.2353 21.954 41.8824 21.3189 42.3529 20.4529C42.4706 19.8755 42.4706 19.4714 42.3529 19.2404ZM3.64706 19.2404C6.41176 19.76 9.17647 20.1064 11.8824 20.6838C12.5294 21.0302 13.0588 21.6076 13.4706 22.3004C13.5294 22.5891 13.5294 23.051 13.4706 23.5129C10.8235 23.1087 8.23529 22.7046 5.58824 22.2427C4.70588 21.954 4.05882 21.3189 3.58824 20.4529C3.52941 19.8755 3.52941 19.4714 3.64706 19.2404Z" fill="#010B13"/>
</svg>
