<svg xmlns="http://www.w3.org/2000/svg" width="24" height="24" viewBox="0 0 24 24" fill="none">
  <path d="M12 3.25C7.16754 3.25 3.25005 7.16755 3.25 12C3.25 16.8325 7.16751 20.75 12 20.75C16.8325 20.75 20.75 16.8325 20.75 12C20.75 7.16755 16.8325 3.25 12 3.25ZM12 4.75C16.004 4.75 19.25 7.99598 19.25 12C19.25 16.0041 16.0041 19.25 12 19.25C7.99594 19.25 4.75 16.0041 4.75 12C4.75005 7.99598 7.99597 4.75 12 4.75ZM12 6.4502C11.5858 6.4502 11.25 6.78602 11.25 7.2002V12C11.25 12.2841 11.411 12.5438 11.665 12.6709L14.8643 14.2705C15.2347 14.4557 15.6859 14.306 15.8711 13.9355C16.0563 13.5651 15.9056 13.1139 15.5352 12.9287L12.75 11.5361V7.2002C12.75 6.78602 12.4142 6.4502 12 6.4502Z" fill="#010B13"/>
</svg>