<svg width="32" height="32" viewBox="0 0 32 32" fill="none" xmlns="http://www.w3.org/2000/svg">
<g clip-path="url(#clip0_4894_19914)">
<path d="M28.4802 23.3605L28.4803 28.4799L20.1596 28.4801L20.1603 23.3602L28.4802 23.3605ZM20.1601 21.7603L20.1596 28.4801L11.8398 28.4799L11.8402 21.76L20.1601 21.7603ZM20.054 12.4632C20.0541 11.7133 20.6727 11.0935 21.4226 11.0935L22.4985 11.0937L23.2815 10.3112C23.8026 9.79003 24.6827 9.78992 25.2367 10.3111L25.9864 11.0939L27.0946 11.0934C27.8435 11.0934 28.464 11.7134 28.464 12.4633L28.4649 13.5724L29.2458 14.3214C29.7679 14.8764 29.7683 15.7552 29.2464 16.2775L28.4642 17.0595L28.4645 18.1362C28.4633 19.0807 27.7123 19.5043 26.8662 19.5044L26.8659 22.2188C26.8653 22.4461 26.5405 22.5762 26.3764 22.3807L24.2581 20.1317L22.1066 22.3798C21.9424 22.5746 21.6502 22.4448 21.6502 22.2181L21.651 19.5046C20.7697 19.5046 20.0532 19.0805 20.0532 18.1357L20.0534 17.0598L19.2706 16.2782C18.7495 15.756 18.7498 14.8767 19.2708 14.3216L20.0541 13.5728L20.054 12.4632ZM11.8399 24.6402L11.8398 28.4799L3.5199 28.4796L3.52 24.6399L11.8399 24.6402ZM24.2591 12.2681C22.596 12.2681 21.2266 13.6381 21.2266 15.2989C21.2266 16.9937 22.5636 18.3313 24.2595 18.3313C25.9213 18.3311 27.2897 16.9614 27.2897 15.2985C27.2895 13.6378 25.9208 12.2682 24.2591 12.2681ZM23.331 13.1254C23.4487 13.0379 23.5882 12.9668 23.7496 12.913C23.9143 12.8559 24.1143 12.8271 24.3495 12.8271C24.5848 12.8271 24.7884 12.8712 24.9599 12.9585C25.1348 13.0426 25.2699 13.159 25.3641 13.307C25.4615 13.4549 25.5098 13.6232 25.5099 13.8115C25.5098 13.9661 25.4862 14.1057 25.4392 14.23C25.3955 14.3543 25.3299 14.4751 25.2426 14.5927C25.1586 14.7104 25.0579 14.8369 24.9403 14.9714C24.826 15.1058 24.6983 15.2625 24.5572 15.4406L24.3896 15.6524L24.385 15.6776L25.5602 15.6779L25.5611 16.4803L23.0532 16.4803L23.0533 15.8398L23.8654 14.9515C24.0369 14.7631 24.1687 14.6116 24.2595 14.4973C24.3501 14.3797 24.4104 14.2805 24.4407 14.1998C24.4743 14.1191 24.4912 14.0348 24.4912 13.9474C24.4912 13.8399 24.4607 13.7628 24.4002 13.7157C24.3431 13.6687 24.2808 13.6443 24.2135 13.6443C24.1194 13.6443 24.0218 13.6771 23.9209 13.741C23.8201 13.8049 23.7001 13.9004 23.5623 14.0281L22.998 13.4022C23.1022 13.3048 23.2134 13.2128 23.331 13.1254ZM11.7338 5.10307C11.734 4.3532 12.3525 3.7333 13.1024 3.7333L14.1783 3.73348L14.9613 2.95101C15.4824 2.42988 16.3626 2.42982 16.9166 2.95091L17.6671 3.73321L18.7749 3.73409C19.5237 3.73417 20.1437 4.35331 20.1438 5.10317L20.1448 6.21222L20.9256 6.9612C21.4478 7.5162 21.4482 8.39502 20.9262 8.9173L20.1441 9.69928L20.1444 10.776C20.1432 11.7207 19.3922 12.1442 18.546 12.1442L18.5456 18.6983C18.5455 18.9259 18.2203 19.0562 18.0561 18.8602L15.9379 16.6112L13.7868 18.8601C13.6227 19.0549 13.3307 18.9249 13.3304 18.6985L13.3308 12.1444C12.4498 12.1443 11.7339 11.7207 11.7336 10.7764L11.7341 9.69918L10.9513 8.91751C10.4302 8.39532 10.4297 7.51651 10.9507 6.9614L11.7339 6.21261L11.7338 5.10307ZM3.41345 12.4632C3.41354 11.7134 4.03224 11.0936 4.78205 11.0934L5.85876 11.0931L6.64177 10.3107C7.16295 9.78982 8.04313 9.78953 8.59703 10.3106L9.34667 11.0933L10.4545 11.0942C11.2034 11.0942 11.8248 11.7137 11.8248 12.4637L11.8244 13.5724L12.6061 14.3208C13.1283 14.8759 13.1286 15.756 12.6063 16.2783L11.825 17.0598L11.8248 18.1356C11.8237 19.0805 11.0719 19.5044 10.2256 19.5044L10.2256 23.4985C10.2253 23.726 9.90025 23.8563 9.73609 23.6604L7.61783 21.4114L5.46678 23.6603C5.30255 23.8552 5.00989 23.7245 5.00989 23.4978L5.01124 19.5041C4.12997 19.5041 3.41412 19.0807 3.414 18.136L3.41369 17.0593L2.63087 16.2776C2.10983 15.7554 2.11 14.8761 2.63112 14.321L3.41355 13.5727L3.41345 12.4632ZM7.61903 12.269C5.956 12.269 4.58605 13.6381 4.58601 15.2988C4.58601 16.9936 5.92313 18.3311 7.61889 18.3312C9.28074 18.3312 10.6494 16.9621 10.6496 15.2993C10.6496 13.6384 9.28088 12.269 7.61903 12.269ZM6.76086 13.0091C6.87185 12.9519 7.00368 12.9077 7.15503 12.8774C7.30633 12.8438 7.48848 12.8276 7.70025 12.8276C8.04957 12.8277 8.32334 12.9014 8.52164 13.0491C8.72001 13.1971 8.81984 13.4007 8.81992 13.6595C8.81992 13.831 8.78273 13.9793 8.70876 14.1037C8.63815 14.2247 8.54545 14.3253 8.43115 14.4061C8.31679 14.4834 8.19218 14.543 8.05765 14.5834L8.05808 14.5978C8.3271 14.6314 8.53766 14.7192 8.68899 14.8605C8.84021 14.9984 8.91608 15.1956 8.91608 15.4511C8.91603 15.646 8.86514 15.8261 8.76428 15.9909C8.66345 16.1555 8.50728 16.2868 8.29569 16.3843C8.08385 16.4818 7.81086 16.5305 7.478 16.5305C7.24256 16.5305 7.04879 16.5137 6.89744 16.4801C6.74612 16.4431 6.59645 16.3939 6.44849 16.3333L6.44866 15.527C6.59637 15.6075 6.74596 15.6675 6.89703 15.7079C7.05175 15.7449 7.19058 15.7639 7.31166 15.7639C7.5166 15.7639 7.65268 15.7296 7.7199 15.6624C7.79039 15.5952 7.8256 15.5047 7.82565 15.3905C7.82565 15.3099 7.8087 15.2411 7.77519 15.184C7.74156 15.1234 7.67631 15.0773 7.57883 15.047C7.48467 15.0167 7.34494 15.0013 7.16001 15.0012L6.97843 15.0012L6.97833 14.2706L7.16511 14.2698C7.31638 14.2698 7.44072 14.255 7.53823 14.2247C7.63576 14.1911 7.70784 14.1455 7.75492 14.0883C7.80196 14.0312 7.82537 13.9659 7.82539 13.892C7.82539 13.7946 7.79193 13.7243 7.72476 13.6806C7.66086 13.6335 7.58859 13.6096 7.50787 13.6096C7.40703 13.6096 7.31127 13.6246 7.22051 13.6549C7.12989 13.6851 7.05283 13.7189 6.989 13.7558C6.92509 13.7895 6.88029 13.8177 6.85674 13.8412L6.45412 13.1907C6.55144 13.1236 6.6535 13.0628 6.76086 13.0091ZM15.9389 4.90798C14.276 4.90806 12.9065 6.27805 12.9064 7.93868C12.9064 9.63352 14.2434 10.9711 15.9393 10.9711C17.6012 10.971 18.9695 9.60126 18.9695 7.93833C18.9692 6.27767 17.6006 4.90798 15.9389 4.90798ZM16.6028 5.47978L16.6025 9.08276L15.5538 9.0827L15.5536 7.30114C15.5536 7.26742 15.5537 7.20663 15.5537 7.11957C15.5537 7.03234 15.5532 6.93507 15.5532 6.82777C15.5566 6.72014 15.5606 6.62376 15.5639 6.53968C15.5102 6.59 15.4715 6.63395 15.448 6.67089C15.4245 6.70782 15.3968 6.73947 15.3666 6.76634L14.9935 7.11031L14.4435 6.48968L15.6447 5.48041L16.6028 5.47978Z" fill="currentColor"/>
</g>
<defs>
<clipPath id="clip0_4894_19914">
<rect width="32" height="32" fill="white"/>
</clipPath>
</defs>
</svg>
