<svg width="32" height="32" viewBox="0 0 32 32" fill="none" xmlns="http://www.w3.org/2000/svg">
<g clip-path="url(#clip0_4894_19926)">
<path d="M24.5528 22.9856C25.8633 23 26.9198 24.0825 26.9198 25.4135C26.9198 26.7434 25.8637 27.8264 24.5532 27.8398L9.23041 27.839C9.29327 27.7855 9.35452 27.7294 9.41232 27.6697C10.0014 27.0708 10.3335 26.2593 10.3335 25.4137C10.3335 24.567 10.0018 23.7545 9.4127 23.1567L9.41136 23.1563C9.35346 23.0976 9.29262 23.0407 9.22964 22.9861L24.5528 22.9856ZM24.5534 4.16046C26.4927 4.16046 27.1997 5.25046 27.1997 6.8748C27.1996 10.0159 24.7776 15.0412 23.0632 18.5931C22.3042 20.1677 21.6799 21.4601 21.4479 22.223L7.18873 22.2226C7.088 22.2195 6.98897 22.2595 6.91571 22.3318C6.84372 22.4029 6.80266 22.5015 6.80258 22.6046C6.80258 22.7068 6.84348 22.8064 6.91572 22.8787C6.98897 22.9499 7.08791 22.9892 7.18862 22.9861C8.49993 23.0007 9.55496 24.0824 9.55514 25.4132C9.55514 26.7431 8.49997 27.826 7.18855 27.8395C5.4467 27.8395 4.80728 26.9108 4.80727 25.4435C4.80727 23.1801 6.18567 19.7043 7.56742 16.2203C8.49426 13.8859 9.42098 11.5471 9.95207 9.5245C9.95918 9.50388 9.96396 9.4829 9.96802 9.46229C10.2295 8.53916 10.3759 7.58578 10.4033 6.62642C10.4033 5.57249 10.1587 4.72374 9.57195 4.16103L24.5534 4.16046ZM8.06111 19.4231C7.98901 19.4943 7.94847 19.5936 7.94847 19.6967C7.94849 19.7988 7.98912 19.8977 8.06113 19.97C8.13435 20.0412 8.23232 20.0805 8.33402 20.0774L20.4292 20.0777C20.5307 20.0807 20.6279 20.0414 20.701 19.9704C20.7733 19.8981 20.8145 19.7985 20.8145 19.6963C20.8144 19.5933 20.7739 19.4942 20.7019 19.423C20.6286 19.3507 20.5302 19.3116 20.4285 19.3147L8.33462 19.3148C8.23288 19.3117 8.13438 19.3508 8.06111 19.4231ZM9.36288 16.6192C9.1544 16.6192 8.98608 16.791 8.98593 17.0015C8.98593 17.212 9.15402 17.3838 9.36241 17.384L21.4563 17.384C21.6638 17.384 21.8332 17.2123 21.8332 17.0017C21.8332 16.7911 21.6634 16.6196 21.4559 16.6196L9.36288 16.6192ZM10.3908 13.925C10.1832 13.925 10.0138 14.0966 10.0138 14.3072C10.014 14.5187 10.1832 14.6884 10.3907 14.6884L22.4837 14.6889C22.6923 14.6889 22.8606 14.5183 22.8606 14.3066C22.8605 14.0961 22.6923 13.9254 22.4838 13.9254L10.3908 13.925ZM11.1452 11.339C11.0729 11.4103 11.0317 11.5099 11.0317 11.6132C11.0317 11.7164 11.0735 11.8145 11.1457 11.8868C11.2188 11.9578 11.3162 11.9967 11.4177 11.9947L23.5129 11.995C23.7161 11.9886 23.8787 11.8196 23.879 11.6134C23.879 11.4058 23.716 11.2358 23.5125 11.2307L11.4178 11.2312C11.3162 11.2282 11.2184 11.2668 11.1452 11.339ZM12.173 8.64478C12.101 8.71695 12.06 8.81455 12.0599 8.91758C12.0599 9.02085 12.1008 9.11939 12.1731 9.19168C12.2463 9.26391 12.3439 9.30352 12.4456 9.30045L24.5403 9.29989C24.6419 9.30296 24.7398 9.26423 24.813 9.19208C24.8851 9.11991 24.9255 9.02155 24.9256 8.91844C24.9256 8.81517 24.8847 8.71663 24.8125 8.64434C24.7392 8.5722 24.6416 8.53351 24.5399 8.53557L12.4452 8.53613C12.3436 8.53418 12.2462 8.57261 12.173 8.64478ZM9.64644 6.85254C9.60472 7.58257 9.49089 8.30683 9.30673 9.01415L9.30721 9.01499L7.77942 9.01526C7.92384 8.64678 8.00028 8.25442 8.00441 7.85808C8.00441 7.51319 7.94029 7.17177 7.81412 6.85271L9.64644 6.85254ZM4.80226 6.4739C4.86135 5.18016 5.9129 4.16117 7.18873 4.16013C8.7676 4.16023 9.46849 4.89568 9.61906 6.09028L7.18994 6.08995C7.05056 6.08995 6.92165 6.16877 6.85653 6.29372C6.79167 6.41854 6.80059 6.56918 6.87875 6.68572C7.11785 7.02751 7.24861 7.43658 7.25268 7.85682C7.24247 8.25637 7.14443 8.64753 6.96538 9.00374C5.6947 8.88076 4.74223 7.76763 4.80226 6.4739Z" fill="currentColor"/>
</g>
<defs>
<clipPath id="clip0_4894_19926">
<rect width="32" height="32" fill="white"/>
</clipPath>
</defs>
</svg>
