<svg width="32" height="32" viewBox="0 0 32 32" fill="none" xmlns="http://www.w3.org/2000/svg">
<g clip-path="url(#clip0_4894_19713)">
<path d="M10.0709 25.0619C10.3682 24.912 10.6295 24.8768 10.7881 24.8744C10.7996 24.8739 10.8116 24.8732 10.8235 24.8732L14.2151 24.8726C14.2254 24.8726 14.2353 24.8739 14.2454 24.8743C14.4036 24.8764 14.6681 24.9101 14.968 25.0615C15.2798 25.217 15.6172 25.4978 15.9056 25.9354C16.0197 26.1097 16.1275 26.3075 16.2275 26.5321C16.5778 25.7384 17.0491 25.2797 17.4886 25.062C17.7862 24.9118 18.0481 24.8764 18.2066 24.8741C18.2181 24.8736 18.2295 24.8733 18.2412 24.8733L21.6328 24.8728C21.6433 24.8728 21.6536 24.8736 21.6639 24.874C21.8222 24.8761 22.086 24.9103 22.3857 25.0617C22.6975 25.2171 23.0349 25.4979 23.3232 25.9355C23.4373 26.1099 23.5452 26.3076 23.6452 26.5322C23.9955 25.7385 24.4667 25.2799 24.9063 25.0622C25.204 24.912 25.4657 24.8765 25.6243 24.8743C25.6358 24.8737 25.6472 24.8735 25.6588 24.8735L29.0504 24.8729C29.061 24.8729 29.0713 24.8738 29.0816 24.8741C29.2399 24.8763 29.5036 24.9105 29.8034 25.0618C30.1152 25.2173 30.4526 25.4981 30.7409 25.9357C31.2172 26.6636 31.5889 27.7908 31.706 29.6522L30.2985 29.6518C30.226 28.6054 30.0661 27.8672 29.8852 27.3657C29.8335 27.223 29.781 27.1003 29.729 26.9935L29.7293 29.6523L24.981 29.6525L24.9809 26.9902C24.744 27.475 24.5035 28.3057 24.41 29.6518L22.8808 29.6517C22.8083 28.6056 22.6489 27.8679 22.468 27.3664C22.4163 27.2237 22.3638 27.101 22.3118 26.9942L22.3116 29.6522L17.5633 29.6523L17.5632 26.9901C17.3262 27.4749 17.0863 28.306 16.9928 29.6525L15.4636 29.6524C15.3911 28.6059 15.2312 27.8678 15.0503 27.3662C14.9986 27.2234 14.9462 27.1007 14.8941 26.9941L14.894 29.652L10.1456 29.6522L10.1455 26.9899C9.90855 27.4748 9.66749 28.3059 9.57374 29.6519L8.16755 29.6519C8.24937 28.3545 8.45617 27.4141 8.73286 26.715C9.08908 25.8076 9.59861 25.2958 10.0709 25.0619ZM25.3799 22.3981C25.3799 21.3074 26.264 20.4224 27.3548 20.4223C28.4457 20.4223 29.3298 21.3069 29.3298 22.3978C29.3297 23.4886 28.4452 24.3727 27.3544 24.3727C26.2639 24.3724 25.3801 23.4886 25.3799 22.3981ZM17.9622 22.398C17.9622 21.3072 18.8463 20.4222 19.9371 20.4222C21.0279 20.4222 21.912 21.3068 21.9121 22.3976C21.9121 23.4884 21.028 24.3734 19.9372 24.3734C18.8465 24.3734 17.9624 23.4886 17.9622 22.398ZM18.0823 5.11975L20.1605 7.684L20.1602 10.2168L18.0826 12.7999L15.9265 12.7998L13.7603 10.2177L11.422 13.7068C11.6374 13.9358 11.6787 14.29 11.5012 14.5666L9.61438 17.5075C9.49385 17.6952 9.28954 17.8151 9.0671 17.8291C9.0526 17.8301 9.03828 17.8304 9.02386 17.8304C8.81703 17.8303 8.61848 17.7384 8.48505 17.5788L7.10349 15.9261L7.10333 18.4746L7.10334 20.1368L7.10344 29.5998C6.62853 29.5998 6.61691 29.5998 6.01752 29.5998C5.41883 29.5998 5.25708 29.6002 4.93294 29.6002L4.93282 20.8148L4.52595 20.8152L4.52558 29.5997C4.11421 29.5997 4.03941 29.6005 3.44015 29.6005C2.84118 29.6005 2.85698 29.6 2.35507 29.6L2.35497 20.137L2.35447 18.474L2.35523 15.571C2.05072 16.1941 1.74088 17.3881 1.74401 19.5143C1.74374 19.9982 1.75925 20.5303 1.79365 21.1139C1.81629 21.5012 1.52045 21.8343 1.13341 21.8571C1.11956 21.8579 1.10555 21.8574 1.09187 21.8574C0.722967 21.8573 0.413615 21.5701 0.391587 21.1972C0.355508 20.5885 0.339331 20.0288 0.339156 19.5146C0.340572 17.5256 0.582492 16.2081 0.9431 15.297C1.29905 14.39 1.80784 13.8778 2.27978 13.6435C2.58632 13.489 2.85588 13.4567 3.01275 13.456C3.01957 13.4558 3.0263 13.4543 3.03321 13.4543L6.4253 13.4546C6.50006 13.4546 6.5719 13.4667 6.63913 13.489C6.81405 13.5075 6.982 13.5916 7.10379 13.7372L8.94872 15.9444L10.3195 13.8088C10.4951 13.535 10.829 13.4249 11.1247 13.5199L13.5871 9.84744L13.7599 9.96307L13.7595 7.68319L15.9276 5.12001L18.0823 5.11975ZM28.5683 2.70002L28.5681 15.7796L12.4687 15.7795L12.4689 15.1118L27.9006 15.1118L27.9009 3.36617L6.06085 3.36627L6.06125 8.27126L5.39358 8.27109L5.393 2.69977L28.5683 2.70002ZM10.5445 22.3978C10.5445 21.307 11.4286 20.422 12.5194 20.422C13.6102 20.422 14.4943 21.3067 14.4944 22.3974C14.4944 23.4883 13.6103 24.3732 12.5195 24.3732C11.4287 24.3732 10.5446 23.4886 10.5445 22.3978ZM25.1225 5.12026L27.2001 7.68366L27.2004 10.2173L25.1223 12.7996L22.9667 12.8003L20.8004 10.2182L20.8005 7.68321L22.9672 5.11968L25.1225 5.12026ZM21.9448 7.70028L21.9425 7.7061L21.9424 9.67275L23.3325 11.1976L24.7702 11.1975L26.1509 9.67303L26.151 7.70638L25.1275 5.15233L22.9749 5.15247L21.9448 7.70028ZM25.0846 5.21878L26.0874 7.71938L26.0872 9.64666L24.7421 11.1314L23.3596 11.1313L22.006 9.64618L22.0063 7.7189L23.0178 5.21902L25.0846 5.21878ZM22.9746 7.69884L22.9727 7.70333L22.9731 8.87016L23.6743 9.858L24.4106 9.85799L25.1073 8.86938L25.1068 7.70255L24.4337 5.49761L23.651 5.49734L22.9746 7.69884ZM24.3865 5.56432L25.0432 7.71337L25.0435 8.84871L24.3782 9.79212L23.7062 9.7922L23.0366 8.84929L23.0368 7.7148L23.6974 5.56412L24.3865 5.56432ZM26.471 7.76855L26.5967 7.76932C26.6453 7.76932 26.6857 7.75233 26.7179 7.7196C26.7502 7.6862 26.7669 7.64469 26.7669 7.59547C26.7669 7.54645 26.7504 7.50526 26.7184 7.47238C26.6862 7.43942 26.6452 7.42193 26.5968 7.42192L26.4717 7.42199L26.471 7.76855ZM26.5928 7.4716C26.6275 7.4716 26.656 7.48352 26.6785 7.50671C26.7009 7.52993 26.7117 7.55982 26.7118 7.59571C26.7118 7.63174 26.7007 7.66104 26.6786 7.68477C26.6562 7.7085 26.6276 7.71967 26.5928 7.71967L26.5241 7.71986L26.525 7.4713L26.5928 7.4716ZM25.4739 7.4692C25.4407 7.50332 25.4238 7.54539 25.4237 7.59515C25.4237 7.64525 25.4412 7.68819 25.4747 7.72247C25.5081 7.75654 25.5499 7.77364 25.5989 7.77364C25.6343 7.77359 25.6657 7.76433 25.693 7.74524C25.7205 7.72599 25.7403 7.7018 25.753 7.67339L25.7041 7.65313C25.6949 7.67366 25.6806 7.69063 25.6621 7.70335C25.6435 7.71603 25.6222 7.72283 25.599 7.72289C25.565 7.72289 25.5361 7.71021 25.5131 7.6856C25.4904 7.66107 25.478 7.63124 25.478 7.59539C25.478 7.55936 25.4899 7.52864 25.5132 7.50403C25.5361 7.47956 25.5651 7.46694 25.5989 7.46694C25.6225 7.467 25.6436 7.47407 25.6622 7.48677C25.6807 7.49946 25.6941 7.51675 25.7037 7.53722L25.7533 7.51761C25.741 7.48905 25.7201 7.46491 25.6926 7.44557C25.6651 7.42648 25.6335 7.41668 25.5981 7.41668L25.5307 7.43079C25.51 7.43936 25.4906 7.45207 25.4739 7.4692ZM23.8516 7.7687L23.9059 7.76895L23.9354 7.68536L24.1048 7.68569L24.1339 7.76926L24.1898 7.76853L24.068 7.42277L23.9744 7.4227L23.8516 7.7687ZM24.0878 7.63683L23.9522 7.63623L24.0203 7.43788L24.0878 7.63683ZM14.9046 7.69977L14.9023 7.70559L14.9023 9.67224L16.2928 11.198L17.7292 11.1975L19.1108 9.67252L19.1108 7.70587L18.087 5.15316L15.9352 5.15281L14.9046 7.69977ZM18.045 5.21912L19.0473 7.71887L19.0471 9.64615L17.702 11.1309L16.3199 11.1316L14.9663 9.64652L14.9666 7.71924L15.9768 5.219L18.045 5.21912ZM22.3736 7.46847C22.3401 7.50274 22.3231 7.54565 22.3231 7.59575C22.3231 7.64579 22.34 7.68799 22.3735 7.72223C22.407 7.75644 22.4486 7.7734 22.4978 7.7734C22.5334 7.77338 22.5652 7.76383 22.5927 7.74451C22.6201 7.72527 22.6392 7.70149 22.6519 7.67315L22.603 7.65289C22.5933 7.67345 22.58 7.69123 22.5614 7.70395C22.5428 7.71667 22.5211 7.72262 22.4978 7.72265C22.464 7.72265 22.4354 7.71062 22.4125 7.6862C22.3892 7.66159 22.3768 7.63119 22.3768 7.59515C22.3768 7.55912 22.3887 7.52839 22.412 7.50379C22.4349 7.47934 22.4639 7.4667 22.4978 7.4667C22.5211 7.46672 22.5424 7.4738 22.5611 7.48653C22.5797 7.49926 22.5942 7.51671 22.6039 7.53733L22.6522 7.51737C22.6399 7.48891 22.6202 7.46499 22.5928 7.44569C22.5658 7.42646 22.5337 7.4169 22.4983 7.41679L22.4295 7.43055C22.409 7.43905 22.3902 7.45156 22.3736 7.46847ZM21.318 7.76896L21.4431 7.76889C21.4918 7.76889 21.5322 7.75195 21.5644 7.71917C21.5966 7.68577 21.6134 7.64426 21.6134 7.59504C21.6132 7.54606 21.597 7.50478 21.5648 7.47195C21.5327 7.43909 21.492 7.42239 21.4437 7.42234L21.3186 7.42241L21.318 7.76896ZM21.4397 7.47202C21.4745 7.47202 21.5029 7.48384 21.5254 7.50713C21.5478 7.5304 21.5587 7.56017 21.5587 7.59613C21.5587 7.63213 21.548 7.66147 21.5256 7.68519C21.5031 7.70884 21.4745 7.72008 21.4397 7.72009L21.3711 7.72027L21.3719 7.47171L21.4397 7.47202ZM15.9345 7.69833L15.933 7.70367L15.933 8.86965L16.6341 9.85749L17.3705 9.85748L18.0668 8.87021L18.0672 7.70289L17.3936 5.4971L16.6113 5.49768L15.9345 7.69833ZM17.3469 5.56466L18.0035 7.71371L18.0039 8.84905L17.3386 9.79245L16.6666 9.79254L15.9965 8.84878L15.9967 7.71429L16.6578 5.56445L17.3469 5.56466ZM11.0427 5.12008L13.1195 7.68398L13.1197 10.2176L11.0425 12.7994L8.88688 12.8002L6.71977 10.2185L6.71987 7.68352L8.88744 5.1195L11.0427 5.12008ZM19.4314 7.76888L19.5565 7.76881C19.6052 7.76881 19.6456 7.75196 19.6778 7.71909C19.71 7.68569 19.7259 7.64467 19.7259 7.59545C19.7259 7.5463 19.7105 7.50479 19.6783 7.47187C19.6461 7.43903 19.6053 7.42235 19.5572 7.42226L19.432 7.42233L19.4314 7.76888ZM19.5531 7.47194C19.5878 7.47198 19.6164 7.4838 19.6388 7.50705C19.6612 7.53031 19.6722 7.56012 19.6722 7.59605C19.6722 7.63207 19.661 7.66138 19.639 7.68511C19.6166 7.7088 19.5879 7.71997 19.5532 7.72001L19.4845 7.7202L19.4845 7.47212L19.5531 7.47194ZM18.4343 7.46953C18.401 7.50373 18.3841 7.54558 18.3841 7.59549C18.3841 7.64558 18.401 7.68769 18.4345 7.72196C18.468 7.75624 18.5096 7.77313 18.5588 7.77313C18.5942 7.7731 18.6254 7.76392 18.6529 7.74473C18.6805 7.7254 18.7002 7.70145 18.7129 7.67288L18.6645 7.65347C18.6552 7.67407 18.6402 7.69145 18.6216 7.70417C18.603 7.71676 18.5816 7.72371 18.5585 7.72371C18.5246 7.72367 18.4955 7.71099 18.4727 7.68642C18.4497 7.66181 18.4378 7.63092 18.4378 7.59489C18.4379 7.55898 18.4503 7.52891 18.4735 7.50436C18.4964 7.47995 18.5247 7.46782 18.5584 7.46777C18.5822 7.46777 18.6034 7.47351 18.6221 7.48626C18.6407 7.49901 18.6543 7.5169 18.6641 7.53755L18.7132 7.51711C18.7009 7.48862 18.6804 7.4652 18.6529 7.44591C18.6254 7.42663 18.594 7.41702 18.5584 7.41702L18.4905 7.43028C18.4698 7.43885 18.451 7.45238 18.4343 7.46953ZM16.812 7.76904L16.8658 7.76844L16.8945 7.68534L17.0646 7.68518L17.0937 7.76875L17.1502 7.76887L17.0279 7.42226L16.9342 7.42219L16.812 7.76904ZM17.0477 7.63632L16.9117 7.63705L16.9799 7.4387L17.0477 7.63632ZM7.86498 7.7001L7.8627 7.70593L7.86262 9.67258L9.2527 11.1975L10.6895 11.1978L12.0711 9.67286L12.0712 7.70621L11.0473 5.15349L8.89425 5.15278L7.86498 7.7001ZM11.0049 5.21861L12.0077 7.71921L12.0074 9.64649L10.6623 11.1312L9.27978 11.1311L7.92621 9.64601L7.92647 7.71873L8.93719 5.21934L11.0049 5.21861ZM15.3331 7.46929C15.2999 7.50344 15.283 7.54543 15.2829 7.59525C15.2829 7.64523 15.3 7.68748 15.3334 7.72172C15.3669 7.756 15.4089 7.77374 15.4581 7.77374C15.4935 7.77365 15.5244 7.76361 15.5518 7.74449C15.5793 7.72515 15.599 7.7012 15.6118 7.67264L15.5634 7.65323C15.5536 7.67388 15.5391 7.69119 15.5205 7.70393C15.502 7.71642 15.4811 7.72289 15.4582 7.72298C15.4242 7.72298 15.3944 7.71079 15.3715 7.68618C15.3484 7.66168 15.3373 7.63129 15.3372 7.59549C15.3372 7.55945 15.3491 7.52873 15.3724 7.50412C15.3952 7.47978 15.4236 7.46762 15.4573 7.46753C15.4806 7.46753 15.5028 7.47412 15.5214 7.48686C15.5398 7.49957 15.5533 7.51684 15.563 7.53731L15.612 7.51686C15.5997 7.4885 15.5792 7.4649 15.5518 7.44567C15.5247 7.42651 15.4928 7.41677 15.4573 7.41677L15.3899 7.43088C15.3691 7.43945 15.3499 7.45213 15.3331 7.46929ZM14.2783 7.7693L14.4035 7.76923C14.4521 7.76923 14.4925 7.7523 14.5247 7.71951C14.5569 7.68616 14.5728 7.64498 14.5729 7.59586C14.5729 7.54677 14.5573 7.5052 14.5252 7.47228C14.4931 7.43945 14.4522 7.42281 14.4041 7.42267L14.2785 7.4219L14.2783 7.7693ZM14.3996 7.47151C14.4343 7.47151 14.4628 7.48345 14.4853 7.50662C14.5077 7.52991 14.5191 7.56043 14.5191 7.59647C14.519 7.63226 14.5078 7.66105 14.4854 7.68468C14.463 7.70841 14.4344 7.71958 14.3996 7.71958L14.3309 7.71977L14.3309 7.47169L14.3996 7.47151ZM2.75425 10.9789C2.75439 9.88821 3.63892 9.00397 4.72967 9.00397C5.82034 9.00417 6.70463 9.88867 6.70463 10.9794C6.70452 12.0701 5.81998 12.9543 4.72921 12.9543C3.63841 12.9543 2.75425 12.0697 2.75425 10.9789ZM8.89481 7.69867L8.89289 7.70316L8.89252 8.87048L9.59449 9.85782L10.3308 9.85782L11.0267 8.8697L11.0271 7.70238L10.3531 5.49793L9.5712 5.49717L8.89481 7.69867ZM10.3068 5.56415L10.9639 7.71404L10.9629 8.84903L10.2984 9.79195L9.62642 9.79203L8.95686 8.84912L8.95702 7.71462L9.61765 5.56395L10.3068 5.56415ZM12.3917 7.76922L12.5169 7.76915C12.5655 7.76913 12.606 7.75227 12.6381 7.71943C12.6703 7.68607 12.6862 7.64492 12.6863 7.59578C12.6863 7.54672 12.6707 7.50511 12.6386 7.4722C12.6064 7.43924 12.5645 7.42224 12.5162 7.42224L12.3911 7.42231L12.3917 7.76922ZM12.513 7.47143C12.5477 7.47144 12.5762 7.48334 12.5987 7.50654C12.6212 7.52983 12.6325 7.56035 12.6325 7.59639C12.6324 7.63215 12.6207 7.66098 12.5989 7.6846C12.5764 7.70832 12.5478 7.71949 12.513 7.7195L12.4443 7.71969L12.4443 7.47161L12.513 7.47143ZM11.3941 7.46902C11.3607 7.50329 11.3444 7.54577 11.3444 7.59582C11.3445 7.64583 11.3614 7.68807 11.3949 7.7223C11.4283 7.75628 11.4694 7.77389 11.5183 7.77396C11.5539 7.77396 11.5857 7.76432 11.6133 7.74507C11.6408 7.72576 11.6605 7.70172 11.6733 7.67321L11.6244 7.65296C11.615 7.67362 11.6001 7.69092 11.5815 7.70366C11.5629 7.71631 11.5416 7.7232 11.5183 7.7232C11.4845 7.72313 11.4554 7.71046 11.4325 7.68592C11.4098 7.66138 11.3982 7.63108 11.3982 7.59522C11.3982 7.55931 11.4094 7.52891 11.4326 7.50434C11.4554 7.47981 11.4845 7.46734 11.5183 7.46726C11.542 7.46726 11.5629 7.47434 11.5816 7.48708C11.6002 7.49979 11.6142 7.5165 11.624 7.53704L11.6735 7.51744C11.6613 7.48897 11.6407 7.46555 11.6133 7.44624C11.5857 7.42691 11.5539 7.41651 11.5183 7.41651L11.4509 7.43061C11.4301 7.43918 11.4109 7.45183 11.3941 7.46902ZM9.77185 7.76853L9.82612 7.76877L9.85482 7.68567L9.85433 7.68483L10.025 7.68552L10.0541 7.76909L10.11 7.76836L9.98822 7.42259L9.89459 7.42252L9.77185 7.76853ZM10.0081 7.63666L9.87156 7.63654L9.93972 7.43819L10.0081 7.63666ZM8.29299 7.46878C8.25952 7.50304 8.24329 7.54552 8.24328 7.59558C8.24328 7.64568 8.26024 7.68778 8.29375 7.72206C8.32724 7.75625 8.36887 7.77323 8.41801 7.77323C8.45341 7.77316 8.48469 7.764 8.51213 7.74483C8.5397 7.72549 8.5594 7.70154 8.57213 7.67297L8.52322 7.65272C8.51347 7.67338 8.49948 7.69152 8.48081 7.70427C8.46222 7.71688 8.44039 7.72296 8.41718 7.72296C8.38353 7.72284 8.35464 7.71091 8.33187 7.68652C8.30854 7.66191 8.29706 7.63102 8.29706 7.59498C8.2971 7.55913 8.30828 7.52863 8.33142 7.5041C8.35421 7.47962 8.38343 7.46714 8.41713 7.46702C8.44039 7.46702 8.46183 7.47418 8.48045 7.48684C8.49912 7.49959 8.51356 7.51699 8.52332 7.53765L8.5724 7.5172C8.5601 7.48866 8.53968 7.46533 8.51213 7.446C8.48498 7.42666 8.45327 7.41711 8.41764 7.41711L8.34975 7.43037C8.32896 7.43894 8.30977 7.45161 8.29299 7.46878ZM7.2382 7.76879L7.36332 7.76872C7.41207 7.76872 7.45237 7.75191 7.4846 7.719C7.51683 7.6856 7.53274 7.64458 7.53274 7.59535C7.53268 7.54624 7.51725 7.50468 7.48507 7.47177C7.45284 7.43885 7.41145 7.42265 7.36312 7.42265L7.23799 7.42273L7.2382 7.76879ZM7.35994 7.47185C7.39462 7.4719 7.42319 7.48372 7.44562 7.50695C7.46797 7.5302 7.47894 7.56005 7.47896 7.59596C7.47896 7.63194 7.46822 7.6613 7.4458 7.68501C7.42338 7.70869 7.39463 7.71986 7.35996 7.71992L7.29128 7.7201L7.29126 7.47203L7.35994 7.47185Z" fill="currentColor"/>
</g>
<defs>
<clipPath id="clip0_4894_19713">
<rect width="32" height="32" fill="white"/>
</clipPath>
</defs>
</svg>
