<svg width="916" height="460" viewBox="0 0 916 460" fill="none" xmlns="http://www.w3.org/2000/svg">
<g clip-path="url(#clip0_4677_18529)">
<path d="M19.8912 81.2498H17.7676V73.4901H19.8912C20.9728 73.4901 21.8565 73.861 22.5556 74.5889C23.2547 75.3168 23.5976 76.2507 23.5976 77.3768C23.5976 78.503 23.2547 79.4095 22.5556 80.1511C21.8565 80.8927 20.9728 81.2498 19.8912 81.2498Z" fill="#010B13"/>
<path d="M102.223 78.6403H98.002L100.126 72.4464L102.223 78.6403Z" fill="#010B13"/>
<path d="M97.4612 80.1648H102.764L103.661 82.7743H105.415L101.616 71.9519H98.701L94.9023 82.7743H96.5774L97.4744 80.1648H97.4612ZM111.258 146.005H90.3649L69.5508 116.532V81.0713L90.1011 13.885H111.522L131.94 81.0575V116.532L111.258 146.005Z" fill="#010B13"/>
<path d="M52.7879 71.8009C51.2578 71.8009 49.9652 72.3365 48.9232 73.4077C47.8811 74.479 47.3535 75.7974 47.3535 77.3631C47.3535 78.9288 47.8811 80.2472 48.9232 81.3185C49.9652 82.3897 51.2578 82.9253 52.7879 82.9253C53.8959 82.9253 54.8719 82.6232 55.7293 82.0189C56.5866 81.4146 57.1934 80.673 57.5891 79.7803L56.0722 79.1622C55.7689 79.8077 55.3336 80.3434 54.7532 80.7416C54.1728 81.1399 53.5133 81.3459 52.7879 81.3459C51.7327 81.3459 50.8357 80.9614 50.1235 80.1923C49.398 79.4232 49.0419 78.4755 49.0419 77.3494C49.0419 76.2232 49.398 75.2756 50.1235 74.5064C50.8357 73.7374 51.7327 73.3528 52.7879 73.3528C53.5133 73.3528 54.1728 73.5588 54.7532 73.9571C55.3336 74.3554 55.7689 74.891 56.0722 75.5365L57.5891 74.9185C57.2066 74.0258 56.5866 73.2841 55.7293 72.6798C54.8851 72.0755 53.8959 71.7734 52.7879 71.7734M149.208 71.8009C147.678 71.8009 146.385 72.3365 145.343 73.4077C144.301 74.479 143.774 75.7974 143.774 77.3631C143.774 78.9288 144.301 80.2472 145.343 81.3185C146.385 82.3897 147.678 82.9253 149.208 82.9253C150.316 82.9253 151.292 82.6232 152.149 82.0189C153.007 81.4146 153.614 80.673 154.009 79.7803L152.492 79.1622C152.202 79.8077 151.754 80.3434 151.173 80.7416C150.593 81.1399 149.933 81.3459 149.208 81.3459C148.153 81.3459 147.256 80.9614 146.544 80.1923C145.831 79.4232 145.462 78.4755 145.462 77.3494C145.462 76.2232 145.818 75.2756 146.544 74.5064C147.256 73.7374 148.153 73.3528 149.208 73.3528C149.947 73.3528 150.593 73.5588 151.173 73.9571C151.754 74.3554 152.189 74.891 152.492 75.5365L154.009 74.9185C153.627 74.0258 153.007 73.2841 152.149 72.6798C151.292 72.0755 150.316 71.7734 149.208 71.7734M88.6519 11.8112L67.6136 80.5768L67.5609 80.7279V117.191L89.3642 148.052H112.262L133.921 117.178V80.7142L112.975 11.7974H88.6519M122.577 187.852H79.6035L37.5137 141.446V81.2223L68.9458 3.09013H133.235L164.403 81.2223V141.446L122.577 187.852Z" fill="#010B13"/>
<path d="M16.1184 71.9519V82.7742H20.0095C21.5263 82.7742 22.7794 82.2524 23.7819 81.2223C24.7843 80.1785 25.2855 78.9013 25.2855 77.3631C25.2855 75.8249 24.7843 74.5339 23.7819 73.5039C22.7794 72.4738 21.5132 71.9519 20.0095 71.9519H16.1184ZM176.352 71.9519V82.7742H180.244C181.76 82.7742 183.014 82.2524 184.016 81.2223C185.018 80.1785 185.52 78.9013 185.52 77.3631C185.52 75.8249 185.018 74.5339 184.016 73.5039C183.014 72.4738 181.747 71.9519 180.244 71.9519H176.352ZM67.626 1.03004L35.6003 80.618L35.5211 80.8103V142.27L78.7453 189.926H123.434L166.381 142.27V80.824L134.553 1.03004H67.626ZM134.408 240H67.3754L0 159.313V80.0961L67.3885 0H134.408L199 80.1236V159.286L134.408 239.986" fill="#010B13"/>
<path d="M180.126 81.2498H178.002V73.4901H180.126C181.207 73.4901 182.091 73.861 182.79 74.5889C183.489 75.3168 183.832 76.2507 183.832 77.3768C183.832 78.503 183.476 79.4095 182.79 80.1511C182.091 80.8927 181.207 81.2498 180.126 81.2498Z" fill="#010B13"/>
</g>
<path d="M96 240H104V429L115 459H85L96 429V240Z" fill="#010B13"/>
<g clip-path="url(#clip1_4677_18529)">
<g clip-path="url(#clip2_4677_18529)">
<path d="M497.891 81.2498H495.768V73.4901H497.891C498.973 73.4901 499.857 73.861 500.556 74.5889C501.255 75.3168 501.598 76.2507 501.598 77.3768C501.598 78.503 501.255 79.4095 500.556 80.1511C499.857 80.8927 498.973 81.2498 497.891 81.2498Z" fill="#010B13"/>
<path d="M580.223 78.6403H576.002L578.126 72.4464L580.223 78.6403Z" fill="#010B13"/>
<path d="M575.461 80.1648H580.764L581.661 82.7743H583.415L579.616 71.9519H576.701L572.902 82.7743H574.577L575.474 80.1648H575.461ZM589.258 146.005H568.365L547.551 116.532V81.0713L568.101 13.885H589.522L609.94 81.0575V116.532L589.258 146.005Z" fill="#010B13"/>
<path d="M530.788 71.8009C529.258 71.8009 527.965 72.3365 526.923 73.4077C525.881 74.479 525.354 75.7974 525.354 77.3631C525.354 78.9288 525.881 80.2472 526.923 81.3185C527.965 82.3897 529.258 82.9253 530.788 82.9253C531.896 82.9253 532.872 82.6232 533.729 82.0189C534.587 81.4146 535.193 80.673 535.589 79.7803L534.072 79.1622C533.769 79.8077 533.334 80.3434 532.753 80.7416C532.173 81.1399 531.513 81.3459 530.788 81.3459C529.733 81.3459 528.836 80.9614 528.123 80.1923C527.398 79.4232 527.042 78.4755 527.042 77.3494C527.042 76.2232 527.398 75.2756 528.123 74.5064C528.836 73.7374 529.733 73.3528 530.788 73.3528C531.513 73.3528 532.173 73.5588 532.753 73.9571C533.334 74.3554 533.769 74.891 534.072 75.5365L535.589 74.9185C535.207 74.0258 534.587 73.2841 533.729 72.6798C532.885 72.0755 531.896 71.7734 530.788 71.7734M627.208 71.8009C625.678 71.8009 624.385 72.3365 623.343 73.4077C622.301 74.479 621.774 75.7974 621.774 77.3631C621.774 78.9288 622.301 80.2472 623.343 81.3185C624.385 82.3897 625.678 82.9253 627.208 82.9253C628.316 82.9253 629.292 82.6232 630.149 82.0189C631.007 81.4146 631.614 80.673 632.009 79.7803L630.492 79.1622C630.202 79.8077 629.754 80.3434 629.173 80.7416C628.593 81.1399 627.933 81.3459 627.208 81.3459C626.153 81.3459 625.256 80.9614 624.544 80.1923C623.831 79.4232 623.462 78.4755 623.462 77.3494C623.462 76.2232 623.818 75.2756 624.544 74.5064C625.256 73.7374 626.153 73.3528 627.208 73.3528C627.947 73.3528 628.593 73.5588 629.173 73.9571C629.754 74.3554 630.189 74.891 630.492 75.5365L632.009 74.9185C631.627 74.0258 631.007 73.2841 630.149 72.6798C629.292 72.0755 628.316 71.7734 627.208 71.7734M566.652 11.8112L545.614 80.5768L545.561 80.7279V117.191L567.364 148.052H590.262L611.921 117.178V80.7142L590.975 11.7974H566.652M600.577 187.852H557.603L515.514 141.446V81.2223L546.946 3.09013H611.235L642.403 81.2223V141.446L600.577 187.852Z" fill="#010B13"/>
<path d="M494.118 71.9519V82.7742H498.009C499.526 82.7742 500.779 82.2524 501.782 81.2223C502.784 80.1785 503.286 78.9013 503.286 77.3631C503.286 75.8249 502.784 74.5339 501.782 73.5039C500.779 72.4738 499.513 71.9519 498.009 71.9519H494.118ZM654.352 71.9519V82.7742H658.244C659.76 82.7742 661.014 82.2524 662.016 81.2223C663.018 80.1785 663.52 78.9013 663.52 77.3631C663.52 75.8249 663.018 74.5339 662.016 73.5039C661.014 72.4738 659.747 71.9519 658.244 71.9519H654.352ZM545.626 1.03004L513.6 80.618L513.521 80.8103V142.27L556.745 189.926H601.434L644.381 142.27V80.824L612.553 1.03004H545.626ZM612.408 240H545.375L478 159.313V80.0961L545.389 0H612.408L677 80.1236V159.286L612.408 239.986" fill="#010B13"/>
<path d="M658.126 81.2498H656.002V73.4901H658.126C659.207 73.4901 660.091 73.861 660.79 74.5889C661.489 75.3168 661.832 76.2507 661.832 77.3768C661.832 78.503 661.476 79.4095 660.79 80.1511C660.091 80.8927 659.207 81.2498 658.126 81.2498Z" fill="#010B13"/>
</g>
<path d="M574 240H582V429L592 459H564L574 429V240Z" fill="#010B13"/>
</g>
<g clip-path="url(#clip3_4677_18529)">
<path d="M388.25 34.3305C435.84 61.8066 452.145 122.66 424.669 170.25C397.193 217.84 336.34 234.146 288.75 206.67C241.16 179.193 224.854 118.34 252.33 70.75C279.806 23.1599 340.66 6.85445 388.25 34.3305ZM273.983 90.0181L268.983 98.6783L325.607 131.37L313.929 151.597C305.487 166.218 310.497 184.916 325.119 193.358C339.741 201.8 358.438 196.79 366.88 182.168L378.558 161.942L387.573 167.147L392.573 158.486L273.983 90.0181ZM347.752 144.156L337.214 162.409L345.874 167.409L356.412 149.156L369.897 156.942L358.22 177.168C352.539 187.007 339.958 190.378 330.119 184.698C320.28 179.017 316.909 166.436 322.589 156.597L334.267 136.37L347.752 144.156ZM324.866 64.6739L320.137 47.0236L315.307 48.3171L310.478 49.611L315.207 67.2613L297.557 71.9915L300.145 81.6511L317.796 76.9209L322.525 94.572L332.184 91.9837L327.454 74.3321L345.105 69.6032L343.812 64.7741L342.517 59.9445L324.866 64.6739ZM385.163 99.4859L380.433 81.8356L375.604 83.1296L370.774 84.423L375.504 102.073L357.853 106.804L359.148 111.633L360.441 116.463L378.092 111.733L382.822 129.384L387.651 128.09L392.481 126.796L387.751 109.145L405.403 104.416L404.108 99.5861L402.814 94.757L385.163 99.4859Z" fill="#A89968"/>
</g>
<path d="M335 220H343V429L353 459H325L335 429V220Z" fill="#A89968"/>
<g clip-path="url(#clip4_4677_18529)">
<path d="M736.891 81.2498H734.768V73.4901H736.891C737.973 73.4901 738.857 73.861 739.556 74.5889C740.255 75.3168 740.598 76.2507 740.598 77.3768C740.598 78.503 740.255 79.4095 739.556 80.1511C738.857 80.8927 737.973 81.2498 736.891 81.2498Z" fill="#010B13"/>
<path d="M819.223 78.6403H815.002L817.126 72.4464L819.223 78.6403Z" fill="#010B13"/>
<path d="M814.461 80.1648H819.764L820.661 82.7743H822.415L818.616 71.9519H815.701L811.902 82.7743H813.577L814.474 80.1648H814.461ZM828.258 146.005H807.365L786.551 116.532V81.0713L807.101 13.885H828.522L848.94 81.0575V116.532L828.258 146.005Z" fill="#010B13"/>
<path d="M769.788 71.8009C768.258 71.8009 766.965 72.3365 765.923 73.4077C764.881 74.479 764.354 75.7974 764.354 77.3631C764.354 78.9288 764.881 80.2472 765.923 81.3185C766.965 82.3897 768.258 82.9253 769.788 82.9253C770.896 82.9253 771.872 82.6232 772.729 82.0189C773.587 81.4146 774.193 80.673 774.589 79.7803L773.072 79.1622C772.769 79.8077 772.334 80.3434 771.753 80.7416C771.173 81.1399 770.513 81.3459 769.788 81.3459C768.733 81.3459 767.836 80.9614 767.123 80.1923C766.398 79.4232 766.042 78.4755 766.042 77.3494C766.042 76.2232 766.398 75.2756 767.123 74.5064C767.836 73.7374 768.733 73.3528 769.788 73.3528C770.513 73.3528 771.173 73.5588 771.753 73.9571C772.334 74.3554 772.769 74.891 773.072 75.5365L774.589 74.9185C774.207 74.0258 773.587 73.2841 772.729 72.6798C771.885 72.0755 770.896 71.7734 769.788 71.7734M866.208 71.8009C864.678 71.8009 863.385 72.3365 862.343 73.4077C861.301 74.479 860.774 75.7974 860.774 77.3631C860.774 78.9288 861.301 80.2472 862.343 81.3185C863.385 82.3897 864.678 82.9253 866.208 82.9253C867.316 82.9253 868.292 82.6232 869.149 82.0189C870.007 81.4146 870.614 80.673 871.009 79.7803L869.492 79.1622C869.202 79.8077 868.754 80.3434 868.173 80.7416C867.593 81.1399 866.933 81.3459 866.208 81.3459C865.153 81.3459 864.256 80.9614 863.544 80.1923C862.831 79.4232 862.462 78.4755 862.462 77.3494C862.462 76.2232 862.818 75.2756 863.544 74.5064C864.256 73.7374 865.153 73.3528 866.208 73.3528C866.947 73.3528 867.593 73.5588 868.173 73.9571C868.754 74.3554 869.189 74.891 869.492 75.5365L871.009 74.9185C870.627 74.0258 870.007 73.2841 869.149 72.6798C868.292 72.0755 867.316 71.7734 866.208 71.7734M805.652 11.8112L784.614 80.5768L784.561 80.7279V117.191L806.364 148.052H829.262L850.921 117.178V80.7142L829.975 11.7974H805.652M839.577 187.852H796.603L754.514 141.446V81.2223L785.946 3.09013H850.235L881.403 81.2223V141.446L839.577 187.852Z" fill="#010B13"/>
<path d="M733.118 71.9519V82.7742H737.009C738.526 82.7742 739.779 82.2524 740.782 81.2223C741.784 80.1785 742.286 78.9013 742.286 77.3631C742.286 75.8249 741.784 74.5339 740.782 73.5039C739.779 72.4738 738.513 71.9519 737.009 71.9519H733.118ZM893.352 71.9519V82.7742H897.244C898.76 82.7742 900.014 82.2524 901.016 81.2223C902.018 80.1785 902.52 78.9013 902.52 77.3631C902.52 75.8249 902.018 74.5339 901.016 73.5039C900.014 72.4738 898.747 71.9519 897.244 71.9519H893.352ZM784.626 1.03004L752.6 80.618L752.521 80.8103V142.27L795.745 189.926H840.434L883.381 142.27V80.824L851.553 1.03004H784.626ZM851.408 240H784.375L717 159.313V80.0961L784.389 0H851.408L916 80.1236V159.286L851.408 239.986" fill="#010B13"/>
<path d="M897.126 81.2498H895.002V73.4901H897.126C898.207 73.4901 899.091 73.861 899.79 74.5889C900.489 75.3168 900.832 76.2507 900.832 77.3768C900.832 78.503 900.476 79.4095 899.79 80.1511C899.091 80.8927 898.207 81.2498 897.126 81.2498Z" fill="#010B13"/>
</g>
<path d="M813 240H821V429L831 459H803L813 429V240Z" fill="#010B13"/>
<path d="M916.001 451.794L897.501 439V447.033L18.5 447.067V439.134L0 451.928V459.134H13.5H902.423H916.001V451.794Z" fill="#010B13"/>
<defs>
<clipPath id="clip0_4677_18529">
<rect width="199" height="240" fill="white"/>
</clipPath>
<clipPath id="clip1_4677_18529">
<rect width="199" height="459" fill="white" transform="translate(478)"/>
</clipPath>
<clipPath id="clip2_4677_18529">
<rect width="199" height="240" fill="white" transform="translate(478)"/>
</clipPath>
<clipPath id="clip3_4677_18529">
<rect width="199" height="240" fill="white" transform="translate(239)"/>
</clipPath>
<clipPath id="clip4_4677_18529">
<rect width="199" height="240" fill="white" transform="translate(717)"/>
</clipPath>
</defs>
</svg>
