<svg width="300" height="80" viewBox="0 0 300 80" fill="none" xmlns="http://www.w3.org/2000/svg">
<g clip-path="url(#clip0_6283_1653)">
<path fill-rule="evenodd" clip-rule="evenodd" d="M97.0566 61.3889H107.425L113.694 45.9474C114.384 44.1664 115.124 42.5096 115.765 40.7699H128.702C128.902 40.4966 131.762 32.9912 131.712 32.7096H118.874C119.024 32.1545 119.315 31.4421 119.514 30.9699L121.344 26.2315C121.41 26.0216 121.51 25.8891 121.643 25.8338H207.683C207.882 25.751 210.501 19.7534 210.792 19.1238L211.782 16.8291H115.033C114.734 17.6989 114.243 18.7261 113.894 19.5545C112.065 24.177 110.194 28.9155 108.265 33.4551C105.995 38.9474 103.816 44.6717 101.497 50.164C100.757 51.9782 100.017 53.9912 99.2766 55.7309C98.9274 56.4847 97.1065 60.9084 97.0566 61.3806" fill="#25408E"/>
<path fill-rule="evenodd" clip-rule="evenodd" d="M110.692 72.1255C110.942 71.6947 113.162 65.6059 113.012 65.49C112.862 65.374 112.663 65.4071 112.372 65.4071C112.122 65.4071 111.881 65.4071 111.632 65.3657H110.002L100.665 65.2829C96.466 65.2829 93.8968 63.9409 91.7267 61.5716C89.3071 58.8048 87.877 53.6355 89.5565 49.4852C89.9058 48.7314 90.1469 47.9858 90.4462 47.1906C91.0864 45.7326 91.7267 44.0675 92.2255 42.6509C92.766 41.1929 93.4644 39.5693 94.0049 38.1527L96.6739 31.4012C97.0231 30.6474 97.3141 29.9432 97.6134 29.148C98.6028 26.5799 100.033 22.5953 101.413 20.342C102.303 18.8012 103.143 17.89 104.232 16.8296C106.402 14.6592 109.761 13.3917 112.921 12.8781C116.72 12.29 121.019 12.4805 125.068 12.4805H207.2C209.179 12.4805 211.599 12.5965 213.519 12.4805C213.918 11.2959 214.359 10.1113 214.8 9.04263C215.049 8.41304 215.989 6.15978 216.039 5.56333C206.56 5.44736 196.973 5.56333 187.445 5.56333H129.999C124.47 5.56333 114.642 5.13257 109.503 6.59055C108.223 6.94677 106.784 7.3444 105.504 7.93257C103.184 8.95978 101.995 9.71363 100.025 11.3704C99.3844 11.9255 98.7858 12.4805 98.1954 13.1515C97.946 13.4663 97.7049 13.748 97.3557 14.0627C96.2664 15.3302 94.6867 18.2462 94.0464 19.7539L92.0177 24.9645C89.5482 31.6746 86.6797 38.7491 84.0689 45.6166C83.5284 47.0414 82.539 49.4852 82.3394 50.9515C82.1898 52.0201 81.9902 53.0059 81.9902 54.1906C81.9902 59.3267 84.4098 64.4627 88.168 67.6935C90.4878 69.6651 93.5974 71.2888 96.6157 71.8438C99.3844 72.316 107.333 72.1172 110.692 72.1172" fill="#25408E"/>
<path fill-rule="evenodd" clip-rule="evenodd" d="M172.528 43.2138C172.827 42.9736 173.767 42.8162 174.407 42.5428C176.037 41.9464 177.567 40.8446 178.706 39.4197C179.895 37.8789 181.574 34.4079 179.986 32.1961C178.506 30.2245 174.748 30.4978 171.788 30.4978C169.319 30.4978 164.03 30.3819 161.91 30.4978C161.27 32.3949 160.48 34.2505 159.84 36.189L153.662 53.1298H160.721C160.871 52.5002 161.312 51.3901 161.561 50.7606L163.241 46.1795C163.34 45.9061 163.981 44.0505 164.13 43.9677C164.18 43.9262 165.91 43.6943 166.45 44.912C166.799 45.583 167.73 51.1499 167.93 52.5748C167.98 52.9724 167.93 53.0055 168.179 53.1298H175.987C175.937 52.3759 175.047 46.4943 174.848 45.9061C174.257 44.2079 173.908 43.8517 172.528 43.2221M165.71 39.6268C165.71 39.428 167.14 35.4434 167.34 35.0872C168.279 35.0043 170.848 35.0458 171.738 35.17C174.058 35.5677 172.877 38.1357 171.489 38.9972C170.399 39.6682 166.949 39.8256 165.71 39.6268Z" fill="#25408E"/>
<path fill-rule="evenodd" clip-rule="evenodd" d="M146.795 30.2658C144.225 30.506 144.275 30.3072 141.656 31.0528C140.326 31.4504 138.696 32.3203 137.707 33.0244C135.237 34.9214 134.048 36.9759 132.718 39.9001C131.437 42.7416 130.298 46.5356 131.529 49.5344C132.718 52.5333 135.728 53.3617 139.627 53.2871C143.677 53.1711 145.996 52.5001 148.615 50.4788C151.035 48.5404 152.174 46.8836 153.554 43.5285C154.594 41.0019 156.124 37.0918 154.793 33.9356C153.513 30.9368 149.705 29.9842 146.795 30.2658ZM144.525 36.2634C146.204 35.9487 147.634 36.5782 147.834 38.0445C148.033 39.2705 147.343 41.2007 146.944 42.1948C145.955 44.6055 144.325 46.8587 141.656 47.3723C140.026 47.6871 138.546 47.0575 138.297 45.6327C137.998 44.1747 139.827 39.5108 141.207 38.1688C142.197 37.183 142.837 36.5534 144.516 36.2717L144.525 36.2634Z" fill="#25408E"/>
<path fill-rule="evenodd" clip-rule="evenodd" d="M94.0971 62.0601C94.0472 61.7867 93.5068 61.2731 93.1576 60.7595C92.4176 59.6909 92.0683 58.9453 91.6776 57.7193C91.5778 57.4459 91.5279 57.1643 91.4281 56.8495C91.3782 56.4933 91.3782 56.2613 91.2785 55.8222C90.9791 53.4944 91.478 52.343 92.1182 50.5702L98.0964 35.4021C98.296 34.8057 98.4955 34.3749 98.7367 33.7867L99.3769 32.1714C99.4268 31.898 99.4268 32.014 99.5266 31.8151L103.626 22.2222C103.725 22.0649 103.725 21.982 103.825 21.866L105.064 20.2507C105.131 20.1457 105.214 20.0408 105.314 19.9359C106.744 18.3536 108.872 17.0944 110.893 16.4234C112.082 15.9927 113.312 15.7938 114.692 15.595L114.892 15.5536L115.042 15.5122L115.532 15.4708C116.572 15.2305 143.237 15.3548 143.985 15.3548H212.04C213.47 15.3548 215 15.5536 215.649 14.5264L217.627 9.34888C217.727 9.03408 217.777 8.95124 217.877 8.67787C218.276 7.60923 218.667 6.93822 218.226 5.95243C218.076 5.52166 217.736 5.19858 217.237 5.12402C217.336 6.30864 217.187 6.35006 216.796 7.41041L215.166 11.6353C214.227 14.2779 214.576 13.7643 208.548 13.7643H120.122C115.333 13.7643 109.604 13.9631 105.846 17.1193C102.096 20.2009 101.156 23.672 99.2771 28.253L92.6587 45.0779C92.0683 46.5027 91.5695 47.8447 91.029 49.3027C90.3888 51.0424 89.9398 52.0282 90.0895 54.2814C90.2391 56.4933 91.1787 59.0613 92.5589 60.5607C92.9996 61.0329 93.4985 61.7453 94.0888 62.0601H94.0971Z" fill="#231F20"/>
<path d="M94.0971 62.0601C94.0472 61.7867 93.5068 61.2731 93.1576 60.7595C92.4176 59.6909 92.0683 58.9453 91.6776 57.7193C91.5778 57.4459 91.5279 57.1643 91.4281 56.8495C91.3782 56.4933 91.3782 56.2613 91.2785 55.8222C90.9791 53.4944 91.478 52.343 92.1182 50.5702L98.0964 35.4021C98.296 34.8057 98.4955 34.3749 98.7367 33.7867L99.3769 32.1714C99.4268 31.898 99.4268 32.014 99.5266 31.8151L103.626 22.2223C103.725 22.0649 103.725 21.982 103.825 21.866L105.064 20.2507C105.131 20.1457 105.214 20.0408 105.314 19.9359C106.744 18.3536 108.872 17.0944 110.893 16.4234C112.082 15.9927 113.312 15.7938 114.692 15.595L114.892 15.5536L115.042 15.5122L115.532 15.4708C116.572 15.2305 143.237 15.3548 143.985 15.3548H212.04C213.47 15.3548 215 15.5536 215.649 14.5264L217.627 9.34888C217.727 9.03408 217.777 8.95124 217.877 8.67787C218.276 7.60923 218.667 6.93822 218.226 5.95243C218.076 5.52166 217.736 5.19858 217.237 5.12402C217.336 6.30864 217.187 6.35006 216.796 7.41041L215.166 11.6353C214.227 14.2779 214.576 13.7643 208.548 13.7643H120.122C115.333 13.7643 109.604 13.9631 105.846 17.1193C102.096 20.2009 101.156 23.672 99.2771 28.253L92.6587 45.0779C92.0683 46.5027 91.5695 47.8447 91.029 49.3027C90.3888 51.0424 89.9398 52.0282 90.0895 54.2814C90.2391 56.4933 91.1787 59.0613 92.5589 60.5607C92.9996 61.0329 93.4985 61.7453 94.0888 62.0601H94.0971Z" stroke="#231F20" stroke-width="0.22" stroke-miterlimit="22.93"/>
<path fill-rule="evenodd" clip-rule="evenodd" d="M204.182 36.1059C204.531 35.2775 204.922 34.2088 205.221 33.3059C205.471 32.6763 206.161 31.0526 206.161 30.5059H184.925C184.676 30.8621 184.036 32.7177 183.836 33.3059C183.636 33.9023 182.896 35.6337 182.896 36.1059H189.914C189.914 36.5366 185.715 47.8775 185.324 48.8633C185.075 49.5757 184.784 50.2881 184.534 50.9922C184.335 51.6218 183.894 52.5331 183.794 53.1212H190.812L193.922 44.5473C194.462 43.0893 194.961 41.7059 195.501 40.281C196.042 38.939 196.491 37.3567 197.031 36.0976H204.19L204.182 36.1059Z" fill="#25408E"/>
<path fill-rule="evenodd" clip-rule="evenodd" d="M122.3 31.409L122.791 30.067C122.94 29.7108 123.281 29.0812 123.331 28.6836H201.663C203.193 28.6836 207.591 28.8824 208.822 28.5676C209.462 28.4102 209.811 28.0126 210.152 27.383L211.391 24.6161C211.491 24.3759 211.541 24.3759 211.641 24.0611L213.17 20.6646C213.32 20.2339 213.47 19.9522 213.661 19.5629L214.102 18.3368C214.351 17.467 213.753 16.3652 212.913 16.3652C213.162 17.5084 212.472 18.4611 211.873 19.8031L209.404 25.254C208.415 27.5072 208.415 27.1096 204.906 27.1096H122.491C122.292 27.151 120.812 31.0611 120.712 31.4504L122.292 31.409H122.3Z" fill="#231F20"/>
<path fill-rule="evenodd" clip-rule="evenodd" d="M95.9678 62.1349C95.9678 62.6899 96.0675 62.7644 96.1174 63.2449C97.4977 64.0733 100.266 64.0319 102.146 64.0319H105.604C106.594 64.0319 108.024 64.1893 108.914 63.9905C109.704 63.394 110.003 62.607 110.294 61.7372C110.394 61.4224 110.444 61.4224 110.593 61.1076L111.333 59.136C111.433 58.9372 111.483 58.7384 111.583 58.5064C111.682 58.1917 111.732 58.1917 111.882 57.8769L112.131 57.2059C112.231 56.9325 112.281 56.8496 112.381 56.5763L117.669 43.6201L129.426 43.5786C129.625 43.5786 129.866 43.4627 130.116 43.4627C130.315 43.1479 130.706 41.723 130.906 41.2094C131.995 37.813 133.475 36.0733 133.816 35.1289L133.966 35.013L134.065 34.8556C134.065 34.0272 134.365 34.2674 134.065 33.2733C133.916 32.7597 133.575 32.3621 133.026 32.2461V32.3621C133.026 32.8343 133.176 32.8343 132.876 33.5467C132.727 33.9443 132.577 34.4165 132.436 34.7313C131.845 36.1893 130.116 41.2508 129.567 41.723C128.827 42.3195 124.528 42.0378 123.248 42.0378H116.63C115.69 44.5644 114.601 46.9751 113.62 49.4603C112.68 51.9455 111.691 54.4721 110.66 56.8828L109.18 60.594C108.39 62.6485 108.44 62.6485 105.92 62.6485C105.18 62.6485 97.4228 62.7313 96.8325 62.607C96.3419 62.4911 96.2422 62.3337 95.9927 62.1349" fill="#231F20"/>
<path fill-rule="evenodd" clip-rule="evenodd" d="M182.747 53.8834C182.448 55.1094 183.587 55.9378 184.918 55.9792C186.398 55.9792 187.878 55.9378 189.366 55.9378C190.996 55.9378 192.234 56.0952 192.925 55.1094C193.174 54.836 193.415 53.8834 193.565 53.5686L193.864 52.7402C193.964 52.4999 193.964 52.5414 194.014 52.3426L195.053 49.5426C195.153 49.1863 195.253 48.9875 195.352 48.6727L198.911 38.9556C199.651 38.9556 204.59 38.997 205.039 38.9141C205.53 38.7982 205.629 38.7568 205.929 38.5165C206.569 38.0443 207.018 36.4621 207.309 35.6337L208.298 32.8668C208.498 32.3946 208.697 31.9224 208.548 31.326C208.398 30.6964 208.107 30.0254 207.359 30.0254C207.558 30.9698 207.409 31.0112 207.159 31.8065L205.43 36.4289C205.18 37.0254 204.889 37.2988 204.191 37.3733H197.922C196.092 42.0704 194.263 47.5627 192.442 52.3426C191.952 53.5686 192.043 54.3556 190.372 54.397H184.244C183.305 54.3556 183.305 54.1982 182.764 53.8834" fill="#231F20"/>
<path fill-rule="evenodd" clip-rule="evenodd" d="M130.099 49.4602C130.099 50.9596 131.288 52.9395 132.369 53.9253C132.569 54.1241 132.768 54.2401 133.009 54.3975C135.479 56.2945 139.678 56.2531 142.538 56.0129C143.428 55.9714 145.356 55.5407 146.288 55.2259L147.128 54.9111C148.267 54.4389 150.977 52.6578 151.767 51.672C151.967 51.4732 152.116 51.3158 152.308 51.0756L153.397 49.8496C154.187 47.9939 154.927 45.9395 155.617 44.001C155.966 43.0152 156.307 42.0294 156.656 41.0768C156.905 40.4803 157.646 38.6247 157.695 38.1111C157.795 36.0152 157.205 33.9608 155.866 32.42C155.567 32.1052 154.827 31.3513 154.486 31.2354C155.575 32.2626 156.465 34.1596 156.556 36.33C156.656 38.2685 156.016 40.5963 155.367 42.2945C155.068 43.1643 154.727 44.0342 154.378 44.8626C153.688 46.4034 153.339 46.9916 152.449 48.3004C151.859 49.1703 150.769 50.3549 149.93 51.0259C149.78 51.1419 149.73 51.1419 149.63 51.2661C146.521 53.8342 143.411 54.5797 139.212 54.5466C136.302 54.5466 133.034 54.033 131.313 51.7383C130.324 50.4709 130.473 50.1561 130.074 49.4519" fill="#231F20"/>
<path fill-rule="evenodd" clip-rule="evenodd" d="M114.243 64.9431C114.443 66.0863 113.994 66.6828 113.653 67.6686C113.353 68.4556 112.073 72.3325 111.774 72.7218C111.524 73.1195 111.283 73.31 110.684 73.3928C109.645 73.4757 103.426 73.3928 102.037 73.3928C98.3787 73.3928 99.1686 73.5917 95.6681 72.8792C93.1987 72.407 90.5796 71.0982 88.609 69.6402C88.3596 69.4414 88.3097 69.3999 88.0686 69.2426L86.7382 68.0579C86.3391 67.7846 86.1978 67.5029 85.8485 67.1881C85.649 66.9147 85.5991 66.9479 85.4079 66.7159C85.2582 66.4426 85.2582 66.4757 85.0587 66.2437C84.1191 65.1751 82.98 63.2781 82.4396 62.0189C82.24 61.5881 82.0903 61.265 81.8991 60.7514C81.7494 60.3538 81.6497 59.8816 81.5 59.5254C81.5 60.3124 82.0405 61.6958 82.3398 62.4496C83.1297 64.7443 84.4101 66.4757 85.8984 68.2982C87.5281 70.3526 91.1865 72.7633 93.7474 73.6662C95.7263 74.3786 97.8465 74.9668 100.067 74.9668C101.547 74.9668 110.784 75.0497 111.424 74.9254C113.054 74.6106 113.104 73.542 113.794 71.6118L115.274 67.4615C115.573 66.2769 115.274 65.0094 114.235 64.9349" fill="#231F20"/>
<path fill-rule="evenodd" clip-rule="evenodd" d="M166.941 53.7269C166.941 54.6381 167.241 55.5079 168.13 55.7813C169.02 56.0547 174.799 55.9801 176.279 55.9801C177.318 55.9387 178.058 55.5493 178.307 54.5967C178.457 54.0002 178.357 53.8097 178.258 53.1718L177.418 47.3647C177.268 46.934 177.168 46.4949 177.019 46.0973L176.528 44.8712C177.518 44.631 179.397 43.0156 180.087 42.3032C180.627 41.7482 180.976 41.2346 181.417 40.605C181.716 40.1742 182.257 39.1056 182.407 38.5091C182.756 38.592 182.556 38.6251 182.847 38.7494C183.587 39.0641 186.747 38.9896 187.487 38.9067C187.786 38.7494 188.027 37.7636 188.177 37.3659C187.237 37.3659 183.138 37.4819 182.498 37.2831C181.858 37.0843 181.758 36.6121 181.608 36.2559C180.918 38.9399 179.488 40.8783 177.36 42.3363C176.869 42.734 175.83 43.405 175.19 43.5624C175.239 43.8026 175.339 43.8772 175.439 44.076C175.539 44.2334 175.589 44.3908 175.638 44.5482C176.279 45.9316 176.329 46.6772 176.528 48.218C176.628 49.1624 177.368 52.7162 177.168 53.3955C176.969 54.2239 176.229 54.3813 175.19 54.3813H169.261C168.771 54.3813 168.272 54.4227 167.831 54.2985C167.191 54.1411 167.291 54.0251 166.941 53.7103" fill="#231F20"/>
<path fill-rule="evenodd" clip-rule="evenodd" d="M152.623 53.8838C152.424 54.5963 152.873 55.3418 153.513 55.698C154.153 56.0543 155.342 55.9383 156.281 55.9383C157.911 55.9383 160.921 56.1785 162.11 55.7395C162.509 55.5821 162.7 55.3418 162.9 55.027L164.929 49.5347C165.028 49.3359 165.028 49.2199 165.128 48.9797L165.569 47.9111C165.619 47.7122 165.669 47.5134 165.719 47.356C165.719 47.1158 165.619 46.4448 165.569 46.13C165.469 45.6992 165.419 45.4176 165.028 45.2188L164.729 45.7738C164.679 45.8898 164.629 46.0472 164.579 46.246L162.01 53.2791C161.711 54.0661 161.32 54.3477 160.331 54.3809H154.801C153.613 54.3809 153.321 54.4637 152.631 53.8673" fill="#231F20"/>
<path fill-rule="evenodd" clip-rule="evenodd" d="M140.716 46.1053C140.716 44.6473 142.346 40.8118 143.876 39.7432C144.616 39.2296 145.107 38.9562 146.395 39.0308C146.645 39.0722 146.595 38.9148 146.645 38.6C146.745 36.8604 143.485 36.7858 141.407 39.9834C140.816 40.9278 140.367 42.0793 139.976 43.2639C139.777 43.8935 139.577 44.4899 139.536 45.1609C139.486 45.7905 140.176 46.3041 140.725 46.1053" fill="#231F20"/>
<path fill-rule="evenodd" clip-rule="evenodd" d="M169.019 38.3592L169.119 38.2763C169.119 38.1162 169.136 37.9726 169.169 37.8456H170.799C171.239 37.7296 171.688 37.1331 171.788 36.545C171.148 36.1888 169.019 36.3462 168.179 36.3462L167.439 38.4006L169.019 38.3592Z" fill="#07080B"/>
<path fill-rule="evenodd" clip-rule="evenodd" d="M182.506 33.1077C182.157 32.1965 181.517 31.6083 180.826 31.0947C180.777 31.2521 180.777 31.0119 180.826 31.2107C180.926 31.4841 181.267 31.6829 181.616 32.6687C181.916 33.5385 181.816 33.9361 181.916 34.8391C182.065 34.5989 182.506 33.4143 182.506 33.0995" fill="#0B0B0E"/>
</g>
<defs>
<clipPath id="clip0_6283_1653">
<rect width="137" height="70" fill="white" transform="translate(81.5 5)"/>
</clipPath>
</defs>
</svg>
