<svg width="300" height="80" viewBox="0 0 300 80" fill="none" xmlns="http://www.w3.org/2000/svg">
<g clip-path="url(#clip0_6283_1608)">
<path d="M61.2917 37.3867H55.8652V42.6112H61.2917V37.3867Z" fill="#00A351"/>
<path d="M68.7316 42.6113H74.1575V49.9288L68.8923 54.9981H61.292V49.7741H66.6448L68.7316 47.765V42.6113Z" fill="#00A351"/>
<path d="M50.5127 49.7741H55.8655V54.9981H48.2652L43 49.9288V42.6113H48.4264V47.765L50.5127 49.7741Z" fill="#00A351"/>
<path d="M74.1575 30.0693V37.3868H68.7316V32.2331L66.6448 30.2245H61.292V25H68.8923L74.1575 30.0693Z" fill="#00A351"/>
<path d="M48.4264 37.3868H43V30.0693L48.2652 25H55.8655V30.2245H50.5127L48.4264 32.2331V37.3868Z" fill="#00A351"/>
<path d="M88.4376 25H114.331V30.2245H90.6851L88.5983 32.2331V47.7649L90.6851 49.774H108.905V42.6113H99.4592V37.3868H114.331V54.9981H88.4376L83.1719 49.9288V30.0693L88.4376 25Z" fill="black"/>
<path d="M118.839 25H149.998V30.2245H124.265V37.3868H144.572V42.6113H124.265V49.774H149.998V54.9981H118.839V25Z" fill="black"/>
<path d="M180.405 25L185.67 30.0693V38.9962L181.911 42.6113L185.67 45.5051V55H180.243V48.0161L175.111 44.0659H165.358V38.8414H178.157L180.243 36.8309V32.2331L178.157 30.2245H159.931V55H154.505V25H180.405Z" fill="black"/>
<path d="M190.177 25H221.334V42.6113H215.908V30.2245H208.469V49.774H221.334V54.9981H190.177V49.774H203.042V30.2245H195.603V42.6113H190.177V25Z" fill="black"/>
<path d="M231.268 32.2331V37.3868H257.001V49.9288L251.736 54.9981H225.842V49.774H249.489L251.573 47.7649V42.6113H225.842V30.0693L231.107 25H257.001V30.2245H233.355L231.268 32.2331Z" fill="black"/>
</g>
<defs>
<clipPath id="clip0_6283_1608">
<rect width="214" height="30" fill="white" transform="translate(43 25)"/>
</clipPath>
</defs>
</svg>
