<svg width="300" height="80" viewBox="0 0 300 80" fill="none" xmlns="http://www.w3.org/2000/svg">
<g clip-path="url(#clip0_6283_1626)">
<path d="M79.1348 53.8046V26.1846H86.6948V53.8046H79.1348Z" fill="#007366"/>
<path d="M113.734 36.9546C118.784 36.9546 122.524 39.7546 122.524 45.3546C122.524 49.9746 119.154 53.7946 113.734 53.7946H92.4844V26.1846H119.234V32.9746H100.044V36.9646H113.734V36.9546ZM112.794 47.4146C114.174 47.4146 114.964 46.8246 114.964 45.3646C114.964 43.9046 114.174 43.3546 112.794 43.3546H100.004V47.4146H112.794Z" fill="#007366"/>
<path d="M126.375 53.8046V26.1846H133.935V53.8046H126.375Z" fill="#007366"/>
<path d="M163.654 43.1949C163.054 45.9949 159.354 47.6549 154.694 47.6549C148.974 47.6549 145.714 44.6149 145.714 39.9949C145.714 35.3749 148.964 32.3349 154.694 32.3349C159.324 32.3349 163.044 33.9749 163.634 36.7949H171.154C170.424 29.9449 164.334 25.5449 154.694 25.5449C144.404 25.5449 138.154 31.2649 138.154 39.9849C138.154 48.7049 144.404 54.4249 154.694 54.4249C164.334 54.4249 170.424 50.0249 171.154 43.1749H163.654V43.1949Z" fill="#007366"/>
<path d="M220.865 40.8748L202.115 34.7148L171.145 64.8648H196.885L220.865 40.8748Z" fill="#F37021"/>
<path d="M220.865 39.1148L200.995 30.8248L197.215 32.9048C194.035 34.6548 190.085 34.0948 187.525 31.5248L171.145 15.1348H196.885L220.865 39.1148Z" fill="#F37021"/>
</g>
<defs>
<clipPath id="clip0_6283_1626">
<rect width="141.73" height="49.73" fill="white" transform="translate(79.1348 15.1348)"/>
</clipPath>
</defs>
</svg>
