<svg width="32" height="32" viewBox="0 0 32 32" fill="none" xmlns="http://www.w3.org/2000/svg">
<g clip-path="url(#clip0_4894_19842)">
<path d="M14.3826 25.0611C14.6799 24.9112 14.9416 24.8769 15.1003 24.8745C15.1116 24.874 15.1234 24.8725 15.1351 24.8725L18.5272 24.8727C18.5376 24.8727 18.5475 24.874 18.5575 24.8744C18.7158 24.8765 18.9803 24.9102 19.2802 25.0616C19.5919 25.2171 19.9294 25.498 20.2177 25.9355C20.2295 25.9535 20.2413 25.9722 20.253 25.9907C20.7122 26.7201 21.0678 27.8375 21.182 29.6525L19.7753 29.6516C19.7028 28.6056 19.5433 27.8678 19.3625 27.3663C19.3107 27.2236 19.2583 27.1008 19.2063 26.9942L19.2061 29.6521L14.4577 29.6523L14.4576 26.99C14.2207 27.4749 13.9805 28.3058 13.8867 29.6516L12.4797 29.652C12.5615 28.3546 12.7683 27.4143 13.045 26.7152C13.4012 25.8077 13.9103 25.295 14.3826 25.0611ZM14.7201 22.3978C14.7201 21.307 15.6043 20.422 16.6951 20.422C17.7858 20.422 18.6699 21.3067 18.67 22.3974C18.67 23.4883 17.7859 24.3732 16.6951 24.3732C15.6043 24.3732 14.7202 23.4886 14.7201 22.3978ZM18.0823 5.11969L20.1604 7.68394L20.1602 10.2167L18.0826 12.7999L15.9265 12.7998L13.7602 10.2176L11.422 13.7067C11.6374 13.9358 11.6792 14.2908 11.5017 14.5674L9.61435 17.5074C9.49383 17.6951 9.28952 17.815 9.06707 17.8291C9.05257 17.83 9.03825 17.8303 9.02383 17.8303C8.81696 17.8303 8.61845 17.7384 8.48502 17.5787L7.10346 15.926L7.1033 18.4746L7.10331 20.1367L7.10341 29.5998C6.62857 29.5998 6.61685 29.5998 6.01749 29.5998C5.41881 29.5998 5.25709 29.6001 4.93291 29.6001L4.93279 20.8148L4.52592 20.8151L4.52604 29.6005C4.11456 29.6005 4.03987 29.6 3.44096 29.6C2.84175 29.6 2.85701 29.6 2.35504 29.6L2.35494 20.1369L2.35577 18.4743L2.3552 15.5709C2.0507 16.194 1.74086 17.3881 1.74398 19.5142C1.74371 19.9981 1.75922 20.5303 1.79362 21.1139C1.81625 21.501 1.52102 21.8335 1.13423 21.8565C1.12036 21.8573 1.10601 21.8582 1.09232 21.8582C0.723334 21.8582 0.413539 21.5701 0.391556 21.1972C0.355477 20.5885 0.339301 20.0288 0.339125 19.5145C0.340549 17.5256 0.582467 16.208 0.943069 15.2969C1.29901 14.39 1.80782 13.8777 2.27975 13.6434C2.58627 13.4889 2.85584 13.4566 3.01272 13.4559C3.01965 13.4557 3.02665 13.4551 3.03367 13.4551L6.42527 13.4545C6.50005 13.4545 6.57185 13.4667 6.6391 13.4889C6.81401 13.5074 6.98196 13.5915 7.10376 13.7371L8.94869 15.9443L10.3203 13.8083C10.496 13.5346 10.8298 13.4243 11.1255 13.5193L13.5871 9.84737L13.7598 9.96301L13.7595 7.68312L15.9275 5.11995L18.0823 5.11969ZM28.5683 2.69996L28.5681 15.7796L12.4687 15.7794L12.4689 15.1118L27.9006 15.1117L27.9013 3.36696L6.0613 3.36706L6.06122 8.2712L5.39355 8.27103L5.39297 2.69971L28.5683 2.69996ZM14.9046 7.69971L14.9023 7.70553L14.9022 9.67218L16.2928 11.1979L17.7291 11.1974L19.1107 9.67246L19.1113 7.70666L18.0869 5.1531L15.9352 5.15274L14.9046 7.69971ZM18.045 5.21906L19.0473 7.71881L19.047 9.64609L17.7024 11.1317L16.3199 11.1315L14.9663 9.64646L14.9666 7.71918L15.9768 5.21894L18.045 5.21906ZM15.9344 7.69827L15.933 7.70361L15.933 8.86959L16.6341 9.85743L17.3705 9.85742L18.0668 8.87015L18.0672 7.70283L17.3936 5.49704L16.6113 5.49762L15.9344 7.69827ZM17.3469 5.5646L18.0035 7.71365L18.003 8.84947L17.3385 9.79239L16.6665 9.79248L15.9965 8.84872L15.9966 7.71423L16.6578 5.56439L17.3469 5.5646ZM19.4314 7.76882L19.5565 7.76875C19.6052 7.76875 19.6455 7.75193 19.6778 7.71903C19.7099 7.68576 19.7263 7.6452 19.7264 7.59623C19.7264 7.54701 19.7105 7.50477 19.6782 7.47181C19.6461 7.439 19.6053 7.42229 19.5571 7.4222L19.432 7.42227L19.4314 7.76882ZM19.5531 7.47188C19.5878 7.47192 19.6163 7.48373 19.6388 7.50699C19.6612 7.53024 19.6721 7.56007 19.6721 7.59599C19.6721 7.63199 19.661 7.66133 19.639 7.68505C19.6165 7.70873 19.5878 7.71991 19.5531 7.71995L19.4844 7.72013L19.4844 7.47206L19.5531 7.47188ZM18.4342 7.46947C18.4009 7.50366 18.3841 7.54554 18.384 7.59543C18.384 7.6455 18.401 7.68763 18.4345 7.7219C18.468 7.75618 18.5096 7.77307 18.5588 7.77307C18.5942 7.77304 18.6254 7.76387 18.6529 7.74467C18.6805 7.72533 18.7002 7.70138 18.7129 7.67282L18.6645 7.65341C18.6551 7.67404 18.6402 7.69138 18.6216 7.70411C18.603 7.71672 18.5816 7.72365 18.5584 7.72365C18.5246 7.72361 18.4955 7.71094 18.4726 7.68636C18.4498 7.66186 18.4384 7.63149 18.4383 7.59567C18.4383 7.55983 18.4496 7.52933 18.4727 7.50479C18.4955 7.48023 18.5245 7.46776 18.5584 7.46771C18.5821 7.46771 18.6034 7.47347 18.6221 7.4862C18.6407 7.49894 18.6543 7.51684 18.6641 7.53749L18.7132 7.51704C18.7008 7.4886 18.6804 7.46512 18.6529 7.44585C18.6254 7.42659 18.594 7.41695 18.5584 7.41695L18.4905 7.43022C18.4697 7.43879 18.451 7.45232 18.4342 7.46947ZM16.812 7.76898L16.8662 7.76922L16.8944 7.68528L17.0646 7.68512L17.0937 7.76869L17.1501 7.76881L17.0278 7.42219L16.9342 7.42213L16.812 7.76898ZM17.0477 7.63626L16.9117 7.63699L16.9798 7.43864L17.0477 7.63626ZM15.3331 7.46923C15.2998 7.50336 15.283 7.54539 15.2829 7.59518C15.2829 7.64515 15.3 7.68743 15.3334 7.72166C15.3669 7.75594 15.4089 7.77368 15.4581 7.77367C15.4935 7.77359 15.5243 7.76357 15.5517 7.74443C15.5792 7.72515 15.5995 7.70186 15.6122 7.67342L15.5633 7.65317C15.5536 7.67382 15.5391 7.69112 15.5204 7.70387C15.5018 7.71647 15.4805 7.72341 15.4573 7.72341C15.4235 7.72332 15.3943 7.71065 15.3715 7.68612C15.3484 7.66161 15.3372 7.63124 15.3372 7.59543C15.3372 7.55939 15.349 7.52867 15.3724 7.50406C15.3951 7.47975 15.4236 7.46756 15.4572 7.46747C15.4806 7.46746 15.5027 7.47406 15.5214 7.4868C15.5398 7.4995 15.5533 7.5168 15.5629 7.53725L15.6125 7.51765C15.6002 7.48908 15.5793 7.46494 15.5517 7.4456C15.5247 7.42647 15.4927 7.41671 15.4573 7.41671L15.3898 7.43082C15.3691 7.43939 15.3499 7.45206 15.3331 7.46923ZM14.2783 7.76924L14.4034 7.76917C14.4521 7.76916 14.4925 7.75227 14.5247 7.71945C14.5569 7.68608 14.5728 7.64496 14.5728 7.5958C14.5728 7.54668 14.5573 7.50515 14.5252 7.47222C14.4931 7.43939 14.4522 7.42275 14.4041 7.42261L14.2789 7.42269L14.2783 7.76924ZM14.3996 7.47145C14.4342 7.47145 14.4628 7.48342 14.4852 7.50656C14.5077 7.52985 14.5191 7.56037 14.5191 7.59641C14.519 7.63222 14.5077 7.66098 14.4854 7.68462C14.463 7.70826 14.4347 7.72028 14.4001 7.72037L14.3314 7.72055L14.3309 7.47163L14.3996 7.47145ZM2.75422 10.9789C2.75441 9.88819 3.63892 9.00391 4.72964 9.00391C5.82036 9.00404 6.7046 9.88857 6.7046 10.9793C6.70454 12.0701 5.81998 12.9543 4.72918 12.9543C3.63844 12.9542 2.75422 12.0696 2.75422 10.9789Z" fill="currentColor"/>
</g>
<defs>
<clipPath id="clip0_4894_19842">
<rect width="32" height="32" fill="white"/>
</clipPath>
</defs>
</svg>
