<svg width="24" height="24" viewBox="0 0 24 24" fill="none" xmlns="http://www.w3.org/2000/svg">
<path d="M12.0029 3C14.3481 3 14.6496 3.01043 15.582 3.05469C16.5343 3.09676 17.2013 3.2517 17.791 3.47949C18.4121 3.7135 18.9776 4.08216 19.4453 4.55566L19.1865 4.81934L19.4502 4.56055L19.6221 4.73828C20.0163 5.16886 20.3224 5.66869 20.5303 6.21777C20.7585 6.8051 20.914 7.47572 20.9561 8.42773C20.9969 9.35739 21 9.65895 21 12.002C21 14.3471 20.99 14.6467 20.9492 15.5752C20.9072 16.5287 20.7515 17.1959 20.5234 17.7861C20.0373 19.043 19.0433 20.0373 17.7861 20.5234C17.1984 20.752 16.5273 20.9072 15.5742 20.9492C14.6455 20.9901 14.3457 21 12 21C9.65434 21 9.35443 20.9901 8.42578 20.9492C7.47282 20.9072 6.80587 20.7523 6.21582 20.5244C5.67113 20.3192 5.16906 20.0103 4.73828 19.6182L4.56055 19.4473L4.82031 19.1836L4.55664 19.4424C4.0831 18.975 3.71417 18.413 3.47656 17.7852C3.24834 17.1978 3.09277 16.5274 3.05078 15.5752C3.00999 14.6467 3 14.347 3 12.002C3 9.65723 3.01043 9.3561 3.05469 8.42383C3.09675 7.47182 3.25175 6.80549 3.47949 6.21582C3.71399 5.59393 4.08291 5.02671 4.55762 4.55859L4.55566 4.56152L4.82031 4.81934L4.56055 4.55664L4.55762 4.55859C5.0267 4.07932 5.59084 3.71406 6.21875 3.47656C6.80608 3.2485 7.47722 3.09277 8.42969 3.05078C9.35798 3.01001 9.65796 3 12.0029 3ZM12 7.7373C9.64664 7.73756 7.73731 9.64646 7.7373 12C7.7373 14.3535 9.64664 16.2624 12 16.2627C14.3537 16.2627 16.2637 14.3537 16.2637 12C16.2637 9.6463 14.3537 7.7373 12 7.7373ZM17.2109 4.89453C16.165 4.89479 15.3166 5.74283 15.3164 6.78906C15.3164 7.83526 16.1648 8.68431 17.2109 8.68457C18.2574 8.68457 19.1064 7.83547 19.1064 6.78906C19.1062 5.74263 18.2572 4.89453 17.2109 4.89453Z" fill="#010B13"/>
</svg>
