<svg width="300" height="80" viewBox="0 0 300 80" fill="none" xmlns="http://www.w3.org/2000/svg">
<g clip-path="url(#clip0_6283_1639)">
<path fill-rule="evenodd" clip-rule="evenodd" d="M135.871 59.4817H141.628C144.588 59.4817 147.065 61.2431 147.372 64.3787C147.63 67.0208 146.444 68.8071 144.983 69.7316C143.704 70.5436 141.402 70.7996 140.236 69.8627C139.421 69.2069 139.308 67.9827 140.368 68.3012C145.315 69.769 145.109 62.967 142.807 61.849C141.722 61.3181 140.23 61.4742 138.988 61.5055V76.952H135.859V59.4942L135.871 59.4817ZM103.004 74.9158C102.998 76.265 103.086 79.6753 101.424 79.9689C100.866 80.0688 100.345 79.8815 100.565 79.2256C100.778 78.576 100.904 77.7141 100.747 76.9208H88.424C88.2672 77.7078 88.3927 78.576 88.6059 79.2256C88.8254 79.8877 88.3049 80.0688 87.7467 79.9689C86.0849 79.6691 86.179 76.265 86.1664 74.9158H88.6372L94.1495 59.4755H95.015L100.527 74.9158H103.004ZM90.9011 74.9158H97.4544L94.2624 65.2469L90.8948 74.9158H90.9011ZM123.53 59.4817H120.538L114.932 67.6579L120.162 76.9396H123.605L117.911 67.2394L123.53 59.4817ZM103.192 59.4817H106.184L111.79 67.6579L106.56 76.9396H103.117L108.811 67.2394L103.192 59.4817ZM206.409 59.4817H207.205L213.438 76.9396H210.309L209.456 74.3537H209.444L209.425 74.2662L209.237 73.6916C208.572 72.1675 206.929 71.7491 205.687 72.305C205.336 72.4611 205.023 72.5111 204.998 72.0239C204.935 70.7809 206.559 69.7503 208.108 70.2687L207.763 69.2256L206.452 65.2531L202.383 76.9396H200.106L206.34 59.4817H206.409ZM111.796 59.4817H114.926V76.9396H111.796V59.4817ZM177.467 76.9396H180.095C183.055 76.9396 185.538 75.1782 185.839 72.0426C186.096 69.4005 185.106 67.6766 183.644 66.7522C182.572 66.0713 180.779 65.784 179.543 66.2587C178.972 66.4773 178.113 67.0145 178.044 67.864C178.007 68.3574 178.352 68.7322 178.803 68.3949C179.995 67.5079 181.895 67.9264 182.453 69.3443C182.672 69.8877 182.792 70.5436 182.81 71.2056C182.842 72.5985 182.39 74.0351 181.28 74.5785C180.202 75.1095 178.709 74.9533 177.467 74.9221V59.4755H174.338V76.9333H177.467V76.9396ZM196.086 59.4817H199.216V76.9396H196.086V68.8071H190.474V76.9396H187.344V59.4817H190.474V66.7896H196.086V59.4817ZM166.606 59.4817H165.809L159.576 76.9396H161.852L165.922 65.2531L169.779 76.9396H172.908L166.675 59.4817H166.606ZM152.339 66.7834H156.096V68.8071H152.339V74.9158H158.391V76.9396H149.21V59.4817H158.391V61.5055H152.339V66.7896V66.7834ZM127.894 66.7834H131.651V68.8071H127.894V74.9158H133.946V76.9396H124.765V59.4817H133.946V61.5055H127.894V66.7896V66.7834ZM168.801 37.7266C169.44 37.7266 170.024 37.7453 170.632 37.8765C172.344 38.245 173.943 39.4505 174.206 41.2993C174.275 41.7928 174.244 42.2675 174.131 42.686C173.887 43.5604 173.084 44.3599 172.187 44.3037C171.993 44.2912 171.729 44.2662 171.541 44.16C170.996 43.8602 170.72 43.1794 171.102 42.9046C171.347 42.7234 171.46 42.4486 171.504 42.3362C171.836 41.5117 171.378 40.2 170.118 39.844C169.353 39.6254 168.424 39.7003 167.747 40.0001C165.791 40.8621 164.536 43.5229 164.536 46.7709C164.536 50.7871 165.998 53.829 169.146 53.829C170.739 53.829 171.892 53.0357 172.827 51.7615C172.933 51.6179 173.053 51.4492 173.197 51.368C173.617 51.1369 174.137 51.4305 174.307 51.6678C174.545 51.9989 174.608 52.6735 174.075 53.2981C172.733 54.8846 170.82 55.8028 168.807 55.8028C164.079 55.8028 161.407 51.7553 161.407 46.7647C161.407 41.774 164.718 37.764 168.807 37.7266H168.801ZM85 38.0326H88.1293V55.4905H85V38.0326ZM96.9904 38.0326H93.999L88.1293 46.2088L93.999 55.4905H98.7839L102.854 43.804L104.509 48.8196C102.96 48.3012 101.336 49.3318 101.399 50.5748C101.424 51.0682 101.738 51.0183 102.089 50.8621C103.337 50.3062 104.973 50.7247 105.638 52.2487L105.826 52.8234L105.845 52.9171H105.851L106.704 55.4967H109.834L103.6 38.0389H102.735L96.8336 54.566L91.1081 45.7965L96.9904 38.0389V38.0326ZM207.732 38.0326H208.528L214.762 55.4905H211.632L210.78 52.9046H210.767L210.748 52.8171L210.56 52.2425C209.895 50.7184 208.252 50.3 207.011 50.8559C206.659 51.012 206.346 51.062 206.321 50.5685C206.258 49.3256 207.882 48.295 209.431 48.8134L209.086 47.7703L207.776 43.7978L203.706 55.4842H198.99L193.12 46.2025L198.99 38.0264H201.981L196.099 45.784L201.781 54.4848L207.657 38.0201H207.726L207.732 38.0326ZM147.303 52.9108L147.285 52.8171L147.096 52.2425C146.432 50.7184 144.789 50.3 143.547 50.8559C143.196 51.012 142.882 51.062 142.857 50.5685C142.794 49.3256 144.419 48.295 145.968 48.8134L144.312 43.7978L140.242 55.4842H137.966L144.199 38.0264H145.065L151.298 55.4842H148.169L147.316 52.8983H147.31L147.303 52.9108ZM176.803 55.4905H182.56C185.52 55.4905 187.997 53.7291 188.304 50.5935C188.561 47.9514 187.57 46.2275 186.109 45.3031C185.037 44.6223 183.243 44.3349 182.008 44.8096C181.437 45.0282 180.572 45.5654 180.509 46.4149C180.471 46.9083 180.76 47.1956 181.268 46.9458C182.679 46.2525 184.397 46.7147 184.918 47.8952C185.156 48.4324 185.256 49.0945 185.275 49.7565C185.306 51.1494 184.855 52.586 183.745 53.1294C182.666 53.6604 181.174 53.5042 179.932 53.473V38.0264H176.803V55.4842V55.4905ZM110.981 38.0326H116.738C119.698 38.0326 122.175 39.794 122.482 42.9296C122.74 45.5717 121.554 47.358 120.093 48.2825C118.814 49.0945 116.512 49.3505 115.346 48.4074C114.531 47.7515 114.418 46.5273 115.478 46.8459C120.425 48.3137 120.212 41.5117 117.917 40.3936C116.832 39.8627 115.34 40.0189 114.104 40.0501V55.4967H110.975V38.0389L110.981 38.0326ZM189.991 38.0326H193.12V55.4905H189.991V38.0326ZM124.596 38.0326H136.473V55.4905H133.344V40.0564H127.731V55.4905H124.602V38.0326H124.596ZM149.511 40.0564V38.0326H161.301V40.0564H156.967V55.4905H153.838V40.0564H149.505H149.511Z" fill="#03428E"/>
<path fill-rule="evenodd" clip-rule="evenodd" d="M172.03 14.31C178.157 13.142 184.573 10.6123 187.959 7.68292C191.352 4.7535 191.333 2.81721 191.333 2.81721C189.916 4.06018 187.169 5.95275 184.93 7.24569C186.115 6.365 186.567 5.67792 187.081 4.72227C186.335 5.33439 179.782 8.71977 179.851 8.48242L180.81 7.34563C175.204 10.3625 168.155 11.8803 162.053 13.8478C160.36 14.3912 160.191 14.4037 158.962 15.1033C163.546 15.4093 167.547 15.1595 172.03 14.3038V14.31ZM105.068 0.0501914C111.389 8.98835 133.012 11.6305 151.21 14.9971C153.738 15.4656 156.39 15.7966 158.949 16.1027C162.85 16.5711 164.298 16.0215 167.264 16.8397C169.585 17.483 170.155 18.9009 169.986 18.8322C169.817 18.7635 169.158 18.5699 166.343 19.6879C164.229 20.5249 161.978 21.6867 159.256 22.3737L159.15 22.4175C158.767 22.5174 157.444 22.8547 157.293 22.8547C155.857 23.2982 148.884 23.9602 143.622 23.5293C142.274 24.0352 141.258 24.5161 138.373 25.934C137.891 26.0277 137.42 26.0652 136.962 26.0589C138.342 24.7597 141.139 23.8728 142.732 23.4418H142.675C139.784 24.004 138.167 24.5849 135.846 26.1714C135.119 26.3213 134.09 26.5461 133.977 26.5336C131.964 26.2463 130.453 25.1657 130.34 24.5224C131.513 24.1351 137.408 22.8922 140.581 22.2301L143.052 20.8809C143.052 20.8809 139.766 21.3057 136.705 20.9809C133.645 20.6561 132.673 20.1127 132.673 20.1127L134.717 19.0133C130.422 20.2751 126.985 19.3256 124.608 18.9009L127.863 18.0639C121.943 18.9072 117.441 17.2332 113.847 15.5592C111 14.2351 111.263 13.3169 111.263 13.3169C111.263 13.3169 116.224 14.1039 117.434 14.0852C111.815 12.8297 107.745 11.3744 104.008 7.22071C104.008 7.22071 107.407 8.45744 108.918 8.68854C110.429 8.91965 110.718 8.95088 110.718 8.95088C110.718 8.95088 106.654 6.15263 105.456 3.59797C104.259 1.04332 105.08 0.0439453 105.08 0.0439453L105.068 0.0501914Z" fill="#03428E"/>
<path fill-rule="evenodd" clip-rule="evenodd" d="M151.693 17.0893C136.404 15.7464 120.451 12.0737 111.815 7.17676C119.441 13.5041 148.608 18.4072 158.197 17.7951C156.321 17.4828 152.948 17.2017 151.687 17.0893H151.693Z" fill="white"/>
<path fill-rule="evenodd" clip-rule="evenodd" d="M124.264 33.9795C141.077 31.1312 156.798 29.526 175.442 29.8633C175.442 29.8633 168.563 27.4523 164.737 27.4523C160.912 27.4523 159.702 28.358 157.287 27.7021C154.873 27.0525 151.549 27.2024 148.226 28.6578C144.902 30.1131 142.839 30.9126 141.177 30.5628C139.515 30.2131 137.753 29.5072 132.316 31.1625C126.879 32.8177 124.276 33.9732 124.276 33.9732L124.264 33.9795Z" fill="#62BB46"/>
<path d="M172.03 14.31C178.157 13.142 184.573 10.6123 187.959 7.68292C191.352 4.7535 191.333 2.81721 191.333 2.81721C189.916 4.06019 187.169 5.95275 184.93 7.24569C186.115 6.36499 186.567 5.67792 187.081 4.72227C186.335 5.33439 179.782 8.71977 179.851 8.48242L180.81 7.34563C175.204 10.3625 168.155 11.8803 162.053 13.8478C160.36 14.3912 160.191 14.4037 158.962 15.1033C163.546 15.4093 167.547 15.1595 172.03 14.3038V14.31ZM105.068 0.0501914C111.389 8.98835 133.012 11.6305 151.21 14.9971C153.738 15.4656 156.39 15.7966 158.949 16.1027C162.85 16.5711 164.298 16.0215 167.264 16.8397C169.585 17.483 170.155 18.9009 169.986 18.8322C169.817 18.7635 169.158 18.5699 166.343 19.6879C164.229 20.5249 161.978 21.6867 159.256 22.3737L159.15 22.4175C158.767 22.5174 157.444 22.8547 157.293 22.8547C155.857 23.2982 148.884 23.9602 143.622 23.5293C142.274 24.0352 141.258 24.5161 138.373 25.934C137.891 26.0277 137.42 26.0652 136.962 26.0589C138.342 24.7597 141.139 23.8728 142.732 23.4418H142.675C139.784 24.004 138.167 24.5849 135.846 26.1714C135.119 26.3213 134.09 26.5461 133.977 26.5336C131.964 26.2463 130.453 25.1657 130.34 24.5224C131.513 24.1351 137.408 22.8922 140.581 22.2301L143.052 20.8809C143.052 20.8809 139.766 21.3057 136.705 20.9809C133.645 20.6561 132.673 20.1127 132.673 20.1127L134.717 19.0133C130.422 20.2751 126.985 19.3256 124.608 18.9009L127.863 18.0639C121.943 18.9072 117.441 17.2332 113.847 15.5592C111 14.2351 111.263 13.3169 111.263 13.3169C111.263 13.3169 116.224 14.1039 117.434 14.0852C111.815 12.8297 107.745 11.3744 104.008 7.22071C104.008 7.22071 107.407 8.45744 108.918 8.68854C110.429 8.91965 110.718 8.95088 110.718 8.95088C110.718 8.95088 106.654 6.15263 105.456 3.59797C104.259 1.04332 105.08 0.0439453 105.08 0.0439453L105.068 0.0501914Z" stroke="white" stroke-width="0.1" stroke-miterlimit="22.93"/>
<path fill-rule="evenodd" clip-rule="evenodd" d="M151.693 17.0893C136.404 15.7464 120.451 12.0737 111.815 7.17676C119.441 13.5041 148.608 18.4072 158.197 17.7951C156.321 17.4828 152.948 17.2017 151.687 17.0893H151.693Z" fill="white"/>
<path d="M213.012 38.1509C213.125 38.1259 213.282 38.1134 213.432 38.1134C213.664 38.1134 213.821 38.1572 213.921 38.2571C214.003 38.3321 214.053 38.4445 214.053 38.5757C214.053 38.7943 213.909 38.9442 213.733 39.0004C213.859 39.0504 213.94 39.1753 213.984 39.3502C214.04 39.5813 214.078 39.7437 214.109 39.8124H213.884C213.852 39.7624 213.821 39.6187 213.771 39.4126C213.721 39.1815 213.627 39.0941 213.432 39.0878H213.225V39.8186H213.006V38.1634L213.012 38.1509ZM213.231 38.9129H213.451C213.683 38.9129 213.833 38.788 213.833 38.5944C213.833 38.3758 213.677 38.2821 213.445 38.2821C213.338 38.2821 213.269 38.2946 213.231 38.3008V38.9129ZM215 38.9504C215 38.1134 214.316 37.4326 213.476 37.4326C212.636 37.4326 211.952 38.1134 211.952 38.9504C211.952 39.7874 212.636 40.4682 213.476 40.4682C214.316 40.4682 215 39.7874 215 38.9504ZM213.482 40.2559C212.755 40.2559 212.165 39.6687 212.165 38.9442C212.165 38.2196 212.755 37.6387 213.482 37.6387C214.21 37.6387 214.793 38.2259 214.793 38.9442C214.793 39.6625 214.203 40.2559 213.482 40.2559Z" fill="#03428E"/>
</g>
<defs>
<clipPath id="clip0_6283_1639">
<rect width="130" height="80" fill="white" transform="translate(85)"/>
</clipPath>
</defs>
</svg>
