<svg width="180" height="64" viewBox="0 0 180 64" fill="none" xmlns="http://www.w3.org/2000/svg">
<g clip-path="url(#clip0_6001_2241)">
<g clip-path="url(#clip1_6001_2241)">
<g clip-path="url(#clip2_6001_2241)">
<path d="M123.168 23.3166C122.894 23.1763 122.636 23.0023 122.262 22.7776C122.768 22.4205 123.182 22.199 123.51 21.8843C124.865 20.5895 124.927 19.3035 124.657 17.6668C124.497 16.6908 123.704 15.6129 122.874 15.0814C121.718 14.3398 120.425 14.0865 119.098 14.0667L108.201 14.0168V17.2639H109.631V29.6216H108.249V32.7644L119.23 32.8045C121.348 32.7644 125.335 31.7843 125.536 28.1141C125.648 26.0533 125.141 24.3239 123.168 23.3166ZM115.196 17.6986C116.211 17.1569 117.666 17.3599 118.29 18.0858C118.891 18.789 118.924 20.2466 118.355 21.0528C117.888 21.7131 116.387 21.9346 115.196 21.4602V17.6986ZM119.233 28.4943C118.545 29.4961 116.951 29.8348 115.217 29.2958V24.7982C116.708 24.2551 118.432 24.5638 119.108 25.4484C119.737 26.2688 119.795 27.6762 119.233 28.4938V28.4943Z" fill="#010B13"/>
<path d="M127.812 26.5369C127.989 28.9068 129.022 30.921 131.175 32.1221C133.409 33.3679 135.819 33.6037 138.291 33.0482C140.682 32.4603 142.106 30.9676 142.825 29.7923C143.505 28.6816 143.729 27.1644 143.729 24.5343C143.738 22.486 143.694 17.2635 143.694 17.2635H144.996V14.117H137.39V17.2635H138.578C138.578 17.2635 138.471 26.255 138.246 26.9873C137.857 28.2557 137.156 28.6969 135.833 28.6756C134.527 28.6549 133.84 28.1681 133.493 26.8885C133.299 26.1733 133.208 17.2635 133.208 17.2635H134.403V14.1105H126.158V17.2635H127.539C127.539 17.2635 127.618 23.9478 127.812 26.5364V26.5369Z" fill="#010B13"/>
<path d="M69.9237 29.6215H68.4782V25.0381C69.3562 25.0381 70.1165 25.0469 70.8768 25.0367C72.4684 25.0151 73.9963 24.7022 75.3566 23.8347C76.9354 22.8269 77.6219 21.331 77.5679 19.4714C77.5097 17.4605 76.928 15.6941 74.9151 14.9023C73.8099 14.4662 72.5957 14.1432 71.4168 14.0948L61.5732 14.1132V17.263H62.9569V29.6206H61.5732V32.7634H69.9232V29.6206L69.9237 29.6215ZM68.5098 17.5311C69.8871 17.1153 71.4095 17.4826 71.998 18.3141C72.5627 19.1143 72.5994 20.4436 72.0773 21.2082C71.4246 22.1616 69.9961 22.5289 68.5098 22.0845V17.5311Z" fill="#010B13"/>
<path d="M95.1261 29.622H93.0742V32.7644H102.723V29.622H100.714V17.2644H103.097V20.8262H106.761V14.0833H89.0186V20.8553H92.7V17.2649H95.1261V29.6225V29.622Z" fill="#010B13"/>
<path d="M157.209 29.622H153.68V17.2644H154.882V14.0967H146.733V17.2644H147.982V29.622H146.693V32.7644H161.512V26.0325H157.208V29.6216L157.209 29.622Z" fill="#010B13"/>
<path d="M173.697 26.0325V29.6215H170.168V17.2639H171.37V14.0962H163.221V17.2639H164.47V29.6215H163.181V32.7639H178V26.0321H173.696L173.697 26.0325Z" fill="#010B13"/>
<path d="M80.4507 29.622H78.9544V32.7644H87.5297V29.622H86.1012V17.2644H87.5512V14.0953H78.9214V17.2644H80.4507V29.622Z" fill="#010B13"/>
</g>
<g clip-path="url(#clip3_6001_2241)">
<path d="M89.815 47.2635C89.2718 46.6738 89.2668 46.6853 88.6938 47.2515C88.0338 47.9035 87.323 48.4692 86.4134 48.7475C85.6283 48.9879 84.8978 48.8434 84.2406 48.4259C83.4523 47.9252 82.9975 47.1477 82.7502 46.2511C82.452 45.1704 82.469 44.0815 82.753 43.0049C82.9096 42.4106 83.1024 41.8227 83.4734 41.3119C84.0871 40.4675 85.0916 40.1385 85.9664 40.5524C86.597 40.8505 86.9877 41.3825 87.192 42.0461C87.2758 42.3179 87.3917 43.1729 87.3917 43.1729H91.4936V36.3368H87.77V37.261C87.6963 37.4696 87.557 37.6699 87.3244 37.7626C87.2222 37.6735 87.1192 37.5799 87.0115 37.4908C86.2792 36.885 85.4328 36.5407 84.4952 36.4692C83.0676 36.3608 81.8131 36.848 80.6617 37.6685C79.66 38.3823 78.8869 39.2955 78.2988 40.3697C77.8165 41.2506 77.4469 42.196 77.3457 43.1886C77.2037 44.5835 77.1634 45.9923 77.5628 47.371C77.8641 48.4106 78.3148 49.375 79.0041 50.2033C80.4098 51.8931 82.2821 52.618 84.4132 52.7578C84.9079 52.7901 86.3341 52.7504 86.5366 52.6964C87.5611 52.4223 88.5821 52.1409 89.5045 51.5821C90.2565 51.1271 90.9316 50.5775 91.5399 49.9472C91.838 49.6385 91.8335 49.5384 91.5573 49.2181C90.9866 48.5569 90.4054 47.904 89.8141 47.2617L89.815 47.2635Z" fill="#010B13"/>
<path d="M171.985 39.0786H173.277L171.195 43.8923L169.127 39.0786H170.423V36.3382H162.873V39.0786H163.984L168.168 46.9225V49.6842H166.973V52.4389H173.971V49.6842H172.853V46.9806L176.901 39.0786H178V36.3382H171.985V39.0786Z" fill="#010B13"/>
<path d="M73.6987 39.0782H74.7897L74.7938 36.3359H63.7805V39.0782H64.8669C64.8669 39.0782 63.2198 48.5103 62.9931 49.6837H61.5742V52.4389H67.9964V51.1428C67.9992 50.5411 67.9964 50.2467 67.9964 49.6837H67.1693L67.8755 47.88L70.4445 47.8772L71.2602 49.6837H70.4844V52.4389H76.913V49.6837H75.4634L73.6987 39.0782ZM67.8884 45.5022L68.9835 40.2617L70.4844 45.5022H67.8884Z" fill="#010B13"/>
<path d="M104.986 39.0781H106.077L106.081 36.3386H95.0695V39.0781H96.1559C96.1559 39.0781 94.5075 48.5103 94.2821 49.6837H92.855V52.4389H99.2836V51.1428C99.2864 50.5411 99.2836 50.2467 99.2836 49.6837H98.4564L99.1627 47.88L101.732 47.8772L102.547 49.6837H101.772V52.4389H108.2V49.6837H106.751L104.986 39.0781H104.986ZM99.176 45.5022L100.271 40.2617L101.772 45.5022H99.176Z" fill="#010B13"/>
<path d="M125.553 39.0786H126.944V49.6837H125.553V52.4389H139.088V47.9916H135.141V49.6837H131.66C131.66 49.6837 131.647 45.9479 131.66 45.7809H135.945V42.747H131.679C131.673 42.3155 131.672 39.3287 131.672 39.0791H135.142V41.0937H139.089V36.3391H125.554V39.0791L125.553 39.0786Z" fill="#010B13"/>
<path d="M123.831 39.8598C123.151 38.8225 122.121 37.8189 120.982 37.3358C119.404 36.6686 117.725 36.4498 116.043 36.3783C114.117 36.2967 109.552 36.3382 109.552 36.3382V39.0777H110.935C110.925 40.3582 110.935 49.6819 110.935 49.6819L109.552 49.6833V52.4385H110.939V52.433C111.783 52.4288 112.69 52.4343 113.875 52.4343C115.945 52.4113 118.49 52.5515 120.903 51.4838C122.142 50.9352 123.168 50.1618 123.961 49.0783C124.678 48.0992 125.208 47.0074 125.249 45.7842C125.288 44.6666 125.29 43.5107 125.048 42.43C124.845 41.5238 124.348 40.648 123.831 39.8589V39.8598ZM119.917 45.7565C119.914 46.8298 119.572 47.7674 118.785 48.5076C118.083 49.1679 117.228 49.405 116.297 49.2149C116.134 49.1808 115.938 48.8149 115.932 48.5975C115.898 47.2612 115.915 45.9235 115.915 44.5858C115.914 43.2611 115.932 41.9363 115.904 40.6115C115.894 40.1256 116.181 39.9498 116.542 39.8981C117.644 39.7408 119.1 40.8155 119.527 41.826C120.073 43.1208 119.921 44.434 119.917 45.756V45.7565Z" fill="#010B13"/>
<path d="M151.697 39.0786H152.872C152.423 40.8048 150.993 46.66 150.993 46.66C150.993 46.66 149.325 40.5409 148.856 39.0786H150.029V36.3382H140.213V39.0786H141.614C141.603 41.581 141.61 47.1108 141.613 49.6842H140.237V52.4389H146.943V49.6842H145.801C145.79 47.3724 145.798 43.8443 145.811 41.9095H146.025C146.313 42.7258 149.374 52.4389 149.374 52.4389H152.172C152.172 52.4389 155.473 42.1005 155.599 41.916L155.793 41.9215C155.799 43.6237 155.798 47.982 155.799 49.6837H154.639V52.4385H161.346V49.6837H160.091C160.092 47.2386 160.091 41.7845 160.091 39.0782H161.512V36.3377H151.697V39.0782L151.697 39.0786Z" fill="#010B13"/>
</g>
</g>
<g clip-path="url(#clip4_6001_2241)">
<path d="M19.6656 61.9819L19.2076 54.599L15.5435 52.7532L8.21537 55.9833L7.75736 55.0604L11.8795 48.6004L10.0474 46.2932L2.26124 45.8318L1.80323 43.986L8.21537 40.2946L7.75736 37.526L0.887207 33.3731L1.34522 31.9888H7.29935L8.21537 25.5287V19.0686V13.9929L10.0474 7.07138L12.7955 4.30279L13.7115 1.99562L15.0855 1.53419L17.3756 3.84135L18.1177 7.53282H24.7037L29.2838 7.99425L33.864 7.07138L37.07 7.53282L38.4441 2.45706L40.7341 1.53419L42.1081 3.84135L44.8562 6.60995L45.7722 11.2243L47.1463 18.1458L46.6882 24.6058L47.6043 31.9888H53.5584L54.0164 33.3731L47.6043 37.526L47.1463 40.2946L53.5584 44.9089L52.6424 45.8318H44.8562L43.4822 48.6004L47.6043 55.0604L47.1463 55.5218L46.6882 55.9833L38.9021 52.7532L36.154 55.0604L35.696 61.5205L35.238 62.9048L33.864 61.9819L30.1999 56.4447H25.1618L21.4977 62.4433L20.1236 62.9048L19.6656 61.9819Z" fill="#010B13"/>
<path d="M8.65068 34.6311C8.44889 34.2345 8.04841 33.9888 7.6077 33.9888H5.95752L8.80356 35.6052L8.87103 35.6445L8.88465 35.6414L8.76209 34.9604C8.74166 34.8431 8.70329 34.7334 8.6513 34.6317L8.65068 34.6311Z" fill="#E7E7E7"/>
<path d="M10.1322 42.5464C10.0431 42.2889 9.84625 42.0956 9.58876 42.0145C9.35664 41.9384 9.1041 41.9702 8.89427 42.0993L5.77588 44.0331H9.45939C9.74536 44.0331 10.0078 43.8909 10.1644 43.6502C10.3074 43.4301 10.3408 43.1588 10.2566 42.91L10.1322 42.5471V42.5464Z" fill="#E7E7E7"/>
<path d="M14.2412 49.1903C14.0394 49.1903 13.8426 49.2427 13.673 49.3431C13.5319 49.4229 13.4087 49.5395 13.3183 49.6786L11.2441 52.8558L14.7376 51.1378C14.8924 51.063 15.0205 50.9582 15.1158 50.831C15.4352 50.4125 15.3801 49.8295 14.9846 49.4734C14.7828 49.2907 14.5185 49.1903 14.2412 49.1903Z" fill="#E7E7E7"/>
<path d="M20.263 27.3088C20.1299 27.2359 19.7245 27.0394 19.1965 26.7869C18.7391 27.4173 18.0223 27.7154 17.1242 27.3768C16.4111 27.1093 16.2613 26.028 16.2359 25.3956C15.9097 25.2428 15.6256 25.1106 15.4183 25.0127C15.2351 24.9279 15.0246 25.0689 15.0345 25.2722C15.1206 27.3512 17.0833 28.465 17.9883 28.6309C18.9539 28.8073 20.7786 27.5919 20.2624 27.3088H20.263Z" fill="#E7E7E7"/>
<path d="M22.7757 53.8505C22.6661 53.818 22.5553 53.8012 22.4445 53.8012C21.9246 53.8012 21.4603 54.1704 21.3409 54.6792C21.3174 54.774 21.3075 54.8688 21.3087 54.9673L21.3743 58.6291L23.3928 55.5859C23.4466 55.5049 23.4887 55.4213 23.519 55.3371C23.6249 55.044 23.6032 54.7135 23.4633 54.4323C23.3222 54.1492 23.0783 53.9428 22.7757 53.8511V53.8505Z" fill="#E7E7E7"/>
<path d="M32.868 53.8012C32.7572 53.8012 32.6458 53.818 32.5369 53.8505C32.2361 53.9421 31.9903 54.1486 31.8504 54.4317C31.7093 54.7129 31.6889 55.0434 31.7935 55.3365C31.8238 55.4213 31.8659 55.5043 31.9198 55.5853L33.9382 58.6285L34.0039 54.9667C34.0057 54.8682 33.9952 54.7734 33.9717 54.6786C33.8522 54.1704 33.388 53.8006 32.868 53.8006V53.8012Z" fill="#E7E7E7"/>
<path d="M39.8951 25.0127C39.6865 25.1113 39.4042 25.2435 39.0762 25.3956C39.0508 26.028 38.901 27.1087 38.1879 27.3768C37.2917 27.7154 36.5749 27.4173 36.1175 26.7869C35.5876 27.0394 35.1822 27.2359 35.051 27.3088C34.6202 27.5445 35.8061 28.422 36.7736 28.6122C36.9723 28.6508 37.1623 28.6595 37.3251 28.6309C37.564 28.5866 37.8766 28.4768 38.2096 28.3004C39.1362 27.8071 40.2145 26.8006 40.2782 25.2722C40.2869 25.0689 40.0783 24.9279 39.8944 25.0127H39.8951Z" fill="#E7E7E7"/>
<path d="M13.2847 13.2691C12.7617 13.0639 11.7639 12.6792 11.3994 12.9336C11.036 13.1843 10.3867 14.8686 10.8844 15.0245C11.3839 15.1786 11.2409 14.8194 11.5541 14.4433C11.8667 14.0686 12.0152 13.8996 12.3532 14.1266C12.6893 14.3517 12.1799 14.3535 11.8939 15.3282C11.8853 15.3619 11.8735 15.3975 11.8654 15.433C11.8586 15.4598 11.8506 15.4873 11.8438 15.5159C11.8388 15.5365 11.8339 15.5583 11.8271 15.5802C11.8085 15.6531 11.7918 15.7273 11.7751 15.8053C11.7652 15.8477 11.7546 15.8932 11.7466 15.9394C11.7231 16.051 11.7014 16.1701 11.6791 16.2898C11.6723 16.3235 11.6674 16.3578 11.6624 16.3915C11.6358 16.5492 11.6117 16.7132 11.59 16.8797C11.5832 16.934 11.5764 16.9901 11.5714 17.0456C11.5665 17.0712 11.5646 17.0949 11.5628 17.1205C11.5461 17.2645 11.5343 17.4104 11.5256 17.5545C11.5225 17.6119 11.5188 17.668 11.517 17.7253C11.4848 18.4387 11.5423 19.1185 11.7695 19.5282C12.2826 20.4517 12.459 20.6463 13.1152 20.4736C13.7694 20.3008 14.03 20.3226 13.6852 20.8396C13.3405 21.3566 12.8057 21.7956 13.7019 22.4865C14.597 23.1781 15.7285 23.9931 16.3091 24.1266C16.889 24.2607 17.9289 24.1366 19.1452 24.9042C20.3615 25.67 22.5279 27.9 23.9521 27.1935C25.377 26.4869 24.0382 26.041 24.0784 24.8462C24.1186 23.6533 24.8825 24.8718 25.2978 25.1019C25.2978 25.1019 25.3665 24.6055 24.9951 23.6427C24.625 22.6786 24.8942 22.1005 24.8942 22.1005C24.8942 22.1005 25.8493 22.4872 25.8734 24.8425C25.8951 27.1997 26.0839 27.4404 25.088 27.8676C24.092 28.2947 22.1813 29.2557 21.2881 29.8469C20.3949 30.4418 18.8103 31.1415 16.3815 29.4964C13.9508 27.8507 12.7685 26.7357 12.0586 28.3677C11.3505 29.9997 11.5522 31.2687 12.0722 30.7929C12.5884 30.3164 13.0563 29.9454 14.1043 29.9454C15.1522 29.9454 13.026 30.5098 13.398 31.1776C13.7713 31.8468 15.4802 33.3315 15.8622 34.3973C16.2441 35.4618 19.6261 35.8309 18.8914 36.1458C18.1579 36.4608 17.1441 36.2425 17.1775 36.6965C17.2109 37.1505 18.2155 37.8676 19.0294 38.059C19.8434 38.2486 20.6543 39.7889 20.6425 40.1755C20.6307 40.5603 19.9647 42.2172 19.5104 42.1499C19.0561 42.0806 19.4349 40.435 18.8462 39.9317C18.2576 39.4285 17.4096 39.8775 17.6553 40.6551C17.8973 41.4327 19.9127 45.0745 21.5982 46.086C23.2855 47.0994 22.1045 45.5927 23.6117 44.6966C24.318 44.2782 24.9691 44.0868 25.4315 43.8984C25.9545 43.6852 26.2318 43.4731 26.069 42.9393C25.9124 42.4292 25.6432 42.3008 25.4383 42.1499C25.2365 42.0058 25.0935 41.843 25.169 41.2924C25.3219 40.1755 26.0183 39.7671 23.7244 39.7066C21.4298 39.6436 20.0848 39.1628 21.2014 37.1835C21.9733 35.8128 24.222 34.3231 27.4704 34.4858C27.5948 34.4908 27.7211 34.4908 27.8455 34.4858C28.8544 34.4347 29.7915 34.5432 30.6259 34.7583C30.6476 35.0246 30.6191 35.3158 30.4947 35.5989C30.0911 36.5206 28.0188 37.1224 24.6466 36.5799C22.9346 36.3055 24.5389 37.3101 26.8805 37.3662C30.6061 37.456 31.5853 36.134 32.4327 35.4512C33.3661 35.9513 33.7746 36.578 34.1145 37.1829C35.2311 39.1622 33.8854 39.6436 31.5915 39.706C29.297 39.7671 29.9952 40.1755 30.1468 41.2918C30.2223 41.8424 30.0794 42.0052 29.8794 42.1492C29.6727 42.3001 29.4034 42.4286 29.2468 42.9387C29.0834 43.4725 29.3614 43.6845 29.8862 43.8978C30.3474 44.0861 30.9998 44.2776 31.7042 44.696C33.2126 45.5921 32.0304 47.0987 33.7177 46.0854C35.4032 45.0739 37.4179 41.4321 37.6618 40.6545C37.9057 39.8768 37.0577 39.4278 36.469 39.9311C35.8804 40.4343 36.2586 42.08 35.8049 42.1492C35.3524 42.2172 34.6845 40.5597 34.6728 40.1749C34.6629 39.7883 35.4719 38.248 36.2858 38.0584C36.5805 37.9892 36.8998 37.8501 37.1889 37.6805H37.1908C38.5011 36.6266 36.9822 37.1941 35.5071 37.6076C34.034 38.0191 35.1525 36.6029 36.0135 35.7636C36.8732 34.923 35.9869 33.2318 34.9098 32.0762C33.8353 30.9207 35.3035 31.6085 36.4424 32.2864C37.5813 32.9661 37.6921 32.6811 36.7841 31.5848C36.271 30.9662 35.6167 30.9001 35.0417 30.7866V30.7885C35.0417 30.7885 33.3717 30.7006 33.4033 29.5787C33.4354 28.4587 32.3182 28.2978 32.1938 27.5776C32.0694 26.8573 31.8558 26.1084 32.6698 26.3865C33.4819 26.6628 34.2624 26.7033 34.9049 26.124C34.9067 26.1221 34.9098 26.1209 34.9098 26.119C35.3388 25.6613 35.7275 25.1855 36.1713 24.9042C37.3876 24.1366 38.425 24.26 39.0056 24.1266C39.1015 24.106 39.2111 24.0655 39.3318 24.01C39.3504 24.0013 39.3708 23.9931 39.3887 23.9832C39.3955 23.9813 39.4036 23.9763 39.4123 23.9744C39.7737 23.7967 40.6199 23.7013 41.2556 23.6527C41.6276 23.6221 41.994 23.122 41.7012 22.8869C40.0547 21.5549 40.1891 20.7143 40.1637 19.9279C40.1402 19.1434 39.5193 17.9268 40.1216 18.5635C40.7239 19.1989 41.7012 20.4848 41.8925 19.7514C42.0844 19.0193 41.2884 19.1839 41.726 17.8775C41.7427 17.8233 41.7613 17.774 41.7817 17.7247C41.7953 17.6873 41.8102 17.6518 41.8238 17.6162C41.8844 17.4772 41.9463 17.3537 42.0157 17.2433C42.041 17.199 42.0677 17.1566 42.0961 17.118C42.1227 17.0737 42.1518 17.035 42.1822 16.9957C42.2125 16.9533 42.2478 16.9128 42.28 16.8754C42.3171 16.8311 42.3524 16.7906 42.3908 16.7532C42.4093 16.7326 42.4279 16.7126 42.4465 16.6958C42.465 16.6771 42.4836 16.6584 42.5022 16.6415C42.5405 16.606 42.5765 16.5723 42.6148 16.5399C42.6402 16.5162 42.6668 16.4925 42.6922 16.4719C42.7491 16.4227 42.8067 16.3771 42.8618 16.331C42.8872 16.3104 42.9126 16.2904 42.9373 16.2699C43.0432 16.1819 43.1428 16.0953 43.2264 16.0036C43.2499 15.9768 43.2716 15.9512 43.2938 15.9238L43.2969 15.9207C43.3223 15.8882 43.3458 15.8564 43.3675 15.8221C43.7277 15.2547 42.6711 15.1798 42.1865 15.4374C41.7018 15.6968 40.1074 16.2437 40.9368 15.5053C41.7662 14.7645 42.9986 14.2613 42.8476 13.6414C42.6978 13.0228 42.0503 13.2585 42.0503 13.2585C42.0417 13.2616 42.0355 13.2635 42.0287 13.2672C41.5056 13.4705 41.1509 13.0908 40.2961 11.9153C39.442 10.7361 40.5134 9.83121 40.8124 9.53437C41.1132 9.23754 41.0377 8.91078 40.8749 8.12816C40.7102 7.34679 41.4771 6.64524 41.4771 6.64524C41.4771 6.64524 41.4771 7.26697 41.9748 8.02963C42.4743 8.79042 42.2273 8.94632 41.8925 9.91539C41.5595 10.8832 41.8033 11.1776 42.0218 11.0865C42.2403 10.9936 41.8368 10.6444 42.1617 10.3039C42.4848 9.96154 42.8952 10.8951 43.4907 11.2611C44.0861 11.6253 44.1666 11.3578 43.9345 10.0158C43.7055 8.67194 43.344 9.62293 42.6879 7.28256C42.0317 4.94094 40.5772 4.38843 40.5772 4.38843C38.68 6.195 39.0297 10.1736 39.0297 10.1736C38.6125 10.6026 37.1091 9.56493 34.9086 9.00931C33.8421 8.74178 32.7286 8.80601 31.607 8.97376C30.6971 9.25001 29.1076 9.65161 27.6579 9.58863C26.2064 9.65161 24.6188 9.25001 23.7089 8.97376C22.5873 8.80601 21.4738 8.74178 20.4054 9.00931C18.2056 9.56493 16.7033 10.602 16.2843 10.1736C16.2843 10.1736 16.634 6.195 14.7369 4.38843C14.7369 4.38843 13.2817 4.94094 12.6262 7.28256C11.97 9.62293 11.6086 8.67194 11.3795 10.0158C11.1493 11.3578 11.2298 11.6259 11.8252 11.2611C12.4207 10.8951 12.831 9.96154 13.1523 10.3039C13.4766 10.6444 13.0749 10.9936 13.2934 11.0865C13.5119 11.1782 13.7546 10.8832 13.4215 9.91539C13.0867 8.94632 12.8397 8.79042 13.3392 8.02963C13.8369 7.26697 13.8369 6.64524 13.8369 6.64524C13.8369 6.64524 14.6038 7.34679 14.4391 8.12816C14.2757 8.91078 14.2002 9.23817 14.5016 9.53437C14.8012 9.83121 15.8727 10.7361 15.0179 11.9153C14.1637 13.0914 13.8084 13.4712 13.2854 13.2672L13.2847 13.2691Z" fill="#E7E7E7"/>
<path d="M41.639 49.3431C41.4694 49.2433 41.2726 49.1903 41.0708 49.1903C40.7935 49.1903 40.5292 49.2901 40.3274 49.4734C39.9337 49.8295 39.8768 50.4119 40.1962 50.831C40.294 50.9582 40.4196 51.063 40.5744 51.1378L44.0697 52.8558L41.9943 49.6786C41.9033 49.5395 41.7808 49.4229 41.6396 49.3431H41.639Z" fill="#E7E7E7"/>
<path d="M44.0373 38.2898C42.1116 40.3963 41.1275 44.8158 40.3859 46.4471C39.6426 48.0791 37.4372 48.2842 35.5771 49.8482C35.3314 50.0552 34.9681 50.233 34.5274 50.3851C34.1151 50.5292 33.6497 50.3159 33.5067 49.9006C33.308 49.3294 32.8122 48.6534 31.6479 48.1639C31.0543 47.9132 30.452 47.7417 29.8968 47.6319C28.2386 47.2965 26.987 47.5029 27.5385 47.786C27.8431 47.9437 28.8452 47.9911 29.8981 48.2013C31.0518 48.4301 32.2681 48.8517 32.7001 49.8214C32.9155 50.2978 32.5924 50.8466 32.0781 50.9177C31.3731 51.0175 30.6297 51.0886 29.9086 51.1416C29.1082 51.1989 28.3327 51.2332 27.6561 51.2532C26.9802 51.2326 26.2028 51.1989 25.4024 51.1416C23.1234 50.9757 20.6493 50.6177 19.7339 49.8488C17.8739 48.2849 15.6685 48.0797 14.9269 46.4477C14.1835 44.8158 13.1994 40.3963 11.2737 38.2904C10.9339 37.9156 10.604 37.4548 10.2964 36.9297C10.3032 41.3916 12.214 45.5367 15.6802 48.6054C15.7019 48.6222 15.7291 48.6459 15.7557 48.6696C18.9534 51.4727 23.1314 53.0161 27.5193 53.0161H27.7898C32.1784 53.0161 36.3564 51.4721 39.5534 48.6696L39.6426 48.7731L39.5553 48.6696C39.5807 48.6459 39.6073 48.6222 39.6296 48.6054C43.0964 45.5367 45.0066 41.3916 45.0134 36.9316C44.707 37.4554 44.3777 37.9163 44.036 38.2904L44.0373 38.2898Z" fill="#E7E7E7"/>
<path d="M46.509 35.6052L49.3551 33.9888H47.7068C47.2642 33.9888 46.8656 34.2345 46.6626 34.6311C46.6106 34.7328 46.5734 34.8431 46.5518 34.9598L46.4292 35.6407L46.4428 35.6438L46.5103 35.6046L46.509 35.6052Z" fill="#E7E7E7"/>
<path d="M45.7235 42.0139C45.4679 42.095 45.2692 42.2883 45.1819 42.5458L45.0575 42.9088C44.9715 43.1576 45.0055 43.4288 45.1485 43.649C45.3051 43.8897 45.5688 44.0319 45.8547 44.0319H49.5364L46.4199 42.0981C46.2094 41.969 45.9575 41.9372 45.7235 42.0133V42.0139Z" fill="#E7E7E7"/>
<path d="M53.4263 43.1882L48.0338 39.8451C48.1465 39.2165 48.2325 38.581 48.2913 37.9437L53.9543 34.7259C54.7212 34.2907 55.1 33.3858 54.8759 32.5284C54.6525 31.6709 53.8819 31.071 53.0005 31.071H48.5178C48.602 29.7783 48.4894 28.5835 48.1817 27.5546C47.7596 26.1515 47.8741 24.7633 47.9948 23.2929C48.1143 21.8355 48.2387 20.3258 47.8066 18.8073C47.6853 18.3839 47.6216 18.0091 47.608 17.6618C47.5962 17.3076 47.6364 16.9958 47.6853 16.6347C47.7949 15.8334 47.9273 14.835 47.4396 13.3914C47.3505 13.127 47.2681 12.8862 47.1908 12.663C46.6523 11.0872 46.4709 10.5565 46.3533 9.16524C46.1546 6.82674 45.5561 5.93686 43.5964 4.09849C42.6983 3.25476 42.5299 2.59686 42.4309 2.20212C42.3467 1.8685 42.148 1.08526 41.3124 0.741656C41.1056 0.654976 40.8803 0.611322 40.6482 0.611322C39.7179 0.611322 38.8588 1.37586 38.428 1.83171C37.8913 2.40105 37.2036 3.36888 36.9715 4.74953C36.9344 4.97839 36.8972 5.21224 36.8607 5.44235C36.8118 5.75228 36.7512 6.13891 36.6855 6.48625C35.9756 6.28296 35.0576 6.11022 33.9825 6.11022C32.9884 6.11022 31.9894 6.25926 31.0157 6.55423C29.5036 7.01195 28.2811 7.12357 27.6566 7.14727C27.0308 7.12357 25.8083 7.01195 24.2974 6.55423C23.3219 6.25926 22.3247 6.11022 21.3288 6.11022C20.2555 6.11022 19.3376 6.28296 18.6257 6.48625C18.5601 6.13891 18.4995 5.75228 18.4506 5.44235C18.4153 5.21162 18.3782 4.97777 18.3398 4.74953C18.1095 3.36826 17.4212 2.40105 16.8846 1.83171C16.4538 1.37773 15.5946 0.611322 14.6625 0.611322C14.4303 0.611322 14.2069 0.655598 13.9946 0.743525C13.1639 1.08588 12.9652 1.8685 12.8792 2.20275C12.7802 2.59749 12.6137 3.25476 11.7137 4.09911C9.75399 5.93748 9.15545 6.82736 8.95675 9.16586C8.83915 10.5571 8.65903 11.0878 8.11928 12.6636C8.04377 12.8875 7.95958 13.1282 7.87045 13.3907C7.3827 14.8362 7.51702 15.834 7.62472 16.636C7.67362 16.997 7.71571 17.3088 7.70209 17.6661C7.69033 18.0104 7.62472 18.3845 7.50526 18.8098C7.07322 20.3264 7.19577 21.8361 7.31709 23.2935C7.43841 24.7646 7.55106 26.1521 7.13016 27.5552C6.82068 28.5835 6.70802 29.7783 6.79406 31.0717H2.30959C1.43003 31.0717 0.658172 31.6716 0.434104 32.529C0.210654 33.3864 0.590703 34.2913 1.35761 34.7266L7.01936 37.9443C7.08002 38.5817 7.16544 39.2171 7.27686 39.8457L1.88436 43.1888C1.13726 43.6534 0.796201 44.5345 1.03512 45.3851C1.27405 46.2357 2.02425 46.8069 2.90195 46.8069H9.43646C9.4934 46.8088 9.54911 46.8088 9.60482 46.8088C9.66548 46.8088 9.72614 46.8069 9.78494 46.8069C9.88893 46.9834 9.99353 47.1643 10.0994 47.3526C10.308 47.7168 10.5215 48.0897 10.7586 48.4626L7.19268 53.921C6.80087 54.5209 6.76744 55.2866 7.1054 55.919C7.44522 56.5544 8.09762 56.9491 8.81067 56.9491C9.10345 56.9491 9.39746 56.8799 9.66362 56.749L15.7828 53.7414C16.6221 54.3581 17.5054 54.9125 18.4184 55.3901L18.5329 61.7633C18.5515 62.8397 19.4044 63.6834 20.474 63.6834C21.1214 63.6834 21.7218 63.3579 22.084 62.8141L25.5774 57.5459C26.2249 57.6102 26.876 57.6426 27.5204 57.6426H27.7909C28.4365 57.6426 29.0876 57.6102 29.7338 57.5459L33.2292 62.8141C33.5894 63.3579 34.1911 63.6834 34.8391 63.6834C35.9075 63.6834 36.7598 62.8397 36.7802 61.7633L36.8929 55.3901C37.8077 54.9125 38.6892 54.36 39.5285 53.7414L45.6495 56.749C45.9138 56.8793 46.2078 56.9491 46.5006 56.9491C47.2137 56.9491 47.8679 56.5544 48.2077 55.919C48.5457 55.2866 48.5123 54.5209 48.1186 53.921L44.5546 48.4626C44.7898 48.0897 45.0039 47.7168 45.2125 47.3526C45.3202 47.1643 45.4242 46.9834 45.5288 46.8069C45.5858 46.8069 45.6464 46.8088 45.7071 46.8088C45.7628 46.8088 45.8179 46.8088 45.8754 46.8069H52.4118C53.2883 46.8069 54.0385 46.2357 54.2774 45.3851C54.5163 44.5345 54.1746 43.6534 53.4282 43.1888L53.4263 43.1882ZM52.4106 45.112H45.8544C45.1933 45.1288 44.6703 45.0035 44.4332 45.3677C43.8613 46.2507 43.4088 47.2048 42.7967 48.0516C42.6135 48.3073 42.6135 48.6584 42.8134 48.9022C42.8623 48.9615 42.9093 49.0244 42.9514 49.0905L46.7142 54.8501C46.8571 55.0702 46.6219 55.3415 46.3861 55.2261L40.062 52.1169C39.9828 52.0782 39.9054 52.0339 39.8318 51.9847C39.5761 51.82 39.25 51.8219 39.011 52.0102C37.9482 52.8471 36.8062 53.5624 35.6048 54.1454C35.351 54.2677 35.1994 54.5352 35.2149 54.8202C35.218 54.8776 35.2198 54.9337 35.218 54.991L35.0985 61.7334C35.0935 61.986 34.7673 62.0826 34.6275 61.8725L30.9087 56.2651C30.8802 56.2208 30.853 56.1784 30.8282 56.1329C30.6852 55.8853 30.4011 55.7568 30.1182 55.7942C29.3476 55.8959 28.5689 55.947 27.7921 55.947H27.5216C26.7461 55.947 25.9655 55.8959 25.1955 55.7942C24.9127 55.7568 24.6286 55.8859 24.4856 56.1329C24.4602 56.1784 24.4336 56.2208 24.4051 56.2651L20.6863 61.8725C20.5464 62.0826 20.2202 61.986 20.2171 61.7334L20.0958 54.991C20.0958 54.9337 20.0958 54.8776 20.0989 54.8202C20.1138 54.5352 19.9646 54.2677 19.7089 54.1454C18.5081 53.5624 17.3674 52.8471 16.3046 52.0102C16.0657 51.8219 15.7376 51.8207 15.482 51.9847C15.4077 52.0339 15.3303 52.0776 15.2517 52.1169L8.92766 55.2261C8.69369 55.3415 8.45662 55.0702 8.60146 54.8501L12.3642 49.0905C12.4063 49.0244 12.4515 48.9615 12.5004 48.9022C12.7003 48.6584 12.7022 48.3073 12.5171 48.0516C11.9068 47.2042 11.4525 46.2501 10.8805 45.3677C10.6453 45.0035 10.1217 45.1288 9.46122 45.112H2.90505C2.64632 45.112 2.54852 44.7696 2.77073 44.6324L8.33468 41.1808C8.43372 41.1216 8.53647 41.0692 8.64231 41.0268C8.96047 40.9014 9.13873 40.5622 9.06755 40.2267C8.86576 39.2707 8.72959 38.2998 8.65903 37.322C8.64232 37.0676 8.50119 36.8374 8.27898 36.7121L8.27588 36.7102L2.18704 33.2499C1.95678 33.1196 2.04901 32.7653 2.31331 32.7653H7.62163C8.02025 32.7672 8.38544 32.5976 8.64231 32.3232C8.37677 30.8166 8.36501 29.3019 8.74321 28.0459C9.71004 24.8263 8.38296 21.881 9.12511 19.275C9.30028 18.6614 9.37085 18.16 9.38756 17.726C9.43646 16.3142 8.90662 15.5945 9.46679 13.937C10.2003 11.7694 10.4825 11.1289 10.6373 9.30929C10.7902 7.48962 11.1467 6.95021 12.8643 5.33883C14.5814 3.72745 14.4452 2.38858 14.6371 2.31063C14.8271 2.23081 16.3727 3.17494 16.684 5.03015C16.9935 6.88411 17.1687 8.90582 18.1337 8.46306C19.1024 8.02093 21.2254 7.39359 23.8152 8.17683C25.3156 8.63081 26.6681 8.8104 27.6584 8.84283C28.6475 8.8104 30.0012 8.63081 31.4998 8.17683C34.0902 7.39421 36.2145 8.02093 37.1813 8.46306C38.1469 8.90519 38.3215 6.88349 38.6328 5.03015C38.9423 3.17432 40.4879 2.23081 40.6779 2.31063C40.8698 2.38858 40.7349 3.72745 42.4525 5.33883C44.1683 6.95021 44.5248 7.489 44.6796 9.30929C44.8325 11.1289 45.1172 11.77 45.8488 13.937C46.409 15.5945 45.8792 16.3142 45.9293 17.726C45.9442 18.16 46.0166 18.6614 46.1899 19.275C46.9333 21.881 45.6043 24.8263 46.5718 28.0459C46.95 29.3019 46.9401 30.8166 46.6727 32.3232C46.9314 32.5976 47.2948 32.7672 47.6934 32.7653H53.0017C53.266 32.7653 53.3582 33.1196 53.128 33.2499L47.0391 36.7102L47.036 36.7121C46.8157 36.8374 46.6745 37.0682 46.656 37.322C46.5873 38.2998 46.4492 39.2707 46.2474 40.2267C46.1769 40.5622 46.3552 40.9014 46.6733 41.0268C46.781 41.0692 46.8838 41.1216 46.9809 41.1808L52.5467 44.6324C52.7671 44.7696 52.6712 45.112 52.4124 45.112H52.4106Z" fill="#E7E7E7"/>
</g>
</g>
<defs>
<clipPath id="clip0_6001_2241">
<rect width="180" height="64" fill="white"/>
</clipPath>
<clipPath id="clip1_6001_2241">
<rect width="116" height="42" fill="white" transform="translate(62 11)"/>
</clipPath>
<clipPath id="clip2_6001_2241">
<rect width="116.426" height="19.315" fill="white" transform="translate(61.5732 14.0168)"/>
</clipPath>
<clipPath id="clip3_6001_2241">
<rect width="116.426" height="16.4418" fill="white" transform="translate(61.5742 36.3276)"/>
</clipPath>
<clipPath id="clip4_6001_2241">
<rect width="54.5693" height="63.0721" fill="white" transform="translate(0.370605 0.611328)"/>
</clipPath>
</defs>
</svg>
