<svg width="116" height="42" viewBox="0 0 116 42" fill="none" xmlns="http://www.w3.org/2000/svg">
<g clip-path="url(#clip0_4673_12987)">
<g clip-path="url(#clip1_4673_12987)">
<path d="M61.168 12.3166C60.8941 12.1763 60.6363 12.0023 60.2616 11.7776C60.7682 11.4205 61.1822 11.199 61.5097 10.8843C62.8645 9.5895 62.9268 8.30348 62.6575 6.66678C62.4972 5.69085 61.7044 4.61294 60.8745 4.08137C59.7184 3.33985 58.4246 3.08652 57.0982 3.06668L46.2012 3.01685V6.26395H47.6311V18.6216H46.2493V21.7644L57.2301 21.8046C59.3479 21.7644 63.3354 20.7843 63.5355 17.1141C63.6477 15.0533 63.1411 13.3239 61.168 12.3166ZM53.1959 6.69862C54.2113 6.1569 55.6655 6.35993 56.2898 7.08576C56.8911 7.78899 56.9237 9.24665 56.3548 10.0528C55.8881 10.7131 54.3872 10.9346 53.1959 10.4602V6.69862ZM57.2333 17.4943C56.5453 18.4961 54.951 18.8348 53.2174 18.2958V13.7982C54.7083 13.2551 56.4318 13.5638 57.1082 14.4484C57.7366 15.2688 57.7948 16.6762 57.2333 17.4938V17.4943Z" fill="#010B13"/>
<path d="M65.8116 15.5369C65.9889 17.9068 67.0217 19.921 69.1748 21.1221C71.4085 22.368 73.819 22.6038 76.2909 22.0482C78.6817 21.4603 80.1061 19.9676 80.8252 18.7923C81.5049 17.6817 81.7293 16.1645 81.7293 13.5343C81.7376 11.486 81.6941 6.26351 81.6941 6.26351H82.9962V3.117H75.39V6.26351H76.5776C76.5776 6.26351 76.4709 15.255 76.246 15.9873C75.8567 17.2558 75.156 17.6969 73.8332 17.6757C72.5274 17.6549 71.8404 17.1681 71.4928 15.8885C71.2986 15.1733 71.2079 6.26351 71.2079 6.26351H72.4033V3.11053H64.1582V6.26351H65.5391C65.5391 6.26351 65.6179 12.9478 65.8116 15.5365V15.5369Z" fill="#010B13"/>
<path d="M7.92369 18.6215H6.47821V14.0381C7.35621 14.0381 8.11651 14.0469 8.87681 14.0367C10.4684 14.0151 11.9963 13.7022 13.3566 12.8347C14.9354 11.8269 15.6219 10.331 15.5679 8.4714C15.5097 6.46048 14.928 4.69411 12.9151 3.9023C11.8099 3.46624 10.5957 3.14324 9.4168 3.09479L-0.426758 3.11324V6.26299H0.956895V18.6206H-0.426758V21.7634H7.92323V18.6206L7.92369 18.6215ZM6.50981 6.53108C7.88705 6.11533 9.40947 6.48263 9.99802 7.31413C10.5627 8.11426 10.5994 9.44364 10.0773 10.2082C9.42459 11.1616 7.99606 11.5289 6.50981 11.0845V6.53108Z" fill="#010B13"/>
<path d="M33.1261 18.6221H31.0742V21.7644H40.7231V18.6221H38.7139V6.26443H41.0969V9.82623H44.761V3.08331H27.0186V9.8553H30.7V6.26489H33.1261V18.6225V18.6221Z" fill="#010B13"/>
<path d="M95.2088 18.6221H91.6798V6.26442H92.8821V3.09668H84.7332V6.26442H85.9822V18.6221H84.6929V21.7644H99.5118V15.0326H95.2083V18.6216L95.2088 18.6221Z" fill="#010B13"/>
<path d="M111.697 15.0325V18.6216H108.168V6.26393H109.37V3.09619H101.221V6.26393H102.47V18.6216H101.181V21.7639H116V15.0321H111.696L111.697 15.0325Z" fill="#010B13"/>
<path d="M18.4507 18.622H16.9544V21.7644H25.5297V18.622H24.1012V6.2644H25.5512V3.09528H16.9214V6.2644H18.4507V18.622Z" fill="#010B13"/>
</g>
<g clip-path="url(#clip2_4673_12987)">
<path d="M27.815 36.2635C27.2718 35.6738 27.2668 35.6854 26.6938 36.2515C26.0338 36.9035 25.323 37.4692 24.4134 37.7475C23.6283 37.9879 22.8978 37.8435 22.2406 37.4259C21.4523 36.9252 20.9975 36.1477 20.7502 35.2511C20.452 34.1705 20.469 33.0815 20.753 32.005C20.9096 31.4106 21.1024 30.8228 21.4734 30.312C22.0871 29.4675 23.0916 29.1385 23.9664 29.5524C24.597 29.8505 24.9877 30.3826 25.192 31.0461C25.2758 31.3179 25.3917 32.1729 25.3917 32.1729H29.4936V25.3368H25.77V26.261C25.6963 26.4696 25.557 26.6699 25.3244 26.7626C25.2222 26.6736 25.1192 26.5799 25.0115 26.4908C24.2792 25.885 23.4328 25.5407 22.4952 25.4692C21.0676 25.3608 19.8131 25.8481 18.6617 26.6685C17.66 27.3823 16.8869 28.2955 16.2988 29.3697C15.8165 30.2506 15.4469 31.1961 15.3457 32.1886C15.2037 33.5835 15.1634 34.9923 15.5628 36.371C15.8641 37.4106 16.3148 38.375 17.0041 39.2033C18.4098 40.8931 20.2821 41.618 22.4132 41.7578C22.9079 41.7901 24.3341 41.7504 24.5366 41.6964C25.5611 41.4223 26.5821 41.1409 27.5045 40.5821C28.2565 40.1271 28.9316 39.5775 29.5399 38.9472C29.838 38.6385 29.8335 38.5384 29.5573 38.2182C28.9866 37.5569 28.4054 36.904 27.8141 36.2617L27.815 36.2635Z" fill="#010B13"/>
<path d="M109.985 28.0786H111.277L109.195 32.8923L107.127 28.0786H108.423V25.3381H100.873V28.0786H101.984L106.168 35.9225V38.6842H104.973V41.4389H111.971V38.6842H110.853V35.9806L114.901 28.0786H116V25.3381H109.985V28.0786Z" fill="#010B13"/>
<path d="M11.6987 28.0782H12.7897L12.7938 25.3359H1.78046V28.0782H2.86686C2.86686 28.0782 1.21985 37.5103 0.993134 38.6837H-0.425781V41.439H5.99644V40.1428C5.99919 39.5411 5.99644 39.2467 5.99644 38.6837H5.16928L5.87553 36.88L8.44451 36.8772L9.26022 38.6837H8.48436V41.439H14.913V38.6837H13.4634L11.6987 28.0782ZM5.88835 34.5022L6.98346 29.2618L8.48436 34.5022H5.88835Z" fill="#010B13"/>
<path d="M42.9863 28.0782H44.0773L44.0814 25.3386H33.0695V28.0782H34.1559C34.1559 28.0782 32.5075 37.5103 32.2821 38.6837H30.855V41.4389H37.2836V40.1428C37.2864 39.5411 37.2836 39.2467 37.2836 38.6837H36.4564L37.1627 36.88L39.7317 36.8772L40.5474 38.6837H39.7715V41.4389H46.2002V38.6837H44.7506L42.9858 28.0782H42.9863ZM37.176 34.5022L38.2711 29.2617L39.772 34.5022H37.176Z" fill="#010B13"/>
<path d="M63.5527 28.0786H64.9442V38.6837H63.5527V41.4389H77.0883V36.9916H73.1407V38.6837H69.6598C69.6598 38.6837 69.647 34.9479 69.6598 34.7809H73.9454V31.747H69.6786C69.6731 31.3155 69.6718 28.3287 69.6718 28.079H73.1416V30.0937H77.0892V25.3391H63.5537V28.079L63.5527 28.0786Z" fill="#010B13"/>
<path d="M61.8307 28.8598C61.151 27.8225 60.1214 26.8189 58.9823 26.3358C57.4036 25.6686 55.7254 25.4499 54.0431 25.3783C52.1168 25.2967 47.5518 25.3382 47.5518 25.3382V28.0777H48.9354C48.9253 29.3582 48.9354 38.6819 48.9354 38.6819L47.5518 38.6833V41.4385H48.9391V41.433C49.7832 41.4288 50.6896 41.4344 51.8754 41.4344C53.9451 41.4113 56.4898 41.5516 58.9026 40.4838C60.1425 39.9352 61.168 39.1618 61.9612 38.0784C62.6776 37.0992 63.2079 36.0074 63.2492 34.7842C63.2876 33.6666 63.2904 32.5107 63.0476 31.43C62.8447 30.5238 62.3482 29.648 61.8307 28.8589V28.8598ZM57.917 34.7565C57.9142 35.8298 57.5721 36.7674 56.7848 37.5076C56.0827 38.1679 55.2285 38.405 54.2969 38.2149C54.1338 38.1808 53.9378 37.8149 53.9323 37.5975C53.8984 36.2612 53.9154 34.9235 53.9154 33.5858C53.914 32.2611 53.9323 30.9363 53.9039 29.6115C53.8938 29.1256 54.1805 28.9498 54.5424 28.8982C55.6443 28.7408 57.0999 29.8155 57.5268 30.826C58.0727 32.1208 57.9211 33.434 57.917 34.756V34.7565Z" fill="#010B13"/>
<path d="M89.6971 28.0786H90.8723C90.4235 29.8048 88.9931 35.66 88.9931 35.66C88.9931 35.66 87.3255 29.5409 86.8565 28.0786H88.029V25.3382H78.2134V28.0786H79.6144C79.6034 30.581 79.6098 36.1108 79.6126 38.6842H78.2367V41.4389H84.9429V38.6842H83.8011C83.7897 36.3724 83.7979 32.8443 83.8112 30.9095H84.0251C84.3132 31.7258 87.374 41.4389 87.374 41.4389H90.1716C90.1716 41.4389 93.4734 31.1005 93.5989 30.916L93.7931 30.9215C93.7995 32.6237 93.7976 36.982 93.799 38.6837H92.6393V41.4385H99.3455V38.6837H98.0915C98.0919 36.2386 98.0915 30.7845 98.0915 28.0782H99.5122V25.3377H89.6966V28.0782L89.6971 28.0786Z" fill="#010B13"/>
</g>
</g>
<defs>
<clipPath id="clip0_4673_12987">
<rect width="116" height="42" fill="white"/>
</clipPath>
<clipPath id="clip1_4673_12987">
<rect width="116.426" height="19.315" fill="white" transform="translate(-0.426758 3.01685)"/>
</clipPath>
<clipPath id="clip2_4673_12987">
<rect width="116.426" height="16.4418" fill="white" transform="translate(-0.425781 25.3276)"/>
</clipPath>
</defs>
</svg>
