<svg width="400" height="484" viewBox="0 0 400 484" fill="none" xmlns="http://www.w3.org/2000/svg">
<path d="M142.155 457.309L138.851 404.003L112.414 390.676L59.5406 413.998L56.236 407.334L85.9774 360.691L72.759 344.033L16.5808 340.701L13.2762 327.374L59.5406 300.721L56.236 280.731L6.66699 250.746L9.97159 240.751H52.9314L59.5406 194.108V147.465V110.817L72.759 60.8419L92.5865 40.852L99.1957 24.1937L109.11 20.8621L125.633 37.5203L130.987 64.1736H178.506L211.552 67.5053L244.598 60.8419L267.73 64.1736L277.644 27.5254L294.167 20.8621L304.081 37.5203L323.908 57.5103L330.518 90.8269L340.431 140.802L337.127 187.445L343.736 240.751H386.696L390 250.746L343.736 280.731L340.431 300.721L386.696 334.038L380.087 340.701H323.908L313.995 360.691L343.736 407.334L340.431 410.666L337.127 413.998L280.949 390.676L261.121 407.334L257.816 453.977L254.512 463.972L244.598 457.309L218.161 417.329H181.811L155.374 460.641L145.46 463.972L142.155 457.309Z" fill="#010B13"/>
<path d="M63.2678 260.208C61.7742 257.209 58.8098 255.352 55.5477 255.352H43.333L64.3995 267.572L64.8989 267.869L64.9997 267.845L64.0925 262.697C63.9413 261.811 63.6573 260.981 63.2724 260.212L63.2678 260.208Z" fill="#F7F7F7"/>
<path d="M73.7795 317.108C73.1395 315.229 71.7262 313.819 69.8773 313.228C68.2107 312.673 66.3974 312.905 64.8908 313.847L42.5 327.952H68.9485C71.0018 327.952 72.8862 326.915 74.0106 325.159C75.0372 323.553 75.2773 321.575 74.6728 319.76L73.7795 317.113V317.108Z" fill="#F7F7F7"/>
<path d="M103.099 365.503C101.656 365.503 100.248 365.873 99.0356 366.582C98.0265 367.145 97.1456 367.968 96.4994 368.949L81.667 391.372L106.649 379.248C107.755 378.72 108.672 377.98 109.353 377.082C111.637 374.129 111.243 370.014 108.415 367.501C106.972 366.212 105.082 365.503 103.099 365.503Z" fill="#F7F7F7"/>
<path d="M146.854 206.665C145.895 206.15 142.973 204.762 139.167 202.977C135.871 207.432 130.704 209.539 124.231 207.146C119.091 205.255 118.012 197.614 117.829 193.145C115.478 192.066 113.43 191.131 111.935 190.44C110.615 189.84 109.098 190.836 109.169 192.273C109.79 206.965 123.936 214.836 130.459 216.008C137.419 217.255 150.571 208.666 146.85 206.665H146.854Z" fill="#F7F7F7"/>
<path d="M164.905 399.232C164.103 399.002 163.292 398.883 162.481 398.883C158.676 398.883 155.278 401.499 154.403 405.105C154.231 405.777 154.159 406.449 154.168 407.147L154.648 433.097L169.422 411.531C169.816 410.956 170.124 410.364 170.346 409.767C171.121 407.69 170.963 405.348 169.939 403.355C168.906 401.349 167.121 399.886 164.905 399.236V399.232Z" fill="#F7F7F7"/>
<path d="M237.517 398.887C236.706 398.887 235.89 399.007 235.092 399.236C232.89 399.886 231.091 401.349 230.067 403.355C229.034 405.348 228.884 407.69 229.65 409.767C229.872 410.368 230.18 410.956 230.574 411.531L245.352 433.097L245.832 407.147C245.846 406.449 245.769 405.777 245.596 405.105C244.722 401.503 241.323 398.883 237.517 398.883V398.887Z" fill="#F7F7F7"/>
<path d="M288.07 190.44C286.566 191.136 284.532 192.07 282.168 193.146C281.985 197.615 280.905 205.253 275.766 207.148C269.306 209.541 264.14 207.434 260.843 202.979C257.024 204.764 254.102 206.152 253.156 206.668C250.051 208.334 258.599 214.535 265.572 215.879C267.004 216.152 268.373 216.214 269.547 216.011C271.269 215.698 273.522 214.923 275.922 213.675C282.6 210.189 290.372 203.076 290.831 192.273C290.894 190.836 289.39 189.84 288.065 190.44H288.07Z" fill="#F7F7F7"/>
<path d="M96.1387 105.897C92.3618 104.415 85.1567 101.634 82.524 103.473C79.9003 105.284 75.2116 117.456 78.8053 118.582C82.4123 119.695 81.3798 117.1 83.6414 114.382C85.8986 111.674 86.9714 110.453 89.4118 112.093C91.8388 113.72 88.1603 113.733 86.0953 120.777C86.0327 121.02 85.9478 121.277 85.8897 121.534C85.8405 121.727 85.7824 121.926 85.7333 122.133C85.6975 122.282 85.6617 122.439 85.6126 122.597C85.4785 123.124 85.3578 123.661 85.2371 124.224C85.1656 124.53 85.0896 124.859 85.0315 125.193C84.8617 125.999 84.7052 126.86 84.5443 127.725C84.4951 127.969 84.4594 128.216 84.4236 128.46C84.2314 129.6 84.0571 130.785 83.9007 131.988C83.8515 132.38 83.8024 132.786 83.7666 133.187C83.7308 133.372 83.7174 133.543 83.704 133.728C83.5833 134.768 83.4984 135.823 83.4358 136.864C83.4135 137.278 83.3867 137.684 83.3733 138.099C83.1408 143.254 83.5565 148.165 85.1969 151.126C88.9023 157.8 90.1761 159.206 94.914 157.957C99.6384 156.709 101.52 156.867 99.0306 160.603C96.5409 164.338 92.6791 167.511 99.1512 172.503C105.614 177.501 113.785 183.391 117.978 184.355C122.166 185.324 129.675 184.427 138.458 189.974C147.24 195.508 162.884 211.622 173.169 206.516C183.458 201.411 173.79 198.189 174.081 189.555C174.371 180.935 179.887 189.74 182.886 191.403C182.886 191.403 183.382 187.816 180.701 180.858C178.028 173.891 179.972 169.714 179.972 169.714C179.972 169.714 186.869 172.508 187.043 189.528C187.199 206.561 188.563 208.301 181.371 211.388C174.179 214.474 160.381 221.418 153.932 225.69C147.482 229.989 136.039 235.045 118.5 223.158C100.948 211.266 92.411 203.209 87.2842 215.002C82.1709 226.794 83.628 235.965 87.3826 232.526C91.1103 229.084 94.4893 226.402 102.057 226.402C109.624 226.402 94.2703 230.48 96.9566 235.307C99.6518 240.142 111.993 250.871 114.75 258.572C117.508 266.264 141.931 268.932 136.625 271.208C131.328 273.483 124.007 271.906 124.248 275.187C124.49 278.467 131.744 283.649 137.622 285.033C143.499 286.403 149.355 297.533 149.27 300.327C149.185 303.107 144.375 315.08 141.095 314.593C137.814 314.093 140.549 302.201 136.299 298.565C132.048 294.928 125.925 298.173 127.699 303.792C129.447 309.411 144 335.728 156.171 343.037C168.355 350.359 159.827 339.472 170.711 332.997C175.811 329.973 180.513 328.59 183.852 327.229C187.628 325.688 189.631 324.156 188.455 320.298C187.325 316.612 185.38 315.684 183.901 314.593C182.444 313.553 181.411 312.376 181.956 308.397C183.06 300.327 188.089 297.375 171.524 296.938C154.955 296.483 145.243 293.009 153.306 278.706C158.88 268.801 175.118 258.036 198.575 259.212C199.473 259.248 200.385 259.248 201.283 259.212C208.569 258.843 215.336 259.627 221.361 261.181C221.518 263.105 221.312 265.21 220.414 267.256C217.499 273.916 202.535 278.264 178.184 274.344C165.821 272.361 177.406 279.621 194.315 280.026C221.218 280.675 228.289 271.122 234.408 266.188C241.148 269.802 244.098 274.33 246.552 278.701C254.616 293.004 244.898 296.483 228.334 296.934C211.765 297.375 216.807 300.327 217.902 308.393C218.447 312.372 217.414 313.548 215.971 314.589C214.478 315.679 212.534 316.608 211.403 320.294C210.223 324.151 212.23 325.683 216.02 327.224C219.35 328.585 224.061 329.969 229.147 332.992C240.04 339.468 231.503 350.355 243.687 343.032C255.858 335.723 270.407 309.407 272.168 303.788C273.929 298.168 267.806 294.924 263.555 298.56C259.304 302.197 262.035 314.089 258.759 314.589C255.492 315.08 250.669 303.103 250.584 300.322C250.512 297.528 256.354 286.398 262.232 285.028C264.359 284.528 266.666 283.523 268.753 282.297H268.767C278.229 274.682 267.26 278.783 256.609 281.77C245.971 284.744 254.048 274.511 260.265 268.445C266.474 262.371 260.073 250.15 252.296 241.8C244.536 233.45 255.138 238.42 263.363 243.319C271.587 248.23 272.387 246.171 265.83 238.249C262.125 233.779 257.4 233.301 253.248 232.481V232.495C253.248 232.495 241.189 231.859 241.417 223.753C241.649 215.66 233.581 214.497 232.683 209.292C231.784 204.088 230.242 198.676 236.12 200.685C241.984 202.682 247.62 202.975 252.26 198.788C252.273 198.775 252.296 198.766 252.296 198.752C255.393 195.445 258.2 192.006 261.405 189.974C270.188 184.427 277.679 185.319 281.872 184.355C282.564 184.206 283.356 183.913 284.227 183.512C284.361 183.449 284.509 183.391 284.638 183.318C284.688 183.305 284.746 183.269 284.808 183.255C287.419 181.971 293.529 181.282 298.119 180.93C300.805 180.709 303.451 177.095 301.337 175.396C289.448 165.771 290.418 159.697 290.234 154.014C290.065 148.346 285.581 139.554 289.93 144.155C294.279 148.747 301.337 158.039 302.718 152.739C304.104 147.449 298.356 148.639 301.516 139.198C301.637 138.806 301.771 138.45 301.918 138.094C302.016 137.824 302.124 137.567 302.222 137.31C302.66 136.305 303.107 135.413 303.608 134.615C303.791 134.295 303.983 133.989 304.189 133.709C304.381 133.39 304.591 133.11 304.81 132.826C305.029 132.52 305.284 132.227 305.516 131.957C305.784 131.637 306.039 131.344 306.316 131.073C306.45 130.925 306.584 130.78 306.719 130.659C306.853 130.524 306.987 130.388 307.121 130.267C307.398 130.01 307.657 129.767 307.934 129.532C308.118 129.361 308.31 129.19 308.493 129.041C308.904 128.685 309.32 128.356 309.718 128.023C309.901 127.874 310.084 127.73 310.263 127.581C311.027 126.946 311.747 126.319 312.35 125.657C312.52 125.463 312.677 125.278 312.838 125.08L312.86 125.058C313.043 124.823 313.213 124.593 313.369 124.346C315.971 120.245 308.341 119.704 304.841 121.565C301.342 123.44 289.828 127.392 295.817 122.056C301.806 116.703 310.706 113.067 309.615 108.587C308.533 104.117 303.858 105.821 303.858 105.821C303.795 105.843 303.751 105.857 303.702 105.884C299.925 107.353 297.364 104.608 291.191 96.1141C285.023 87.5929 292.76 81.0544 294.919 78.9094C297.091 76.7645 296.546 74.4032 295.37 68.7479C294.181 63.1016 299.719 58.0321 299.719 58.0321C299.719 58.0321 299.719 62.5248 303.313 68.0359C306.92 73.5335 305.136 74.66 302.718 81.6627C300.314 88.6563 302.075 90.7833 303.652 90.1254C305.23 89.454 302.316 86.9305 304.663 84.4701C306.996 81.9962 309.959 88.742 314.259 91.3871C318.559 94.0187 319.14 92.0856 317.464 82.3882C315.81 72.6773 313.2 79.5493 308.462 62.6375C303.724 45.7166 293.22 41.7241 293.22 41.7241C279.521 54.7786 282.046 83.5283 282.046 83.5283C279.033 86.6286 268.177 79.1302 252.287 75.1152C244.586 73.182 236.545 73.6462 228.446 74.8583C221.875 76.8546 210.397 79.7566 199.929 79.3015C189.448 79.7566 177.983 76.8546 171.412 74.8583C163.313 73.6462 155.272 73.182 147.558 75.1152C131.673 79.1302 120.825 86.6241 117.799 83.5283C117.799 83.5283 120.324 54.7786 106.625 41.7241C106.625 41.7241 96.1163 45.7166 91.3829 62.6375C86.6451 79.5493 84.0348 72.6773 82.381 82.3882C80.7183 92.0856 81.2993 94.0233 85.5992 91.3871C89.899 88.742 92.8624 81.9962 95.1821 84.4701C97.5243 86.9305 94.6234 89.454 96.2012 90.1254C97.779 90.7878 99.5312 88.6563 97.1265 81.6627C94.7084 74.66 92.925 73.5335 96.532 68.0359C100.126 62.5248 100.126 58.0321 100.126 58.0321C100.126 58.0321 105.664 63.1016 104.475 68.7479C103.295 74.4032 102.749 76.769 104.926 78.9094C107.089 81.0544 114.826 87.5929 108.654 96.1141C102.486 104.613 99.92 107.357 96.1431 105.884L96.1387 105.897Z" fill="#F7F7F7"/>
<path d="M300.957 366.582C299.745 365.877 298.338 365.503 296.895 365.503C294.913 365.503 293.023 366.208 291.581 367.501C288.767 370.014 288.359 374.125 290.643 377.082C291.342 377.98 292.24 378.72 293.346 379.248L318.334 391.372L303.497 368.949C302.847 367.968 301.97 367.145 300.962 366.582H300.957Z" fill="#F7F7F7"/>
<path d="M317.971 286.855C304.104 302.045 297.017 333.912 291.677 345.675C286.324 357.442 270.443 358.922 257.049 370.199C255.279 371.692 252.663 372.973 249.489 374.07C246.521 375.109 243.169 373.571 242.139 370.577C240.708 366.458 237.138 361.584 228.754 358.054C224.479 356.246 220.142 355.01 216.144 354.218C204.203 351.799 195.191 353.287 199.162 355.329C201.355 356.466 208.571 356.808 216.153 358.324C224.462 359.974 233.22 363.013 236.331 370.006C237.882 373.441 235.556 377.398 231.852 377.911C226.775 378.63 221.422 379.143 216.229 379.525C210.466 379.938 204.881 380.186 200.009 380.33C195.142 380.181 189.543 379.938 183.78 379.525C167.368 378.329 149.552 375.748 142.96 370.203C129.566 358.926 113.685 357.447 108.345 345.679C102.992 333.912 95.9047 302.045 82.0381 286.86C79.591 284.157 77.2153 280.834 75 277.048C75.049 309.221 88.8087 339.11 113.769 361.237C113.925 361.359 114.122 361.53 114.313 361.7C137.34 381.912 167.426 393.041 199.024 393.041H200.972C232.574 393.041 262.66 381.908 285.682 361.7L286.324 362.447L285.696 361.7C285.878 361.53 286.07 361.359 286.231 361.237C311.196 339.11 324.951 309.221 325 277.062C322.794 280.839 320.422 284.162 317.962 286.86L317.971 286.855Z" fill="#F7F7F7"/>
<path d="M335.591 267.577L356.667 255.352H344.461C341.183 255.352 338.231 257.21 336.728 260.21C336.343 260.978 336.068 261.813 335.908 262.695L335 267.845L335.101 267.869L335.6 267.572L335.591 267.577Z" fill="#F7F7F7"/>
<path d="M330.119 313.233C328.283 313.824 326.856 315.234 326.229 317.113L325.336 319.76C324.718 321.575 324.962 323.553 325.989 325.159C327.114 326.915 329.007 327.952 331.061 327.952H357.5L335.119 313.847C333.608 312.905 331.799 312.673 330.119 313.228V313.233Z" fill="#F7F7F7"/>
<path d="M385.757 321.758L346.888 297.608C347.7 293.067 348.32 288.476 348.744 283.872L389.562 260.627C395.09 257.483 397.821 250.947 396.206 244.752C394.595 238.558 389.04 234.225 382.687 234.225H350.377C350.983 224.886 350.171 216.255 347.954 208.822C344.911 198.686 345.737 188.658 346.607 178.036C347.468 167.508 348.365 156.602 345.25 145.633C344.376 142.574 343.916 139.866 343.818 137.357C343.733 134.799 344.023 132.546 344.376 129.938C345.166 124.149 346.12 116.937 342.605 106.508C341.962 104.598 341.369 102.859 340.811 101.247C336.93 89.8628 335.622 86.0292 334.775 75.9789C333.343 59.0858 329.028 52.6574 314.903 39.3772C308.429 33.2822 307.216 28.5295 306.502 25.678C305.895 23.2679 304.463 17.6098 298.44 15.1277C296.95 14.5015 295.326 14.1862 293.653 14.1862C286.947 14.1862 280.754 19.7091 277.649 23.0021C273.781 27.115 268.824 34.1065 267.151 44.0802C266.883 45.7335 266.616 47.4228 266.352 49.0851C266 51.324 265.563 54.117 265.09 56.6262C259.972 55.1576 253.356 53.9098 245.606 53.9098C238.441 53.9098 231.24 54.9864 224.222 57.1172C213.323 60.4238 204.511 61.2301 200.009 61.4013C195.499 61.2301 186.687 60.4238 175.797 57.1172C168.765 54.9864 161.578 53.9098 154.399 53.9098C146.663 53.9098 140.046 55.1576 134.915 56.6262C134.443 54.117 134.005 51.324 133.653 49.0851C133.399 47.4183 133.131 45.729 132.854 44.0802C131.195 34.102 126.233 27.115 122.365 23.0021C119.26 19.7226 113.067 14.1862 106.348 14.1862C104.675 14.1862 103.064 14.506 101.534 15.1412C95.5468 17.6143 94.1146 23.2679 93.4945 25.6825C92.7806 28.5341 91.5805 33.2821 85.0934 39.3817C70.9681 52.6619 66.6538 59.0903 65.2217 75.9834C64.374 86.0337 63.0757 89.8673 59.1852 101.251C58.6409 102.868 58.0341 104.607 57.3917 106.504C53.876 116.946 54.8441 124.154 55.6204 129.947C55.9729 132.555 56.2763 134.808 56.1781 137.389C56.0934 139.875 55.6204 142.578 54.7594 145.651C51.6452 156.606 52.5286 167.513 53.403 178.04C54.2775 188.667 55.0895 198.691 52.0557 208.826C49.8249 216.255 49.0129 224.886 49.6331 234.229H17.3092C10.9693 234.229 5.40578 238.563 3.7907 244.757C2.18008 250.951 4.91946 257.488 10.4473 260.632L51.257 283.877C51.6943 288.481 52.31 293.071 53.113 297.612L14.2441 321.763C8.85901 325.119 6.40069 331.484 8.12284 337.629C9.845 343.773 15.2524 347.9 21.5789 347.9H68.6794C69.0898 347.913 69.4914 347.913 69.8929 347.913C70.3301 347.913 70.7674 347.9 71.1912 347.9C71.9408 349.174 72.6947 350.481 73.4577 351.841C74.9612 354.472 76.5005 357.166 78.2092 359.86L52.5063 399.291C49.6821 403.624 49.4412 409.156 51.8772 413.724C54.3266 418.315 59.029 421.166 64.1687 421.166C66.279 421.166 68.3983 420.666 70.3168 419.72L114.424 397.993C120.473 402.449 126.84 406.453 133.421 409.904L134.246 455.943C134.38 463.719 140.528 469.814 148.238 469.814C152.904 469.814 157.232 467.462 159.842 463.534L185.023 425.477C189.69 425.941 194.383 426.175 199.028 426.175H200.977C205.631 426.175 210.324 425.941 214.982 425.477L240.177 463.534C242.773 467.462 247.11 469.814 251.781 469.814C259.482 469.814 265.625 463.719 265.772 455.943L266.584 409.904C273.179 406.453 279.532 402.462 285.582 397.993L329.702 419.72C331.607 420.662 333.726 421.166 335.837 421.166C340.976 421.166 345.692 418.315 348.142 413.724C350.578 409.156 350.337 403.624 347.499 399.291L321.809 359.86C323.505 357.166 325.049 354.472 326.552 351.841C327.328 350.481 328.078 349.174 328.832 347.9C329.242 347.9 329.68 347.913 330.117 347.913C330.518 347.913 330.915 347.913 331.33 347.9H378.444C384.762 347.9 390.169 343.773 391.891 337.629C393.614 331.484 391.151 325.119 385.77 321.763L385.757 321.758ZM378.435 335.655H331.179C326.414 335.777 322.644 334.872 320.935 337.502C316.813 343.881 313.551 350.774 309.139 356.891C307.818 358.738 307.818 361.274 309.259 363.036C309.612 363.464 309.951 363.919 310.254 364.396L337.376 406.003C338.406 407.593 336.711 409.553 335.011 408.719L289.428 386.258C288.857 385.979 288.299 385.659 287.768 385.303C285.925 384.114 283.574 384.127 281.852 385.488C274.191 391.533 265.96 396.7 257.3 400.912C255.471 401.795 254.378 403.728 254.489 405.787C254.512 406.201 254.525 406.606 254.512 407.021L253.65 455.727C253.615 457.552 251.264 458.25 250.255 456.732L223.45 416.224C223.245 415.904 223.049 415.598 222.87 415.269C221.84 413.481 219.792 412.553 217.753 412.823C212.198 413.557 206.586 413.927 200.986 413.927H199.037C193.446 413.927 187.82 413.557 182.27 412.823C180.231 412.553 178.183 413.485 177.153 415.269C176.97 415.598 176.778 415.904 176.573 416.224L149.768 456.732C148.76 458.25 146.408 457.552 146.386 455.727L145.512 407.021C145.512 406.606 145.512 406.201 145.534 405.787C145.641 403.728 144.566 401.795 142.723 400.912C134.068 396.7 125.845 391.533 118.185 385.488C116.462 384.127 114.098 384.118 112.255 385.303C111.72 385.659 111.162 385.974 110.596 386.258L65.012 408.719C63.3255 409.553 61.6167 407.593 62.6607 406.003L89.7825 364.396C90.0859 363.919 90.4116 363.464 90.764 363.036C92.2051 361.274 92.2185 358.738 90.8845 356.891C86.4854 350.769 83.2106 343.877 79.0881 337.502C77.3928 334.872 73.6183 335.777 68.8578 335.655H21.6012C19.7362 335.655 19.0313 333.182 20.633 332.191L60.7378 307.257C61.4517 306.829 62.1923 306.451 62.9552 306.144C65.2484 305.239 66.5334 302.788 66.0203 300.365C64.5658 293.459 63.5843 286.445 63.0757 279.381C62.9552 277.543 61.938 275.881 60.3363 274.975L60.314 274.962L16.4258 249.965C14.7661 249.023 15.4309 246.464 17.3359 246.464H55.5981C58.4714 246.478 61.1037 245.252 62.9552 243.27C61.0412 232.387 60.9564 221.444 63.6824 212.372C70.6514 189.113 61.0858 167.837 66.4352 149.011C67.6978 144.579 68.2064 140.957 68.3269 137.821C68.6794 127.622 64.8603 122.424 68.898 110.45C74.1849 94.7911 76.2194 90.1646 77.3348 77.0196C78.4368 63.8745 81.0066 59.9778 93.3874 48.3373C105.764 36.6968 104.782 27.0249 106.165 26.4618C107.535 25.8852 118.675 32.7055 120.92 46.1074C123.15 59.5003 124.413 74.1049 131.368 70.9065C138.351 67.7126 153.654 63.1807 172.321 68.8388C183.136 72.1183 192.884 73.4157 200.023 73.6499C207.152 73.4157 216.91 72.1183 227.711 68.8388C246.383 63.1852 261.695 67.7126 268.664 70.9065C275.624 74.1004 276.882 59.4958 279.126 46.1074C281.357 32.701 292.497 25.8852 293.867 26.4618C295.25 27.0249 294.277 36.6968 306.658 48.3373C319.025 59.9778 321.595 63.87 322.711 77.0196C323.813 90.1646 325.865 94.7956 331.139 110.45C335.176 122.424 331.357 127.622 331.719 137.821C331.826 140.957 332.348 144.579 333.597 149.011C338.955 167.837 329.376 189.113 336.35 212.372C339.076 221.444 339.004 232.387 337.077 243.27C338.942 245.252 341.561 246.478 344.434 246.464H382.696C384.601 246.464 385.266 249.023 383.606 249.965L339.718 274.962L339.696 274.975C338.107 275.881 337.09 277.548 336.956 279.381C336.461 286.445 335.466 293.459 334.012 300.365C333.503 302.788 334.788 305.239 337.081 306.144C337.858 306.451 338.598 306.829 339.299 307.257L379.417 332.191C381.005 333.182 380.314 335.655 378.449 335.655H378.435Z" fill="#F7F7F7"/>
</svg>
