<svg width="148" height="150" viewBox="0 0 148 150" fill="none" xmlns="http://www.w3.org/2000/svg">
<path d="M119.419 86.4234C119.458 85.8284 119.8 85.2851 120.326 84.9876L134.895 76.8381C135.448 76.5276 135.224 75.6998 134.593 75.6998H121.891C120.931 75.6998 120.063 75.2987 119.445 74.6649C120.089 71.1205 120.102 67.5503 119.208 64.6009C116.894 57.0206 120.076 50.0871 118.288 43.9555C117.867 42.5067 117.696 41.3296 117.67 40.3077C117.552 36.9832 118.814 35.2886 117.473 31.382C115.724 26.2854 115.04 24.7719 114.672 20.4902C114.304 16.2084 113.449 14.9407 109.346 11.1376C105.231 7.34748 105.559 4.19117 105.099 4.01007C104.639 3.81604 100.944 6.04098 100.208 10.4132C99.4581 14.7726 99.0505 19.5329 96.7362 18.4981C94.4219 17.4632 89.3331 15.9756 83.1398 17.8254C79.5501 18.8991 76.3153 19.313 73.9485 19.3906C71.5816 19.313 68.3469 18.8861 64.7571 17.8254C58.5638 15.9756 53.475 17.4632 51.1607 18.4981C48.8465 19.5459 48.4257 14.7855 47.6893 10.4132C46.9398 6.04098 43.2449 3.82897 42.7846 4.01007C42.3244 4.19117 42.6532 7.34748 38.5374 11.1376C34.4217 14.9278 33.567 16.1955 33.212 20.4902C32.8438 24.7719 32.16 26.2854 30.4112 31.382C29.0699 35.2886 30.3323 36.9832 30.2271 40.3077C30.1876 41.3296 30.0167 42.5067 29.5959 43.9555C27.8208 50.0871 30.9897 57.0206 28.6755 64.6009C27.7682 67.5632 27.7945 71.1205 28.4388 74.6649C27.8208 75.3117 26.9529 75.7127 25.993 75.6998H13.3039C12.6728 75.6998 12.4492 76.5276 13.0015 76.8381L27.5709 84.9876C28.0969 85.2851 28.4388 85.8284 28.4782 86.4234C28.6492 88.726 28.9779 91.0156 29.4513 93.2664C29.6222 94.0555 29.2014 94.8575 28.4388 95.155C28.1889 95.2585 27.9391 95.375 27.7024 95.5172L14.3822 103.641C13.8562 103.964 14.0797 104.766 14.6978 104.766H30.3849C31.9628 104.805 33.2251 104.508 33.7774 105.374C35.1449 107.457 36.2363 109.695 37.6959 111.687C38.1429 112.295 38.1298 113.11 37.6564 113.692C37.5381 113.834 37.4329 113.977 37.3277 114.132L28.3204 127.688C27.9785 128.206 28.544 128.84 29.0962 128.568L44.2311 121.246C44.4152 121.156 44.5992 121.052 44.7833 120.936C45.4014 120.548 46.1772 120.548 46.7557 121.001C49.2935 122.967 52.0286 124.661 54.9083 126.033C55.5263 126.317 55.8813 126.951 55.8419 127.624C55.8419 127.753 55.8419 127.895 55.8419 128.025L56.1312 143.897C56.1312 144.492 56.9201 144.725 57.2489 144.22L66.1509 131.013C66.2167 130.909 66.2824 130.806 66.3482 130.702C66.6901 130.12 67.3738 129.823 68.0444 129.9C69.8853 130.133 71.7525 130.263 73.6066 130.263H74.2509C76.1049 130.263 77.9721 130.146 79.813 129.9C80.4837 129.81 81.1674 130.12 81.5093 130.702C81.5751 130.806 81.6276 130.909 81.7065 131.013L90.6086 144.22C90.9373 144.712 91.7263 144.492 91.7394 143.897L92.0287 128.025C92.0287 127.895 92.0287 127.753 92.0287 127.624C91.9893 126.951 92.3575 126.317 92.9623 126.033C95.842 124.661 98.5771 122.98 101.115 121.001C101.68 120.561 102.469 120.548 103.074 120.936C103.245 121.052 103.429 121.156 103.626 121.246L118.761 128.568C119.327 128.84 119.892 128.206 119.55 127.688L110.543 114.132C110.438 113.977 110.333 113.834 110.214 113.692C109.741 113.123 109.741 112.295 110.175 111.687C111.634 109.695 112.726 107.444 114.093 105.374C114.659 104.521 115.908 104.818 117.499 104.766H133.199C133.817 104.766 134.054 103.964 133.515 103.641L120.195 95.5172C119.958 95.375 119.721 95.2585 119.458 95.155C118.695 94.8575 118.275 94.0555 118.433 93.2664C118.919 91.0156 119.248 88.726 119.406 86.4234H119.419ZM119.169 80.8611C119.221 80.5894 119.314 80.3307 119.432 80.085C119.918 79.1536 120.878 78.5715 121.93 78.5715H125.875L119.064 82.3746L118.906 82.4651H118.88L119.169 80.8482V80.8611ZM28.991 82.4781L28.8333 82.3875L22.0219 78.5844H25.9667C27.0186 78.5844 27.9785 79.1665 28.4651 80.0979C28.5834 80.3437 28.6755 80.6024 28.7281 80.874L29.0173 82.4781H28.991ZM42.4691 21.0076C41.7458 20.3091 41.9299 19.5329 42.3244 17.696C42.7189 15.8592 40.878 14.2034 40.878 14.2034C40.878 14.2034 40.878 15.6651 39.6814 17.4632C38.4848 19.2483 39.0765 19.6235 39.8787 21.9002C40.6808 24.1768 40.089 24.8754 39.5762 24.6555C39.0502 24.4356 40.0101 23.6206 39.2343 22.8186C38.4717 22.0166 37.4855 24.2156 36.0522 25.0694C34.6321 25.9232 34.4348 25.3022 34.9871 22.133C35.5394 18.9637 36.3941 21.2146 37.972 15.704C39.5368 10.1933 43.0213 8.88683 43.0213 8.88683C47.5578 13.1427 46.7294 22.5081 46.7294 22.5081C47.7288 23.5171 51.3317 21.0723 56.5914 19.7658C59.1424 19.1319 61.8117 19.2871 64.4941 19.6881C66.6769 20.3349 70.4771 21.2792 73.9485 21.1369C77.4199 21.2792 81.22 20.3349 83.4028 19.6881C86.0853 19.2871 88.7546 19.1448 91.3055 19.7658C96.5652 21.0723 100.168 23.5171 101.167 22.5081C101.167 22.5081 100.326 13.1427 104.876 8.88683C104.876 8.88683 108.36 10.1933 109.925 15.704C111.49 21.2146 112.358 18.9767 112.91 22.133C113.462 25.2893 113.278 25.9232 111.845 25.0694C110.425 24.2027 109.438 22.0036 108.663 22.8186C107.887 23.6206 108.847 24.4485 108.334 24.6555C107.808 24.8754 107.229 24.1768 108.018 21.9002C108.82 19.6235 109.412 19.2483 108.216 17.4632C107.019 15.6651 107.019 14.2034 107.019 14.2034C107.019 14.2034 105.178 15.8592 105.573 17.696C105.967 19.5329 106.138 20.3091 105.428 21.0076C104.718 21.7061 102.154 23.8405 104.192 26.6088C106.243 29.377 107.085 30.2696 108.334 29.7909C108.347 29.7909 108.36 29.778 108.386 29.7651C108.386 29.7651 109.938 29.2088 110.293 30.6706C110.648 32.1323 107.703 33.3094 105.717 35.0558C103.732 36.7892 107.545 35.5085 108.702 34.9005C109.859 34.2926 112.384 34.4737 111.529 35.806C111.477 35.8837 111.424 35.9613 111.358 36.0389C111.306 36.1165 111.253 36.1682 111.2 36.2329C111.003 36.4528 110.766 36.6469 110.503 36.8538C110.438 36.9056 110.385 36.9444 110.319 36.9961C110.188 37.0996 110.043 37.216 109.912 37.3325C109.846 37.3842 109.793 37.4359 109.728 37.4877C109.636 37.5653 109.544 37.6429 109.465 37.7205C109.425 37.7593 109.373 37.7981 109.333 37.8499C109.294 37.8887 109.241 37.9404 109.202 37.9792C109.11 38.0698 109.031 38.1603 108.939 38.2638C108.86 38.3544 108.781 38.4449 108.702 38.5484C108.623 38.639 108.557 38.7295 108.492 38.833C108.426 38.9235 108.36 39.027 108.294 39.1305C108.123 39.3892 107.979 39.6867 107.834 40.0101C107.808 40.0878 107.768 40.1783 107.729 40.2689C107.676 40.3853 107.637 40.5017 107.597 40.6311C106.546 43.7098 108.452 43.3217 107.992 45.0421C107.532 46.7626 105.191 43.7356 103.758 42.248C102.311 40.7475 103.797 43.6192 103.863 45.4561C103.929 47.3059 103.6 49.285 107.545 52.4284C108.242 52.9847 107.374 54.1618 106.48 54.2265C104.954 54.3429 102.929 54.5628 102.075 54.9897C102.049 54.9897 102.035 55.0026 102.022 55.0156C101.983 55.0414 101.93 55.0544 101.891 55.0802C101.601 55.2096 101.338 55.3001 101.115 55.3519C99.7211 55.6623 97.249 55.3778 94.3299 57.1888C93.2648 57.8485 92.3312 58.9739 91.3055 60.0475C89.7671 61.4058 87.8999 61.3153 85.9538 60.6685C84.0077 60.0087 84.5205 61.7809 84.8098 63.4755C85.1122 65.1701 87.7815 65.5452 87.7026 68.1841C87.6237 70.823 91.6211 71.03 91.6211 71.03C93.0018 71.2887 94.5665 71.4439 95.7894 72.9056C97.9591 75.4928 97.6961 76.1525 94.9742 74.5614C92.2523 72.9703 88.7414 71.3404 91.3055 74.0699C93.8828 76.7863 95.9998 80.7706 93.9485 82.7497C91.8841 84.7289 89.2148 88.0663 92.7388 87.0961C96.2628 86.1259 99.9052 84.7806 96.7625 87.2643C96.0656 87.6653 95.3029 87.9887 94.606 88.1568C92.6599 88.5966 90.727 92.2316 90.7401 93.1371C90.7664 94.0426 92.3706 97.9492 93.4489 97.781C94.5402 97.6128 93.6329 93.7451 95.0399 92.555C96.4469 91.3649 98.4719 92.4256 97.8933 94.2625C97.3148 96.0994 92.489 104.663 88.4521 107.043C84.4153 109.423 87.2424 105.879 83.6395 103.77C81.9564 102.787 80.3916 102.334 79.2871 101.895C78.0247 101.39 77.3673 100.898 77.7618 99.6308C78.1431 98.4278 78.7874 98.1303 79.2739 97.7681C79.7473 97.4317 80.0892 97.0437 79.9182 95.7501C79.5501 93.1241 77.8801 92.154 83.3765 92.0117C88.8598 91.8694 92.0813 90.731 89.412 86.0742C88.5968 84.6513 87.6237 83.1766 85.3883 81.9994C83.3634 83.6035 81.0228 86.721 72.0944 86.514C66.4928 86.3846 62.6532 84.0174 66.7427 84.6642C74.8163 85.9448 79.7736 84.5219 80.7335 82.3487C81.0359 81.676 81.1017 80.9905 81.0491 80.3695C79.0504 79.8651 76.815 79.6063 74.3955 79.7228C74.0931 79.7228 73.7907 79.7228 73.5014 79.7228C65.7302 79.3347 60.3521 82.8532 58.498 86.0742C55.8287 90.731 59.0503 91.8694 64.5336 92.0117C70.0168 92.154 68.36 93.1112 67.9918 95.7501C67.8077 97.0437 68.1496 97.4317 68.6361 97.7681C69.1227 98.1173 69.767 98.4278 70.1483 99.6308C70.5428 100.886 69.8722 101.39 68.623 101.895C67.5185 102.334 65.9537 102.787 64.2706 103.77C60.6677 105.879 63.4948 109.423 59.4579 107.043C55.4211 104.663 50.5953 96.0864 50.0168 94.2625C49.425 92.4256 51.4632 91.3778 52.8702 92.555C54.2771 93.7451 53.3698 97.6128 54.4612 97.781C55.5526 97.9362 57.1437 94.0426 57.17 93.1371C57.1963 92.2316 55.2633 88.5966 53.3041 88.1568C51.358 87.7041 48.9517 86.0224 48.8728 84.9488C48.7939 83.8751 51.2133 84.3925 52.9753 83.6552C54.7373 82.9179 46.6374 82.0512 45.7301 79.5417C44.8096 77.0321 40.7202 73.5395 39.8392 71.9613C38.9451 70.3832 44.0338 69.0637 41.5355 69.0637C39.0371 69.0637 37.9063 69.9434 36.6702 71.0558C35.421 72.1812 34.9477 69.1931 36.6439 65.3512C38.3402 61.5093 41.1673 64.1352 46.9924 68.003C52.8044 71.8708 56.5914 70.228 58.7347 68.8309C60.8781 67.4338 65.4409 65.183 67.834 64.174C70.2141 63.1651 69.767 62.5959 69.7144 57.0465C69.6618 51.497 67.3738 50.5915 67.3738 50.5915C67.3738 50.5915 66.7295 51.9498 67.6105 54.2265C68.5047 56.4902 68.3337 57.6674 68.3337 57.6674C67.3344 57.1241 65.5066 54.2524 65.4146 57.0594C65.3225 59.8665 68.5178 60.9272 65.1121 62.583C61.7065 64.2517 56.5125 58.9998 53.6065 57.1888C50.7005 55.3778 48.2022 55.6753 46.8215 55.3519C45.4277 55.0414 42.7189 53.114 40.5887 51.4971C38.4454 49.8671 39.7209 48.8323 40.5493 47.6163C41.3777 46.4004 40.7465 46.3486 39.1817 46.7496C37.617 47.1507 37.183 46.6979 35.9602 44.5247C35.421 43.5545 35.2764 41.9634 35.3553 40.2818C35.3553 40.1524 35.3684 40.0101 35.3816 39.8808C35.4079 39.5445 35.4342 39.1952 35.4736 38.8589C35.4736 38.7942 35.4736 38.7424 35.4999 38.6778C35.4999 38.5484 35.5262 38.4191 35.5394 38.2897C35.592 37.9016 35.6446 37.5135 35.7103 37.1384C35.7103 37.0608 35.7366 36.9832 35.7498 36.9056C35.8024 36.621 35.855 36.3493 35.9076 36.0777C35.9207 35.9742 35.947 35.8578 35.9733 35.7672C36.0128 35.5861 36.0522 35.405 36.0917 35.2369C36.1048 35.1851 36.118 35.1334 36.1311 35.0816C36.1443 35.017 36.1706 34.9523 36.1837 34.8876C36.1969 34.81 36.2363 34.7194 36.2494 34.6418C36.9332 32.3522 38.1561 32.3393 37.354 31.8089C36.5387 31.2785 36.1837 31.6666 35.4473 32.5592C34.6978 33.4388 35.0397 34.2926 33.8431 33.9304C32.6465 33.5682 34.2113 29.5969 35.0792 29.0019C35.947 28.4068 38.3402 29.3123 39.5894 29.7909C40.8386 30.2696 41.6933 29.377 43.7314 26.6088C45.7827 23.8276 43.2186 21.7061 42.4954 21.0076H42.4691ZM103.232 57.4475C103.666 57.2534 104.166 57.5768 104.152 58.0555C103.995 61.6516 101.417 64.0188 99.2083 65.183C98.4061 65.597 97.6698 65.8557 97.0912 65.9592C96.6967 66.0238 96.2497 66.0109 95.7763 65.9204C93.462 65.4676 90.6218 63.4108 91.6474 62.8546C91.963 62.6864 92.936 62.2207 94.1984 61.6257C95.2898 63.1133 97.0123 63.8118 99.1557 63.0098C100.865 62.376 101.22 59.8406 101.286 58.34C102.075 57.9778 102.745 57.6674 103.245 57.4345L103.232 57.4475ZM50.8057 65.9721C48.6361 65.584 43.9418 62.9581 43.7314 58.0684C43.7051 57.5898 44.2048 57.2534 44.6518 57.4604C45.1515 57.6932 45.8221 58.0037 46.6111 58.3659C46.6768 59.8535 47.0319 62.4018 48.7413 63.0357C50.8846 63.8377 52.6072 63.1262 53.6986 61.6516C54.9609 62.2466 55.9339 62.7123 56.2495 62.8805C57.4856 63.5531 53.12 66.4119 50.8057 65.998V65.9721ZM32.0943 101.325C31.7129 101.895 31.0949 102.231 30.4112 102.231H21.6011L29.0699 97.6775C29.5696 97.38 30.1745 97.3024 30.7267 97.4835C31.3448 97.6775 31.8181 98.1303 32.0285 98.7382L32.331 99.592C32.5282 100.174 32.4493 100.821 32.1074 101.338L32.0943 101.325ZM43.9418 118.232C43.7182 118.53 43.4027 118.776 43.0345 118.957L34.6715 123.006L39.642 115.529C39.8524 115.205 40.1548 114.921 40.4967 114.74C40.9043 114.507 41.3777 114.378 41.851 114.378C42.5085 114.378 43.1528 114.61 43.6262 115.05C44.5729 115.891 44.7044 117.262 43.9418 118.245V118.232ZM64.0471 128.84C63.9682 129.034 63.8761 129.228 63.7446 129.422L58.9188 136.588L58.761 127.973C58.761 127.74 58.7873 127.52 58.8399 127.3C59.1292 126.097 60.2338 125.231 61.4829 125.231C61.7459 125.231 62.0089 125.269 62.2719 125.347C62.9951 125.567 63.5737 126.046 63.9156 126.718C64.2443 127.378 64.2969 128.154 64.0471 128.853V128.84ZM88.9781 136.588L84.1523 129.422C84.0208 129.228 83.9288 129.034 83.8499 128.84C83.6 128.154 83.6526 127.365 83.9814 126.705C84.3101 126.033 84.9018 125.554 85.625 125.334C85.888 125.256 86.151 125.218 86.414 125.218C87.6632 125.218 88.7677 126.084 89.057 127.287C89.1096 127.507 89.1359 127.74 89.1359 127.96L88.9781 136.575V136.588ZM113.225 123.006L104.862 118.957C104.494 118.776 104.192 118.53 103.955 118.232C103.192 117.249 103.324 115.878 104.271 115.037C104.757 114.61 105.388 114.365 106.046 114.365C106.532 114.365 107.006 114.494 107.4 114.727C107.742 114.921 108.031 115.192 108.255 115.516L113.225 122.993V123.006ZM102.601 112.993C102.601 112.993 102.482 113.084 102.417 113.149C94.7638 119.746 84.7703 123.381 74.264 123.381H73.6197C63.1134 123.381 53.12 119.746 45.4671 113.149C45.4014 113.097 45.3356 113.032 45.283 112.993C36.9858 105.762 32.4099 96.0088 32.3967 85.505C33.1331 86.7468 33.922 87.8205 34.7373 88.7131C39.3395 93.6674 41.7064 104.081 43.4816 107.923C45.2567 111.764 50.5296 112.243 54.9872 115.93C57.1831 117.741 63.1003 118.582 68.5573 118.97C70.4771 119.099 72.3311 119.19 73.9485 119.228C75.5658 119.177 77.4199 119.099 79.3397 118.97C81.0622 118.84 82.8505 118.672 84.5336 118.439C85.7697 118.271 86.5323 116.978 86.0195 115.852C84.9807 113.575 82.0747 112.579 79.3134 112.036C76.7887 111.545 74.3955 111.428 73.6723 111.053C72.3574 110.38 75.3423 109.902 79.3134 110.691C80.6414 110.95 82.0879 111.351 83.508 111.946C86.2956 113.097 87.4791 114.688 87.9525 116.033C88.2943 117.016 89.412 117.508 90.3982 117.172C91.4502 116.809 92.318 116.395 92.9097 115.904C97.3673 112.217 102.64 111.739 104.415 107.897C106.191 104.055 108.544 93.6545 113.16 88.6872C113.975 87.8076 114.764 86.721 115.5 85.4921C115.487 95.9959 110.911 105.749 102.614 112.98L102.601 112.993ZM118.853 97.6775L126.309 102.231H117.499C116.815 102.231 116.184 101.895 115.803 101.325C115.461 100.808 115.382 100.174 115.579 99.5791L115.882 98.7253C116.092 98.1173 116.565 97.6646 117.183 97.4705C117.749 97.2894 118.34 97.3671 118.853 97.6646V97.6775Z" fill="#A89968"/>
<mask id="mask0_4436_8233" style="mask-type:alpha" maskUnits="userSpaceOnUse" x="8" y="0" width="132" height="149">
<path d="M136.883 80.3178C138.723 79.2959 139.631 77.1615 139.092 75.1435C138.553 73.1255 136.712 71.7156 134.608 71.7156H123.878C124.075 68.6757 123.812 65.8557 123.076 63.4367C122.063 60.1381 122.339 56.8654 122.629 53.3986C122.918 49.9706 123.207 46.4133 122.182 42.8431C121.892 41.847 121.735 40.9674 121.708 40.1524C121.682 39.3246 121.774 38.5872 121.892 37.7335C122.155 35.8448 122.471 33.4905 121.301 30.1014C121.09 29.4805 120.893 28.9113 120.709 28.3809C119.42 24.6684 118.986 23.4266 118.71 20.1409C118.237 14.6303 116.804 12.5347 112.109 8.21417C109.966 6.22207 109.558 4.68273 109.322 3.75135C109.124 2.96228 108.651 1.12541 106.639 0.310457C106.14 0.103486 105.6 0 105.048 0C102.826 0 100.761 1.79806 99.7358 2.87173C98.4472 4.21704 96.8036 6.49372 96.2513 9.74059C96.1592 10.2839 96.0672 10.8272 95.9883 11.3705C95.8699 12.0949 95.7253 13.0133 95.5675 13.8283C93.8713 13.3496 91.6753 12.9486 89.0981 12.9486C86.718 12.9486 84.3249 13.2979 81.9975 13.9964C78.3814 15.0701 75.4491 15.3417 73.9632 15.3935C72.4642 15.3417 69.5451 15.0701 65.929 13.9964C63.5884 13.2979 61.2084 12.9486 58.8284 12.9486C56.2643 12.9486 54.0684 13.3496 52.359 13.8283C52.2012 13.0133 52.0565 12.0949 51.9382 11.3705C51.8593 10.8272 51.7672 10.271 51.6752 9.74059C51.1229 6.49372 49.4793 4.21704 48.1906 2.87173C47.165 1.79806 45.1005 0 42.8783 0C42.326 0 41.7869 0.103486 41.2741 0.310457C39.2886 1.11247 38.8152 2.96228 38.6048 3.75135C38.3681 4.68273 37.9736 6.22207 35.8171 8.21417C31.1228 12.5476 29.6896 14.6432 29.2162 20.1409C28.9401 23.4136 28.5061 24.6684 27.2175 28.3809C27.0334 28.9113 26.8362 29.4805 26.6258 30.0885C25.4555 33.4905 25.7842 35.8448 26.0341 37.7335C26.1524 38.5872 26.2576 39.3116 26.2182 40.1654C26.1919 40.9803 26.0341 41.8599 25.7448 42.856C24.706 46.4263 25.0084 49.9836 25.2977 53.4115C25.587 56.8783 25.8631 60.1381 24.8506 63.4496C24.1143 65.8686 23.8381 68.6886 24.0485 71.7285H13.2924C11.1885 71.7285 9.33447 73.1385 8.8085 75.1564C8.26938 77.1744 9.17668 79.3088 11.0176 80.3307L24.5614 87.9111C24.706 89.4116 24.9164 90.9121 25.1794 92.3868L12.2799 100.252C10.4916 101.351 9.67635 103.421 10.2418 105.426C10.8072 107.431 12.6086 108.776 14.7125 108.776H30.347C30.4785 108.776 30.6232 108.776 30.7547 108.776C30.8993 108.776 31.044 108.776 31.1886 108.776C31.4384 109.19 31.6883 109.617 31.9381 110.057C32.4378 110.911 32.9506 111.79 33.516 112.67L24.9821 125.515C24.0485 126.925 23.9696 128.736 24.7717 130.224C25.587 131.724 27.1518 132.656 28.848 132.656C29.5449 132.656 30.255 132.488 30.8862 132.19L45.5345 125.114C47.5463 126.563 49.6633 127.869 51.8461 128.995L52.1223 144C52.1617 146.536 54.213 148.515 56.764 148.515C58.3156 148.515 59.7489 147.752 60.6167 146.471L68.9797 134.066C70.5313 134.221 72.0829 134.299 73.6345 134.299H74.2788C75.8173 134.299 77.382 134.221 78.9337 134.066L87.2966 146.471C88.1645 147.752 89.5977 148.515 91.1494 148.515C93.7003 148.515 95.7516 146.536 95.791 144L96.054 128.995C98.25 127.869 100.354 126.576 102.366 125.114L117.014 132.19C117.645 132.5 118.355 132.656 119.052 132.656C120.762 132.656 122.326 131.724 123.142 130.224C123.957 128.736 123.865 126.938 122.931 125.515L114.397 112.67C114.963 111.79 115.476 110.911 115.975 110.057C116.238 109.617 116.488 109.19 116.738 108.776C116.869 108.776 117.014 108.776 117.159 108.776C117.29 108.776 117.422 108.776 117.566 108.776H133.214C135.318 108.776 137.106 107.431 137.685 105.426C138.25 103.421 137.435 101.351 135.647 100.252L122.747 92.3739C123.023 90.8992 123.22 89.3987 123.365 87.8981L136.922 80.3178H136.883Z" fill="#E7E7E7"/>
</mask>
<g mask="url(#mask0_4436_8233)">
<path d="M28.4666 80.0979C27.9801 79.1665 27.0202 78.5844 25.9682 78.5844H22.0234L28.8348 82.3875L28.9926 82.4781H29.0189L28.7296 80.8611C28.677 80.5894 28.5849 80.3307 28.4666 80.085V80.0979Z" fill="#E7E7E7"/>
<path d="M32.0153 98.7253C31.8049 98.1173 31.3315 97.6646 30.7135 97.4706C30.1612 97.2895 29.5564 97.3671 29.0567 97.6646L21.5879 102.218H30.3979C31.0817 102.218 31.7128 101.882 32.081 101.312C32.4229 100.795 32.5018 100.161 32.3046 99.5661L32.0021 98.7124L32.0153 98.7253Z" fill="#E7E7E7"/>
<path d="M41.8397 114.365C41.3531 114.365 40.8798 114.494 40.4853 114.727C40.1434 114.921 39.8541 115.192 39.6306 115.516L34.6602 122.993L43.0231 118.944C43.3913 118.763 43.6937 118.517 43.9304 118.219C44.6931 117.236 44.5616 115.865 43.6148 115.024C43.1283 114.597 42.4971 114.352 41.8397 114.352V114.365Z" fill="#E7E7E7"/>
<path d="M53.6986 61.6257C52.6072 63.1133 50.8847 63.8119 48.7413 63.0098C47.0319 62.376 46.6769 59.8406 46.6111 58.34C45.8353 57.9778 45.1516 57.6674 44.6519 57.4346C44.218 57.2405 43.7051 57.5639 43.7314 58.0425C43.9418 62.9322 48.6361 65.5582 50.8058 65.9462C53.12 66.3602 57.4856 63.5014 56.2496 62.8287C55.934 62.6606 54.9609 62.1949 53.6986 61.5998V61.6257Z" fill="#E7E7E7"/>
<path d="M62.2726 125.347C62.0096 125.269 61.7466 125.231 61.4836 125.231C60.2344 125.231 59.1299 126.097 58.8406 127.3C58.788 127.52 58.7617 127.74 58.7617 127.973L58.9195 136.588L63.7453 129.422C63.8768 129.228 63.9688 129.034 64.0477 128.84C64.2976 128.154 64.245 127.365 63.9162 126.705C63.5744 126.033 62.9958 125.554 62.2726 125.334V125.347Z" fill="#E7E7E7"/>
<path d="M86.428 125.231C86.165 125.231 85.902 125.269 85.6391 125.347C84.9158 125.567 84.3373 126.046 83.9954 126.718C83.6535 127.378 83.6141 128.154 83.8639 128.853C83.9428 129.047 84.0348 129.241 84.1663 129.435L88.9921 136.601L89.1499 127.986C89.1499 127.753 89.1236 127.533 89.071 127.313C88.7817 126.123 87.6772 125.243 86.428 125.243V125.231Z" fill="#E7E7E7"/>
<path d="M99.1563 63.0099C97.013 63.8119 95.2904 63.1004 94.199 61.6257C92.9367 62.2208 91.9636 62.6865 91.6481 62.8546C90.6224 63.4109 93.4495 65.4806 95.7769 65.9204C96.2503 66.0109 96.7105 66.0368 97.0919 65.9592C97.6573 65.8557 98.4068 65.597 99.2089 65.1831C101.431 64.0188 104.008 61.6516 104.153 58.0555C104.179 57.5769 103.68 57.2405 103.233 57.4475C102.733 57.6803 102.062 57.9908 101.273 58.353C101.208 59.8406 100.853 62.3889 99.1431 63.0228L99.1563 63.0099Z" fill="#E7E7E7"/>
<path d="M39.5498 29.7909C38.3006 29.3123 35.9074 28.4068 35.0396 29.0019C34.1717 29.5969 32.6201 33.5552 33.8035 33.9304C35.0001 34.2926 34.6582 33.4517 35.4077 32.5592C36.1572 31.6796 36.5123 31.2785 37.3144 31.8089C38.1165 32.3393 36.8936 32.3393 36.2098 34.6418C36.1835 34.7194 36.1572 34.81 36.1441 34.8876C36.1309 34.9523 36.1047 35.017 36.0915 35.0816C36.0915 35.1334 36.0652 35.1851 36.0521 35.2369C36.0126 35.405 35.9732 35.5861 35.9337 35.7672C35.9074 35.8707 35.8811 35.9742 35.868 36.0777C35.8154 36.3364 35.7628 36.621 35.7102 36.9056C35.697 36.9832 35.6839 37.0608 35.6707 37.1384C35.605 37.5136 35.5524 37.9016 35.4998 38.2897C35.4866 38.4191 35.4735 38.5484 35.4603 38.6778C35.4603 38.7424 35.4472 38.7942 35.434 38.8589C35.3946 39.1952 35.3683 39.5445 35.342 39.8808C35.342 40.0101 35.3288 40.1524 35.3157 40.2818C35.2368 41.9634 35.3814 43.5675 35.9206 44.5247C37.1434 46.6979 37.5774 47.1507 39.1421 46.7496C40.7069 46.3486 41.3381 46.4004 40.5097 47.6163C39.6813 48.8323 38.4058 49.8672 40.5491 51.4971C42.6924 53.127 45.4012 55.0414 46.7819 55.3519C48.1757 55.6624 50.6609 55.3778 53.5669 57.1888C56.4729 58.9868 61.6669 64.2387 65.0725 62.583C68.4782 60.9142 65.2829 59.8665 65.375 57.0594C65.467 54.2524 67.2948 57.1241 68.2941 57.6674C68.2941 57.6674 68.4651 56.5032 67.5709 54.2265C66.6899 51.9627 67.3342 50.5916 67.3342 50.5916C67.3342 50.5916 69.6222 51.4971 69.6748 57.0465C69.7274 62.5959 70.1745 63.1651 67.7944 64.174C65.4144 65.183 60.8385 67.4468 58.6951 68.8309C56.5518 70.228 52.7648 71.8837 46.9528 68.003C41.1408 64.1223 38.3006 61.5093 36.6043 65.3512C34.9081 69.1931 35.3946 72.1812 36.6306 71.0558C37.8667 69.9304 38.9843 69.0637 41.4959 69.0637C44.0074 69.0637 38.9186 70.3961 39.7996 71.9613C40.6938 73.5395 44.7832 77.0321 45.6905 79.5417C46.6109 82.0512 54.6977 82.9179 52.9357 83.6552C51.1869 84.3925 48.7543 83.8881 48.8332 84.9488C48.9121 86.0225 51.3184 87.7041 53.2645 88.1568C55.2106 88.5967 57.1567 92.2316 57.1304 93.1371C57.1041 94.0426 55.513 97.9492 54.4216 97.781C53.3302 97.6128 54.2375 93.7451 52.8305 92.555C51.4236 91.3649 49.3986 92.4256 49.9772 94.2625C50.5557 96.0994 55.3815 104.663 59.4183 107.043C63.4552 109.423 60.6281 105.879 64.231 103.77C65.9272 102.787 67.4789 102.334 68.5834 101.895C69.8326 101.39 70.5032 100.899 70.1087 99.6308C69.7405 98.4278 69.0831 98.1303 68.5965 97.7681C68.11 97.4317 67.7681 97.0437 67.9522 95.7501C68.3204 93.1241 69.9904 92.154 64.494 92.0117C58.9976 91.8694 55.7891 90.731 58.4584 86.0742C60.2993 82.8532 65.6906 79.3347 73.4618 79.7228C73.7642 79.7228 74.0667 79.7228 74.3559 79.7228C76.7754 79.6063 79.0108 79.8521 81.0095 80.3696C81.0621 80.9905 80.9963 81.6761 80.6939 82.3487C79.734 84.5219 74.7636 85.9319 66.7031 84.6642C62.6005 84.0174 66.4401 86.3847 72.0548 86.514C80.97 86.721 83.3106 83.6164 85.3487 81.9995C87.5841 83.1766 88.5572 84.6513 89.3724 86.0742C92.0417 90.731 88.8202 91.8694 83.3369 92.0117C77.8405 92.154 79.5105 93.1112 79.8786 95.7501C80.0627 97.0437 79.7208 97.4317 79.2343 97.7681C78.7346 98.1173 78.0903 98.4278 77.7222 99.6308C77.3277 100.886 77.9983 101.39 79.2475 101.895C80.352 102.334 81.9168 102.787 83.5999 103.77C87.2159 105.879 84.3757 109.423 88.4125 107.043C92.4494 104.663 97.262 96.0864 97.8537 94.2625C98.4323 92.4256 96.4073 91.3778 95.0003 92.555C93.5933 93.7451 94.5006 97.6128 93.4093 97.781C92.331 97.9362 90.7268 94.0426 90.7005 93.1371C90.6742 92.2316 92.6071 88.5967 94.5664 88.1568C95.2765 87.9887 96.0391 87.6653 96.7229 87.2643C99.8524 84.7806 96.2232 86.113 92.6992 87.0961C89.1752 88.0663 91.8445 84.7289 93.9089 82.7497C95.9602 80.7706 93.8432 76.7864 91.2659 74.0699C88.6887 71.3534 92.2127 72.9703 94.9346 74.5614C97.6565 76.1654 97.9195 75.4928 95.7498 72.9056C94.5269 71.4439 92.9622 71.2887 91.5815 71.03C91.5815 71.03 87.5841 70.823 87.663 68.1841C87.7419 65.5452 85.0726 65.1701 84.7702 63.4755C84.4677 61.7809 83.9549 60.0217 85.9142 60.6685C87.8603 61.3153 89.7275 61.4187 91.2659 60.0476C92.2916 58.9739 93.2252 57.8485 94.2903 57.1888C97.1963 55.3778 99.6815 55.6753 101.075 55.3519C101.299 55.3002 101.562 55.2096 101.851 55.0802C101.891 55.0544 101.943 55.0414 101.983 55.0156C101.996 55.0156 102.022 55.0026 102.035 54.9897C102.903 54.5758 104.928 54.3429 106.44 54.2265C107.334 54.1489 108.202 52.9717 107.505 52.4284C103.561 49.298 103.889 47.3188 103.823 45.4561C103.771 43.6063 102.285 40.7475 103.718 42.248C105.165 43.7486 107.492 46.7755 107.952 45.0421C108.413 43.3217 106.506 43.7098 107.558 40.6311C107.597 40.5017 107.637 40.3853 107.689 40.2689C107.716 40.1783 107.755 40.1007 107.795 40.0101C107.939 39.6868 108.084 39.3892 108.255 39.1305C108.321 39.027 108.373 38.9235 108.452 38.833C108.518 38.7295 108.584 38.639 108.662 38.5484C108.741 38.4449 108.82 38.3544 108.899 38.2638C108.991 38.1603 109.07 38.0698 109.162 37.9792C109.202 37.9275 109.254 37.8887 109.294 37.8499C109.333 37.8111 109.386 37.7593 109.425 37.7205C109.517 37.6429 109.609 37.5524 109.688 37.4877C109.754 37.4359 109.806 37.3713 109.872 37.3325C110.004 37.216 110.148 37.1125 110.28 36.9961C110.346 36.9444 110.398 36.9056 110.464 36.8538C110.714 36.6469 110.95 36.4399 111.161 36.2329C111.213 36.1682 111.266 36.1036 111.319 36.0389C111.384 35.9613 111.437 35.8837 111.49 35.806C112.357 34.4737 109.82 34.2926 108.662 34.9005C107.505 35.5085 103.692 36.8021 105.678 35.0558C107.663 33.3095 110.609 32.1323 110.253 30.6706C109.898 29.2088 108.347 29.7651 108.347 29.7651C108.321 29.7651 108.307 29.7651 108.294 29.7909C107.045 30.2696 106.19 29.377 104.152 26.6088C102.114 23.8276 104.678 21.7061 105.388 21.0076C106.111 20.3091 105.927 19.5329 105.533 17.6961C105.138 15.8592 106.979 14.2034 106.979 14.2034C106.979 14.2034 106.979 15.6652 108.176 17.4632C109.372 19.2483 108.781 19.6235 107.979 21.9002C107.177 24.1768 107.768 24.8754 108.294 24.6555C108.82 24.4356 107.847 23.6206 108.623 22.8186C109.399 22.0166 110.385 24.2157 111.805 25.0694C113.225 25.9232 113.422 25.3023 112.87 22.133C112.318 18.9638 111.463 21.2146 109.885 15.704C108.321 10.1933 104.836 8.88684 104.836 8.88684C100.299 13.1427 101.128 22.5081 101.128 22.5081C100.129 23.5171 96.5256 21.0723 91.2659 19.7658C88.715 19.1319 86.0457 19.2871 83.3632 19.6882C81.1804 20.3349 77.3803 21.2792 73.9089 21.137C70.4375 21.2792 66.6373 20.3349 64.4545 19.6882C61.7721 19.2871 59.1028 19.1449 56.5518 19.7658C51.2921 21.0723 47.6892 23.5171 46.6898 22.5081C46.6898 22.5081 47.5314 13.1427 42.9817 8.88684C42.9817 8.88684 39.4972 10.1933 37.9324 15.704C36.3676 21.2146 35.4998 18.9767 34.9475 22.133C34.3952 25.2893 34.5925 25.9232 36.0126 25.0694C37.4327 24.2027 38.4189 22.0036 39.1947 22.8186C39.9705 23.6206 39.0106 24.4485 39.5366 24.6555C40.0626 24.8754 40.6412 24.1768 39.839 21.9002C39.0369 19.6235 38.4452 19.2483 39.6418 17.4632C40.8384 15.6652 40.8384 14.2034 40.8384 14.2034C40.8384 14.2034 42.6793 15.8592 42.2848 17.6961C41.8903 19.5329 41.7194 20.3091 42.4295 21.0076C43.1527 21.7061 45.7168 23.8405 43.6655 26.6088C41.6274 29.377 40.7726 30.2696 39.5235 29.7909H39.5498Z" fill="#E7E7E7"/>
<path d="M107.414 114.727C107.006 114.494 106.533 114.365 106.06 114.365C105.402 114.365 104.758 114.597 104.284 115.037C103.338 115.878 103.206 117.249 103.969 118.232C104.205 118.53 104.508 118.776 104.876 118.957L113.239 123.006L108.269 115.529C108.045 115.205 107.756 114.921 107.414 114.74V114.727Z" fill="#E7E7E7"/>
<path d="M113.148 88.7131C108.545 93.6675 106.179 104.081 104.403 107.923C102.628 111.765 97.3423 112.243 92.8978 115.93C92.3061 116.421 91.4382 116.835 90.3863 117.198C89.4001 117.534 88.2824 117.029 87.9405 116.059C87.4671 114.714 86.2837 113.123 83.4961 111.971C82.0759 111.376 80.6295 110.975 79.3014 110.717C75.3303 109.928 72.3323 110.419 73.6604 111.079C74.3836 111.454 76.7899 111.558 79.3014 112.062C82.0628 112.605 84.9688 113.588 86.0076 115.878C86.5204 117.003 85.7446 118.297 84.5217 118.465C82.8386 118.698 81.0503 118.866 79.3277 118.996C77.4079 119.125 75.5539 119.215 73.9365 119.254C72.3192 119.203 70.452 119.125 68.5453 118.996C63.0884 118.608 57.1712 117.767 54.9752 115.956C50.5176 112.269 45.2448 111.79 43.4696 107.948C41.6945 104.107 39.3407 93.7063 34.7253 88.739C33.9101 87.8593 33.1211 86.7727 32.3848 85.5309C32.3979 96.0347 36.9739 105.788 45.2711 113.019C45.3237 113.058 45.3894 113.11 45.4552 113.175C53.108 119.772 63.1015 123.407 73.6078 123.407H74.2521C84.7584 123.407 94.7518 119.772 102.405 113.175C102.405 113.175 102.523 113.058 102.589 113.019C110.886 105.788 115.462 96.0347 115.475 85.5309C114.739 86.7598 113.95 87.8464 113.135 88.726L113.148 88.7131Z" fill="#E7E7E7"/>
<path d="M119.065 82.3875L125.876 78.5844H121.931C120.866 78.5844 119.92 79.1665 119.433 80.0979C119.315 80.3307 119.223 80.6024 119.17 80.874L118.881 82.4781H118.907L119.065 82.3875Z" fill="#E7E7E7"/>
<path d="M117.183 97.4706C116.565 97.6646 116.092 98.1173 115.881 98.7253L115.579 99.5791C115.368 100.161 115.461 100.808 115.802 101.325C116.171 101.895 116.802 102.231 117.499 102.231H126.309L118.853 97.6775C118.353 97.38 117.749 97.3024 117.183 97.4835V97.4706Z" fill="#E7E7E7"/>
<path d="M136.883 80.3178C138.723 79.2959 139.631 77.1615 139.092 75.1435C138.553 73.1255 136.712 71.7156 134.608 71.7156H123.878C124.075 68.6757 123.812 65.8557 123.076 63.4367C122.063 60.1381 122.339 56.8654 122.629 53.3986C122.918 49.9706 123.207 46.4133 122.182 42.8431C121.892 41.847 121.735 40.9674 121.708 40.1524C121.682 39.3245 121.774 38.5872 121.892 37.7335C122.155 35.8448 122.471 33.4905 121.301 30.1014C121.09 29.4805 120.893 28.9113 120.709 28.3809C119.42 24.6684 118.986 23.4266 118.71 20.1409C118.237 14.6303 116.804 12.5347 112.109 8.21417C109.966 6.22207 109.558 4.68273 109.322 3.75135C109.124 2.96228 108.651 1.12541 106.639 0.310457C106.14 0.103486 105.6 0 105.048 0C102.826 0 100.761 1.79806 99.7358 2.87173C98.4472 4.21704 96.8035 6.49372 96.2513 9.74059C96.1592 10.2839 96.0672 10.8272 95.9883 11.3705C95.8699 12.0949 95.7253 13.0133 95.5675 13.8283C93.8712 13.3496 91.6753 12.9486 89.0981 12.9486C86.718 12.9486 84.3249 13.2979 81.9974 13.9964C78.3814 15.0701 75.4491 15.3417 73.9632 15.3935C72.4642 15.3417 69.5451 15.0701 65.929 13.9964C63.5884 13.2979 61.2084 12.9486 58.8284 12.9486C56.2643 12.9486 54.0684 13.3496 52.3589 13.8283C52.2012 13.0133 52.0565 12.0949 51.9382 11.3705C51.8593 10.8272 51.7672 10.271 51.6752 9.74059C51.1229 6.49372 49.4793 4.21704 48.1906 2.87173C47.165 1.79806 45.1005 0 42.8783 0C42.326 0 41.7869 0.103486 41.2741 0.310457C39.2886 1.11247 38.8152 2.96228 38.6048 3.75135C38.3681 4.68273 37.9736 6.22207 35.8171 8.21417C31.1228 12.5476 29.6896 14.6432 29.2162 20.1409C28.9401 23.4136 28.5061 24.6684 27.2175 28.3809C27.0334 28.9113 26.8362 29.4805 26.6258 30.0885C25.4555 33.4905 25.7842 35.8448 26.0341 37.7335C26.1524 38.5872 26.2576 39.3116 26.2182 40.1654C26.1919 40.9803 26.0341 41.8599 25.7448 42.856C24.706 46.4263 25.0084 49.9836 25.2977 53.4115C25.587 56.8783 25.8631 60.1381 24.8506 63.4496C24.1143 65.8686 23.8381 68.6886 24.0485 71.7285H13.2924C11.1885 71.7285 9.33447 73.1385 8.8085 75.1564C8.26938 77.1744 9.17668 79.3088 11.0176 80.3307L24.5614 87.9111C24.706 89.4116 24.9164 90.9121 25.1794 92.3868L12.2799 100.252C10.4916 101.351 9.67635 103.421 10.2418 105.426C10.8072 107.431 12.6086 108.776 14.7125 108.776H30.347C30.4785 108.776 30.6232 108.776 30.7547 108.776C30.8993 108.776 31.0439 108.776 31.1886 108.776C31.4384 109.19 31.6883 109.617 31.9381 110.057C32.4378 110.911 32.9506 111.79 33.516 112.67L24.9821 125.515C24.0485 126.925 23.9696 128.736 24.7717 130.224C25.587 131.724 27.1518 132.656 28.848 132.656C29.5449 132.656 30.255 132.488 30.8862 132.19L45.5345 125.114C47.5463 126.563 49.6633 127.869 51.8461 128.995L52.1223 144C52.1617 146.536 54.213 148.515 56.764 148.515C58.3156 148.515 59.7488 147.752 60.6167 146.471L68.9796 134.066C70.5313 134.221 72.0829 134.299 73.6345 134.299H74.2788C75.8173 134.299 77.382 134.221 78.9337 134.066L87.2966 146.471C88.1645 147.752 89.5977 148.515 91.1494 148.515C93.7003 148.515 95.7516 146.536 95.791 144L96.054 128.995C98.25 127.869 100.354 126.576 102.366 125.114L117.014 132.19C117.645 132.5 118.355 132.656 119.052 132.656C120.762 132.656 122.326 131.724 123.142 130.224C123.957 128.736 123.865 126.938 122.931 125.515L114.397 112.67C114.963 111.79 115.476 110.911 115.975 110.057C116.238 109.617 116.488 109.19 116.738 108.776C116.869 108.776 117.014 108.776 117.159 108.776C117.29 108.776 117.422 108.776 117.566 108.776H133.214C135.318 108.776 137.106 107.431 137.685 105.426C138.25 103.421 137.435 101.351 135.647 100.252L122.747 92.3739C123.023 90.8992 123.22 89.3987 123.365 87.8981L136.922 80.3178H136.883ZM119.46 95.1551C119.723 95.2585 119.959 95.375 120.196 95.5173L133.516 103.641C134.042 103.964 133.819 104.766 133.201 104.766H117.501C115.923 104.805 114.66 104.508 114.095 105.374C112.727 107.457 111.649 109.695 110.176 111.687C109.742 112.295 109.742 113.11 110.216 113.692C110.334 113.834 110.439 113.977 110.545 114.132L119.552 127.688C119.894 128.206 119.328 128.84 118.763 128.568L103.628 121.246C103.444 121.156 103.247 121.052 103.076 120.936C102.458 120.548 101.682 120.548 101.117 121.001C98.5787 122.967 95.8436 124.661 92.964 126.033C92.3591 126.317 91.9909 126.951 92.0303 127.624C92.0303 127.753 92.0303 127.895 92.0303 128.025L91.7411 143.897C91.7411 144.492 90.9521 144.725 90.6102 144.22L81.7082 131.013C81.6424 130.909 81.5767 130.806 81.5109 130.702C81.169 130.12 80.4853 129.823 79.8147 129.9C77.9738 130.133 76.1066 130.263 74.2525 130.263H73.6082C71.7542 130.263 69.8869 130.146 68.046 129.9C67.3754 129.81 66.6917 130.12 66.3498 130.702C66.284 130.806 66.2314 130.909 66.1525 131.013L57.2505 144.22C56.9217 144.712 56.1328 144.492 56.1328 143.897L55.8435 128.025C55.8435 127.895 55.8435 127.753 55.8435 127.624C55.883 126.951 55.5279 126.317 54.9099 126.033C52.0302 124.661 49.3083 122.98 46.7573 121.001C46.1919 120.561 45.403 120.548 44.785 120.936C44.6009 121.052 44.4168 121.156 44.2327 121.246L29.0979 128.568C28.5324 128.84 27.967 128.206 28.322 127.688L37.3293 114.132C37.4345 113.977 37.5397 113.834 37.658 113.692C38.1314 113.123 38.1446 112.295 37.6975 111.687C36.2379 109.695 35.1465 107.444 33.779 105.374C33.2136 104.521 31.9644 104.818 30.3865 104.766H14.7125C14.0945 104.766 13.8578 103.964 14.3969 103.641L27.7172 95.5173C27.9539 95.375 28.2037 95.2585 28.4535 95.1551C29.2162 94.8575 29.637 94.0555 29.466 93.2664C28.9795 91.0156 28.6508 88.726 28.493 86.4235C28.4535 85.8284 28.1117 85.2851 27.5857 84.9876L13.0163 76.8381C12.464 76.5276 12.6875 75.6998 13.3187 75.6998H26.0209C26.9808 75.6998 27.8487 75.2988 28.4667 74.6649C27.8355 71.1205 27.8092 67.5503 28.7034 64.6009C31.0177 57.0206 27.8355 50.0871 29.6238 43.9555C30.0446 42.5067 30.2155 41.3296 30.255 40.3077C30.3733 36.9832 29.0979 35.2886 30.4391 31.382C32.1879 26.2724 32.8717 24.7719 33.2399 20.4902C33.6081 16.2084 34.4628 14.9407 38.5653 11.1376C42.6679 7.34748 42.3523 4.19117 42.8126 4.01007C43.2728 3.81603 46.9677 6.04098 47.7172 10.4132C48.4536 14.7726 48.8744 19.5329 51.1887 18.4981C53.5029 17.4632 58.5917 15.9756 64.785 17.8254C68.3748 18.8991 71.6095 19.313 73.9764 19.3906C76.3432 19.313 79.578 18.8861 83.1677 17.8254C89.361 15.9885 94.4498 17.4632 96.7641 18.4981C99.0784 19.5329 99.4991 14.7855 100.236 10.4132C100.972 6.04098 104.68 3.82897 105.127 4.01007C105.587 4.19117 105.259 7.34748 109.374 11.1376C113.477 14.9278 114.332 16.1955 114.7 20.4902C115.068 24.7719 115.752 26.2854 117.501 31.382C118.842 35.2886 117.579 36.9832 117.698 40.3077C117.737 41.3296 117.908 42.5067 118.316 43.9555C120.091 50.0871 116.909 57.0206 119.236 64.6009C120.144 67.5632 120.117 71.1205 119.473 74.6649C120.091 75.3117 120.959 75.7127 121.919 75.6998H134.621C135.252 75.6998 135.476 76.5276 134.923 76.8381L120.354 84.9876C119.828 85.2851 119.486 85.8284 119.447 86.4235C119.276 88.726 118.947 91.0156 118.474 93.2664C118.303 94.0555 118.737 94.8575 119.499 95.1551H119.46Z" fill="#E7E7E7"/>
</g>
</svg>
