<svg width="88" height="20" viewBox="0 0 88 20" fill="none" xmlns="http://www.w3.org/2000/svg">
<g clip-path="url(#clip0_4617_13290)">
<path d="M45.2402 18.9828C44.5047 18.4176 43.3623 18.6062 42.8535 19.3754L41.5146 21.2592C40.2155 23.1433 42.9 25.0903 44.2852 23.2767L45.6309 21.3773C46.1943 20.6315 45.9992 19.5088 45.2402 18.9828ZM42.1875 18.8969C43.4866 17.0519 40.7396 15.0814 39.4014 16.8949C39.135 17.2643 38.2749 18.4488 38.0244 18.8021C36.8036 20.6941 39.4644 22.5862 40.834 20.7885C40.8514 20.7547 42.1634 18.9477 42.1875 18.9047V18.8969ZM35.1211 2.2533C33.6968 5.00879 32.1625 7.98365 30.7773 10.7631C30.6522 10.9984 30.5041 11.3128 30.3867 11.5482C30.5119 11.9407 30.6676 12.4987 30.8633 12.8441L31.8652 11.4467C33.2817 9.40548 36.5843 10.5831 36.4277 13.0482C38.0554 12.3338 40.0274 13.7701 39.8711 15.5443C41.4519 14.8221 43.4945 16.2437 43.3223 18.0179C44.7777 17.3821 46.5463 18.4413 46.7422 19.9955C46.8985 19.9955 47.2581 20.3168 47.3916 20.3959C48.5028 21.2122 49.9901 20.059 49.834 18.8109C49.7792 18.3635 49.4976 17.9859 49.1221 17.7504L46.6719 16.016L45.7178 15.3324C45.2874 15.0263 45.7405 14.3832 46.1787 14.6732L49.6855 17.1693L50.6631 17.8607C51.2892 18.3161 52.174 18.1743 52.6357 17.5541C53.1832 16.9574 53.0889 15.945 52.4238 15.4662C51.4768 14.7674 49.3638 13.2048 48.4404 12.5219C48.0185 12.1999 48.4877 11.5725 48.9102 11.8705C50.0918 12.7419 52.3299 14.414 53.5273 15.2855C55.0534 16.314 56.7359 14.1555 55.2178 12.9779V12.9847L47.3379 7.17517C45.4911 5.94269 43.7143 7.70125 41.8203 8.97302C39.2143 10.9906 37.3433 9.92327 36.4746 9.10681C36.1382 8.79284 35.9581 8.35311 35.9736 7.8822C35.9893 7.41116 36.2171 6.95589 36.585 6.65759L41.3584 2.83435C40.4349 2.42612 39.981 2.2533 39.1045 2.2533H35.1211ZM39.0732 15.4183C39.0964 13.7778 36.8893 13.0633 35.9502 14.4135L34.6045 16.3138C34.5965 16.3375 34.5424 16.4072 34.5342 16.431C33.4542 18.2367 35.9898 20.0426 37.3359 18.3939H37.3438C37.3453 18.3924 37.3594 18.3779 37.3594 18.3705L37.3828 18.347L37.3906 18.3314L37.7188 17.8676C38.0636 17.3082 39.0138 16.3147 39.0732 15.5717V15.4183ZM35.6299 12.9379C35.6534 11.3049 33.4381 10.5748 32.5068 11.9408L31.1924 13.7621C31.1924 13.7621 31.1387 13.8239 31.1455 13.8402C31.1377 13.8481 31.1299 13.849 31.1299 13.8568C29.9329 15.6545 32.4293 17.5696 33.8535 15.9603C33.861 15.9601 33.8613 15.9524 33.8613 15.9447C33.8769 15.9291 33.9001 15.9134 33.9004 15.8978C33.9082 15.89 33.9082 15.8822 33.916 15.8822C33.9238 15.8665 33.9394 15.8501 33.9473 15.8344L35.293 13.9427C35.5121 13.6444 35.6221 13.299 35.6221 12.9379H35.6299ZM45.6543 1.85193C44.5197 1.852 43.3931 2.24506 42.4932 2.95935L37.085 7.29236C36.7093 7.57498 36.6547 8.20392 37.0146 8.51794C38.2433 9.65612 39.6916 9.60116 41.3193 8.33728C43.5888 6.77499 45.4355 4.993 47.8066 6.51599L55.6875 12.3246C56.1647 12.6778 56.4773 13.2039 56.5791 13.7845L58.2539 13.2123C58.1952 13.1417 58.1363 13.0665 58.0908 12.9838L58.0586 12.9144L52.7764 1.85193H45.6543ZM30.2305 -2.89709C29.8548 -3.10904 29.3382 -2.92042 29.1504 -2.53577L23.0928 9.35779C22.8815 9.76602 23.0462 10.2532 23.4453 10.4652L27.8818 12.9769C28.2653 13.181 28.7584 13.016 28.9619 12.6156L29.5801 11.4144V11.4222C29.7914 10.9671 34.3925 1.93294 34.5186 1.69568L35.0195 0.714233C35.2308 0.313851 35.0661 -0.172442 34.667 -0.384399L30.2305 -2.89709ZM59.1621 -2.53577C58.9821 -2.93605 58.4577 -3.11666 58.0742 -2.92053L53.4102 -0.572876C53.0033 -0.36882 52.8232 0.117598 53.0264 0.525757C53.0342 0.580667 53.3861 1.28621 53.4023 1.3031C53.3789 1.3031 58.7705 12.5041 58.7783 12.5609C58.974 12.9691 59.4593 13.1498 59.8662 12.9457L64.5303 10.598C64.9293 10.4174 65.1253 9.89973 64.9141 9.5072L64.9219 9.51501L59.1621 -2.53577Z" fill="currentColor"/>
</g>
<defs>
<clipPath id="clip0_4617_13290">
<rect width="88" height="20" fill="currentColor"/>
</clipPath>
</defs>
</svg>
