<svg width="88" height="20" viewBox="0 0 88 20" fill="none" xmlns="http://www.w3.org/2000/svg">
<g clip-path="url(#clip0_4617_12890)">
<path d="M42.9658 0.491211C43.8704 -0.163755 45.1327 -0.163854 46.0361 0.491211L53.0361 5.56348C53.6395 6.00127 53.9999 6.68839 54 7.40234V17.6709C54 18.9549 52.8782 20 51.5 20H47.501C47.2245 20 47.0002 19.7917 47 19.5342V13.0127C47 12.755 46.7765 12.5459 46.5 12.5459H42.5C42.2235 12.546 42 12.7551 42 13.0127V19.5342C41.9998 19.7917 41.7755 20 41.499 20H37.5C36.1219 20 35 18.956 35 17.6709V7.40234C35.0001 6.68944 35.3612 6.00126 35.9658 5.56348L42.9658 0.491211Z" fill="currentColor"/>
</g>
<defs>
<clipPath id="clip0_4617_12890">
<rect width="88" height="20" fill="currentColor"/>
</clipPath>
</defs>
</svg>
