<svg width="88" height="20" viewBox="0 0 88 20" fill="none" xmlns="http://www.w3.org/2000/svg">
<g clip-path="url(#clip0_6001_12048)">
<path d="M44.1562 7.7041C44.6388 11.65 46.7672 15.2155 50.0225 17.5264L48.2676 19.9873C44.2854 18.0141 41.0772 12.4919 41.6279 7.71191L44.1562 7.7041ZM33.7168 9.56055C33.6971 9.59456 33.6845 9.63015 33.6748 9.66992L33.6768 9.6709L31.9531 14.3564L29.5684 14.3682L31.9941 7.73535H34.3828L33.7168 9.56055ZM26.1328 2.03809C26.5378 2.61605 27.0991 3.06895 27.749 3.3457C28.3215 3.58869 28.9418 3.68554 29.5596 3.62793L29.5869 6.9209L14.9648 12.1602L14 3.8584L26.1328 2.03809ZM37.2266 9.30957L34.832 9.31934L35.4199 7.72852L37.8955 7.71191L37.2266 9.30957ZM65.0986 5.82715L46.9121 8.18359C46.923 7.55206 46.9072 5.034 46.9053 4.35547L65.0947 4.30859L65.0986 5.82715ZM45.9238 1.08203L45.9287 3.39355L36.7754 3.42188C36.5128 3.42907 36.3018 3.64249 36.3037 3.90332C36.3025 4.16495 36.5155 4.37845 36.7773 4.38184L45.9316 4.35352L45.9395 6.7334H44.6387C40.577 6.75292 35.7245 6.76071 31.6572 6.77148L30.5576 6.77441L30.5303 3.40332C32.155 2.90068 33.4272 1.63573 33.9395 0.0205078L45.9219 -0.0126953L45.9238 1.08203ZM71.9209 1.14746C72.1852 1.14678 72.4022 1.35696 72.4082 1.62012L72.4121 3.80762L72.415 3.80664C72.9812 3.86122 73.9794 3.56627 74 4.28223C74.0026 4.5515 73.7844 4.76894 73.5137 4.77148C73.4923 4.77138 71.9538 4.77499 71.9248 4.77246L66.0713 4.78906L66.0684 3.8291L71.4365 3.8125C71.4547 3.82292 71.4311 1.62377 71.4375 1.62207C71.4419 1.35945 71.6565 1.14831 71.9209 1.14746ZM65.0879 2.67676V3.33594L46.9023 3.39551L46.9014 1.56543L62.541 1.52539L65.0879 2.67676Z" fill="currentColor"/>
</g>
<defs>
<clipPath id="clip0_6001_12048">
<rect width="88" height="20" fill="currentColor"/>
</clipPath>
</defs>
</svg>
