<svg xmlns="http://www.w3.org/2000/svg" width="88" height="20" viewBox="0 0 88 20" fill="none">
  <path d="M79.4033 3.32547C79.4375 3.3242 79.4645 3.3476 79.4676 3.3793L81.0012 13.106L79.3374 13.3214L79.2366 12.7046L77.8112 3.58558L79.4033 3.32547ZM50.7659 17.9159L44.7087 17.3806L43.6385 10.8298L49.2104 8.39466L50.7659 17.9159ZM75.7673 13.7334L51.6457 17.6742L50.1202 8.33706L74.2419 4.39629L75.7673 13.7334ZM78.2711 12.4032L76.4177 12.7059L75.1855 5.16336L77.0389 4.86058L78.2711 12.4032ZM28.7767 16.63C30.7711 15.272 38.1536 10.8826 42.7347 10.924L43.8206 17.5712C42.3839 17.9906 40.8949 18.1957 39.399 18.1739C35.8091 18.0819 32.244 17.562 28.7767 16.63ZM28.7751 16.6322L28.7748 16.6303L28.7767 16.63L28.7751 16.6322ZM54.9147 3.31769L54.7283 6.76789L49.4997 7.50038L42.9993 10.0001C37.9994 10.5001 36.0119 11.772 36.0119 11.772L29.9991 11.4471L30.5089 2.00013L54.9147 3.31769ZM29.075 11.9266L23.2731 10.1068L23.631 3.47901L29.5951 2.29388L29.075 11.9266ZM57.5349 4.80137L57.5344 6.50043L55.6595 6.62269L55.6592 4.70111L57.5349 4.80137ZM60.1741 3.80915C60.2072 3.8119 60.2299 3.81907 60.2283 3.82602L60.0524 6.05047L58.3871 6.28691L58.3869 5.80703L58.5638 3.72194L60.1741 3.80915ZM7.871 5.96171C10.1084 5.06288 18.2611 2.35552 22.7278 3.37721L22.365 10.1028C20.8718 10.2047 19.3735 10.0857 17.917 9.74399C14.43 8.88523 11.0583 7.61485 7.871 5.96171Z" fill="currentColor"/>
</svg>