<svg width="88" height="20" viewBox="0 0 88 20" fill="none" xmlns="http://www.w3.org/2000/svg">
<path d="M51.6367 6.68097L51.6924 10.2005L52.2959 10.0755C52.6048 10.0915 53.0239 10.1432 53.3154 10.1956C53.8185 10.2753 54.056 10.3373 54.4209 10.4261C54.9025 10.5445 55.3994 10.6221 55.8896 10.6927C56.4837 10.7793 57.0781 10.8063 57.6699 10.8724L52.041 11.8724L68.4785 14.5579L69.3994 14.7064L69.4082 14.4105L68.9346 14.3304L69.0107 11.6107C69.0194 11.335 69.8466 11.1256 71.0303 11.055C70.8964 10.973 70.805 10.8181 70.8135 10.6429V10.5286C69.5629 11.1548 67.4704 11.0274 66.4033 11.0843C63.2238 11.2528 54.3074 9.96876 52.6953 9.73175C52.6521 9.72492 52.6521 9.66046 52.6953 9.65363C54.0761 9.43714 60.7637 8.40558 63.1807 8.39874C65.1247 8.39423 68.4422 8.62172 70.9023 9.31183C70.9801 9.16844 71.1275 9.07258 71.2959 9.07941H71.3867L71.4082 8.27081L71.7646 8.28253L71.7705 8.05499C71.777 7.75432 72.0149 7.51955 72.2979 7.52863C72.5828 7.53773 72.8053 7.78801 72.7969 8.08624L72.79 8.31476L73.1465 8.3255L73.125 9.13702H73.2227C73.2636 9.13706 73.3003 9.14616 73.3369 9.15753C73.771 8.73615 74.5962 8.05525 75.6934 7.71808C76.66 7.42358 79.6863 7.31594 79.7197 7.31476C79.687 7.3234 77.2379 7.97016 76.4629 8.31866C75.8861 8.57607 74.2891 9.638 74.2891 9.638L73.6436 9.70831V9.80011C74.3456 9.791 76.2101 9.78387 76.9121 9.91144C79.5367 10.3899 86.5343 13.1116 87.9756 13.679C88.0063 13.6909 88.0057 13.7296 87.9854 13.7464L87.959 13.7591C87.3997 13.7022 86.1641 13.5722 85.7793 13.4993C84.6625 13.2898 82.8845 12.4355 81.8887 12.2054C81.0398 12.0095 79.284 11.9931 78.4307 11.8109C77.7093 11.656 76.3268 11.0873 75.6074 10.9163C75.197 10.8184 74.3369 10.6839 73.624 10.5814L73.6201 10.7318C73.6157 10.8865 73.538 11.0212 73.4258 11.1009C74.8102 11.2285 75.8104 11.5154 75.8018 11.8206L75.7256 14.5403L74.7002 14.6468C74.4324 14.6741 74.1623 14.6953 73.8945 14.7112L73.8838 15.1321C74.626 15.2459 75.1051 15.4146 75.1016 15.5853L75.0625 17.0091C75.0625 17.0592 75.0199 17.1055 74.9443 17.1487L74.9355 17.4944L74.7236 17.4993V17.511C74.7169 17.8115 74.4791 18.0455 74.1963 18.0364C73.9244 18.0271 73.7112 17.8 73.7002 17.5179L73.4941 17.5218V17.4173C73.3949 17.4241 73.2932 17.4284 73.1875 17.4329L73.1816 17.6741H72.8252L72.8184 17.8958C72.8096 18.1964 72.572 18.4313 72.2891 18.4222C72.004 18.4152 71.7814 18.1639 71.79 17.8655L71.7969 17.6653H71.4424L71.4492 17.4036C71.3434 17.3968 71.2412 17.3873 71.1396 17.3782L71.1357 17.4974L70.9219 17.4788C70.8981 17.7611 70.6714 17.98 70.3994 17.971C70.1164 17.9619 69.8937 17.7108 69.9023 17.4124V17.388L69.667 17.3675V17.1302C69.3799 17.0437 69.2091 16.9481 69.2002 16.848L68.6924 16.7591L65.3701 16.2171L65.3643 16.4583L61.6787 15.8997L61.6875 15.6126L55.0586 14.5286L55.0537 14.6429L51.3691 14.0843L51.373 13.9251L50.9688 13.8587L50.5547 14.8089H49.9111V15.4241L41.0801 15.3421V14.2122L40.4453 14.1917L40.4385 14.3851L35.6689 15.1439L35.6758 14.9319L28.9775 15.8636L28.9688 16.1917L24.7734 16.8841L21.3545 17.2415L20.5615 17.5589C20.5588 17.668 20.3642 17.7615 20.0342 17.8343L20.0283 18.0911L19.7295 18.0823C19.6992 18.358 19.4749 18.57 19.207 18.5609C18.9393 18.5516 18.728 18.3279 18.7129 18.0501L18.5117 18.0433V17.9847C18.4275 17.9892 18.3432 17.9886 18.2568 17.9886L18.2461 18.4241L17.8896 18.4124L17.8828 18.6409C17.8761 18.9412 17.6391 19.1752 17.3564 19.1663C17.0714 19.1572 16.8489 18.9071 16.8574 18.6087L16.8633 18.3812L16.5068 18.3694L16.5205 17.9095C16.4795 17.9072 16.4402 17.9023 16.4014 17.8978L16.3965 18.0462L16.1807 18.0394C16.1503 18.3148 15.9259 18.527 15.6582 18.5179C15.3904 18.5088 15.1782 18.2851 15.1631 18.0071L14.8955 17.9984L14.9062 17.5765C14.7704 17.5128 14.6973 17.4445 14.6973 17.3763L14.7363 15.9525C14.7385 15.8204 15.0229 15.7106 15.4893 15.6331L15.498 15.2278C14.7746 15.0069 14.7 14.7424 14.6973 14.7318L14.7363 13.305C14.7557 13.3095 14.7793 13.3144 14.8008 13.3167C15.0166 13.3418 15.2324 13.4125 15.4375 13.4876C15.6383 13.5605 15.7987 13.6356 15.9434 13.804C16.2263 14.1343 16.4144 14.5489 16.8291 14.722C17.287 14.9133 17.8185 14.6858 18.2354 14.4739C18.6803 14.2484 19.0929 13.9747 19.3975 13.5579C19.5054 13.4122 19.5938 13.2505 19.6758 13.0843C19.7125 13.0069 19.7516 12.9296 19.7861 12.8499C19.8185 12.777 19.8469 12.7041 19.875 12.6312C19.9355 12.4672 19.985 12.3007 20.0088 12.1253C20.4883 12.1732 20.8532 12.3901 20.8467 12.636L20.7881 14.7288L22.0283 14.7679L22.0215 14.973L38.3545 12.1439L35.9629 11.8275L35.9697 11.5628L30.5957 10.8841L30.5889 11.1136L27.8242 10.7474C27.848 10.7378 29.2293 10.1785 29.707 10.0384C30.5127 9.79921 33.2764 9.35773 33.2764 9.35773L40.1211 10.2503L40.0439 8.86163L40.3779 8.27081L40.4258 7.61066L41.4736 6.3714L51.6367 6.68097ZM17.3398 8.25031C17.6246 8.25738 17.8473 8.50791 17.8389 8.80597L17.832 9.03448L18.1885 9.04523L18.167 9.85382L18.5127 9.86554C18.5435 9.84309 21.0258 8.2259 27.3926 8.3255C28.8183 8.346 32.6437 8.34447 34.1406 8.6087C34.5615 8.68159 34.7088 8.91788 34.6787 9.00909C33.3675 8.83369 30.414 9.42098 28.9775 9.75812C27.7894 10.0361 25.4441 11.1052 24.2432 11.3079C23.1524 11.4924 20.8478 11.6195 19.8281 11.1732C19.7266 10.7723 19.3786 10.4377 19.0654 10.2054C19.0783 10.2508 19.0852 10.2963 19.083 10.3441V10.3968C19.5494 10.8843 19.9464 11.6612 19.6592 12.3148C19.4065 12.9752 19.1472 13.4197 18.8643 13.6771C18.4903 14.0188 17.4773 14.5191 17 14.3802C16.6741 14.2841 16.4087 13.4923 16.1367 13.2757C15.9035 13.0889 14.7586 12.8291 14.1191 12.7288C14.0804 12.722 14.0732 12.6675 14.1074 12.6536C14.79 12.3689 15.8919 12.1505 16.3975 11.7132C16.7797 11.383 17.1471 11.0026 17.2314 10.4857C17.1705 10.5819 16.8013 11.0345 16.7754 11.0618C16.7203 11.122 16.2205 11.5539 15.9961 11.7132C15.9032 11.6266 15.8472 11.4986 15.8516 11.3597L15.8623 10.9495C15.8623 10.9495 13.5762 11.2275 12.8115 11.2025C11.0121 11.1431 7.4788 10.2464 5.68164 10.1507C4.42858 10.0829 3.60022 10.0214 1.18164 10.2484L0.0410156 10.3694C0.000456472 10.3735 -0.0165965 10.3127 0.0214844 10.2943C0.837852 9.9139 2.43633 9.57391 3.24219 9.47589C5.53176 9.19344 10.1695 9.42193 12.4658 9.64288C13.2737 9.72033 14.8232 9.87021 15.8838 10.2484C15.8903 9.99323 16.093 9.79067 16.335 9.80206H16.4258L16.4473 8.99347L16.8037 9.00421L16.8105 8.77667C16.8193 8.47605 17.0569 8.24119 17.3398 8.25031ZM45.7695 8.10968C44.2922 8.10987 43.0938 9.37394 43.0938 10.9319C43.0938 12.4899 44.2922 13.754 45.7695 13.7542C47.247 13.7542 48.4462 12.49 48.4463 10.9319C48.4463 9.37382 47.247 8.10968 45.7695 8.10968ZM45.7705 8.55402C47.0169 8.55402 48.0254 9.61756 48.0254 10.9319C48.0253 12.2463 47.0169 13.3099 45.7705 13.3099C44.5243 13.3097 43.5157 12.2462 43.5156 10.9319C43.5156 9.61764 44.5242 8.55415 45.7705 8.55402ZM45.3838 9.4212C44.8396 9.42137 44.3994 9.88665 44.3994 10.4583C44.3995 11.0299 44.8397 11.4943 45.3838 11.4944C45.9259 11.4944 46.3671 11.03 46.3672 10.4583C46.3672 9.88655 45.9281 9.4212 45.3838 9.4212ZM68.7344 0.833313C68.9567 0.84037 69.1295 1.0347 69.123 1.26691L69.1182 1.44366L69.3945 1.45343L69.3779 2.08429H69.4531C69.6432 2.09112 69.7904 2.25728 69.7861 2.45538L69.7812 2.59406C70.5027 2.08151 72.1084 1.4714 75.6143 1.68097C82.8198 2.11308 86.408 3.15396 86.457 3.16827C86.4113 3.17058 82.9458 3.34657 79.4482 3.70636C77.2214 3.93414 74.9208 4.42824 73.6787 4.35773C71.4132 4.23019 70.2463 3.82963 69.6846 3.54034C69.6673 3.56301 69.6475 3.58078 69.626 3.59894L69.8965 4.03448C69.959 4.06855 70.0262 4.09837 70.0908 4.13019C70.1447 4.15517 70.2008 4.17974 70.2568 4.20245C70.3324 4.23432 70.4079 4.26432 70.4834 4.28937C70.5698 4.31897 70.6585 4.34179 70.7471 4.36456C70.7838 4.37367 70.8207 4.38084 70.8574 4.38995C70.907 4.40132 70.9572 4.41015 71.0068 4.41925C71.1557 4.44426 71.3023 4.46288 71.4512 4.47198L71.4014 6.28741L70.6045 6.3714C70.3951 6.39416 70.1879 6.40982 69.9785 6.4212L69.9697 6.74933C70.5464 6.83817 70.9223 6.96846 70.918 7.10284L70.877 8.56476L69.8662 8.74738C69.8662 8.74738 68.4314 8.43746 67.9648 8.38507C67.4941 8.3327 67.0235 8.26396 66.5527 8.21613C66.0517 8.16602 65.5481 8.14775 65.0449 8.12726C64.9153 8.12043 64.7876 8.10902 64.6602 8.09308L68.8008 7.43488C68.7426 7.4326 68.6824 7.43098 68.6221 7.43097C67.3627 7.39224 66.3451 7.1822 66.3516 6.96124C66.3516 6.91804 66.3943 6.87654 66.4697 6.84015L66.4873 6.18683L66.1201 6.12531L66.1787 4.00909C66.1852 3.79499 66.8309 3.63115 67.751 3.57648C67.7101 3.55149 67.6755 3.51966 67.6475 3.47882C67.3884 3.50614 67.1573 3.53256 67.0039 3.55988C66.4229 3.6601 65.2932 4.04813 64.71 4.13702C64.0231 4.23953 62.6185 4.16636 61.9316 4.28253C61.1259 4.41699 59.6702 5.01368 58.7695 5.12531C58.614 5.14467 58.2876 5.16498 57.9443 5.18292L57.0107 5.22589C56.9767 5.22549 56.9682 5.17599 57 5.16437C58.175 4.78168 63.882 2.94955 65.999 2.69659C66.1718 2.67382 66.4291 2.66958 66.7207 2.67413C66.4899 2.53763 66.2804 2.42186 66.1357 2.35577C65.3559 2.00497 62.8799 1.34894 62.8799 1.34894C62.8799 1.34894 65.9361 1.45782 66.9062 1.75616C67.2108 1.84956 67.4918 1.97072 67.751 2.10284C67.8071 2.06184 67.8765 2.03676 67.9521 2.04132H68.0234L68.041 1.41241L68.3193 1.4212L68.3232 1.24347C68.3298 1.00894 68.5141 0.826481 68.7344 0.833313ZM25.3096 2.65363C25.5946 2.66287 25.8172 2.91389 25.8086 3.21222L25.8018 3.43976L26.1582 3.45148L26.1367 4.25323C28.3789 2.96847 30.943 2.84729 32.5977 2.79034C34.4813 2.7243 38.5244 2.87509 40.1553 4.00714C40.1876 4.03217 40.1687 4.08609 40.1299 4.07941C38.3997 3.80833 34.9538 3.57882 33.2646 3.8089C32.5042 3.9115 31.0421 4.4307 30.2861 4.56964C28.2332 4.94398 27.0039 4.66605 26.9795 4.66046C26.9795 4.66046 26.8408 4.65883 26.6572 4.64972C26.6636 4.67902 26.6641 4.70831 26.6641 4.73761L26.6338 5.85187C26.6338 5.91099 26.618 5.96557 26.5986 6.01788L28.1846 6.06573L28.1436 7.58331L27.5166 7.9837C27.4771 7.98297 24.0041 7.92049 22.8057 8.28741C22.7992 8.25105 22.7949 8.2144 22.7949 8.17804L22.8105 7.64972C22.8235 7.64312 23.4952 7.30188 23.7305 7.18683C24.0176 7.04566 24.2874 6.89057 24.5918 6.79718C24.8899 6.70606 25.1951 6.64709 25.4932 6.56281C25.7759 6.48316 26.063 6.43758 26.335 6.31476C26.3738 6.29653 26.4049 6.26624 26.4287 6.2298L26.3809 6.25519L26.3701 6.26007C26.3119 6.28735 26.2492 6.29811 26.1846 6.29816L25.8037 6.28741C25.346 6.33297 24.8042 6.4353 24.4932 6.54913C23.8214 6.79287 22.2872 7.95933 21.7363 7.48566C21.1553 6.98678 22.1776 4.90937 22.75 4.513C22.9984 4.3422 23.4731 4.33075 23.9375 4.40363C24.0174 4.27606 24.156 4.19562 24.3115 4.20245H24.4023V4.14093C24.4023 4.14093 23.0399 3.98864 22.6484 4.19562C22.2704 4.39607 21.9764 5.39417 21.6006 5.59698C21.3091 5.75411 20.6181 5.69951 20.2939 5.65851C19.5776 5.56881 18.3101 5.01462 17.4619 4.77081L17.123 4.69269C16.056 4.48312 11.7443 4.53995 12.8027 4.2962C15.4011 3.70173 18.7184 3.10946 20.6992 3.13214C21.6344 3.14353 23.5095 3.08895 24.4082 3.79034L24.4189 3.39679L24.7754 3.40753L24.7822 3.17999C24.7887 2.88158 25.0266 2.64451 25.3096 2.65363Z" fill="currentColor"/>
</svg>
