<svg width="88" height="20" viewBox="0 0 88 20" fill="none" xmlns="http://www.w3.org/2000/svg">
<g clip-path="url(#clip0_4617_13325)">
<path fill-rule="evenodd" clip-rule="evenodd" d="M52.0959 0.386428C51.7256 0.403914 51.4109 0.553698 51.1681 0.829138L48.5477 3.80301C48.4131 9.37101 58.2272 18.717 63.7996 18.5889L66.8652 16.0467C67.1492 15.811 67.3037 15.5061 67.3217 15.1469C67.3397 14.7877 67.2163 14.4744 66.9567 14.2225L64.4246 11.7679C63.9376 11.2957 63.1417 11.2936 62.6349 11.7632L60.9268 13.3461C58.5065 12.1846 55.1532 8.93368 53.9546 6.58736L55.5863 4.93085C56.0706 4.43911 56.0681 3.66748 55.5813 3.19528L53.0491 0.740642C52.7894 0.488918 52.4662 0.368993 52.0959 0.386428Z" fill="currentColor"/>
<path d="M34.7539 10.3389C35.1008 10.5855 35.5662 10.5855 35.9131 10.3389L45.8506 3.27344C45.9454 3.49916 46 3.7437 46 4V16C45.9999 17.0999 45.0395 18 43.8662 18H26.7998C25.6268 17.9998 24.6671 17.0998 24.667 16V4C24.667 3.74348 24.7205 3.49835 24.8154 3.27246L34.7539 10.3389ZM43.8662 2C43.9656 2 44.0633 2.009 44.1592 2.02148L35.333 8.29688L26.5068 2.02148C26.6028 2.00896 26.7004 2.00002 26.7998 2H43.8662Z" fill="currentColor"/>
</g>
<defs>
<clipPath id="clip0_4617_13325">
<rect width="88" height="20" fill="currentColor"/>
</clipPath>
</defs>
</svg>
