<svg width="88" height="20" viewBox="0 0 88 20" fill="none" xmlns="http://www.w3.org/2000/svg">
<g clip-path="url(#clip0_4617_12822)">
<path d="M41.1464 31H33.3752C32.7563 31 32.2423 30.4966 32.1952 29.846L31.139 15.2489H41.1467L41.1464 31ZM47.3383 15.2475H41.6631V31H47.3394L47.3383 15.2475ZM47.855 15.2475V31H55.6252C56.2441 31 56.758 30.4966 56.8051 29.846L57.8613 15.2489L47.855 15.2475ZM47.3383 8.82276H41.6631V14.7292H47.3394L47.3383 8.82276ZM41.6631 14.7292H47.3394L47.3383 8.82276H41.6631V14.7292ZM41.1464 8.82276H29.8378C29.34 8.82276 28.9512 9.25736 29.005 9.75406L29.4651 13.9812C29.5109 14.4077 29.8701 14.7303 30.298 14.7303H41.145L41.1464 8.82276ZM59.1636 8.82276H47.855V14.7292H58.702C59.1285 14.7292 59.4877 14.4066 59.5349 13.9801L59.995 9.75292C60.0488 9.25757 59.6614 8.82276 59.1636 8.82276ZM47.2898 8.09256C47.3032 8.16275 47.3153 8.23293 47.3221 8.30447H41.6792C41.6872 8.23293 41.6993 8.16275 41.7114 8.09256C35.4093 8.95503 30.9237 6.90077 30.9237 6.90077L32.3687 6.05586L32.2678 4.22025C35.3744 6.6133 39.7417 7.47576 41.7935 7.76189C41.8178 7.68226 41.846 7.60398 41.877 7.52704C41.8312 7.5149 41.7841 7.50275 41.7384 7.4906C41.3415 7.38802 40.9392 7.29489 40.5288 7.21391C39.7121 7.04115 38.8631 6.91832 37.9953 6.70913C37.1302 6.48238 36.2287 6.24754 35.3286 5.52678C34.8954 5.15831 34.3949 4.62112 34.1836 3.70603C34.0935 3.25657 34.115 2.7464 34.2388 2.30637C34.3666 1.86503 34.5738 1.51543 34.7918 1.21717C35.0165 0.905387 35.3515 0.592251 35.7834 0.350659C36.2166 0.106362 36.7494 -0.0110722 37.2042 0.00918255C37.6657 0.0172806 38.0505 0.130656 38.364 0.271025C38.6815 0.407346 38.9412 0.57201 39.1645 0.748819C40.0458 1.4493 40.5032 2.26319 40.9217 3.06357C41.3294 3.86529 41.6402 4.67918 41.9859 5.44714C42.1555 5.83316 42.329 6.21241 42.5053 6.58631L42.5066 6.58901C43.0193 6.0788 43.7216 5.76299 44.5006 5.76299C45.2783 5.76299 45.982 6.07882 46.4946 6.58766L46.4959 6.58496C46.6722 6.20975 46.8444 5.83182 47.0139 5.44445C47.3584 4.6751 47.6651 3.8599 48.0741 3.05545C48.4912 2.25372 48.9514 1.43984 49.834 0.739352C50.0574 0.561192 50.3184 0.401925 50.6359 0.262906C50.9507 0.121185 51.3369 0.0132083 51.7984 0.0024106C52.2545 -0.0191848 52.7859 0.104987 53.2205 0.347937C53.6551 0.588184 53.9848 0.906721 54.2094 1.21714C54.4261 1.51543 54.6373 1.86366 54.7584 2.30769C54.8808 2.74634 54.9064 3.25654 54.8109 3.70465C54.7127 4.15546 54.5229 4.52393 54.3225 4.81818C54.1126 5.10972 53.8879 5.33242 53.6672 5.52001C52.7671 6.23805 51.867 6.4729 51.0032 6.70102C50.1354 6.91022 49.2878 7.03575 48.4724 7.20987C48.062 7.29221 47.6611 7.38534 47.2642 7.48926C47.2184 7.50276 47.1713 7.51356 47.1256 7.52571C47.1565 7.60264 47.1848 7.68092 47.209 7.76056C49.2595 7.47442 53.6269 6.61196 56.7348 4.21892L56.6339 6.05452L58.0789 6.89944C58.0775 6.90079 53.5906 8.95503 47.2898 8.09256ZM41.9834 7.29488C42.0762 7.11672 42.1892 6.95071 42.3157 6.79684C42.3009 6.77254 42.2874 6.74825 42.2726 6.72395C42.0614 6.37843 41.8394 6.03829 41.6066 5.70628C41.1424 5.04086 40.6419 4.40112 40.0984 3.80454C39.5535 3.21338 38.9628 2.64782 38.2861 2.25102C37.9497 2.06071 37.581 1.91089 37.2259 1.92034C36.8693 1.92034 36.5639 2.11875 36.3419 2.41164C36.1091 2.70318 35.98 3.05546 36.0365 3.40638C36.0889 3.75864 36.3029 4.09069 36.5625 4.37682C37.094 4.95046 37.7869 5.38776 38.4892 5.77648C39.197 6.16385 39.9383 6.49586 40.6891 6.80227C41.0644 6.95479 41.4439 7.10056 41.826 7.23957L41.9834 7.29488ZM46.7273 6.72397C46.7125 6.74826 46.6991 6.77256 46.6843 6.79685C46.8107 6.95072 46.9237 7.11673 47.0166 7.29489L47.174 7.23821C47.5561 7.09784 47.9342 6.95342 48.3109 6.80091C49.0617 6.49452 49.803 6.16248 50.5107 5.77511C51.2131 5.38639 51.906 4.9491 52.4375 4.37546C52.6971 4.08932 52.9111 3.75728 52.9635 3.40501C53.02 3.0541 52.8909 2.7018 52.6581 2.41028C52.4334 2.11874 52.1307 1.91897 51.7741 1.91897C51.4189 1.90953 51.0503 2.05934 50.7139 2.24965C50.0372 2.64645 49.4478 3.21201 48.9016 3.80317C48.358 4.39976 47.8575 5.04085 47.3933 5.70491C47.1619 6.03829 46.9386 6.37844 46.7273 6.72397Z" fill="currentColor"/>
</g>
<defs>
<clipPath id="clip0_4617_12822">
<rect width="88" height="20" fill="currentColor"/>
</clipPath>
</defs>
</svg>
