<svg width="88" height="20" viewBox="0 0 88 20" fill="none" xmlns="http://www.w3.org/2000/svg">
<g clip-path="url(#clip0_6001_608)">
<path fill-rule="evenodd" clip-rule="evenodd" d="M53.1562 6.90466H31C31 12.1561 31.597 16.7428 37.0366 18.6041H32.8574C32.9237 19.0694 33.3218 19.4682 33.8524 19.4682H37.5009C37.5673 19.7341 37.6999 20 38.0316 20H46.1909C46.5889 20 46.7216 19.7341 46.7216 19.4682H50.4364C50.9671 19.4682 51.3651 19.0694 51.4315 18.6041H47.0533C48.778 18.0058 50.2374 17.1417 51.2988 15.5463C53.6869 15.5463 57.0037 14.6156 57.1364 11.7573C57.2027 9.23125 55.2126 8.50004 53.0899 8.76593C53.0899 8.16767 53.1562 7.50293 53.1562 6.90466ZM52.9572 10.2284C54.2176 10.0289 55.8096 9.96247 55.677 11.6908C55.6106 13.4191 53.4879 13.8844 52.0948 14.0839C52.6255 12.8208 52.8245 11.5578 52.9572 10.2284Z" fill="currentColor"/>
<path fill-rule="evenodd" clip-rule="evenodd" d="M40.4191 4.84393C40.4191 4.84393 43.8023 4.64451 42.2765 1.78613C41.0161 -0.473989 41.2815 -1.80347 42.8736 -3C42.8736 -3 37.6994 -1.67052 40.7508 2.38439C41.8122 4.17919 40.4191 4.84393 40.4191 4.84393Z" fill="currentColor"/>
<path fill-rule="evenodd" clip-rule="evenodd" d="M43.5372 4.84395C43.5372 4.84395 45.9253 4.711 44.8639 2.65031C43.9352 1.05494 44.1342 0.0578262 45.3282 -0.806335C45.3282 -0.806335 41.5471 0.1243 43.7362 3.11563C44.5322 4.37863 43.5372 4.84395 43.5372 4.84395Z" fill="currentColor"/>
</g>
<defs>
<clipPath id="clip0_6001_608">
<rect width="88" height="20" fill="currentColor"/>
</clipPath>
</defs>
</svg>
