<svg width="88" height="20" viewBox="0 0 88 20" fill="none" xmlns="http://www.w3.org/2000/svg">
<g clip-path="url(#clip0_6001_2843)">
<path d="M64.9568 -27.9997C65.3288 -27.9997 65.6925 -27.9301 66.0291 -27.7907C67.3841 -27.2416 67.7028 -26.0042 67.8357 -25.4724C67.9952 -24.8447 68.2703 -23.8069 69.7146 -22.4645C72.8777 -19.5533 73.8438 -18.1414 74.1629 -14.4284C74.3489 -12.2144 74.6413 -11.3771 75.5095 -8.87567C75.6336 -8.51828 75.7662 -8.13392 75.908 -7.71552C76.6965 -5.43187 76.4846 -3.84554 76.3074 -2.57294C76.2277 -1.99767 76.1657 -1.50089 76.1834 -0.943054C76.2011 -0.393896 76.3068 0.199228 76.5017 0.870422C77.1064 2.97537 77.0332 5.07356 76.8748 7.11261L76.7322 8.85284C76.5753 10.8705 76.5072 12.8023 77.1043 14.7474C77.6005 16.3774 77.7782 18.278 77.6453 20.3265H84.8758C86.2933 20.3266 87.534 21.2763 87.8972 22.636C88.2605 23.9958 87.6484 25.4338 86.408 26.1224H86.4353L77.2996 31.2308C77.2021 32.2418 77.0686 33.2528 76.8826 34.2464L85.575 39.555C86.78 40.2959 87.33 41.6912 86.949 43.0423C86.5591 44.3933 85.3539 45.3001 83.9363 45.3001H72.8338C72.6655 45.5789 72.4972 45.8663 72.3201 46.1624C71.9834 46.7376 71.6376 47.3305 71.2566 47.9232L77.0066 56.5794C77.6357 57.5382 77.6985 58.7498 77.1492 59.7523C76.5999 60.7634 75.5452 61.3909 74.3933 61.3909C73.9237 61.3909 73.4446 61.2867 73.0193 61.0775L63.1492 56.3089C61.7935 57.2939 60.375 58.1658 58.8953 58.9241L58.7185 69.0355C58.692 70.744 57.3096 72.0775 55.5906 72.0775C54.5451 72.0774 53.5797 71.5633 52.9949 70.7005L47.3592 62.3411C46.3136 62.4457 45.2591 62.4983 44.2224 62.4984H43.7879C42.7424 62.4983 41.6966 62.4457 40.6511 62.3411L35.0164 70.7005C34.4316 71.5635 33.4653 72.0775 32.4197 72.0775C30.7008 72.0774 29.3184 70.7439 29.2918 69.0355L29.1062 58.9241C27.6353 58.1658 26.208 57.2852 24.8523 56.3089L14.9822 61.0775C14.5569 61.2779 14.0778 61.3909 13.6082 61.3909C12.4654 61.3908 11.4114 60.7632 10.8621 59.7523C10.3216 58.7498 10.3746 57.5295 11.0037 56.5794L16.7537 47.9232C16.3728 47.3305 16.0278 46.7376 15.6912 46.1624C15.5229 45.8661 15.3537 45.579 15.1853 45.3001H4.08279C2.6653 45.2999 1.45111 44.3932 1.07009 43.0423C0.689082 41.6912 1.23906 40.2959 2.44412 39.555L11.1365 34.2552C10.9593 33.2616 10.817 32.2506 10.7195 31.2396L1.59353 26.1312C0.353107 25.4426 -0.258869 24.0046 0.104274 22.6448C0.458703 21.285 1.70902 20.3343 3.12673 20.3343H10.3748C10.2331 18.2861 10.4187 16.3861 10.9148 14.7562C11.5971 12.5247 11.4115 10.3276 11.2166 7.99152C11.0217 5.68173 10.8175 3.28487 11.5174 0.879211C11.7123 0.208025 11.819 -0.385111 11.8367 -0.934265C11.8633 -1.50952 11.7924 -1.9977 11.7127 -2.57294C11.5443 -3.84553 11.3226 -5.43196 12.1111 -7.7243C12.2529 -8.134 12.3855 -8.51828 12.5095 -8.87567C13.3778 -11.3772 13.6702 -12.2231 13.8562 -14.4284C14.1752 -18.1326 15.1415 -19.5447 18.3045 -22.4645C19.7576 -23.8069 20.0239 -24.8447 20.1834 -25.4724C20.3252 -26.0042 20.6445 -27.2504 21.9822 -27.7907C22.3277 -27.9301 22.6912 -27.9997 23.0633 -27.9997C24.5604 -27.9995 25.9512 -26.7886 26.6424 -26.0651C27.5107 -25.1586 28.6188 -23.6241 28.991 -21.4362C29.053 -21.0788 29.1146 -20.7037 29.1678 -20.3376C29.2475 -19.8495 29.3456 -19.2304 29.4519 -18.6813C30.6038 -19.0038 32.0836 -19.2741 33.8113 -19.2741C35.4149 -19.2741 37.0184 -19.0387 38.5955 -18.5681C41.0321 -17.8446 42.9994 -17.6615 44.0095 -17.6266C45.0108 -17.6615 46.9869 -17.8446 49.4236 -18.5681C50.992 -19.0388 52.605 -19.2741 54.2088 -19.2741C55.9453 -19.2741 57.4252 -19.0038 58.5681 -18.6813C58.6744 -19.2304 58.7716 -19.8495 58.8513 -20.3376C58.9045 -20.7037 58.9671 -21.0701 59.0291 -21.4362C59.4012 -23.6241 60.5084 -25.1586 61.3767 -26.0651C62.0679 -26.7886 63.4594 -27.9997 64.9568 -27.9997ZM23.0183 -25.2975C22.7087 -25.1742 22.9204 -23.0479 20.157 -20.4948C17.3926 -17.9322 16.8163 -17.0779 16.5681 -14.1931C16.32 -11.3078 15.8589 -10.2963 14.6804 -6.85321C13.7767 -4.22079 14.6361 -3.07869 14.5564 -0.838562C14.5298 -0.150017 14.4151 0.643323 14.1316 1.61945C12.9266 5.75113 15.0708 10.4236 13.5115 15.5316C12.909 17.519 12.926 19.9254 13.3513 22.3138C12.935 22.7407 12.3504 23.0109 11.7039 23.011H3.14431C2.71903 23.011 2.56815 23.5684 2.94021 23.7776L12.7576 29.2698C13.1119 29.4703 13.3422 29.8358 13.3689 30.2366C13.4752 31.7882 13.6973 33.3313 14.0252 34.848C14.1404 35.3797 13.8565 35.9199 13.3426 36.1204C13.1743 36.1901 13.0059 36.2687 12.8465 36.3646L3.87088 41.8392C3.50771 42.057 3.66665 42.5966 4.08279 42.597H14.6453C15.7085 42.6318 16.5504 42.4318 16.9314 43.0071C17.8529 44.4018 18.5885 45.9187 19.572 47.261C19.873 47.6705 19.8642 48.2282 19.5457 48.6116C19.466 48.7075 19.3949 48.804 19.324 48.9085L13.2537 58.0433C13.0144 58.3919 13.3961 58.8191 13.7771 58.636L23.9754 53.7025C24.0994 53.6415 24.2235 53.5719 24.3474 53.4935C24.7639 53.232 25.2955 53.2411 25.6765 53.5374C27.3955 54.8711 29.2302 56.0041 31.1707 56.928C31.587 57.1199 31.8262 57.5471 31.7996 58.0003V58.2698L31.9949 68.9661C31.9952 69.3669 32.5263 69.515 32.7478 69.1839L38.7469 60.2835C38.7998 60.2139 38.8355 60.1441 38.8797 60.0745C39.1101 59.6825 39.5705 59.4735 40.0222 59.5345C41.2627 59.7001 42.521 59.7786 43.7703 59.7786H44.2049C45.4541 59.7786 46.7125 59.6914 47.9529 59.5345C48.4047 59.4823 48.8651 59.6825 49.0955 60.0745C49.1397 60.1441 49.1841 60.2139 49.2283 60.2835L55.2273 69.1839C55.4577 69.5237 55.9888 69.3669 55.989 68.9661L56.1844 58.2698V58.0003C56.1578 57.5471 56.4058 57.1199 56.8133 56.928C58.7538 56.0041 60.5973 54.8624 62.3074 53.5374C62.6884 53.2323 63.2113 53.232 63.6277 53.4935C63.7428 53.5719 63.8758 53.6415 63.9998 53.7025L74.198 58.636C74.579 58.8191 74.9606 58.3919 74.7303 58.0433L68.6599 48.9085C68.5891 48.804 68.518 48.7075 68.4383 48.6116C68.1197 48.2195 68.1197 47.6705 68.4119 47.261C69.4043 45.9187 70.131 44.4105 71.0525 43.0071C71.4335 42.4231 72.2842 42.6231 73.3474 42.597H83.9275C84.3437 42.5968 84.4943 42.0572 84.1404 41.8392L75.1638 36.3646C75.0045 36.2688 74.8448 36.1901 74.6678 36.1204H74.6941C74.1805 35.9198 73.8885 35.3795 74.0037 34.848C74.3226 33.3313 74.5438 31.7881 74.659 30.2366C74.6857 29.8359 74.9161 29.4703 75.2703 29.2698L85.0877 23.7776C85.4597 23.5685 85.3097 23.0113 84.8845 23.011H76.325C75.6782 23.0198 75.093 22.7496 74.6765 22.3138C75.1107 19.9254 75.1287 17.5277 74.5174 15.5316C72.9491 10.4236 75.0934 5.75117 73.8972 1.61945C73.6226 0.643249 73.5068 -0.14998 73.4803 -0.838562C73.4005 -3.07868 74.2512 -4.2208 73.3474 -6.85321C72.169 -10.2875 71.7088 -11.3079 71.4607 -14.1931C71.2126 -17.0866 70.6362 -17.941 67.8719 -20.4948C65.0985 -23.0488 65.3197 -25.1755 65.0095 -25.2975C64.7083 -25.4196 62.2099 -23.9293 61.7136 -20.9831C61.2174 -18.0368 60.9333 -14.8375 59.3738 -15.5349C57.8142 -16.2322 54.3856 -17.2255 50.2127 -15.988C47.7937 -15.2732 45.6133 -14.9856 44.0183 -14.9333C42.4235 -14.9856 40.2438 -15.2645 37.825 -15.988C33.6516 -17.2345 30.2224 -16.2322 28.6629 -15.5349C27.1034 -14.8376 26.8202 -18.0456 26.324 -20.9831C25.8189 -23.9293 23.3285 -25.4283 23.0183 -25.2975ZM52.409 56.3958C53.2507 56.3959 53.9953 56.9894 54.1902 57.7913C54.2256 57.9393 54.2429 58.0877 54.2429 58.2444L54.1365 64.0491L50.8845 59.22C50.7962 59.0895 50.7345 58.9589 50.6814 58.8284C50.5131 58.3578 50.539 57.8345 50.7693 57.39C50.9996 56.9368 51.3896 56.6144 51.8767 56.4661C52.0539 56.4138 52.2317 56.388 52.409 56.388V56.3958ZM35.5994 56.388C35.7765 56.388 35.9535 56.4139 36.1306 56.4661V56.4573C36.6179 56.6055 37.0077 56.928 37.2381 57.3812C37.4596 57.8257 37.4953 58.3577 37.3269 58.8196C37.2738 58.9503 37.2114 59.0815 37.1228 59.2122L33.8709 64.0413L33.7654 58.2357C33.7654 58.0789 33.7827 57.9306 33.8181 57.7825C34.0131 56.9719 34.7576 56.388 35.5994 56.388ZM71.9832 29.636C71.9742 36.7139 68.8905 43.2859 63.2996 48.1585C63.2553 48.1847 63.1756 48.264 63.1756 48.264C58.0187 52.7094 51.2844 55.1585 44.2049 55.1585H43.7703C36.6907 55.1585 29.9565 52.7094 24.7996 48.264C24.7553 48.2204 24.711 48.1847 24.6756 48.1585C19.0847 43.2859 16.0009 36.7139 15.992 29.636C16.4881 30.4727 17.0199 31.2045 17.5691 31.7972C20.6791 35.1443 22.2655 42.1523 23.4617 44.7415C24.6579 47.3304 28.2108 47.6537 31.2146 50.138C32.6944 51.3583 36.682 51.9244 40.3592 52.1859C41.6439 52.273 42.9021 52.3258 43.992 52.3607C45.0818 52.3345 46.3311 52.273 47.6248 52.1859C48.7855 52.0987 49.9906 51.9853 51.1248 51.8284C51.9488 51.7151 52.4713 50.8436 52.1258 50.0853C51.4257 48.5426 49.4678 47.8801 47.6072 47.514C45.9148 47.174 44.2928 47.1047 43.8054 46.8519C42.911 46.4074 44.9315 46.076 47.6072 46.6077C48.502 46.782 49.4766 47.0516 50.4334 47.4525C52.3118 48.2282 53.1095 49.3008 53.4285 50.2073C53.6589 50.8611 54.4124 51.2016 55.0769 50.9749C55.7858 50.7308 56.3706 50.4517 56.7693 50.1204C59.7641 47.6362 63.3259 47.3135 64.5222 44.7249C65.7184 42.136 67.3136 35.1181 70.4148 31.7796L70.406 31.7884C70.9553 31.1957 71.4871 30.4639 71.9832 29.636ZM65.6375 49.0657C65.9563 49.0658 66.275 49.153 66.5496 49.3099V49.3187C66.7799 49.4407 66.9751 49.632 67.1258 49.8499L70.4754 54.888L64.8396 52.1595C64.5917 52.0375 64.3877 51.8725 64.2283 51.6722C63.7144 51.0097 63.8032 50.0855 64.4412 49.5189C64.7602 49.2225 65.1945 49.0657 65.6375 49.0657ZM22.3621 49.0569C22.8051 49.0569 23.2305 49.2224 23.5584 49.5101C24.1963 50.0767 24.2852 51.0009 23.7713 51.6634C23.6119 51.8637 23.4078 52.0287 23.1599 52.1507L17.5242 54.8792L20.8738 49.8411C21.0244 49.6233 21.2196 49.4406 21.45 49.3099C21.7157 49.153 22.0343 49.0658 22.3621 49.0657V49.0569ZM64.8142 -22.0114C64.8407 -22.0014 67.1682 -21.1099 68.2166 -17.4177C69.2798 -13.7044 69.8561 -15.2211 70.2283 -13.0856C70.6004 -10.9501 70.4674 -10.5319 69.5105 -11.1071C68.5537 -11.6824 67.8888 -13.1636 67.366 -12.6237C66.8432 -12.0833 67.4987 -11.5336 67.1443 -11.3854C66.79 -11.2374 66.3913 -11.7083 66.9314 -13.2419C67.4719 -14.776 67.8706 -15.0292 67.0642 -16.2321C66.2681 -17.4285 66.2587 -18.4042 66.2586 -18.4284C66.2474 -18.4183 65.0193 -17.307 65.284 -16.0749C65.5497 -14.8375 65.6736 -14.3141 65.1863 -13.8434C64.7077 -13.3726 62.98 -11.943 64.3533 -10.069C65.7266 -8.20387 66.3026 -7.60297 67.1443 -7.92548C67.1531 -7.94253 67.1621 -7.94208 67.1795 -7.94208C67.1795 -7.94208 68.2252 -8.3173 68.4646 -7.3327C68.7039 -6.3477 66.7186 -5.55439 65.3806 -4.37762C64.043 -3.20102 66.6126 -4.07243 67.3924 -4.48212C68.1721 -4.8918 69.8824 -4.76957 69.2976 -3.87177C69.2622 -3.81947 69.2267 -3.76684 69.1824 -3.71454C69.147 -3.67101 69.1113 -3.6272 69.076 -3.58368C68.9342 -3.44429 68.7745 -3.3051 68.6062 -3.16571C68.562 -3.13089 68.5265 -3.10485 68.4822 -3.07001C68.3937 -2.99161 68.2963 -2.92183 68.2078 -2.84344C68.1636 -2.81735 68.1279 -2.77379 68.0838 -2.73895C68.0306 -2.69537 67.9681 -2.63403 67.906 -2.58173C67.8796 -2.5557 67.8446 -2.52087 67.8181 -2.49481C67.7916 -2.46866 67.7559 -2.44179 67.7293 -2.40692C67.6673 -2.34596 67.6135 -2.28519 67.5515 -2.21552C67.4985 -2.15462 67.4454 -2.09369 67.3924 -2.02411C67.3392 -1.96309 67.2951 -1.90146 67.2508 -1.83173C67.1977 -1.77076 67.1622 -1.70119 67.1179 -1.63153C67.0028 -1.45719 66.9049 -1.25668 66.8074 -1.03876C66.7809 -0.977969 66.7548 -0.925687 66.7371 -0.864929C66.7017 -0.786584 66.6748 -0.707815 66.6482 -0.620789C65.9394 1.45375 67.2239 1.19265 66.9138 2.35187C66.6037 3.51986 65.036 1.48026 64.0613 0.469055C63.0955 -0.542095 64.0962 1.38466 64.1316 2.63116C64.1759 3.88632 63.955 5.22005 66.6131 7.32941C67.0821 7.69555 66.4976 8.48883 65.8953 8.54132C64.8763 8.61977 63.5113 8.77606 62.9265 9.05499C62.9177 9.06366 62.9003 9.07246 62.8914 9.07257C62.8648 9.09 62.8291 9.09908 62.8025 9.11652C62.6078 9.20359 62.4306 9.26427 62.2801 9.29913C61.3408 9.51705 59.666 9.31706 57.7078 10.5374C56.9901 10.9819 56.3608 11.7398 55.6697 12.4632C54.633 13.3872 53.3746 13.318 52.0633 12.8821C50.7431 12.4464 51.089 13.6319 51.2928 14.7737C51.4968 15.9154 53.2951 16.1685 53.242 17.9466C53.189 19.7246 55.8826 19.8646 55.8826 19.8646C56.8129 20.0389 57.8672 20.1433 58.6912 21.1282C60.1531 22.8715 59.9755 23.3243 58.1414 22.2435C56.3073 21.1714 53.9333 20.0821 55.6697 21.9124C57.4063 23.7428 58.8326 26.4273 57.451 27.761C56.0598 29.0947 54.261 31.3444 56.6355 30.6907C59.0102 30.0283 61.4553 29.1304 59.3465 30.804C58.8858 31.0741 58.3716 31.2923 57.8933 31.4056C56.5733 31.7024 55.2712 34.1508 55.2888 34.761C55.3066 35.3712 56.3875 37.9954 57.114 37.8909C57.8495 37.7776 57.2382 35.1704 58.1863 34.3685C59.1344 33.5756 60.499 34.2822 60.1092 35.5198C59.7101 36.7495 56.4669 42.5284 53.7469 44.1321C51.027 45.7357 52.9403 43.3469 50.5037 41.9261C49.3697 41.2637 48.3153 40.9588 47.5711 40.6624C46.7294 40.3225 46.2771 39.9824 46.5428 39.137C46.7908 38.3264 47.2256 38.1175 47.5623 37.8821C47.8901 37.6555 48.1199 37.3935 47.9959 36.5218C47.7477 34.7437 46.6233 34.0991 50.3269 34.0032C54.0217 33.9073 56.192 33.1393 54.3933 30.0013C53.844 29.0426 53.1884 28.0492 51.6824 27.2562C50.309 28.3458 48.7317 30.4376 42.7244 30.2982C38.9409 30.211 36.3534 28.6162 39.1179 29.0521C44.5493 29.9062 47.8987 28.9558 48.5457 27.4915C48.7495 27.0382 48.794 26.5759 48.7586 26.1575C47.4118 25.8089 45.9054 25.6436 44.2752 25.722H43.6726C38.4363 25.4605 34.803 27.8309 33.5623 30.0013C31.7636 33.1393 33.9259 33.9074 37.6297 34.0032C41.3328 34.0992 40.2079 34.7524 39.9597 36.5218C39.8357 37.3934 40.0656 37.6555 40.3933 37.8821C40.7212 38.1262 41.1648 38.3264 41.4129 39.137C41.6786 39.9912 41.2263 40.3225 40.3845 40.6624C39.6403 40.9587 38.5948 41.2637 37.4519 41.9261C35.0241 43.3469 36.929 45.736 34.2088 44.1321C31.4888 42.5284 28.238 36.7586 27.8474 35.5198C27.4576 34.2822 28.8212 33.5671 29.7693 34.3685C30.7173 35.1703 30.1066 37.777 30.8416 37.8909C31.577 38.0042 32.6491 35.3712 32.6668 34.761C32.6844 34.1508 31.3736 31.7021 30.0623 31.4056C28.7509 31.1005 27.1292 29.967 27.076 29.2435C27.0228 28.5287 28.6621 28.8683 29.8406 28.3714C31.0277 27.8746 25.5795 27.2907 24.9588 25.5999C24.3474 23.9089 21.5916 21.555 20.989 20.4915C20.3955 19.4368 23.824 18.5394 22.1316 18.5394C20.4395 18.5394 19.6861 19.1229 18.8533 19.8812C18.0204 20.6395 17.6927 18.6263 18.8357 16.0374C19.9788 13.4486 21.8929 15.2095 25.8094 17.8245C29.7255 20.4392 32.2772 19.3235 33.7215 18.3821C35.1657 17.4495 38.2495 15.9244 39.8533 15.2444C41.4571 14.5645 41.1553 14.1802 41.1199 10.4407C41.0843 6.70165 39.5428 6.09113 39.5428 6.09113C39.5428 6.09113 39.1092 7.01588 39.7029 8.54132C40.3053 10.0752 40.1902 10.8597 40.1902 10.8597C39.5168 10.4936 38.2846 8.55863 38.2224 10.4495C38.1604 12.341 40.3141 13.0477 38.0193 14.1722C35.7246 15.2879 32.2247 11.7493 30.2664 10.5374C28.3083 9.31716 26.6334 9.50826 25.6941 9.29913C24.7637 9.08993 22.9382 7.7998 21.4939 6.70148C20.0497 5.60319 20.9093 4.90561 21.4676 4.08624C22.0253 3.26728 21.5999 3.23209 20.5457 3.50226C19.4913 3.77248 19.1988 3.46766 18.3748 2.00323C18.0115 1.35818 17.9144 0.276976 17.9676 -0.85614C17.9764 -0.943097 17.9851 -1.03872 17.9851 -1.12567C18.0028 -1.35214 18.0201 -1.58767 18.0467 -1.81415C18.0555 -1.85758 18.0652 -1.89284 18.0652 -1.93622C18.0741 -2.02332 18.0827 -2.11084 18.0916 -2.19794C18.127 -2.45944 18.1625 -2.72152 18.2068 -2.9743C18.2156 -3.02638 18.2244 -3.07848 18.2332 -3.13055C18.2686 -3.32232 18.3042 -3.51481 18.3396 -3.68915C18.3485 -3.75874 18.3659 -3.82854 18.3836 -3.89813C18.4101 -4.02012 18.4371 -4.14228 18.4636 -4.25555C18.4725 -4.29034 18.49 -4.32526 18.49 -4.36005C18.4989 -4.4036 18.5163 -4.44736 18.5252 -4.49091C18.534 -4.54309 18.5524 -4.60375 18.5701 -4.65594C19.0308 -6.20738 19.8544 -6.20784 19.3142 -6.56512C18.7737 -6.92251 18.5341 -6.65201 18.0291 -6.05927C17.5244 -5.45794 17.7542 -4.89142 16.948 -5.13544C16.1509 -5.3885 17.1962 -8.05539 17.781 -8.45673C18.3657 -8.85763 19.9782 -8.24804 20.8201 -7.92548H20.8025C21.6442 -7.60298 22.2203 -8.20396 23.5935 -10.069C24.9758 -11.9344 23.2479 -13.3727 22.7605 -13.8434C22.2821 -14.3141 22.3981 -14.8374 22.6638 -16.0749C22.9266 -17.2986 21.7168 -18.4035 21.6892 -18.4284C21.6891 -18.4043 21.6789 -17.4287 20.8826 -16.2321C20.0763 -15.0292 20.4749 -14.776 21.0154 -13.2419C21.5557 -11.7081 21.1657 -11.2373 20.8113 -11.3854C20.4572 -11.525 21.1035 -12.0834 20.5808 -12.6237C20.0582 -13.1719 19.3938 -11.6912 18.4373 -11.1071C17.4803 -10.5318 17.3474 -10.9587 17.7195 -13.0856C18.0917 -15.2122 18.6759 -13.7046 19.7303 -17.4177C20.7847 -21.131 23.1336 -22.0114 23.1336 -22.0114C26.1965 -19.1458 25.6325 -12.8431 25.6316 -12.8327C26.305 -12.1528 28.733 -13.7999 32.2771 -14.6804C33.996 -15.0987 35.7949 -15.0033 37.6023 -14.7331C39.0732 -14.2973 41.6342 -13.6607 43.9734 -13.7565C46.3126 -13.6606 48.8736 -14.2973 50.3445 -14.7331C52.1521 -15.0033 53.9508 -15.1075 55.6697 -14.6804C59.2139 -13.8 61.6418 -12.1528 62.3152 -12.8327C62.3137 -12.8499 61.7614 -19.1475 64.8142 -22.0114ZM73.1345 37.6898C73.5154 37.5678 73.9229 37.6202 74.2595 37.8206L79.284 40.889H73.3474C72.8778 40.889 72.452 40.6622 72.2039 40.2786C71.9736 39.93 71.9117 39.494 72.0535 39.1019L72.2576 38.5267C72.3994 38.1171 72.7182 37.8117 73.1345 37.681V37.6898ZM11.6668 24.9544C12.3756 24.9544 13.0225 25.3473 13.3504 25.9749V25.9661C13.43 26.1316 13.4927 26.3057 13.5281 26.4886L13.7224 27.5784H13.7049L13.5984 27.5169L9.00857 24.9544H11.6668ZM74.4011 27.5169L74.2947 27.5784H74.2771L74.4724 26.4974C74.5079 26.3145 74.5696 26.1317 74.6492 25.9749C74.977 25.3473 75.6151 24.9544 76.3328 24.9544H78.991L74.4011 27.5169ZM63.7332 10.7112C64.0344 10.5718 64.371 10.7989 64.3533 11.1214C64.2557 13.5444 62.5196 15.1396 61.0222 15.9241C60.4818 16.203 59.9765 16.3778 59.5955 16.4476C59.3385 16.4999 59.0278 16.4822 58.7088 16.4212C57.1406 16.1247 55.236 14.7297 55.9265 14.3548C56.1392 14.2415 56.7956 13.9276 57.6463 13.5267C58.3817 14.5204 59.5419 14.9996 60.9861 14.4593L60.9773 14.4681C62.1292 14.041 62.3686 12.324 62.4129 11.3216C62.9445 11.0775 63.3965 10.8681 63.7332 10.7112ZM23.6375 11.1126C23.6198 10.7902 23.9653 10.5721 24.2576 10.7025C24.5942 10.8593 25.0552 11.0688 25.5779 11.3128C25.6222 12.3239 25.8618 14.032 27.0135 14.4593C28.4578 14.9997 29.6188 14.5291 30.3543 13.5267V13.5091C31.2046 13.9099 31.8601 14.2238 32.073 14.3372C32.9059 14.7905 29.9646 16.7166 28.4051 16.4378C26.9431 16.1763 23.7794 14.4074 23.6375 11.1126Z" fill="currentColor"/>
</g>
<defs>
<clipPath id="clip0_6001_2843">
<rect width="88" height="20" fill="#e7e7e7"/>
</clipPath>
</defs>
</svg>
