<svg width="20" height="20" viewBox="0 0 20 20" fill="none" xmlns="http://www.w3.org/2000/svg">
<path d="M4.33105 0.431557C3.07835 -1.41484 -0.11887 3.1217 0.00292969 5.39835C0.184124 8.69127 2.1888 12.2484 4.96973 15.0292C7.75065 17.8101 11.3076 19.8148 14.6006 19.996C16.8734 20.1219 21.4147 16.9234 19.5674 15.6669C19.5655 15.6656 19.5553 15.6587 19.5518 15.6552L15.3369 13.04C15.2809 13.0041 14.8052 12.7569 14.7383 12.745C13.659 12.5402 12.6232 13.6114 11.4336 14.4228C11.2839 14.5252 11.0355 14.612 10.8779 14.5214C9.61353 13.7967 8.83734 13.1429 7.84473 12.1503C6.8521 11.1577 6.19841 10.3854 5.47363 9.1171C5.38304 8.95955 5.47379 8.71112 5.57227 8.56144C6.38369 7.368 7.45482 6.33598 7.25 5.25675C7.23775 5.19303 6.98669 4.71346 6.95508 4.65812L4.34375 0.447182C4.34346 0.446753 4.33492 0.435422 4.33105 0.431557Z" fill="#010B13"/>
</svg>
