<svg width="20" height="20" viewBox="0 0 20 20" fill="none" xmlns="http://www.w3.org/2000/svg">
<path d="M4.33151 0.431557C3.07881 -1.41484 -0.118412 3.1217 0.00338745 5.39835C0.184582 8.69127 2.18925 12.2484 4.97018 15.0292C7.75111 17.8101 11.3081 19.8148 14.601 19.996C16.8739 20.1219 21.4152 16.9234 19.5678 15.6669C19.5659 15.6656 19.5558 15.6587 19.5522 15.6552L15.3374 13.04C15.2814 13.0041 14.8057 12.7569 14.7387 12.745C13.6595 12.5402 12.6236 13.6114 11.4341 14.4228C11.2844 14.5252 11.0359 14.612 10.8784 14.5214C9.61399 13.7967 8.8378 13.1429 7.84518 12.1503C6.85256 11.1577 6.19886 10.3854 5.47409 9.1171C5.38349 8.95955 5.47425 8.71112 5.57272 8.56144C6.38415 7.368 7.45528 6.33598 7.25046 5.25675C7.23821 5.19303 6.98715 4.71346 6.95554 4.65812L4.34421 0.447182C4.34392 0.446753 4.33538 0.435422 4.33151 0.431557Z" fill="#F7F7F7"/>
</svg>
