<svg width="440" height="84" viewBox="0 0 440 84" fill="none" xmlns="http://www.w3.org/2000/svg">
<g clip-path="url(#clip0_3831_1846)">
<path d="M232.782 35.106C231.747 34.5765 230.772 33.9198 229.356 33.0715C231.271 31.7233 232.836 30.8872 234.073 29.6992C239.193 24.8115 239.429 19.9568 238.411 13.7783C237.805 10.0942 234.809 6.0252 231.672 4.01854C227.304 1.21932 222.414 0.263018 217.401 0.188116L176.219 0V12.2577H181.623V58.9072H176.401V70.7712L217.899 70.9228C225.903 70.7712 240.973 67.0714 241.729 53.2165C242.153 45.4372 240.239 38.9086 232.782 35.106ZM202.653 13.8985C206.491 11.8536 211.987 12.62 214.346 15.36C216.619 18.0146 216.741 23.5172 214.592 26.5603C212.828 29.053 207.156 29.8891 202.653 28.0984V13.8985ZM217.912 54.6518C215.312 58.4334 209.286 59.712 202.735 57.6774V40.6992C208.369 38.649 214.882 39.8144 217.439 43.1536C219.814 46.2506 220.034 51.5634 217.912 54.65V54.6518Z" fill="#F7F7F7"/>
<path d="M250.334 47.2628C251.003 56.2092 254.907 63.8125 263.044 68.3467C271.485 73.0498 280.595 73.9399 289.937 71.8426C298.973 69.6235 304.356 63.9885 307.073 59.5519C309.642 55.3591 310.49 49.6318 310.49 39.703C310.521 31.9708 310.357 12.2561 310.357 12.2561H315.278V0.378149H286.532V12.2561H291.021C291.021 12.2561 290.617 46.1985 289.767 48.9629C288.296 53.7514 285.648 55.4166 280.649 55.3365C275.714 55.2581 273.118 53.4204 271.804 48.5901C271.07 45.8902 270.727 12.2561 270.727 12.2561H275.245V0.35376H244.085V12.2561H249.304C249.304 12.2561 249.601 37.4891 250.334 47.2611V47.2628Z" fill="#F7F7F7"/>
<path d="M31.5582 58.907H26.0954V41.6048C29.4136 41.6048 32.2869 41.6379 35.1603 41.5996C41.1752 41.5177 46.9496 40.3367 52.0904 37.062C58.0569 33.2577 60.6516 27.6105 60.4473 20.5907C60.2275 12.9995 58.0292 6.33158 50.4218 3.3425C46.2451 1.69641 41.6564 0.477088 37.201 0.294189L0 0.363859V12.254H5.22914V58.9035H0V70.7675H31.5565V58.9035L31.5582 58.907ZM26.2149 13.266C31.4197 11.6966 37.1733 13.0831 39.3976 16.222C41.5318 19.2425 41.6703 24.2608 39.697 27.1471C37.2305 30.7459 31.8317 32.1324 26.2149 30.455V13.266Z" fill="#F7F7F7"/>
<path d="M126.806 58.9091H119.051V70.7714H155.516V58.9091H147.923V12.2596H156.929V25.7052H170.776V0.250977H103.724V25.8149H117.637V12.2613H126.806V58.9108V58.9091Z" fill="#F7F7F7"/>
<path d="M361.429 58.9087H348.092V12.2592H352.635V0.301147H321.839V12.2592H326.559V58.9087H321.687V70.771H377.691V45.3586H361.427V58.907L361.429 58.9087Z" fill="#F7F7F7"/>
<path d="M423.738 45.3589V58.9073H410.401V12.2578H414.945V0.299683H384.148V12.2578H388.869V58.9073H383.996V70.7695H440V45.3571H423.736L423.738 45.3589Z" fill="#F7F7F7"/>
<path d="M71.3411 58.9091H65.6861V70.7714H98.0943V58.9091H92.6955V12.2596H98.1756V0.296265H65.5615V12.2596H71.3411V58.9091Z" fill="#F7F7F7"/>
</g>
<defs>
<clipPath id="clip0_3831_1846">
<rect width="440" height="84" fill="white"/>
</clipPath>
</defs>
</svg>
