<svg xmlns="http://www.w3.org/2000/svg" width="24" height="24" viewBox="0 0 24 24" fill="none">
  <path d="M18.3158 7.52621V4.842C18.3158 4.6047 18.2215 4.37712 18.0537 4.20933C17.8859 4.04153 17.6584 3.94727 17.4211 3.94727H5.78947C5.31488 3.94727 4.85972 4.1358 4.52412 4.47139C4.18853 4.80698 4 5.26214 4 5.73674M4 5.73674C4 6.21134 4.18853 6.6665 4.52412 7.00209C4.85972 7.33768 5.31488 7.52621 5.78947 7.52621H19.2105C19.4478 7.52621 19.6754 7.62048 19.8432 7.78828C20.011 7.95607 20.1053 8.18365 20.1053 8.42095V11.9999M4 5.73674V18.2631C4 18.7377 4.18853 19.1928 4.52412 19.5284C4.85972 19.864 5.31488 20.0525 5.78947 20.0525H19.2105C19.4478 20.0525 19.6754 19.9583 19.8432 19.7905C20.011 19.6227 20.1053 19.3951 20.1053 19.1578V15.5788M20.1053 11.9999H17.4211C16.9465 11.9999 16.4913 12.1884 16.1557 12.524C15.8201 12.8596 15.6316 13.3148 15.6316 13.7894C15.6316 14.264 15.8201 14.7191 16.1557 15.0547C16.4913 15.3903 16.9465 15.5788 17.4211 15.5788H20.1053M20.1053 11.9999C20.3426 11.9999 20.5701 12.0942 20.7379 12.262C20.9057 12.4298 21 12.6573 21 12.8946V14.6841C21 14.9214 20.9057 15.149 20.7379 15.3168C20.5701 15.4846 20.3426 15.5788 20.1053 15.5788" stroke="#010B13" stroke-width="1.5" stroke-linecap="round" stroke-linejoin="round"/>
</svg>