<svg width="32" height="32" viewBox="0 0 32 32" fill="none" xmlns="http://www.w3.org/2000/svg">
<g clip-path="url(#clip0_4894_18820)">
<path d="M24.8783 1.1196L24.9463 1.34871L26.5944 6.85746L28.4486 6.85817L31.68 11.0118L31.6797 15.1166L29.796 17.5551L31.5065 23.2679L30.8932 23.4517L29.3149 18.179L28.4487 19.3016L25.0951 19.3016L21.7245 15.1178L21.7247 11.0108L25.0959 6.85771L25.9259 6.85777L24.4014 1.76031L7.75782 1.7609L6.23188 6.85813L7.04393 6.85839L10.2754 11.012L10.275 15.1169L7.04398 19.3018L3.69041 19.3019L2.82817 18.2323L1.26669 23.4515L0.653198 23.2678L2.34121 17.6271L0.31978 15.1181L0.320026 11.0111L3.6912 6.85794L5.56422 6.85795L7.21417 1.34857L7.28135 1.11922L24.8783 1.1196ZM23.5053 11.0383L23.502 11.0481L23.5016 14.235L25.6634 16.7059L27.8995 16.706L28.6243 15.8714L28.5889 15.7554L27.8568 16.5987L25.7072 16.5982L23.601 14.1923L23.6013 11.0697L25.1738 7.01798L25.9744 7.01805L25.9417 6.91064L25.1074 6.91084L23.5053 11.0383ZM26.6421 7.01823L28.39 7.01832L29.9496 11.0693L29.9493 14.1919L29.0866 15.1839L29.1207 15.2996L30.0481 14.2341L30.0481 11.0485L28.4558 6.91155L26.6107 6.91117L26.6421 7.01823ZM25.1073 11.0358L25.1039 11.0434L25.104 12.9343L26.195 14.5349L27.3404 14.5344L27.9528 13.6283L27.916 13.5041L27.2903 14.4281L26.2451 14.4282L25.2039 12.9004L25.2042 11.061L26.1868 7.72765L26.1343 7.55273L25.1073 11.0358ZM17.6589 6.8574L20.7285 11.012L20.7295 15.1172L17.6595 19.3017L14.4731 19.3022L11.2713 15.1179L11.2715 11.0109L14.4739 6.85825L17.6589 6.8574ZM26.8104 7.57734L27.3035 7.57793L28.3255 11.0609L28.3248 12.6378L28.4157 12.9438L28.4243 12.9333L28.4246 11.0432L27.3762 7.46944L26.7772 7.46907L26.8104 7.57734ZM30.5464 11.1499L30.7416 11.15C30.8174 11.15 30.8804 11.1225 30.9305 11.0691C30.9805 11.015 31.0056 10.9486 31.0056 10.869C31.0055 10.7893 30.9807 10.7221 30.9306 10.6687C30.8804 10.6153 30.8163 10.5887 30.7411 10.5887L30.5468 10.5881L30.5464 11.1499ZM30.7354 10.6686C30.7895 10.6686 30.8338 10.6881 30.8688 10.7258C30.9037 10.7635 30.9216 10.8118 30.9216 10.8701C30.9216 10.9283 30.9031 10.9749 30.869 11.0133C30.834 11.0517 30.7896 11.0711 30.7355 11.0711L30.6292 11.0705L30.6295 10.6689L30.7354 10.6686ZM28.9951 10.6641C28.9432 10.7196 28.9173 10.7881 28.9173 10.8692C28.9173 10.9504 28.9432 11.019 28.9953 11.0745C29.0474 11.1301 29.1123 11.1578 29.1888 11.1579C29.2443 11.1579 29.2931 11.1414 29.336 11.1101C29.3788 11.0788 29.4095 11.0404 29.4293 10.9942L29.3534 10.9625C29.3389 10.9959 29.3161 11.0241 29.2871 11.0448C29.2581 11.0653 29.2249 11.0756 29.1887 11.0756C29.1361 11.0756 29.0916 11.0555 29.0561 11.0158C29.0204 10.9759 29.0012 10.9265 29.0012 10.8681C29.0013 10.8099 29.0196 10.7602 29.0558 10.7204C29.0914 10.6809 29.1363 10.6617 29.1888 10.6617C29.2258 10.6617 29.2588 10.6719 29.2878 10.6925C29.3166 10.7131 29.338 10.7411 29.3531 10.7744L29.4295 10.7426C29.4104 10.6964 29.3792 10.6575 29.3363 10.6262C29.2934 10.5948 29.2441 10.5795 29.1887 10.5795L29.134 10.5862C29.081 10.5966 29.0343 10.6224 28.9951 10.6641ZM26.4722 11.1498L26.5558 11.1501L26.6006 11.0148L26.8653 11.0142L26.9106 11.1493L26.9977 11.1498L26.8078 10.5885L26.6626 10.5889L26.4722 11.1498ZM12.9628 11.038L12.9595 11.0478L12.9592 14.2347L15.0137 16.7054L17.1375 16.7062L19.178 14.2346L19.1789 11.0486L17.6661 6.91078L14.4854 6.91138L12.9628 11.038ZM17.603 7.01826L19.0847 11.0691L19.0845 14.1917L17.0964 16.5979L15.0546 16.5984L13.0542 14.1923L13.054 11.0688L14.5482 7.0183L17.603 7.01826ZM26.8387 10.9349L26.6269 10.9354L26.7337 10.6144L26.8387 10.9349ZM24.1719 10.6636C24.1198 10.7191 24.0932 10.788 24.0932 10.8691C24.0932 10.9503 24.1199 11.0184 24.172 11.074C24.2242 11.1295 24.2891 11.1573 24.3656 11.1573C24.4208 11.1572 24.4697 11.1421 24.5124 11.1108C24.5553 11.0795 24.5854 11.0404 24.6052 10.9941L24.5293 10.9624C24.5142 10.9958 24.4927 11.0236 24.4638 11.0442C24.4348 11.0648 24.4009 11.0755 24.3646 11.0755C24.3121 11.0754 24.2675 11.0554 24.232 11.0157C24.1958 10.9759 24.1777 10.927 24.1777 10.8689C24.1777 10.8105 24.1959 10.7611 24.2322 10.7212C24.2679 10.6814 24.3128 10.6611 24.3656 10.6611C24.4017 10.6612 24.4348 10.6719 24.4637 10.6924C24.4926 10.713 24.5138 10.741 24.529 10.7743L24.6054 10.7426C24.5863 10.6963 24.5551 10.6574 24.5122 10.6261C24.4701 10.5949 24.4207 10.5789 24.3655 10.5789L24.3099 10.5862C24.2572 10.5966 24.2109 10.6221 24.1719 10.6636ZM22.5311 11.1497L22.7254 11.1503C22.8012 11.1503 22.8642 11.1228 22.9143 11.0694C22.9644 11.0153 22.9894 10.949 22.9894 10.8693C22.9894 10.7896 22.9644 10.7224 22.9144 10.6691C22.8643 10.6158 22.8008 10.5886 22.7258 10.5885L22.5306 10.5884L22.5311 11.1497ZM22.7192 10.669C22.7733 10.669 22.818 10.6872 22.853 10.7248C22.8879 10.7625 22.9049 10.8113 22.905 10.8696C22.905 10.9279 22.8877 10.9751 22.8528 11.0136C22.8178 11.052 22.7729 11.0706 22.7188 11.0706L22.613 11.0709L22.6129 10.6683L22.7192 10.669ZM14.4848 11.0355L14.4818 11.0439L14.482 12.9349L15.5182 14.5344L16.6063 14.5343L17.6364 12.9337L17.6363 11.0427L16.6399 7.4694L15.484 7.46921L14.4848 11.0355ZM16.5716 7.57763L17.542 11.0611L17.5417 12.9004L16.5589 14.4286L15.5661 14.4278L14.5771 12.9003L14.5765 11.0615L15.5535 7.57792L16.5716 7.57763ZM19.6522 11.1497L19.8373 11.15C19.9093 11.15 19.9686 11.1225 20.0162 11.0692C20.0638 11.0151 20.0877 10.9487 20.0877 10.8689C20.0877 10.7893 20.0638 10.7222 20.0162 10.6689C19.9687 10.6158 19.9089 10.5882 19.8377 10.5882L19.6531 10.5887L19.6522 11.1497ZM19.832 10.6681C19.8834 10.6681 19.9256 10.688 19.9588 10.7257C19.9918 10.7634 20.0081 10.8116 20.0082 10.8697C20.0082 10.9281 19.9908 10.9752 19.9582 11.0136C19.925 11.0519 19.8834 11.0706 19.8321 11.0706L19.7306 11.0706L19.7305 10.6681L19.832 10.6681ZM18.3098 10.5862C18.2596 10.5967 18.2159 10.6225 18.1788 10.6641C18.1293 10.7196 18.1045 10.7882 18.1045 10.8694C18.1045 10.9505 18.1295 11.019 18.1789 11.0745C18.2284 11.1299 18.2898 11.158 18.3625 11.158C18.415 11.158 18.4616 11.1423 18.5023 11.1111C18.543 11.0798 18.5719 11.0409 18.5907 10.9946L18.5192 10.9626C18.5054 10.9961 18.4834 11.0237 18.4558 11.0443C18.4282 11.065 18.3968 11.0757 18.3623 11.0757C18.3122 11.0757 18.2692 11.0558 18.2354 11.016C18.2016 10.9761 18.1841 10.9268 18.1841 10.8685C18.1841 10.8103 18.2014 10.7613 18.2356 10.7215C18.2694 10.6818 18.312 10.6611 18.3619 10.661C18.397 10.661 18.4282 10.6719 18.4557 10.6925C18.4833 10.7132 18.5044 10.741 18.5188 10.7745L18.5904 10.7422C18.5722 10.696 18.5427 10.6576 18.5021 10.6263C18.4613 10.595 18.4149 10.5796 18.3623 10.5796L18.3098 10.5862ZM15.781 11.1497L15.8611 11.1497L15.9038 11.0146L16.1553 11.0148L16.198 11.1492L16.2815 11.1494L16.1009 10.5884L15.9622 10.5885L15.781 11.1497ZM6.18414 7.01763L6.9848 7.0177L8.54494 11.0695L8.54467 14.1921L6.45161 16.5981L4.30255 16.5985L3.56792 15.7596L3.53246 15.876L4.25954 16.7056L6.49485 16.7062L8.64345 14.2343L8.64344 11.0487L7.05192 6.91129L6.21625 6.91113L6.18414 7.01763ZM16.1295 10.935L15.9292 10.9356L16.0298 10.6137L16.1295 10.935ZM13.7281 10.586C13.6776 10.5964 13.6335 10.6226 13.5963 10.6644C13.5469 10.7198 13.5215 10.7879 13.5215 10.8688C13.5215 10.9499 13.5466 11.0184 13.5959 11.0739C13.6453 11.1294 13.7069 11.1573 13.7794 11.1574C13.832 11.1574 13.8786 11.1417 13.9192 11.1105C13.9599 11.0793 13.9893 11.0411 14.0081 10.9949L13.9361 10.9621C13.9217 10.9955 13.9009 11.0239 13.8733 11.0446C13.8457 11.0652 13.8142 11.076 13.7798 11.076C13.7298 11.076 13.6875 11.0555 13.6537 11.0158C13.6193 10.976 13.6016 10.9271 13.6015 10.8688C13.6015 10.8104 13.619 10.7603 13.6534 10.7205C13.6871 10.681 13.7296 10.6614 13.7794 10.6613C13.8139 10.6613 13.8456 10.6722 13.8732 10.6928C13.9007 10.7135 13.9219 10.7414 13.9363 10.7748L14.0078 10.7425C13.9897 10.6962 13.9602 10.6579 13.9195 10.6266C13.8794 10.5953 13.8324 10.5799 13.7798 10.5799L13.7281 10.586ZM12.0372 11.1496L12.2223 11.1498C12.2943 11.1498 12.3536 11.1224 12.4012 11.0691C12.4488 11.015 12.4727 10.9485 12.4727 10.8688C12.4727 10.7892 12.4488 10.7221 12.4012 10.6687C12.3536 10.6155 12.2932 10.5885 12.2218 10.5885L12.0368 10.5882L12.0372 11.1496ZM12.2161 10.6685C12.2674 10.6685 12.3093 10.6877 12.3425 10.7252C12.3757 10.763 12.3923 10.8117 12.3923 10.8701C12.3923 10.9283 12.3762 10.9751 12.3432 11.0135C12.3099 11.052 12.2676 11.071 12.2162 11.071L12.1156 11.0705L12.1155 10.668L12.2161 10.6685ZM5.95749 7.77545L6.9208 11.0611L6.92051 12.9005L5.88561 14.4283L4.84039 14.4285L4.2326 13.5378L4.19548 13.663L4.78986 14.5343L5.93574 14.5347L7.01962 12.9335L7.01944 11.0425L6.00916 7.60128L5.95749 7.77545ZM2.10147 11.038L2.09678 11.0475L2.09693 14.2352L3.035 15.3073L3.07046 15.191L2.19631 14.1925L2.19609 11.0691L3.76908 7.01821L5.51648 7.01745L5.54859 6.91096L3.7027 6.91106L2.10147 11.038ZM9.14258 11.1496L9.33772 11.1497C9.41335 11.1496 9.47581 11.1225 9.52584 11.0693C9.57598 11.0152 9.60089 10.949 9.60089 10.8692C9.60089 10.7895 9.57602 10.7224 9.52587 10.669C9.47575 10.6156 9.41243 10.5884 9.33728 10.5884L9.14214 10.5883L9.14258 11.1496ZM9.33158 10.6684C9.38555 10.6684 9.43005 10.6879 9.46495 10.7256C9.49964 10.7632 9.51639 10.8114 9.51647 10.8695C9.51647 10.9279 9.49861 10.975 9.4643 11.0135C9.42941 11.0518 9.3856 11.0708 9.33167 11.0709L9.22532 11.0703L9.22522 10.6678L9.33158 10.6684ZM7.5913 10.6639C7.53917 10.7194 7.51263 10.7882 7.51263 10.8694C7.51269 10.9505 7.53936 11.0188 7.59143 11.0743C7.64349 11.1296 7.70778 11.158 7.78416 11.1581C7.83959 11.1581 7.88847 11.1416 7.93136 11.1103C7.97421 11.079 8.00481 11.0407 8.0246 10.9945L7.94875 10.9627C7.93428 10.996 7.91205 11.0239 7.88322 11.0445C7.85418 11.0652 7.82033 11.0758 7.78403 11.0758C7.73146 11.0758 7.68691 11.0556 7.65137 11.016C7.61574 10.9761 7.59657 10.9267 7.59657 10.8683C7.5966 10.81 7.61488 10.7605 7.65115 10.7207C7.68674 10.681 7.73182 10.6606 7.78448 10.6606C7.82136 10.6606 7.85412 10.6721 7.88311 10.6927C7.91193 10.7134 7.93329 10.7413 7.9484 10.7746L8.02432 10.742C8.00519 10.696 7.97432 10.6576 7.93163 10.6264C7.88873 10.5951 7.83943 10.5797 7.784 10.5797L7.7288 10.5856C7.67609 10.596 7.63028 10.6224 7.5913 10.6639ZM3.70266 11.036L3.69918 11.0436L3.69936 12.9346L3.73107 12.9817L3.7985 12.7567L3.79955 11.0612L4.82733 7.57771L5.34927 7.57745L5.38174 7.46962L4.75477 7.46963L3.70266 11.036ZM5.06756 11.1501L5.15199 11.1498L5.19681 11.0146L5.46063 11.0145L5.50593 11.1496L5.59387 11.1495L5.40398 10.5882L5.2579 10.5891L5.06756 11.1501ZM5.43399 10.9351L5.2231 10.9351L5.329 10.6146L5.43399 10.9351ZM2.76722 10.6638C2.71509 10.7193 2.68855 10.7882 2.68855 10.8693C2.68859 10.9504 2.71526 11.0187 2.76735 11.0742C2.81948 11.1297 2.88439 11.1575 2.96092 11.1575C3.01612 11.1574 3.06502 11.1422 3.10777 11.1111C3.15066 11.0797 3.18072 11.0407 3.20052 10.9944L3.12467 10.9626C3.10952 10.9959 3.08805 11.0238 3.05914 11.0444C3.03017 11.065 2.997 11.0752 2.9608 11.0753C2.90802 11.0753 2.86292 11.0558 2.82729 11.0159C2.79113 10.9762 2.77311 10.9272 2.77298 10.8691C2.77298 10.8107 2.79131 10.7613 2.82756 10.7214C2.86319 10.6816 2.9081 10.6614 2.96089 10.6614C2.99706 10.6614 3.03008 10.6721 3.05903 10.6927C3.08792 10.7133 3.11002 10.7407 3.12516 10.774L3.20073 10.7428C3.18159 10.6965 3.15044 10.6576 3.10755 10.6263C3.06539 10.5951 3.01607 10.5792 2.96077 10.5791L2.9052 10.5864C2.85245 10.5968 2.80622 10.6223 2.76722 10.6638ZM1.12639 11.1499L1.32104 11.1492C1.39681 11.1492 1.45955 11.1229 1.50965 11.0696C1.55973 11.0156 1.58463 10.9491 1.58471 10.8695C1.58471 10.7898 1.55977 10.7227 1.50969 10.6693C1.45956 10.6159 1.39627 10.5887 1.32109 10.5887L1.12595 10.5886L1.12639 11.1499ZM1.3149 10.6678C1.36896 10.6678 1.41332 10.6874 1.44828 10.725C1.48324 10.7628 1.50027 10.8114 1.50028 10.8698C1.50028 10.9282 1.48308 10.9753 1.44811 11.0138C1.41317 11.0522 1.36903 11.0703 1.315 11.0704L1.20913 11.0706L1.20904 10.6681L1.3149 10.6678Z" fill="currentColor"/>
</g>
<defs>
<clipPath id="clip0_4894_18820">
<rect width="32" height="32" fill="white"/>
</clipPath>
</defs>
</svg>
