<svg width="300" height="80" viewBox="0 0 300 80" fill="none" xmlns="http://www.w3.org/2000/svg">
<g clip-path="url(#clip0_6283_1689)">
<path d="M150 68.7909C142.312 68.7909 135.082 65.7976 129.644 60.3596C124.206 54.9216 121.213 47.6918 121.213 40.0036C121.213 32.3155 124.206 25.0857 129.644 19.6477C135.082 14.2097 142.312 11.2164 150 11.2164C157.688 11.2164 164.918 14.2097 170.356 19.6477C175.794 25.0857 178.787 32.3155 178.787 40.0036C178.787 47.6918 175.794 54.9216 170.356 60.3596C164.918 65.7976 157.688 68.7909 150 68.7909ZM150 10.5254C142.128 10.5254 134.725 13.5916 129.158 19.1581C123.592 24.7245 120.525 32.128 120.525 40.0002C120.525 47.8724 123.592 55.2758 129.158 60.8423C134.725 66.4087 142.128 69.475 150 69.475C157.872 69.475 165.276 66.4087 170.842 60.8423C176.409 55.2758 179.475 47.8724 179.475 40.0002C179.475 32.128 176.409 24.7245 170.842 19.1581C165.276 13.5916 157.872 10.5254 150 10.5254Z" fill="#3458B0"/>
<path d="M137.405 69.7116L138.325 69.2324L138.516 69.3192C138.95 69.5172 139.252 69.7672 139.415 70.0797C139.575 70.3853 139.582 70.6978 139.44 71.0208C139.294 71.3437 139.058 71.5417 138.724 71.6181C138.384 71.6979 137.995 71.6389 137.554 71.441L136.571 70.9999L136.391 71.4028L135.505 71.0034L135.686 70.6006L134.787 70.1943C134.349 69.9964 134.047 69.7429 133.88 69.4373C133.717 69.1387 133.707 68.8261 133.852 68.5067C133.998 68.1837 134.234 67.9823 134.568 67.899C134.908 67.8156 135.297 67.8747 135.738 68.0726L136.433 68.3851L135.512 68.8643L135.321 68.7775C135.03 68.6456 134.839 68.6872 134.741 68.9025C134.696 69.0067 134.696 69.1039 134.748 69.1977C134.797 69.2915 134.891 69.3713 135.03 69.4304L136.016 69.8748L136.794 68.1455L137.679 68.5449L136.901 70.2742L137.967 70.7534C138.103 70.8159 138.224 70.8333 138.329 70.809C138.433 70.7846 138.506 70.7187 138.554 70.618C138.651 70.4061 138.554 70.2325 138.263 70.1006L137.405 69.7151V69.7116Z" fill="#2B58B2" stroke="#0057B8" stroke-width="0.18" stroke-miterlimit="6.88"/>
<path d="M130.044 64.9192L131.019 64.624L133.478 66.3707L131.662 68.923L128.703 66.8187L129.686 66.5165L131.339 67.6903L131.558 67.3847L129.533 65.9471L130.401 65.6901L131.971 66.8048L132.217 66.4575L130.047 64.9122L130.044 64.9192Z" fill="#2B58B2" stroke="#0057B8" stroke-width="0.18" stroke-miterlimit="6.88"/>
<path d="M128.72 63.7903C128.664 63.7313 128.55 63.6827 128.383 63.6445C128.22 63.6028 128.057 63.6619 127.89 63.8216L126.664 65.0127L124.271 62.5437L125.942 60.922L125.376 60.3387L126.39 60.2275L129.845 63.7869L128.831 63.898L128.723 63.7869L128.72 63.7903ZM126.619 61.6235L125.532 62.6757L126.57 63.7452L127.213 63.1236C127.379 62.9604 127.626 62.9187 127.949 62.9951L126.619 61.6235Z" fill="#2B58B2" stroke="#0057B8" stroke-width="0.18" stroke-miterlimit="6.88"/>
<path d="M122.65 56.29L123.667 56.3595L125.345 58.8667L122.74 60.6099L120.723 57.5922L121.751 57.6617L122.879 59.3459L123.192 59.1375L121.81 57.0748L122.712 57.1408L123.782 58.7416L124.136 58.5055L122.653 56.29H122.65Z" fill="#2B58B2" stroke="#0057B8" stroke-width="0.18" stroke-miterlimit="6.88"/>
<path d="M120.268 52.0954C120.577 52.2586 120.834 52.5572 121.036 52.9948L121.723 54.4845L122.449 54.1476L122.855 55.0227L121.4 55.6964L120.268 53.2482C120.206 53.1128 120.126 53.0191 120.032 52.9704C119.942 52.9218 119.845 52.9218 119.744 52.9704C119.529 53.0711 119.487 53.2621 119.619 53.5504L120.751 55.9985L119.74 55.7589L118.914 53.974C118.712 53.5365 118.653 53.1475 118.737 52.8072C118.817 52.4739 119.018 52.2343 119.338 52.085C119.654 51.9391 119.963 51.9426 120.268 52.0988V52.0954Z" fill="#2B58B2" stroke="#0057B8" stroke-width="0.18" stroke-miterlimit="6.88"/>
<path d="M120.386 48.9354L119.459 48.5708L119.188 47.5221C119.164 47.4318 119.147 47.345 119.133 47.2651C119.105 47.3033 119.046 47.3693 118.962 47.4631L118.865 47.5742L118.771 47.6853L118.108 48.4354L120.49 49.3382L120.779 50.4494L117.532 49.2132C117.264 49.109 117.098 48.9354 117.035 48.6923C116.973 48.4458 117.035 48.2201 117.219 48.0048L119.473 45.4004L120.386 48.9285V48.9354Z" fill="#2B58B2" stroke="#0057B8" stroke-width="0.18" stroke-miterlimit="6.88"/>
<path d="M119.358 44.4417L116.229 44.6431L116.167 43.6742L118.49 43.5249L118.372 41.7053L116.049 41.8546L115.986 40.8858L118.309 40.7365L118.268 40.0732L119.112 40.6497L119.355 44.4417H119.358Z" fill="#2B58B2" stroke="#0057B8" stroke-width="0.18" stroke-miterlimit="6.88"/>
<path d="M119.247 37.8684L119.184 38.8372L116.056 38.6358L116.118 37.667L119.247 37.8684Z" fill="#2B58B2" stroke="#0057B8" stroke-width="0.18" stroke-miterlimit="6.88"/>
<path d="M117.014 31.8848L117.699 32.6591L117.31 34.7149C117.244 35.0656 117.33 35.2635 117.57 35.3087C117.674 35.3295 117.768 35.2948 117.851 35.2045C117.931 35.1177 117.987 34.9996 118.015 34.8503L118.522 32.173L120.095 32.4716L119.914 33.4231L119.098 33.2703L118.82 34.7322L119.504 35.5726L119.261 36.847L118.772 36.1664C118.591 35.9025 118.483 35.7323 118.449 35.6559C118.348 35.899 118.195 36.0726 117.99 36.1803C117.782 36.2914 117.56 36.3227 117.32 36.2775C116.921 36.2011 116.66 35.9685 116.542 35.583C116.448 35.2809 116.438 34.9163 116.521 34.4857L117.014 31.8848Z" fill="#2B58B2" stroke="#0057B8" stroke-width="0.18" stroke-miterlimit="6.88"/>
<path d="M119.511 27.2072L121.612 28.1899L121.198 29.0719L118.361 27.7454L120.129 23.9639L122.966 25.2904L122.553 26.1724L120.452 25.1897L119.511 27.2037V27.2072Z" fill="#2B58B2" stroke="#0057B8" stroke-width="0.18" stroke-miterlimit="6.88"/>
<path d="M124.817 20.5021C124.831 20.8528 124.702 21.2244 124.425 21.6168L123.484 22.9607L124.14 23.419L123.588 24.2108L122.275 23.2905L123.82 21.0785C123.907 20.957 123.945 20.8424 123.942 20.7348C123.938 20.6341 123.89 20.5507 123.796 20.4847C123.602 20.3493 123.414 20.4083 123.234 20.6688L121.688 22.8808L121.39 21.8876L122.518 20.2764C122.793 19.884 123.102 19.634 123.438 19.5367C123.765 19.4395 124.074 19.4916 124.366 19.693C124.65 19.8909 124.803 20.1618 124.821 20.5021H124.817Z" fill="#2B58B2" stroke="#0057B8" stroke-width="0.18" stroke-miterlimit="6.88"/>
<path d="M127.616 19.0197L127.47 18.0335L128.241 17.2765C128.307 17.2105 128.373 17.1515 128.436 17.0994C128.391 17.0925 128.304 17.0751 128.179 17.0508L128.033 17.023L127.891 16.9987L126.908 16.8008L127.318 19.3149L126.498 20.1205L125.946 16.6897C125.901 16.4049 125.97 16.1757 126.147 15.9986C126.328 15.8215 126.557 15.759 126.835 15.8146L130.217 16.4639L127.62 19.0197H127.616Z" fill="#2B58B2" stroke="#0057B8" stroke-width="0.18" stroke-miterlimit="6.88"/>
<path d="M134.269 13.6651L133.061 14.4951L131.814 14.3492C131.439 14.3041 131.178 14.2694 131.04 14.2451L131.106 14.3353L131.172 14.4256C131.196 14.4569 131.22 14.4916 131.244 14.5229L131.81 15.3493L131.008 15.9015L129.237 13.3179L130.039 12.7658L130.449 13.363C130.585 13.5575 130.682 13.7138 130.744 13.8249C130.744 13.8145 130.758 13.7693 130.776 13.6895L130.793 13.6096L130.814 13.5262C130.849 13.3769 130.887 13.2276 130.928 13.0783L131.244 11.9358L132.404 11.1406L131.922 12.5609C131.783 12.9741 131.668 13.2832 131.578 13.495C131.675 13.495 131.738 13.495 131.758 13.495L131.981 13.5019C132.064 13.5054 132.161 13.5124 132.276 13.5193L132.435 13.5297L132.609 13.5401L134.266 13.6617L134.269 13.6651Z" fill="#2B58B2" stroke="#0057B8" stroke-width="0.18" stroke-miterlimit="6.88"/>
<path d="M137.256 8.7168L137.04 9.72383L136.03 10.2065L137.03 12.297L136.155 12.7137L135.155 10.6232L133.828 11.2587L134.043 10.2517L137.256 8.7168Z" fill="#2B58B2" stroke="#0057B8" stroke-width="0.18" stroke-miterlimit="6.88"/>
<path d="M139.978 11.1268C139.833 11.1719 139.701 11.1615 139.583 11.099C139.447 11.033 139.353 10.9045 139.298 10.7136L138.555 8.22723L139.402 7.97374L139.93 9.73778L141.277 7.5362C141.357 7.39383 141.468 7.30354 141.6 7.26187C141.739 7.2202 141.871 7.22715 141.992 7.28618C142.124 7.35563 142.218 7.48411 142.274 7.67163L143.017 10.1614L142.173 10.4149L141.645 8.65088L140.298 10.8525C140.218 10.9948 140.11 11.0851 139.975 11.1268H139.978Z" fill="#2B58B2" stroke="#0057B8" stroke-width="0.18" stroke-miterlimit="6.88"/>
<path d="M146.253 6.48688L147.215 6.3584L147.632 9.46283L146.67 9.59132L146.555 8.75097L146.027 8.82042C144.732 8.99404 144.024 8.61207 143.899 7.67101L143.784 6.81677L144.75 6.68829L144.864 7.54253C144.895 7.77172 144.986 7.92103 145.142 7.98701C145.298 8.05994 145.559 8.07383 145.923 8.02521L146.451 7.95576L146.253 6.49035V6.48688Z" fill="#2B58B2" stroke="#0057B8" stroke-width="0.18" stroke-miterlimit="6.88"/>
<path d="M152.656 9.48042L151.691 9.45612L151.722 8.24768L149.857 8.19906L149.826 9.4075L148.854 9.38319L148.933 6.25098L149.906 6.27528L149.878 7.38649L151.743 7.43511L151.77 6.3239L152.736 6.34821L152.656 9.48042Z" fill="#2B58B2" stroke="#0057B8" stroke-width="0.18" stroke-miterlimit="6.88"/>
<path d="M158.25 7.62268C158.573 7.95952 158.681 8.39706 158.573 8.93877C158.466 9.48048 158.198 9.8451 157.771 10.0326C157.355 10.2132 156.768 10.2271 156.011 10.0743C155.25 9.9215 154.715 9.68189 154.403 9.35547C154.08 9.02211 153.976 8.58457 154.087 8.03591C154.198 7.49073 154.462 7.12611 154.889 6.94554C155.309 6.76497 155.896 6.75108 156.65 6.90387C157.4 7.05319 157.934 7.2928 158.254 7.62268H158.25ZM157.209 9.33117C157.424 9.26172 157.563 9.06725 157.625 8.74778C157.688 8.42831 157.636 8.19565 157.466 8.04633C157.313 7.91785 156.986 7.80326 156.483 7.70255C155.979 7.60185 155.636 7.58101 155.448 7.64352C155.229 7.71297 155.09 7.90743 155.024 8.2269C154.959 8.54985 155.014 8.78598 155.188 8.92835C155.344 9.06031 155.67 9.17837 156.163 9.27561C156.657 9.37631 157.004 9.39367 157.202 9.33117H157.209Z" fill="#2B58B2" stroke="#0057B8" stroke-width="0.18" stroke-miterlimit="6.88"/>
<path d="M160.622 11.3104L159.702 11.0049L160.695 8.03238L161.616 8.33796L160.622 11.3104ZM160.709 7.08785C160.793 7.05312 160.89 7.0566 161.004 7.09132C161.119 7.12605 161.199 7.18855 161.247 7.26495C161.3 7.35176 161.31 7.44552 161.275 7.54969C161.24 7.65387 161.178 7.71985 161.084 7.7511C160.997 7.78583 160.897 7.78235 160.786 7.74416C160.674 7.70596 160.595 7.6504 160.546 7.57053C160.49 7.49066 160.48 7.3969 160.515 7.29273C160.549 7.18855 160.615 7.1191 160.709 7.0809V7.08785ZM161.633 7.3969C161.716 7.36218 161.813 7.36565 161.928 7.40038C162.039 7.43857 162.122 7.49761 162.171 7.574C162.223 7.66082 162.234 7.75457 162.199 7.85875C162.164 7.96292 162.102 8.0289 162.008 8.06016C161.921 8.09488 161.82 8.09141 161.709 8.05321C161.598 8.01501 161.518 7.95945 161.47 7.87958C161.414 7.79972 161.404 7.70596 161.438 7.60178C161.473 7.49761 161.539 7.42816 161.633 7.38996V7.3969Z" fill="#2B58B2" stroke="#0057B8" stroke-width="0.18" stroke-miterlimit="6.88"/>
<path d="M167.477 13.7929L166.539 14.1888L165.167 13.4144C164.692 13.147 164.376 12.7928 164.216 12.3553C164.053 11.9143 164.084 11.4941 164.31 11.0948C164.535 10.6954 164.876 10.4593 165.327 10.3898C165.772 10.3204 166.234 10.4176 166.709 10.685L168.623 11.765L167.678 12.1678L166.306 11.3934C166.077 11.2649 165.852 11.2163 165.633 11.2545C165.407 11.2962 165.24 11.4142 165.133 11.6052C165.025 11.7962 165.011 11.9976 165.095 12.206C165.178 12.4108 165.334 12.5775 165.563 12.7095L167.477 13.7894V13.7929Z" fill="#2B58B2" stroke="#0057B8" stroke-width="0.18" stroke-miterlimit="6.88"/>
<path d="M172.856 15.0295L171.856 15.276L170.98 14.5781L169.532 16.3907L168.775 15.7865L170.223 13.9738L169.074 13.0571L170.074 12.8105L172.856 15.033V15.0295Z" fill="#2B58B2" stroke="#0057B8" stroke-width="0.18" stroke-miterlimit="6.88"/>
<path d="M174.891 20.1379C174.547 20.0719 174.214 19.8636 173.894 19.5059L172.797 18.287L172.2 18.8218L171.554 18.103L172.745 17.0335L174.547 19.0406C174.648 19.1517 174.748 19.2177 174.856 19.235C174.957 19.2524 175.051 19.2246 175.134 19.1517C175.311 18.992 175.294 18.7975 175.082 18.5614L173.28 16.5543L174.314 16.4883L175.63 17.9502C175.953 18.3079 176.124 18.6621 176.144 19.0128C176.165 19.3531 176.047 19.6448 175.783 19.8775C175.526 20.1101 175.228 20.1969 174.891 20.1379Z" fill="#2B58B2" stroke="#0057B8" stroke-width="0.18" stroke-miterlimit="6.88"/>
<path d="M175.502 22.9221L174.946 22.1269L177.512 20.3281L178.068 21.1233L175.502 22.9221Z" fill="#2B58B2" stroke="#0057B8" stroke-width="0.18" stroke-miterlimit="6.88"/>
<path d="M179.04 24.2666L178.252 24.6868C177.415 25.1347 176.755 24.909 176.276 24.0096L176.134 23.7422L176.943 23.5443L176.988 23.6311C177.026 23.7041 177.12 23.7804 177.269 23.8638C177.415 23.9506 177.589 23.9367 177.794 23.8291L179.301 23.0234L180.919 26.0549L178.155 27.5308L177.696 26.6731L179.742 25.5792L179.04 24.2666Z" fill="#2B58B2" stroke="#0057B8" stroke-width="0.18" stroke-miterlimit="6.88"/>
<path d="M178.662 28.6665V28.6526L181.614 27.6699L181.919 28.5867L181.159 28.8402L181.676 30.3959C181.829 30.8508 181.846 31.2466 181.735 31.5765C181.617 31.8995 181.395 32.1148 181.068 32.2224C180.735 32.3335 180.422 32.2953 180.138 32.1078C179.843 31.9168 179.62 31.5939 179.468 31.1355L178.645 28.6596L178.665 28.6665H178.662ZM180.398 29.0902L179.718 29.3159L180.266 30.9584C180.367 31.257 180.527 31.3682 180.752 31.2952C180.86 31.2605 180.929 31.1945 180.964 31.0973C180.999 30.9966 180.995 30.8751 180.947 30.7327L180.398 29.0902Z" fill="#2B58B2" stroke="#0057B8" stroke-width="0.18" stroke-miterlimit="6.88"/>
<path d="M183.023 36.7923L182.492 33.3232L183.398 33.8476L183.888 37.0458L183.023 36.7888V36.7923ZM182.506 36.129C182.541 36.6708 182.423 37.0631 182.148 37.3132C182.041 37.4243 181.895 37.4937 181.714 37.5215C181.113 37.6153 180.745 37.2402 180.617 36.3999L180.2 33.6774L182.086 33.3892L182.506 36.129ZM181.145 34.5178L181.416 36.2818C181.447 36.4798 181.534 36.5666 181.679 36.5457C181.818 36.5249 181.874 36.4138 181.843 36.2159L181.572 34.4518L181.145 34.5178Z" fill="#2B58B2" stroke="#0057B8" stroke-width="0.18" stroke-miterlimit="6.88"/>
<path d="M180.815 39.2847C180.815 39.1319 180.863 39.0103 180.96 38.9166C181.065 38.8089 181.214 38.7568 181.412 38.7568L184.006 38.7881L183.995 39.6736L182.155 39.6527L183.857 41.5939C183.968 41.7154 184.023 41.8439 184.02 41.9863C184.02 42.1321 183.971 42.2571 183.881 42.3544C183.777 42.4585 183.627 42.5106 183.429 42.5072L180.828 42.4759L180.839 41.5939L182.679 41.6147L180.978 39.6736C180.867 39.5555 180.811 39.427 180.815 39.2812V39.2847Z" fill="#2B58B2" stroke="#0057B8" stroke-width="0.18" stroke-miterlimit="6.88"/>
<path d="M182.253 51.1815L179.892 47.8409L180.18 46.7506L180.951 47.9069L183.461 46.5908L183.145 47.7958L182.111 48.2993C182.111 48.2993 182.083 48.3132 182.062 48.3236C182.041 48.334 182.013 48.3479 181.982 48.3653L181.899 48.4069L181.808 48.4521C181.649 48.532 181.555 48.5771 181.527 48.5875C181.551 48.6153 181.593 48.6709 181.652 48.7507C181.725 48.848 181.812 48.9626 181.906 49.0945L182.562 50.0043L182.253 51.1815Z" fill="#2B58B2" stroke="#0057B8" stroke-width="0.18" stroke-miterlimit="6.88"/>
<path d="M177.245 54.873L177.846 53.5361L178.985 53.0118C179.329 52.8555 179.568 52.7513 179.7 52.6958L179.492 52.6124C179.454 52.5985 179.416 52.5846 179.377 52.5673L178.464 52.1575L178.863 51.2686L181.721 52.5499L181.322 53.4389L180.659 53.1402C180.443 53.043 180.277 52.9631 180.166 52.8972C180.166 52.9041 180.183 52.9493 180.207 53.0291L180.235 53.109L180.259 53.1923C180.308 53.3382 180.353 53.484 180.395 53.6333L180.721 54.7723L180.145 56.0537L179.815 54.5918C179.718 54.1681 179.652 53.8417 179.62 53.616C179.537 53.6681 179.485 53.6993 179.464 53.7097L179.273 53.8174C179.2 53.8556 179.113 53.9042 179.009 53.9563L178.867 54.0327L178.714 54.1126L177.238 54.873H177.245Z" fill="#2B58B2" stroke="#0057B8" stroke-width="0.18" stroke-miterlimit="6.88"/>
<path d="M175.658 59.422C175.634 59.0747 175.756 58.6997 176.023 58.2969L176.929 56.9322L176.263 56.4877L176.797 55.6855L178.131 56.571L176.638 58.8178C176.554 58.9428 176.516 59.0574 176.526 59.165C176.533 59.2657 176.585 59.3491 176.679 59.4116C176.877 59.5435 177.065 59.4775 177.238 59.2136L178.731 56.9669L179.054 57.9531L177.968 59.5921C177.7 59.9915 177.402 60.2484 177.068 60.3561C176.742 60.4637 176.433 60.4186 176.138 60.2241C175.849 60.0331 175.69 59.7658 175.662 59.4255L175.658 59.422Z" fill="#2B58B2" stroke="#0057B8" stroke-width="0.18" stroke-miterlimit="6.88"/>
<path d="M172.898 60.9747L173.068 61.9574L172.314 62.7353C172.248 62.8013 172.186 62.8638 172.123 62.9158C172.169 62.9228 172.255 62.9367 172.384 62.9575L172.53 62.9818L172.672 63.0027L173.658 63.1763L173.189 60.6726L173.988 59.8496L174.624 63.2631C174.676 63.5478 174.613 63.7805 174.44 63.9576C174.262 64.1382 174.037 64.2042 173.756 64.1555L170.359 63.5895L172.894 60.9712L172.898 60.9747Z" fill="#2B58B2" stroke="#0057B8" stroke-width="0.18" stroke-miterlimit="6.88"/>
<path d="M168.463 64.9884L169.223 64.3877L171.165 66.8462L170.404 67.447L168.463 64.9884ZM171.946 67.3775C171.928 67.4678 171.873 67.5477 171.779 67.6206C171.685 67.6935 171.592 67.7283 171.501 67.7283C171.401 67.7283 171.314 67.6796 171.248 67.5963C171.182 67.5095 171.158 67.4192 171.182 67.3255C171.203 67.2352 171.258 67.1518 171.352 67.0789C171.446 67.006 171.536 66.9713 171.626 66.9747C171.724 66.9747 171.807 67.0164 171.876 67.0997C171.942 67.1865 171.967 67.2768 171.946 67.3775ZM171.182 67.9818C171.165 68.072 171.109 68.1519 171.015 68.2248C170.921 68.2978 170.828 68.3325 170.737 68.3325C170.637 68.3325 170.55 68.2839 170.484 68.2005C170.418 68.1137 170.394 68.0234 170.418 67.9297C170.439 67.8394 170.494 67.756 170.588 67.6831C170.682 67.6102 170.772 67.5755 170.862 67.5789C170.96 67.5789 171.043 67.6206 171.112 67.704C171.178 67.7908 171.203 67.8811 171.182 67.9818Z" fill="#2B58B2" stroke="#0057B8" stroke-width="0.18" stroke-miterlimit="6.88"/>
<path d="M164.584 67.4991L165.407 66.9921L166.039 68.02L167.626 67.0442L166.994 66.0163L167.824 65.5059L169.466 68.1728L168.636 68.6832L168.053 67.7387L166.466 68.7145L167.049 69.659L166.226 70.166L164.584 67.4991Z" fill="#2B58B2" stroke="#0057B8" stroke-width="0.18" stroke-miterlimit="6.88"/>
<path d="M163.001 68.2038C163.143 68.1448 163.275 68.1413 163.397 68.1899C163.536 68.242 163.647 68.3601 163.72 68.5407L164.716 70.9367L163.9 71.277L163.192 69.5789L162.081 71.909C162.015 72.0583 161.918 72.159 161.786 72.2146C161.65 72.2702 161.518 72.2771 161.393 72.232C161.254 72.1764 161.15 72.0583 161.074 71.8778L160.077 69.4782L160.89 69.1414L161.598 70.8395L162.709 68.5094C162.772 68.3601 162.873 68.2594 163.004 68.2038H163.001Z" fill="#2B58B2" stroke="#0057B8" stroke-width="0.18" stroke-miterlimit="6.88"/>
<path d="M185.996 40.0001C185.996 59.8803 169.88 75.9928 150.003 75.9928C130.126 75.9928 114.007 59.8768 114.007 40.0001C114.007 20.1234 130.123 4.00391 150 4.00391C169.876 4.00391 185.992 20.1199 185.992 39.9966L185.996 40.0001Z" stroke="#0057B8" stroke-width="2.55" stroke-linecap="square" stroke-linejoin="bevel"/>
<path d="M139.301 23.8145L129.679 31.829C132.412 45.0559 140.378 54.2893 150.042 62.231C164.3 50.6466 168.026 41.0833 170.328 31.7908L160.817 23.877L139.301 23.8145Z" fill="url(#paint0_linear_6283_1689)"/>
<path d="M140.614 23.7969L132.176 31.051C134.572 43.0208 141.559 51.3757 150.031 58.5638C162.536 48.0802 165.804 39.4232 167.821 31.0163L159.48 23.8524L140.614 23.7969Z" fill="url(#paint1_linear_6283_1689)" stroke="#FFD700" stroke-width="1.98" stroke-miterlimit="11.34"/>
<path d="M140.615 45.3752C140.121 44.3439 139.555 43.2188 139.687 41.5797C142.045 38.5274 145.164 38.1871 147.296 38.5968C146.393 38.3468 141.295 39.5761 140.615 45.3752Z" fill="white"/>
<path d="M143.226 35.5936C144.083 35.1283 145.358 34.4859 147 34.5831C150.105 36.875 150.514 39.9794 150.15 42.122C150.379 41.2156 149.035 36.1457 143.226 35.5936Z" fill="white"/>
<path d="M153.216 38.1768C153.668 39.0414 154.289 40.3262 154.164 41.9653C151.824 45.0315 148.712 45.3927 146.573 44.9933C147.476 45.2364 152.567 43.9759 153.213 38.1768H153.216Z" fill="white"/>
<path d="M150.428 48.1049C149.421 48.664 148.111 49.1571 146.476 48.9695C143.427 46.577 143.236 42.976 143.778 41.0869C143.451 42.1565 143.687 46.6117 150.424 48.1049H150.428Z" fill="white"/>
<path d="M154.522 42.4756C151.091 46.6947 145.503 45.6634 144.288 43.6493C145.378 45.4654 148.084 47.5871 151.792 47.1496L152.049 47.4552C153.417 46.2433 154.39 44.3369 154.522 42.4756Z" fill="white"/>
<path d="M145.708 49.3375C141.757 45.601 143.201 40.1075 145.299 39.0449C143.406 39.9999 141.09 42.5383 141.25 46.2678L140.927 46.5039C142.034 47.9589 143.861 49.0701 145.712 49.341L145.708 49.3375Z" fill="white"/>
<path d="M147.788 34.232C151.948 37.7635 150.792 43.3196 148.743 44.4829C150.594 43.4376 152.785 40.7881 152.427 37.0725L152.74 36.8225C151.552 35.4265 149.66 34.4091 147.792 34.2285L147.788 34.232Z" fill="white"/>
<path d="M139.347 40.7494C142.993 36.6901 148.518 38.0062 149.622 40.0862C148.629 38.2076 146.042 35.9435 142.319 36.1935L142.08 35.874C140.649 37.0234 139.579 38.8847 139.347 40.7494Z" fill="white"/>
<path d="M150 70.1689C149.882 70.3009 149.812 70.4745 149.812 70.6655C149.819 71.0822 149.871 71.5024 149.875 71.9191C149.885 72.308 149.767 72.6761 149.625 73.0303C149.576 73.1275 149.527 73.2248 149.475 73.322L149.326 73.2907C149.191 73.263 149.104 73.131 149.128 72.9956C149.152 72.8775 149.257 72.7942 149.371 72.7942L149.427 72.8011L149.305 71.7802C149.264 71.3253 149.031 70.926 148.684 70.6655C148.625 70.6204 148.562 70.5787 148.496 70.544V74.1728H149.333C149.395 74.5131 149.583 74.8082 149.847 75.0131C149.909 75.0548 149.961 75.1138 150 75.1798C150.038 75.1138 150.09 75.0583 150.152 75.0131C150.416 74.8082 150.604 74.5131 150.666 74.1728H151.503V70.544C151.437 70.5787 151.375 70.6204 151.316 70.6655C150.969 70.926 150.736 71.3253 150.694 71.7802L150.573 72.8011L150.628 72.7942C150.746 72.7942 150.85 72.8775 150.871 72.9956C150.899 73.131 150.809 73.263 150.673 73.2907L150.524 73.322C150.472 73.2248 150.42 73.1275 150.375 73.0303C150.232 72.6726 150.114 72.308 150.125 71.9191C150.132 71.5024 150.18 71.0822 150.187 70.6655C150.187 70.4745 150.118 70.3009 150 70.1689ZM148.746 71.0649C148.909 71.2558 149.017 71.492 149.048 71.7524L149.149 72.5962C149.02 72.6587 148.923 72.7768 148.885 72.9192H148.743V71.0649H148.746ZM151.253 71.0649V72.9192H151.111C151.073 72.7768 150.975 72.6587 150.847 72.5962L150.948 71.7524C150.979 71.492 151.09 71.2558 151.25 71.0649H151.253ZM150 72.7629C150.066 72.9817 150.159 73.1935 150.274 73.388C150.163 73.4227 150.069 73.4852 150 73.572C149.93 73.4852 149.833 73.4192 149.725 73.388C149.84 73.1935 149.934 72.9852 150 72.7629ZM148.746 73.1727H148.888C148.934 73.3463 149.069 73.4817 149.239 73.5303L149.361 73.5581C149.329 73.6762 149.312 73.7977 149.312 73.9262H148.75V73.1761L148.746 73.1727ZM151.111 73.1727H151.253V73.9227H150.691C150.691 73.7943 150.673 73.6727 150.642 73.5547L150.764 73.5269C150.934 73.4783 151.069 73.3428 151.114 73.1692L151.111 73.1727ZM149.604 73.6137C149.757 73.6345 149.871 73.7665 149.871 73.9227H149.559C149.559 73.8151 149.576 73.7109 149.604 73.6137ZM150.392 73.6137C150.42 73.7109 150.437 73.8151 150.437 73.9227H150.125C150.125 73.7665 150.243 73.6345 150.392 73.6137ZM149.59 74.1728H149.875V74.7006C149.736 74.5547 149.635 74.3742 149.59 74.1728ZM150.125 74.1728H150.409C150.364 74.3742 150.264 74.5547 150.125 74.7006V74.1728Z" fill="#3458B0" stroke="#3A5DB3" stroke-width="0.3" stroke-miterlimit="11.34"/>
<path d="M160.411 41.7817C160.411 45.9696 157.018 49.3622 152.831 49.3622C148.643 49.3622 145.25 45.9696 145.25 41.7817C145.25 37.5938 148.643 34.2012 152.831 34.2012C157.018 34.2012 160.411 37.5938 160.411 41.7817Z" fill="white"/>
<path d="M159.598 41.7816C159.598 45.5181 156.567 48.5496 152.83 48.5496C149.094 48.5496 146.062 45.5181 146.062 41.7816C146.062 38.0452 149.094 35.0137 152.83 35.0137C156.567 35.0137 159.598 38.0452 159.598 41.7816Z" fill="white" stroke="#3458B0" stroke-width="1.08" stroke-linejoin="round"/>
<path d="M158.008 41.7678H147.461C147.451 41.8199 147.441 41.9171 147.448 41.931C147.448 41.938 147.465 41.9518 147.486 41.9623C147.52 41.9831 147.527 41.99 147.552 42.0664C147.573 42.1289 147.58 42.1324 147.632 42.1428C147.67 42.1498 147.677 42.1532 147.677 42.1741C147.68 42.2019 147.705 42.2192 147.75 42.2296C147.767 42.2296 147.795 42.2401 147.816 42.2435C147.847 42.2505 147.85 42.2539 147.843 42.2748C147.84 42.2921 147.843 42.2991 147.857 42.3095C147.885 42.3269 147.955 42.3338 148 42.3269C148.034 42.3199 148.045 42.3095 148.066 42.2505C148.066 42.2435 148.073 42.2366 148.076 42.2366C148.08 42.2366 148.104 42.2609 148.132 42.2921C148.156 42.3234 148.191 42.3547 148.208 42.3616C148.239 42.3755 148.243 42.3755 148.295 42.3547C148.295 42.3547 148.333 42.3303 148.35 42.3338C148.361 42.3338 148.375 42.3581 148.375 42.3581C148.406 42.3859 148.43 42.3929 148.475 42.3859C148.587 42.3685 148.607 42.3685 148.642 42.3894C148.67 42.4067 148.687 42.4067 148.739 42.4033C148.774 42.4033 148.83 42.3929 148.864 42.3824C148.899 42.372 148.93 42.3651 148.937 42.3685C148.944 42.3685 148.948 42.3859 148.951 42.3963C148.962 42.438 149.09 42.5526 149.142 42.5665C149.215 42.5838 149.305 42.5179 149.333 42.4241C149.34 42.4067 149.344 42.4033 149.403 42.4033C149.437 42.4033 149.528 42.3963 149.601 42.3894C149.722 42.3755 149.739 42.372 149.809 42.3408C149.851 42.3199 149.93 42.2713 149.986 42.2296C150.087 42.1567 150.118 42.122 150.132 42.0664C150.132 42.0525 150.149 42.0352 150.146 42.0213C150.146 42.0074 150.146 42.0039 150.153 42.0005C150.17 41.9935 150.205 42.0248 150.205 42.0248C150.257 42.0456 150.257 42.0456 150.281 42.0317C150.295 42.0213 150.305 42.0074 150.305 41.997C150.305 41.9796 150.309 41.9796 150.347 41.9796C150.378 41.9796 150.392 41.9796 150.406 41.9657C150.406 41.9657 150.417 41.9484 150.427 41.9484C150.441 41.9484 150.451 41.9761 150.451 41.9761C150.486 42.0143 150.51 42.0109 150.552 41.9623C150.552 41.9623 150.569 41.9275 150.587 41.9206C150.604 41.9136 150.642 41.9275 150.642 41.9275C150.684 41.931 150.698 41.9275 150.708 41.9206C150.722 41.9032 150.74 41.9032 150.753 41.9206C150.76 41.9275 150.781 41.9345 150.805 41.9345C150.84 41.9345 150.858 41.9414 150.91 41.9761C151.021 42.0525 151.056 42.0803 151.066 42.1046C151.08 42.1359 151.09 42.1428 151.121 42.1428C151.139 42.1428 151.146 42.1463 151.139 42.1567C151.132 42.1776 151.156 42.2019 151.198 42.2158C151.233 42.2262 151.236 42.2262 151.288 42.1984C151.344 42.1706 151.347 42.1706 151.378 42.181C151.403 42.1914 151.417 42.2019 151.42 42.2227C151.431 42.2574 151.448 42.2783 151.507 42.3199C151.549 42.3477 151.563 42.3512 151.59 42.3477C151.59 42.3477 151.615 42.3373 151.625 42.3442C151.635 42.3512 151.635 42.3859 151.635 42.3859C151.642 42.4102 151.66 42.4484 151.677 42.4727C151.694 42.497 151.708 42.5179 151.708 42.5213C151.708 42.5213 151.691 42.5387 151.67 42.5526C151.639 42.5734 151.632 42.5873 151.632 42.6047C151.632 42.6186 151.635 42.6325 151.642 42.6394C151.653 42.6498 151.642 42.7227 151.622 42.7679C151.615 42.7887 151.615 42.7957 151.628 42.8096C151.642 42.8269 151.653 42.8269 151.688 42.8234C151.688 42.8234 151.719 42.8061 151.729 42.8165C151.736 42.8234 151.722 42.8478 151.722 42.8478C151.712 42.9103 151.75 42.9346 151.806 42.9068C151.858 42.8825 151.865 42.8825 151.847 42.9241C151.84 42.9415 151.83 42.9658 151.826 42.9762C151.823 42.9867 151.816 43.004 151.809 43.0179C151.795 43.0492 151.795 43.0978 151.809 43.1117C151.816 43.1186 151.833 43.1221 151.847 43.1221C151.868 43.1221 151.875 43.1256 151.875 43.136C151.875 43.1429 151.885 43.1672 151.896 43.1915C151.91 43.2158 151.917 43.2401 151.917 43.2506C151.917 43.2783 151.948 43.3027 151.986 43.3027C152.014 43.3027 152.024 43.3096 152.049 43.3339C152.063 43.3513 152.08 43.3652 152.083 43.3652C152.097 43.3652 152.094 43.3895 152.073 43.4311C152.059 43.4624 152.056 43.4763 152.063 43.4902C152.076 43.511 152.076 43.5492 152.063 43.5561C152.038 43.57 152.073 43.6673 152.101 43.6673C152.115 43.6673 152.142 43.695 152.142 43.7055C152.142 43.7089 152.125 43.7124 152.104 43.7089C152.069 43.7089 152.066 43.702 152.045 43.6673C152.021 43.6256 152.007 43.6187 151.969 43.6256C151.955 43.6291 151.944 43.643 151.938 43.6638C151.931 43.6812 151.924 43.6985 151.92 43.702C151.917 43.7055 151.896 43.6916 151.872 43.6742C151.847 43.6534 151.819 43.636 151.813 43.6291C151.792 43.6187 151.736 43.6291 151.705 43.6499C151.677 43.6707 151.688 43.6707 151.681 43.6673C151.67 43.6638 151.681 43.636 151.681 43.636C151.681 43.5805 151.635 43.5527 151.597 43.5805C151.587 43.5874 151.569 43.5943 151.552 43.5978C151.493 43.6117 151.476 43.6499 151.465 43.768C151.458 43.8444 151.465 43.8721 151.507 43.8965C151.507 43.8965 151.535 43.9034 151.538 43.9138C151.538 43.9347 151.49 43.959 151.49 43.959C151.441 44.0041 151.431 44.0284 151.451 44.0492C151.465 44.0631 151.455 44.077 151.406 44.0909C151.347 44.1083 151.34 44.1222 151.344 44.1743C151.351 44.2263 151.344 44.2298 151.271 44.2437C151.205 44.2576 151.191 44.2715 151.191 44.3305C151.191 44.4104 151.187 44.4208 151.142 44.4208C151.056 44.4208 151.042 44.4521 151.08 44.5389C151.094 44.5666 151.101 44.6014 151.101 44.6153C151.101 44.6326 151.108 44.65 151.111 44.6604C151.139 44.6951 151.306 44.775 151.354 44.775C151.382 44.775 151.413 44.7472 151.427 44.7056C151.437 44.6812 151.441 44.6778 151.472 44.6778C151.493 44.6778 151.569 44.6569 151.642 44.6326C151.715 44.6083 151.788 44.5875 151.806 44.5875C151.837 44.5875 151.865 44.6118 151.896 44.6639C151.906 44.6847 151.917 44.6917 151.934 44.6917C151.958 44.6917 151.965 44.6812 151.99 44.591C152.014 44.5041 152.01 44.4833 151.983 44.4729C151.958 44.4625 151.944 44.4347 151.944 44.3965C151.944 44.3965 151.938 44.3757 151.944 44.3722C151.951 44.3722 151.958 44.393 151.958 44.393C151.99 44.4382 152.056 44.393 152.049 44.334C152.049 44.3062 152.049 44.3027 152.083 44.2854C152.104 44.275 152.153 44.2402 152.198 44.2125C152.24 44.1812 152.278 44.1569 152.281 44.1569C152.299 44.1569 152.354 44.0805 152.382 44.0284C152.413 43.9763 152.41 43.9659 152.33 43.8999C152.306 43.8791 152.299 43.8409 152.299 43.827C152.299 43.8027 152.333 43.7992 152.365 43.8201C152.396 43.8374 152.417 43.8826 152.438 43.9138C152.465 43.952 152.497 43.9485 152.517 43.8999C152.528 43.8791 152.556 43.827 152.58 43.7888L152.625 43.7159L152.618 43.6464C152.615 43.577 152.615 43.577 152.636 43.577C152.646 43.577 152.677 43.57 152.701 43.5596C152.736 43.5457 152.754 43.5423 152.785 43.5492C152.83 43.5596 152.969 43.5492 152.986 43.5353C152.997 43.5249 153.004 43.5284 153.021 43.5457C153.045 43.5735 153.073 43.5735 153.104 43.5492C153.122 43.5353 153.139 43.5284 153.181 43.5318C153.219 43.5318 153.24 43.5284 153.25 43.5179C153.271 43.5006 153.299 43.5075 153.354 43.5492C153.403 43.5874 153.406 43.5909 153.389 43.6152C153.379 43.6291 153.375 43.6291 153.344 43.6187C153.323 43.6117 153.281 43.6013 153.25 43.5978C153.219 43.5978 153.205 43.6187 153.177 43.6117C153.136 43.6082 153.097 43.6117 153.087 43.636C153.08 43.6499 153.118 43.6638 153.129 43.6742C153.146 43.695 153.174 43.6777 153.236 43.6985C153.236 43.6985 153.288 43.6985 153.288 43.7159C153.288 43.7332 153.236 43.7298 153.236 43.7298C153.208 43.7367 153.177 43.7541 153.167 43.761C153.129 43.7992 153.156 43.827 153.257 43.8409C153.299 43.8478 153.337 43.8548 153.34 43.8583C153.347 43.8617 153.354 43.8652 153.365 43.8652C153.375 43.8652 153.386 43.8721 153.396 43.8826C153.417 43.9069 153.497 43.9485 153.58 43.9728C153.66 44.0006 153.74 44.0006 153.809 43.9798C153.837 43.9694 153.879 43.959 153.906 43.9555C153.952 43.9485 153.955 43.952 154.021 43.9937C154.132 44.0666 154.191 44.0736 154.24 44.0215C154.261 43.9972 154.264 43.9972 154.268 44.011C154.278 44.0388 154.275 44.084 154.261 44.1118C154.233 44.1604 154.052 44.268 153.938 44.3062C153.861 44.3305 153.768 44.3826 153.719 44.4278C153.688 44.4555 153.67 44.4972 153.66 44.5458C153.649 44.5944 153.653 44.6014 153.667 44.6187C153.691 44.65 153.722 44.6569 153.823 44.643C153.931 44.6326 153.941 44.6361 153.986 44.709C154 44.7368 154.025 44.7646 154.035 44.7715C154.063 44.7889 154.139 44.7924 154.181 44.775C154.205 44.7646 154.212 44.7646 154.229 44.775C154.25 44.7889 154.25 44.7924 154.243 44.8375C154.24 44.8618 154.236 44.9347 154.236 44.9938C154.236 45.1084 154.236 45.1153 154.184 45.1778C154.15 45.223 154.146 45.2612 154.167 45.2924C154.174 45.3028 154.202 45.3341 154.229 45.3619C154.285 45.4174 154.281 45.4139 154.396 45.3896C154.42 45.3827 154.472 45.3792 154.514 45.3757C154.556 45.3757 154.597 45.3757 154.608 45.3757C154.639 45.3757 154.677 45.3341 154.712 45.2646C154.771 45.1535 154.823 45.1118 154.931 45.0875C155.018 45.0702 155.132 45.0354 155.174 45.0146C155.327 44.9452 155.396 44.9035 155.396 44.8827C155.396 44.8792 155.403 44.8618 155.41 44.8479C155.424 44.8201 155.427 44.8201 155.455 44.8271C155.473 44.8306 155.507 44.841 155.528 44.8479C155.573 44.8653 155.674 44.8792 155.809 44.8861C155.809 44.8861 155.875 44.9035 155.903 44.8896C155.917 44.8827 155.934 44.8549 155.934 44.8549C155.952 44.834 155.969 44.8097 155.969 44.7993C155.969 44.775 155.969 44.7819 155.962 44.716C155.955 44.6674 155.959 44.6604 155.976 44.643C155.993 44.6292 156.004 44.6257 156.025 44.6292C156.042 44.6326 156.056 44.6292 156.066 44.6187C156.084 44.6014 156.084 44.6014 156.063 44.5562C156.046 44.5215 155.99 44.4764 155.945 44.4659C155.921 44.459 155.841 44.4833 155.775 44.5111C155.736 44.5285 155.723 44.5319 155.712 44.525C155.705 44.518 155.681 44.5041 155.66 44.4903C155.622 44.4659 155.622 44.4659 155.584 44.4798C155.563 44.4868 155.532 44.5076 155.514 44.5215C155.48 44.5528 155.455 44.5667 155.403 44.5805C155.368 44.591 155.365 44.591 155.229 44.5562C155.195 44.5458 155.153 44.5041 155.153 44.4764C155.153 44.4625 155.16 44.4382 155.167 44.4173C155.198 44.327 155.177 44.275 155.094 44.2333C155.063 44.2159 155.021 44.1916 155.004 44.1743C154.959 44.1326 154.913 44.0944 154.903 44.0944C154.9 44.0944 154.736 44.0354 154.736 44.0006C154.736 43.9659 154.893 43.959 154.886 43.9555C154.879 43.9485 154.896 43.9451 154.938 43.9416C154.993 43.9381 155.004 43.9312 155.056 43.8965C155.115 43.8548 155.17 43.827 155.195 43.827C155.219 43.827 155.254 43.7888 155.261 43.7541C155.268 43.7263 155.271 43.7228 155.282 43.7298C155.292 43.7367 155.313 43.7402 155.33 43.7402C155.354 43.7402 155.365 43.7367 155.375 43.7124C155.382 43.6985 155.396 43.6846 155.403 43.6846C155.41 43.6846 155.445 43.6638 155.48 43.6395C155.605 43.5492 155.674 43.5249 155.785 43.5249C155.851 43.5249 155.865 43.5249 155.879 43.5075C155.889 43.4971 155.907 43.4832 155.921 43.4763C155.959 43.4554 156.105 43.3964 156.118 43.3964C156.125 43.3964 156.143 43.4068 156.16 43.4172C156.195 43.4416 156.212 43.445 156.247 43.4311C156.271 43.4207 156.282 43.4034 156.309 43.3235C156.323 43.2818 156.327 43.2818 156.372 43.2783C156.5 43.2645 156.528 43.2575 156.563 43.2158C156.615 43.1533 156.632 43.1429 156.691 43.1325C156.761 43.1186 156.879 43.1186 156.934 43.1325C157.014 43.1499 157.063 43.1221 157.077 43.0457C157.08 43.0214 157.091 42.9867 157.101 42.9728C157.112 42.9485 157.115 42.9415 157.105 42.9241C157.087 42.8929 157.105 42.6811 157.125 42.6637C157.132 42.6568 157.181 42.6498 157.233 42.6429C157.369 42.6255 157.407 42.5977 157.445 42.4866C157.476 42.3929 157.473 42.3963 157.546 42.4137C157.594 42.4241 157.636 42.4276 157.754 42.4241C157.893 42.4241 157.9 42.4206 157.942 42.3963C157.99 42.3685 158.018 42.3165 158.018 42.2574C158.018 42.2296 158.025 42.2123 158.039 42.1914C158.063 42.1602 158.087 42.0907 158.087 42.0525C158.087 42.0352 158.08 42.0282 158.063 42.0178C158.042 42.0074 158.042 42.0039 158.046 41.9831C158.063 41.9102 158.063 41.8998 158.039 41.8372C158.025 41.7991 158.014 41.7747 158.008 41.7539V41.7678Z" fill="#FFD700" stroke="#3458B0" stroke-width="0.17" stroke-miterlimit="1.29"/>
<path d="M154.077 38.1598C154.039 38.1598 154.008 38.1702 153.99 38.1807C153.966 38.1946 153.938 38.2536 153.914 38.2779C153.903 38.2848 153.851 38.2883 153.803 38.2883C153.726 38.2883 153.709 38.2883 153.695 38.271C153.688 38.2605 153.664 38.2466 153.646 38.2397C153.612 38.2258 153.612 38.2258 153.591 38.2397C153.56 38.264 153.521 38.3335 153.515 38.3821C153.508 38.4203 153.504 38.4237 153.462 38.4481C153.344 38.5106 153.303 38.5175 153.254 38.4758C153.223 38.4481 153.216 38.4481 153.15 38.4481C153.112 38.4481 153.077 38.4446 153.07 38.4376C153.063 38.4307 153.039 38.4272 153.011 38.4272C152.962 38.4272 152.959 38.4272 152.921 38.4654C152.921 38.4654 152.9 38.5036 152.879 38.5036C152.869 38.5036 152.855 38.4793 152.855 38.4793C152.827 38.4515 152.789 38.4481 152.733 38.4724C152.681 38.4932 152.66 38.514 152.619 38.5765C152.587 38.6286 152.507 38.7328 152.452 38.8057C152.424 38.837 152.424 38.8404 152.424 38.9342C152.424 39.0071 152.428 39.0419 152.445 39.0939C152.483 39.2155 152.49 39.2363 152.483 39.2467C152.483 39.2502 152.462 39.2537 152.445 39.2537C152.414 39.2537 152.41 39.2502 152.396 39.219C152.379 39.1842 152.317 39.1217 152.271 39.0974C152.254 39.087 152.209 39.08 152.132 39.0766C152.039 39.0696 152.014 39.0662 151.997 39.0523C151.966 39.028 151.955 39.028 151.921 39.0523C151.9 39.0662 151.886 39.0696 151.865 39.0662C151.827 39.0592 151.813 39.0731 151.782 39.1321C151.764 39.1669 151.757 39.1703 151.747 39.1634C151.73 39.153 151.716 39.1217 151.705 39.0488C151.691 38.9793 151.671 38.9377 151.643 38.9238C151.622 38.9134 151.612 38.9168 151.57 38.9342C151.546 38.9481 151.511 38.9585 151.497 38.962C151.469 38.9689 151.428 39.0037 151.4 39.0523C151.379 39.087 151.372 39.087 151.365 39.0557C151.362 39.0419 151.351 39.0175 151.344 39.0002C151.323 38.9585 151.289 38.9516 151.205 38.9689C151.205 38.9689 151.164 38.9898 151.143 38.9828C151.129 38.9759 151.122 38.9411 151.122 38.9411C151.091 38.8752 151.091 38.8752 151.066 38.8717C151.049 38.8717 151.035 38.8821 150.993 38.9273C150.966 38.9585 150.938 38.9863 150.934 38.9863C150.934 38.9863 150.924 38.9759 150.917 38.962C150.896 38.9238 150.879 38.9064 150.858 38.9064C150.83 38.9064 150.823 38.9203 150.809 38.9828C150.799 39.0419 150.792 39.0488 150.775 39.0245C150.764 39.0141 150.764 39.0071 150.775 38.9967C150.813 38.955 150.799 38.9064 150.747 38.9064C150.73 38.9064 150.702 38.9168 150.684 38.9273L150.65 38.9481L150.598 38.9273C150.57 38.9168 150.532 38.9064 150.518 38.9064C150.486 38.9064 150.486 38.9064 150.476 38.8509C150.466 38.8057 150.452 38.7953 150.351 38.7918C150.268 38.7918 150.261 38.7884 150.223 38.764C150.184 38.7363 150.143 38.7293 150.084 38.7432C150.059 38.7502 150.052 38.7467 150.049 38.7293C150.039 38.7015 150.014 38.6911 149.907 38.6703C149.854 38.6599 149.806 38.646 149.795 38.6425C149.785 38.6356 149.75 38.6356 149.709 38.639C149.459 38.6599 149.431 38.6564 149.344 38.6113C149.344 38.6113 149.32 38.5904 149.306 38.5904C149.285 38.5904 149.247 38.6147 149.247 38.6147C149.216 38.6286 149.184 38.6425 149.177 38.6495C149.16 38.6633 149.014 38.6599 148.993 38.6495C148.979 38.6425 148.969 38.6425 148.952 38.6495C148.938 38.6564 148.886 38.6772 148.841 38.6946C148.74 38.7328 148.733 38.7397 148.695 38.8057C148.663 38.8648 148.646 38.8856 148.608 38.9238C148.584 38.9481 148.573 38.9516 148.542 38.9516C148.511 38.9516 148.5 38.9446 148.479 38.9238C148.445 38.8891 148.396 38.8856 148.361 38.9238C148.361 38.9238 148.34 38.9377 148.337 38.9481C148.316 38.9967 148.337 39.1078 148.337 39.1078C148.337 39.2815 148.337 39.271 148.406 39.3717C148.431 39.403 148.441 39.4342 148.445 39.4586C148.452 39.528 148.5 39.6009 148.573 39.653C148.573 39.653 148.597 39.66 148.594 39.6704C148.59 39.6808 148.559 39.6634 148.559 39.6634C148.521 39.6565 148.5 39.6704 148.5 39.6947C148.5 39.7051 148.521 39.7502 148.542 39.7954C148.584 39.8753 148.59 39.8996 148.57 39.9273C148.566 39.9308 148.559 39.9621 148.552 39.9933C148.538 40.0628 148.531 40.0767 148.507 40.0628C148.469 40.0419 148.434 40.0524 148.396 40.094C148.375 40.1183 148.358 40.1392 148.358 40.1426C148.358 40.1496 148.299 40.2086 148.261 40.2433C148.229 40.2711 148.209 40.2954 148.087 40.4586C148.028 40.5385 147.972 40.6114 147.969 40.6184C147.962 40.6253 147.952 40.6427 147.941 40.6566C147.931 40.6705 147.92 40.6878 147.913 40.6913C147.906 40.6948 147.903 40.7017 147.903 40.7087C147.903 40.7121 147.872 40.7573 147.837 40.8059C147.802 40.8545 147.767 40.9031 147.761 40.917C147.743 40.9656 147.743 41.042 147.761 41.1462C147.778 41.2538 147.799 41.3059 147.84 41.3407C147.861 41.3615 147.865 41.4032 147.844 41.3962C147.837 41.3962 147.827 41.3893 147.823 41.3893C147.82 41.3893 147.795 41.3684 147.767 41.3441C147.688 41.2712 147.653 41.2851 147.622 41.4136C147.601 41.4935 147.566 41.5733 147.514 41.6532C147.493 41.6844 147.472 41.7226 147.469 41.7365C147.469 41.7435 147.465 41.7504 147.462 41.7608H158.008C157.991 41.7192 157.984 41.7122 157.966 41.7088C157.949 41.7018 157.945 41.6983 157.952 41.6706C157.962 41.6196 157.981 41.593 158.011 41.5907C158.081 41.5872 158.14 41.5386 158.14 41.4865C158.14 41.4448 158.119 41.4309 158.081 41.4448C158.057 41.4553 158.046 41.4553 158.029 41.4448C158.004 41.4309 157.949 41.358 157.959 41.3546C157.963 41.3546 157.987 41.3441 158.015 41.3372C158.07 41.3198 158.088 41.3059 158.13 41.233C158.143 41.2052 158.168 41.1775 158.178 41.167C158.23 41.1288 158.227 41.0177 158.175 40.9552C158.175 40.9552 158.15 40.9378 158.15 40.924C158.15 40.9101 158.182 40.8892 158.182 40.8892C158.199 40.8719 158.213 40.8476 158.213 40.8371C158.213 40.8094 158.161 40.7677 158.13 40.7677C158.102 40.7677 158.046 40.8024 158.022 40.8337C158.015 40.8406 158.008 40.8476 158.001 40.8476C157.991 40.8476 157.914 40.7469 157.914 40.733C157.914 40.7295 157.9 40.7087 157.886 40.6913C157.859 40.6635 157.855 40.66 157.803 40.6566C157.744 40.6531 157.723 40.6427 157.671 40.5941C157.671 40.5941 157.65 40.5628 157.633 40.5593C157.609 40.5524 157.56 40.5767 157.56 40.5767L157.487 40.5941L157.456 40.5628C157.438 40.5455 157.421 40.5316 157.414 40.5316C157.407 40.5316 157.39 40.5142 157.376 40.4968C157.348 40.4621 157.345 40.4621 157.296 40.4621C157.23 40.4621 157.192 40.4448 157.15 40.3927C157.105 40.3336 157.088 40.3197 157.053 40.3197C157.011 40.3197 156.987 40.351 156.987 40.417C156.987 40.4448 156.98 40.476 156.973 40.4864C156.973 40.4864 156.97 40.5073 156.963 40.5073C156.952 40.5073 156.945 40.4864 156.945 40.4864C156.935 40.476 156.897 40.4413 156.862 40.4135C156.824 40.3857 156.782 40.351 156.772 40.3336C156.744 40.3024 156.716 40.2295 156.716 40.1982C156.716 40.1843 156.702 40.1704 156.678 40.1496C156.65 40.1288 156.633 40.1079 156.619 40.0732C156.595 40.0142 156.577 40.0072 156.515 40.0385C156.487 40.0489 156.449 40.0697 156.424 40.0801C156.4 40.0906 156.362 40.1044 156.338 40.1079C156.313 40.1149 156.258 40.1288 156.216 40.1426C156.126 40.1739 156.074 40.1739 156.025 40.1496C155.987 40.1288 155.942 40.1322 155.921 40.1565C155.914 40.1635 155.907 40.1704 155.904 40.1704C155.9 40.1704 155.886 40.1461 155.872 40.1114C155.858 40.0767 155.834 40.0419 155.817 40.028C155.789 40.0037 155.782 40.0003 155.74 40.0072C155.716 40.0107 155.671 40.0142 155.643 40.0176C155.608 40.0176 155.584 40.0281 155.567 40.0385C155.553 40.0489 155.539 40.0558 155.536 40.0558C155.529 40.0558 155.48 39.9968 155.431 39.9308C155.397 39.8857 155.393 39.844 155.414 39.8128C155.442 39.778 155.438 39.7398 155.397 39.653C155.376 39.6113 155.362 39.5731 155.362 39.5662C155.362 39.5593 155.369 39.5488 155.379 39.5384C155.39 39.528 155.397 39.5141 155.397 39.5072C155.397 39.4898 155.351 39.4447 155.334 39.4447C155.327 39.4447 155.306 39.4342 155.289 39.4273C155.247 39.4065 155.233 39.3856 155.226 39.3301C155.22 39.2815 155.192 39.2676 155.136 39.2884C155.074 39.3127 155.022 39.3092 154.963 39.278C154.89 39.2398 154.817 39.2224 154.772 39.2363C154.723 39.2502 154.713 39.2363 154.723 39.1877C154.73 39.1564 154.73 39.1426 154.716 39.1113C154.709 39.0905 154.706 39.0731 154.709 39.0696C154.723 39.0627 154.719 39.0175 154.702 38.9932C154.692 38.9793 154.671 38.955 154.654 38.9411C154.654 38.9411 154.619 38.9273 154.619 38.9134C154.622 38.8856 154.695 38.8752 154.695 38.8752C154.782 38.8335 154.796 38.8161 154.796 38.7779C154.796 38.7536 154.782 38.7363 154.726 38.6772C154.66 38.6078 154.619 38.5418 154.605 38.4862C154.605 38.4724 154.598 38.4446 154.594 38.4237C154.588 38.3855 154.522 38.2814 154.48 38.2397C154.452 38.2119 154.351 38.1737 154.313 38.1737C154.299 38.1737 154.278 38.1807 154.268 38.1911C154.237 38.2154 154.233 38.2119 154.157 38.1772C154.133 38.1598 154.108 38.1494 154.087 38.1494L154.077 38.1598Z" fill="#3458B0" stroke="#3458B0" stroke-width="0.17" stroke-miterlimit="1.29"/>
<path d="M140.023 30.3431L139.2 31.3883H138.929C138.318 31.3883 137.832 31.2494 137.478 30.9751C137.131 30.7042 136.957 30.3396 136.957 29.8882C136.957 29.4368 137.131 29.0791 137.478 28.8117C137.836 28.5409 138.322 28.402 138.936 28.402H140.318V27.8359H141.562V28.402H142.829C143.447 28.402 143.933 28.5374 144.288 28.8117C144.635 29.0756 144.808 29.4333 144.808 29.8882C144.808 30.3431 144.635 30.7042 144.291 30.9751C143.94 31.2529 143.451 31.3883 142.833 31.3883H141.853L142.676 30.3431H142.947C143.357 30.3431 143.558 30.1938 143.558 29.8917C143.558 29.7493 143.503 29.6347 143.395 29.5479C143.287 29.4611 143.138 29.4229 142.944 29.4229H141.558V31.8536H140.315V29.4229H138.815C138.624 29.4229 138.471 29.4645 138.363 29.5479C138.256 29.6312 138.2 29.7458 138.2 29.8917C138.2 30.1903 138.405 30.3431 138.811 30.3431H140.02H140.023Z" fill="#FFD700"/>
<path d="M146.843 28.8841V31.8566H145.593V27.8389H150.944V31.8566H149.694V28.8841H146.843Z" fill="#FFD700"/>
<path d="M156.868 30.8219L156.07 31.8532H154.052C153.351 31.8532 152.774 31.6588 152.323 31.2698C151.861 30.8809 151.632 30.3948 151.632 29.8044C151.632 29.2141 151.861 28.7384 152.323 28.3737C152.774 28.0126 153.351 27.832 154.052 27.832H156.868L156.07 28.8773H154.052C153.715 28.8773 153.434 28.9675 153.212 29.1481C152.986 29.3356 152.875 29.5718 152.875 29.8565C152.875 30.1413 152.986 30.3739 153.212 30.5545C153.431 30.7316 153.712 30.8184 154.052 30.8184H156.868V30.8219Z" fill="#FFD700"/>
<path d="M163.053 27.8389L159.684 31.8566H158.236L159.42 30.5231L156.969 27.8389H158.566L159.528 28.957C159.528 28.957 159.556 28.9883 159.577 29.0126C159.597 29.0369 159.622 29.0647 159.653 29.0959L159.729 29.1862L159.813 29.2834C159.966 29.4571 160.052 29.5578 160.07 29.589C160.097 29.5473 160.153 29.4779 160.233 29.3772C160.33 29.2522 160.445 29.1098 160.577 28.9501L161.49 27.8389H163.053Z" fill="#FFD700"/>
</g>
<defs>
<linearGradient id="paint0_linear_6283_1689" x1="149.764" y1="47.689" x2="149.004" y2="99.1036" gradientUnits="userSpaceOnUse">
<stop stop-color="#0057B8"/>
<stop offset="1" stop-color="#0057B8" stop-opacity="0"/>
</linearGradient>
<linearGradient id="paint1_linear_6283_1689" x1="150.039" y1="26.8942" x2="149.754" y2="58.1766" gradientUnits="userSpaceOnUse">
<stop stop-color="#3458B0"/>
<stop offset="1" stop-color="#3458B0" stop-opacity="0"/>
</linearGradient>
<clipPath id="clip0_6283_1689">
<rect width="80" height="80" fill="white" transform="translate(110)"/>
</clipPath>
</defs>
</svg>
