<svg width="300" height="80" viewBox="0 0 300 80" fill="none" xmlns="http://www.w3.org/2000/svg">
<g clip-path="url(#clip0_6283_1825)">
<path d="M159.083 30.717C159.083 35.7236 155.006 39.7951 150.002 39.7951C144.998 39.7951 140.919 35.7236 140.919 30.717V20.3743L132.424 15.7393V30.717C132.424 40.4071 140.31 48.2894 150.002 48.2894C159.695 48.2894 167.576 40.4056 167.576 30.717V15.7393L159.083 20.3743V30.717Z" fill="#00481A"/>
<path d="M132.424 0V10.2506L140.919 14.8935V8.49114H145.754V30.7798C145.756 33.1247 147.657 35.023 150.002 35.023C152.347 35.023 154.248 33.1215 154.248 30.7751V8.49114H159.081V14.8903L167.576 10.249V0H132.425H132.424Z" fill="#78B520"/>
<path d="M105.455 65.1004C105.455 65.5282 105.502 65.8841 105.597 66.1683C105.693 66.4524 105.843 66.6788 106.052 66.8443C106.259 67.0097 106.536 67.1284 106.879 67.2002C107.223 67.272 107.646 67.3064 108.144 67.3064H111.349C111.824 67.3064 112.227 67.2704 112.559 67.2002C112.892 67.1284 113.159 67.0066 113.362 66.8349C113.563 66.6632 113.711 66.4337 113.807 66.1495C113.902 65.8654 113.949 65.5095 113.949 65.0817V57.4258H116.923V65.3846C116.923 66.2042 116.839 66.8926 116.673 67.45C116.508 68.0089 116.228 68.4585 115.836 68.8035C115.444 69.1485 114.926 69.3967 114.28 69.5513C113.632 69.7059 112.834 69.7823 111.885 69.7823H107.505C106.59 69.7823 105.819 69.7027 105.19 69.5419C104.561 69.3811 104.044 69.1235 103.641 68.7676C103.237 68.4117 102.946 67.9542 102.77 67.3969C102.592 66.8396 102.503 66.1683 102.503 65.3846V57.4258H105.458V65.1004H105.455Z" fill="#78B520"/>
<path d="M131.454 59.9361H126.255V69.7823H123.3V59.9361H118.101V57.4258H131.456V59.9361H131.454Z" fill="#00481A"/>
<path d="M140.215 57.4258L146.59 69.7823H143.117L141.622 66.8083H134.124L132.611 69.7823H129.156L135.531 57.4258H140.215ZM137.846 59.741L135.406 64.3355H140.34L137.988 59.741H137.846Z" fill="#00481A"/>
<path d="M149.573 69.5681C148.831 69.4135 148.243 69.1403 147.81 68.7485C147.378 68.3566 147.072 67.8258 146.894 67.1545C146.716 66.4832 146.627 65.6386 146.627 64.6176V63.0502C146.627 61.8388 146.718 60.8662 146.903 60.1293C147.088 59.394 147.403 58.8273 147.846 58.4292C148.291 58.0311 148.891 57.7642 149.645 57.6283C150.397 57.491 151.351 57.4238 152.502 57.4238H155.138C156.349 57.4238 157.345 57.48 158.129 57.5924C158.913 57.7064 159.529 57.9156 159.981 58.2247C160.432 58.5338 160.746 58.9616 160.924 59.5064C161.102 60.0528 161.191 60.7585 161.191 61.6249H158.129C158.129 61.3876 158.096 61.1769 158.031 60.9926C157.967 60.8084 157.826 60.6539 157.612 60.529C157.4 60.4041 157.083 60.3135 156.669 60.2527C156.254 60.1933 155.697 60.1637 154.995 60.1637H152.718C152.052 60.1637 151.515 60.1902 151.106 60.2433C150.697 60.2964 150.382 60.4181 150.163 60.6086C149.943 60.7991 149.798 61.0832 149.726 61.4625C149.654 61.8419 149.62 62.3587 149.62 63.0112V64.3647C149.62 64.9705 149.654 65.4513 149.726 65.8073C149.796 66.1632 149.938 66.4395 150.154 66.6347C150.366 66.8298 150.671 66.9578 151.061 67.0171C151.453 67.0765 151.97 67.1061 152.61 67.1061H155.031C155.684 67.1061 156.216 67.089 156.624 67.0531C157.033 67.0171 157.351 66.9407 157.576 66.822C157.801 66.7034 157.953 66.5379 158.031 66.324C158.109 66.1101 158.146 65.8307 158.146 65.4872H161.209C161.209 66.3068 161.141 66.9922 161.005 67.5433C160.869 68.0943 160.583 68.5377 160.151 68.8687C159.717 69.2012 159.097 69.4385 158.29 69.5806C157.481 69.7226 156.419 69.7944 155.102 69.7944H152.394C151.255 69.7944 150.313 69.7164 149.572 69.5634L149.573 69.5681Z" fill="#00481A"/>
<path d="M175.882 59.9361H170.683V69.7823H167.727V59.9361H162.528V57.4258H175.884V59.9361H175.882Z" fill="#00481A"/>
<path d="M177.857 57.4258H180.813V69.7823H177.857V57.4258Z" fill="#00481A"/>
<path d="M185.862 69.5681C185.121 69.4135 184.532 69.1403 184.099 68.7485C183.665 68.3566 183.361 67.8258 183.183 67.1545C183.005 66.4832 182.916 65.6386 182.916 64.6176V63.0502C182.916 61.8388 183.007 60.8662 183.192 60.1293C183.377 59.394 183.692 58.8273 184.135 58.4292C184.58 58.0311 185.18 57.7642 185.934 57.6283C186.687 57.491 187.64 57.4238 188.791 57.4238H191.427C192.638 57.4238 193.634 57.48 194.418 57.5924C195.202 57.7064 195.819 57.9156 196.27 58.2247C196.721 58.5338 197.035 58.9616 197.213 59.5064C197.391 60.0528 197.48 60.7585 197.48 61.6249H194.418C194.418 61.3876 194.385 61.1769 194.32 60.9926C194.256 60.8084 194.115 60.6539 193.901 60.529C193.689 60.4041 193.372 60.3135 192.958 60.2527C192.543 60.1933 191.986 60.1637 191.285 60.1637H189.007C188.342 60.1637 187.804 60.1902 187.395 60.2433C186.986 60.2964 186.671 60.4181 186.452 60.6086C186.232 60.7991 186.087 61.0832 186.015 61.4625C185.943 61.8419 185.909 62.3587 185.909 63.0112V64.3647C185.909 64.9705 185.943 65.4513 186.015 65.8073C186.085 66.1632 186.228 66.4395 186.443 66.6347C186.655 66.8298 186.96 66.9578 187.35 67.0171C187.742 67.0765 188.259 67.1061 188.899 67.1061H191.32C191.973 67.1061 192.505 67.089 192.913 67.0531C193.322 67.0171 193.641 66.9407 193.865 66.822C194.09 66.7034 194.242 66.5379 194.32 66.324C194.398 66.1101 194.435 65.8307 194.435 65.4872H197.498C197.498 66.3068 197.43 66.9922 197.294 67.5433C197.158 68.0943 196.872 68.5377 196.44 68.8687C196.006 69.2012 195.386 69.4385 194.579 69.5806C193.77 69.7226 192.708 69.7944 191.391 69.7944H188.683C187.544 69.7944 186.602 69.7164 185.861 69.5634L185.862 69.5681Z" fill="#00481A"/>
<path d="M121.103 78.1111C121.215 78.2422 121.271 78.3999 121.271 78.5888C121.271 78.748 121.234 78.887 121.159 79.0087C121.084 79.1305 120.973 79.2242 120.826 79.2929C120.68 79.3616 120.5 79.3959 120.292 79.3959H118.325L118.558 77.8816L118.325 76.4453H120.222C120.403 76.4453 120.558 76.4734 120.686 76.5312C120.814 76.5889 120.911 76.6701 120.976 76.7778C121.042 76.8856 121.076 77.0136 121.076 77.1619C121.076 77.3102 121.037 77.4444 120.958 77.5678C120.879 77.6911 120.758 77.7848 120.594 77.8504C120.82 77.8956 120.99 77.9831 121.103 78.1126V78.1111ZM120.233 78.9775C120.395 78.9775 120.522 78.94 120.612 78.8651C120.703 78.7902 120.748 78.684 120.748 78.5451C120.748 78.3983 120.694 78.2844 120.588 78.2032C120.48 78.122 120.324 78.0814 120.119 78.0814H119.025L118.889 78.9775H120.232H120.233ZM120.436 76.9621C120.358 76.8949 120.249 76.8606 120.108 76.8606H118.894L119.028 77.6786H120.071C120.166 77.6786 120.249 77.6615 120.322 77.6255C120.395 77.5896 120.452 77.5381 120.494 77.471C120.534 77.4039 120.556 77.3227 120.556 77.2306C120.556 77.1197 120.517 77.0292 120.439 76.9621H120.436Z" fill="#00481A"/>
<path d="M122.351 79.3939V76.4434H122.87V79.3939H122.351Z" fill="#00481A"/>
<path d="M124.623 78.8886L126.503 76.4438H127.181V79.3944H126.677V76.9262L124.78 79.3944H124.119V76.4438H124.623V78.8886ZM125.198 75.5977C125.228 75.6991 125.279 75.7756 125.351 75.8287C125.423 75.8818 125.515 75.9083 125.627 75.9083C125.74 75.9083 125.832 75.8818 125.904 75.8287C125.976 75.7756 126.025 75.6991 126.057 75.5977H126.481C126.436 75.8037 126.339 75.9598 126.189 76.0644C126.04 76.1706 125.852 76.2221 125.627 76.2221C125.403 76.2221 125.215 76.169 125.065 76.0644C124.915 75.9583 124.819 75.8037 124.775 75.5977H125.2H125.198Z" fill="#00481A"/>
<path d="M131.544 78.2256C131.516 78.4676 131.432 78.6799 131.291 78.8656C131.149 79.0499 130.962 79.1935 130.729 79.2965C130.495 79.3996 130.233 79.4495 129.941 79.4495C129.613 79.4495 129.324 79.3855 129.073 79.2575C128.821 79.1295 128.626 78.95 128.489 78.7189C128.35 78.4878 128.281 78.2209 128.281 77.9196C128.281 77.6183 128.35 77.3513 128.489 77.1203C128.628 76.8892 128.821 76.7097 129.073 76.5817C129.324 76.4537 129.613 76.3896 129.941 76.3896C130.233 76.3896 130.497 76.4412 130.729 76.5426C130.962 76.6441 131.151 76.7877 131.291 76.9735C131.434 77.1577 131.518 77.3716 131.544 77.612H131.021C130.992 77.4559 130.931 77.3217 130.834 77.2061C130.739 77.0922 130.614 77.0047 130.461 76.9439C130.308 76.883 130.133 76.8517 129.936 76.8517C129.707 76.8517 129.507 76.8955 129.337 76.9813C129.167 77.0672 129.037 77.1921 128.945 77.3513C128.853 77.5121 128.807 77.701 128.807 77.9165C128.807 78.1319 128.853 78.3208 128.945 78.4816C129.037 78.6424 129.168 78.7657 129.337 78.8516C129.507 78.9375 129.707 78.9812 129.936 78.9812C130.135 78.9812 130.309 78.9515 130.462 78.8906C130.615 78.8297 130.739 78.7423 130.836 78.6283C130.931 78.5144 130.993 78.3786 131.023 78.2209H131.546L131.544 78.2256Z" fill="#00481A"/>
<path d="M134.155 77.5252C134.374 77.5252 134.566 77.5643 134.731 77.6423C134.895 77.7204 135.023 77.8297 135.112 77.9717C135.201 78.1138 135.246 78.2762 135.246 78.4619C135.246 78.6477 135.201 78.8085 135.112 78.949C135.023 79.0895 134.895 79.1988 134.731 79.2769C134.567 79.3549 134.375 79.3939 134.155 79.3939H132.609V76.4434H133.129V77.5252H134.157H134.155ZM134.133 78.9724C134.252 78.9724 134.356 78.9521 134.445 78.91C134.534 78.8678 134.602 78.8085 134.648 78.732C134.695 78.6555 134.719 78.565 134.719 78.4619C134.719 78.3589 134.695 78.2668 134.648 78.1887C134.602 78.1107 134.533 78.0514 134.445 78.0092C134.356 77.967 134.253 77.9468 134.133 77.9468H133.129V78.974H134.133V78.9724Z" fill="#00481A"/>
<path d="M138.127 77.6985L139.207 79.3939H138.614L137.794 78.106L136.729 79.3939H136.266V76.4434H136.786V78.6664L138.603 76.4434H139.165L138.128 77.6985H138.127Z" fill="#00481A"/>
<path d="M140.604 79.2571C140.348 79.1291 140.148 78.9496 140.007 78.7169C139.865 78.4843 139.795 78.2189 139.795 77.9192C139.795 77.6194 139.865 77.3525 140.007 77.1199C140.149 76.8873 140.348 76.7077 140.604 76.5797C140.86 76.4517 141.155 76.3877 141.486 76.3877C141.817 76.3877 142.112 76.4517 142.368 76.5797C142.624 76.7077 142.824 76.8873 142.964 77.1199C143.106 77.3525 143.177 77.6179 143.177 77.9192C143.177 78.2205 143.106 78.4859 142.964 78.7169C142.822 78.9496 142.624 79.1291 142.368 79.2571C142.112 79.3851 141.817 79.4491 141.486 79.4491C141.155 79.4491 140.86 79.3851 140.604 79.2571ZM142.103 78.8559C142.277 78.77 142.412 78.6451 142.507 78.4859C142.602 78.3267 142.649 78.1362 142.649 77.9208C142.649 77.7053 142.602 77.5164 142.507 77.3556C142.412 77.1948 142.277 77.0715 142.103 76.9856C141.928 76.8998 141.722 76.856 141.486 76.856C141.25 76.856 141.044 76.8998 140.869 76.9856C140.694 77.0715 140.558 77.1964 140.463 77.3556C140.368 77.5164 140.321 77.7053 140.321 77.9208C140.321 78.1362 140.368 78.3251 140.463 78.4859C140.558 78.6467 140.693 78.77 140.869 78.8559C141.044 78.9417 141.25 78.9855 141.486 78.9855C141.722 78.9855 141.928 78.9417 142.103 78.8559Z" fill="#00481A"/>
<path d="M146.919 78.1111C147.032 78.2422 147.088 78.3999 147.088 78.5888C147.088 78.748 147.05 78.887 146.975 79.0087C146.9 79.1305 146.79 79.2242 146.643 79.2929C146.496 79.3616 146.316 79.3959 146.109 79.3959H144.142L144.374 77.8816L144.142 76.4453H146.039C146.22 76.4453 146.374 76.4734 146.502 76.5312C146.63 76.5889 146.727 76.6701 146.793 76.7778C146.858 76.8856 146.893 77.0136 146.893 77.1619C146.893 77.3102 146.854 77.4444 146.774 77.5678C146.696 77.6911 146.574 77.7848 146.41 77.8504C146.637 77.8956 146.807 77.9831 146.919 78.1126V78.1111ZM146.05 78.9775C146.212 78.9775 146.338 78.94 146.429 78.8651C146.519 78.7902 146.565 78.684 146.565 78.5451C146.565 78.3983 146.51 78.2844 146.404 78.2032C146.296 78.122 146.14 78.0814 145.936 78.0814H144.841L144.705 78.9775H146.048H146.05ZM146.251 76.9621C146.173 76.8949 146.064 76.8606 145.923 76.8606H144.708L144.843 77.6786H145.886C145.981 77.6786 146.064 77.6615 146.137 77.6255C146.21 77.5896 146.267 77.5381 146.309 77.471C146.349 77.4039 146.371 77.3227 146.371 77.2306C146.371 77.1197 146.332 77.0292 146.254 76.9621H146.251Z" fill="#00481A"/>
<path d="M151.203 79.3939H150.649L150.332 78.718H148.593L148.276 79.3939H147.722L149.138 76.4434H149.787L151.203 79.3939ZM149.463 76.8539L148.794 78.2871H150.132L149.464 76.8539H149.463Z" fill="#00481A"/>
<path d="M156.808 79.3939H156.254L155.937 78.718H154.197L153.88 79.3939H153.326L154.742 76.4434H155.392L156.808 79.3939ZM155.067 76.8539L154.399 78.2871H155.737L155.069 76.8539H155.067Z" fill="#00481A"/>
<path d="M159.743 78.9022L160.931 76.4434H161.726V79.3939H161.231V76.9351L160.019 79.3939H159.465L158.253 76.9398V79.3939H157.757V76.4434H158.552L159.743 78.9022Z" fill="#00481A"/>
<path d="M164.335 78.259L165.389 76.4434H165.956L164.229 79.3939H163.662L164.043 78.7429L162.694 76.4434H163.269L164.335 78.259Z" fill="#00481A"/>
<path d="M169.303 77.6782V76.4434H169.823V79.3939H169.303V78.1357H167.421V79.3939H166.901V76.4434H167.421V77.6782H169.303Z" fill="#00481A"/>
<path d="M171.073 79.3939V76.4434H171.593V79.3939H171.073Z" fill="#00481A"/>
<path d="M175.715 76.4434V78.9334H176.235V79.9997H175.751V79.3939H172.844V76.4434H173.364V78.9334H175.201V76.4434H175.717H175.715Z" fill="#00481A"/>
<path d="M177.253 79.3939V76.4434H177.773V79.3939H177.253Z" fill="#00481A"/>
<path d="M181.597 76.4434V79.3939H181.077V78.2137H180.419L179.448 79.3939H178.83L179.825 78.2028C179.639 78.1903 179.475 78.145 179.334 78.0701C179.194 77.9951 179.085 77.8937 179.008 77.7657C178.932 77.6376 178.893 77.4925 178.893 77.3301C178.893 77.1552 178.936 77.0023 179.024 76.868C179.111 76.7337 179.233 76.6307 179.392 76.5558C179.55 76.4824 179.731 76.4449 179.935 76.4449H181.595L181.597 76.4434ZM181.077 77.8281V76.8321H179.995C179.876 76.8321 179.772 76.8524 179.684 76.893C179.597 76.9336 179.53 76.9913 179.483 77.0647C179.436 77.1396 179.412 77.2271 179.412 77.327C179.412 77.4269 179.436 77.5174 179.483 77.5924C179.53 77.6673 179.597 77.7251 179.684 77.7657C179.772 77.8063 179.876 77.8265 179.995 77.8265H181.077V77.8281Z" fill="#00481A"/>
</g>
<defs>
<clipPath id="clip0_6283_1825">
<rect width="95" height="80" fill="white" transform="translate(102.5)"/>
</clipPath>
</defs>
</svg>
