<svg width="32" height="32" viewBox="0 0 32 32" fill="none" xmlns="http://www.w3.org/2000/svg">
<g clip-path="url(#clip0_4894_19859)">
<path d="M17.7529 23.68L17.8914 23.7929L18.2344 23.7933L18.2817 23.9397L22.0859 23.9388L22.0894 24.23L23.5415 24.2295L23.5407 23.939L28.4098 23.939L28.5213 23.6908L28.615 23.6909L29.1927 23.9415L29.7657 23.9534L29.8506 23.9834L29.8585 24.4501L30.0801 24.4473L30.0802 25.4475L29.8638 25.4574L29.8302 25.9832L29.45 26.3481L24.7953 26.3777L24.5121 26.9088C24.5121 27.6722 24.5138 27.7615 23.8481 28.0849L22.21 28.1127C21.7071 28.12 21.6582 27.9261 21.4347 27.93C21.4216 27.929 21.1031 27.9048 20.9801 27.9297C20.8542 27.9556 20.6027 28.239 20.6027 28.239L20.6469 28.7355L20.4014 29.0994L20.3624 29.4693L20.1314 29.95L20.0153 30.7059L20.3545 31.225L20.3805 31.36L17.7627 31.322C17.7627 31.322 17.5127 31.1463 17.3017 30.8868C17.0615 30.5872 16.967 29.6472 17.1054 29.3143L18.1506 27.0329L18.1583 26.3372L17.5926 26.1034L17.0786 26.1487L16.9598 25.941L16.96 24.4141L17.1151 24.0088L17.2688 23.9392L17.5497 23.9394L17.557 23.6804L17.7529 23.68ZM21.3299 26.608L21.3347 27.2706C21.686 27.9132 22.2857 27.8603 22.9607 27.7763C23.0643 27.7638 23.2878 27.6577 23.2951 27.6543C23.4189 27.6253 23.5502 27.7615 23.6371 27.7838L23.9788 27.7839C23.9788 27.7839 24.1315 27.7055 24.2167 27.6138C24.3419 27.4817 24.2942 26.7322 24.2905 26.562L24.0328 26.3285L22.7827 26.341L22.6853 26.5415C22.6853 26.5415 22.5766 26.9622 22.6765 27.1375C22.8463 27.4399 23.0123 27.2288 23.0696 27.5646C22.5392 27.5646 22.6493 27.5719 22.2276 27.2467C22.1593 26.7284 22.0929 26.8596 21.81 26.7481C21.688 26.7005 21.6176 26.6644 21.4606 26.4965L21.3299 26.608ZM1.78262 23.9346C1.86991 23.9141 1.95567 23.9226 2.02128 23.9964C2.05718 24.0368 2.09347 24.0776 2.14655 24.1372C2.14913 24.1396 2.15333 24.1385 2.15429 24.135C2.23026 23.8572 2.42765 23.8545 2.63974 23.8547C5.90449 23.8579 12.5194 23.8588 12.58 23.8588C12.846 23.8588 12.799 23.6618 13.0168 23.672C13.2383 23.6754 13.4726 23.6725 13.7015 23.6725C13.704 23.6725 13.7058 23.6754 13.7058 23.6779L13.7062 23.8603C13.7062 23.8626 13.7078 23.8646 13.71 23.8649C13.8652 23.8822 14.0015 23.9616 14.0454 24.1178C14.1097 24.3469 14.113 24.7509 13.7882 24.7602C13.7861 24.7603 13.7839 24.7619 13.7836 24.764C13.7835 24.8786 13.7778 25.4011 13.7834 25.5625C13.7912 25.7842 13.5937 26.0068 13.333 26.0108C13.2591 26.0119 10.2302 26.0123 10.0863 26.0123C10.0838 26.0123 10.0822 26.0144 10.0822 26.0169L10.0819 26.3035C10.0819 26.3797 10.0219 26.4449 9.94566 26.4465L9.94481 26.447C9.69157 26.45 9.43775 26.4461 9.18449 26.4484C8.69975 26.4325 8.05539 26.6778 8.092 27.2573C8.09926 27.4146 8.09235 27.5727 8.09108 27.7303C8.08832 28.073 7.88963 28.29 7.54875 28.2949C6.9857 28.3029 6.42175 28.3007 5.85864 28.2953C5.59629 28.2927 5.38936 28.178 5.24383 27.9218C5.2418 27.9182 5.23631 27.9184 5.23511 27.9223C5.17246 28.1265 5.11668 28.3074 5.06126 28.4884C4.84741 29.1869 4.62771 29.8839 4.42499 30.5856C4.37875 30.7458 4.37316 31.183 4.37649 31.2281C4.38214 31.306 4.3421 31.3425 4.27346 31.3485C4.2252 31.3518 2.66017 31.3503 1.91448 31.3505C1.82632 31.357 1.73624 31.3192 1.74905 31.2476C1.75812 31.1652 1.81426 31.1449 1.88946 31.1451C2.42364 31.1462 3.55568 31.1379 4.0792 31.137C4.12542 31.1369 4.16316 31.1013 4.16617 31.0552C4.17242 30.9595 4.18735 30.8436 4.19547 30.7271C4.20354 30.6112 4.22562 30.4965 4.25984 30.3855C4.4694 29.7059 5.11307 27.6172 5.38075 26.7625C5.40421 26.6558 5.51161 26.4618 5.34726 26.4232C5.26975 26.4084 5.22819 26.4489 5.20538 26.5232C5.02354 27.1193 4.01173 30.4085 3.87014 30.8687C3.86023 30.9003 3.83042 30.9219 3.79722 30.9221C3.52046 30.9234 2.29357 30.9295 1.67737 30.9281C1.54997 30.9278 1.4523 30.8574 1.38249 30.7533C1.29414 30.6215 1.26652 30.4723 1.2868 30.318C1.40294 29.4349 1.69456 28.617 2.21461 27.8879C2.33011 27.7261 2.46933 27.5808 2.58232 27.4174C2.96196 26.9336 2.76118 26.0046 2.05485 26.0136C1.90426 26.0106 1.7689 26.0213 1.61961 26.0077C1.59079 26.0051 1.56715 25.9833 1.56305 25.9547C1.55916 25.9263 1.55623 25.8989 1.56123 25.8734C1.6236 25.5595 1.93567 25.3029 2.25676 25.3027C5.74603 25.3021 9.23591 25.3019 12.7252 25.3018C12.8949 25.3018 13.0648 25.3007 13.2345 25.3031C13.3297 25.3046 13.3937 25.3571 13.3956 25.4357C13.3976 25.518 13.3542 25.5687 13.272 25.5848C13.207 25.5977 13.1918 25.6866 13.251 25.7165C13.2665 25.7242 13.2857 25.7289 13.3071 25.7315C13.4683 25.7508 13.6155 25.558 13.5753 25.3816C13.5422 25.2377 13.4237 25.1272 13.2716 25.1036C13.2101 25.0941 13.1471 25.0908 13.0849 25.0907C9.5021 25.0899 2.30122 25.0892 2.08949 25.0892C2.08704 25.0891 2.08565 25.0871 2.08572 25.0846C2.0901 24.9329 2.08767 24.7927 2.08798 24.6413C2.08848 24.3546 1.91182 24.2237 1.73187 24.044C1.70931 24.0215 1.69691 23.9549 1.78262 23.9346ZM3.32903 12.4725L3.91776 12.9727L8.05593 12.982L8.0562 13.2051L8.37864 13.205L8.76886 12.9199L9.30537 12.9C9.48037 12.6163 10.1405 11.5864 10.4281 11.0926C10.8131 10.4326 11.8122 10.572 11.8122 10.572C11.9787 10.5898 15.8094 11.0092 16.5542 11.1291C17.2465 11.2404 17.4589 11.7085 17.474 11.9411L17.473 12.4784C17.5855 12.5159 17.9576 12.6489 18.2576 12.8588L18.2577 12.7437C18.2577 12.7001 18.2753 12.6587 18.3063 12.6288C18.3376 12.5988 18.3785 12.5787 18.4235 12.5837L25.045 12.7673C25.0925 12.7685 25.1382 12.7928 25.1682 12.8303C25.1738 12.8373 25.1981 12.8711 25.2301 12.9277L25.4768 12.9273L26.8817 11.1047C27.0329 10.9822 27.3832 10.9003 27.6244 11.0728C27.7068 11.1316 27.8044 11.2494 27.7982 11.4754L27.7634 13.5049L31.2106 13.505C31.2993 13.505 31.3707 13.5776 31.3707 13.6651L31.3705 14.485C31.3703 14.5735 31.2996 14.6444 31.2112 14.6447L27.7457 14.6462L27.7356 15.1989C27.734 15.2862 27.663 15.3555 27.5756 15.3555L27.0379 15.3559C26.9956 15.3558 26.9548 15.3382 26.9248 15.3084C26.8948 15.2772 26.8785 15.2356 26.8785 15.1931L26.8832 14.7461L26.0681 14.7464L25.3343 15.0145C25.3093 15.0895 25.2841 15.1659 25.2541 15.2446C25.2303 15.3058 25.172 15.3474 25.1071 15.3475L24.0867 15.3593C24.0855 15.3605 24.0857 15.3632 24.0857 15.3655L24.053 15.3596L18.4204 15.426L18.4182 15.4261C18.3757 15.4261 18.3356 15.4095 18.3056 15.3795C18.2757 15.3495 18.2581 15.3084 18.2581 15.266L18.2579 15.1387C18.0867 15.2211 17.839 15.3034 17.5253 15.3034C17.4764 15.3033 17.3514 15.2911 17.3402 15.2874C17.0481 15.3512 17.0155 15.5373 17.013 15.5586L16.936 17.0521C16.5601 18.286 17.6724 21.2214 17.6858 21.2571L17.7317 21.3795L17.6221 21.4495C16.5885 22.1066 15.02 22.3127 14.9461 22.3224L14.8452 22.3311L14.7904 22.2499C13.8779 20.9011 13.7216 18.3407 13.6954 17.6657L13.3823 17.6762L13.3696 17.4433L12.1542 17.4437L12.1546 17.7412L11.343 17.7711C11.1418 18.0323 10.3403 19.085 10.1215 19.5363C10.0029 19.7824 10.0136 19.9287 10.0249 20.0837C10.0361 20.2374 10.0481 20.4101 9.92935 20.635C9.80185 20.8762 9.5512 21.0086 9.22374 21.0086C9.10028 21.0085 9.0093 20.9895 8.99932 20.987C8.85636 20.9369 7.76796 20.5459 7.50178 20.3835C7.21191 20.2059 7.25172 19.7937 7.3217 19.5774L7.34524 19.5323L9.49015 16.6126L9.49 15.9248C9.32795 15.5296 8.32334 15.4961 8.31314 15.4958L8.31288 14.8938L8.0556 14.8935L8.05562 15.1416L5.43536 15.1422L1.7977 17.3924L1.00843 17.3925C1.00843 17.3925 0.167303 14.5523 1.02855 12.4723L3.32903 12.4725ZM5.8303 26.7442C5.57685 26.8803 5.46683 27.1066 5.49792 27.4244C5.52076 27.6572 5.73318 27.8698 5.9659 27.8736C6.40957 27.881 6.85341 27.8816 7.29713 27.8786C7.50184 27.8773 7.66087 27.7113 7.66637 27.5064C7.66956 27.3877 7.66578 27.2687 7.66684 27.1498C7.66833 26.9849 7.60247 26.8477 7.48501 26.7372C7.23148 26.4989 6.9205 26.4833 6.59539 26.5089C6.59297 26.5091 6.59045 26.5116 6.59045 26.514C6.59044 26.7312 6.59091 26.941 6.59146 27.1505C6.59179 27.2716 6.60081 27.3964 6.69034 27.4858C6.80701 27.5913 6.75305 27.6591 6.70696 27.6533C6.26411 27.5234 5.96275 27.1877 5.96429 26.6951C5.9643 26.6919 5.96126 26.6897 5.95833 26.6906C5.89819 26.7155 5.86244 26.727 5.8303 26.7442ZM6.54901 24.0086C6.64462 24.1467 6.7578 24.2513 6.90335 24.263C7.16331 24.2838 7.4263 24.2754 7.68768 24.268C7.81878 24.2642 7.92062 24.1454 7.93229 24.0061C7.9322 24.0036 7.92972 24.0011 7.92718 24.0011L6.55298 24.0018C6.54958 24.002 6.54736 24.0057 6.54901 24.0086ZM27.075 11.4103L26.1006 12.6348L27.4902 12.6354L27.4855 11.5353C27.4855 11.5353 27.4903 11.3648 27.3454 11.3298C27.1666 11.2873 27.075 11.4103 27.075 11.4103ZM4.98494 24.0242L4.9848 24.8091C4.9848 24.8116 4.98735 24.814 4.98991 24.814L5.12291 24.8139C5.12538 24.8138 5.12701 24.8118 5.12701 24.8093L5.1275 24.0231C5.12726 24.0208 5.12519 24.019 5.12288 24.019L4.98988 24.0191C4.98733 24.0191 4.98494 24.0216 4.98494 24.0242ZM4.71797 24.0227L4.71858 24.8128C4.71875 24.8152 4.72075 24.8169 4.7232 24.8169L4.85535 24.8173C4.85781 24.8173 4.85936 24.8151 4.85945 24.8127L4.85968 24.0221C4.85947 24.0197 4.85748 24.018 4.85506 24.018L4.72291 24.0176C4.72035 24.0176 4.71797 24.0201 4.71797 24.0227ZM4.4658 24.0273L4.4653 24.8136C4.4653 24.8161 4.46785 24.8185 4.47041 24.8185L4.59202 24.8182C4.59458 24.8182 4.59697 24.8157 4.59697 24.8131L4.59662 24.0274C4.59662 24.0249 4.59484 24.022 4.59235 24.0219L4.46989 24.0227C4.46747 24.0229 4.4658 24.0249 4.4658 24.0273ZM4.20211 24.0296L4.2022 24.811C4.2022 24.8136 4.20475 24.8159 4.20731 24.8159L4.34249 24.8157C4.34499 24.8157 4.34784 24.8139 4.34792 24.8114L4.34783 24.03C4.34783 24.0275 4.34528 24.0251 4.34272 24.0251L4.2067 24.0258C4.20431 24.0259 4.20231 24.0273 4.20211 24.0296ZM3.93914 24.0292L3.93922 24.8106C3.93931 24.813 3.94145 24.8146 3.94385 24.8147L4.07902 24.8145C4.08142 24.8144 4.08348 24.8131 4.08361 24.8107L4.08352 24.0293C4.08352 24.0267 4.08145 24.0252 4.0789 24.0252L3.94408 24.0241C3.94154 24.0241 3.93916 24.0267 3.93914 24.0292ZM3.68088 24.0272L3.68061 24.8099C3.68061 24.8125 3.68317 24.8149 3.68572 24.8149L3.81569 24.8154C3.81819 24.8153 3.82064 24.8128 3.82064 24.8103L3.82006 24.028C3.82006 24.0256 3.81825 24.0227 3.8158 24.0226L3.68547 24.0234C3.68302 24.0234 3.68105 24.0248 3.68088 24.0272ZM3.40942 24.0238L3.40977 24.8096C3.40977 24.8121 3.41155 24.8149 3.41403 24.815L3.54569 24.8145C3.54807 24.8143 3.54979 24.8123 3.54979 24.8099L3.55029 24.0237C3.55012 24.0214 3.54794 24.0197 3.54567 24.0196L3.41485 24.0195C3.41237 24.0195 3.40953 24.0214 3.40942 24.0238ZM3.14875 24.0255L3.14875 24.8125C3.14875 24.8151 3.1513 24.8175 3.15386 24.8175L3.28032 24.8178C3.28272 24.8177 3.28428 24.8155 3.28441 24.8132L3.28478 24.0247C3.28472 24.0222 3.28268 24.0206 3.28016 24.0206L3.1537 24.0203C3.15114 24.0203 3.14875 24.0229 3.14875 24.0255ZM2.8945 24.0245L2.894 24.8108C2.89409 24.8132 2.89613 24.8149 2.89863 24.8149L3.0286 24.8154C3.03116 24.8154 3.03354 24.8128 3.03354 24.8103L3.03319 24.0245C3.03316 24.022 3.03111 24.0204 3.02857 24.0204L2.8986 24.0199C2.89607 24.0199 2.89453 24.022 2.8945 24.0245ZM2.63833 24.0281L2.63819 24.813C2.63819 24.8155 2.63995 24.8184 2.64245 24.8184L2.77412 24.818C2.77635 24.8177 2.77814 24.8156 2.77822 24.8133L2.77836 24.0284C2.77836 24.0259 2.7758 24.0235 2.77325 24.0235L2.64243 24.0235C2.63995 24.0236 2.63833 24.0256 2.63833 24.0281ZM2.37692 24.0245L2.3774 24.8125C2.3774 24.8148 2.37887 24.8168 2.38117 24.8171L2.51551 24.8173C2.51801 24.8173 2.51959 24.8152 2.5196 24.8127L2.51997 24.0243C2.51975 24.0219 2.51776 24.0202 2.51535 24.0202L2.38186 24.0194C2.37935 24.0194 2.37699 24.022 2.37692 24.0245ZM11.9609 16.3374C11.9109 16.3726 11.8261 16.4605 11.8161 16.6725C11.8024 16.9674 11.9905 17.0952 12.0455 17.1264L13.3917 17.1261C13.4879 16.9324 13.5153 16.7605 13.4653 16.6168C13.4078 16.4476 13.2599 16.3503 13.2008 16.3151L12.4653 16.3146C12.3441 16.5596 12.3512 16.9724 12.3512 16.9724C12.0814 16.8861 11.9897 16.5211 11.9609 16.3374ZM12.0064 11.4533C11.6177 11.4533 11.3019 11.7701 11.3019 12.1589C11.302 12.5475 11.6179 12.8638 12.0066 12.8638L16.153 12.8639C16.5416 12.8637 16.8575 12.547 16.8575 12.1583C16.8573 11.7698 16.5413 11.4534 16.1528 11.4534L12.0064 11.4533ZM0.144557 2.38062C0.186404 2.38017 5.35754 2.32411 5.62434 2.41485C5.89214 2.50598 6.27123 2.98429 6.49152 2.99107C7.10341 3.0091 8.15693 2.76248 8.6634 2.59076L9.10158 2.03331L9.5798 2.03349L9.95665 1.65691L10.0411 1.65666L16.7211 1.65647L16.7212 1.27976L17.1557 1.28037L17.5132 1.28035L19.2991 1.27991L19.2998 1.65613L23.3946 1.65667L23.7205 1.6568L23.7204 2.03351L26.8066 2.03333L27.663 2.78609L30.2715 2.78659L30.6593 1.28056L31.4559 1.27956L31.4554 2.7864L31.8242 2.78658L31.8247 3.91623L27.5882 3.91631L26.1142 3.91597L23.9043 3.91649L19.4963 3.91637C19.285 3.91637 19.1162 3.94164 19.0781 4.02022C18.9896 4.20759 18.9584 4.29142 18.958 4.29257L18.2295 4.29254L17.96 4.29253L16.7188 4.29309C16.8789 6.55252 19.4821 8.30202 19.4821 8.30202C19.4821 8.30202 18.8155 8.92702 17.8291 10.2397C15.2952 8.99314 14.511 6.56536 13.7743 4.89029L13.7744 5.09766C13.7744 5.25882 13.613 5.42261 13.4558 5.42261L10.9164 5.42278C10.6155 6.17574 10.4613 6.95558 10.5003 7.33871C10.5533 7.86745 10.0843 7.88782 10.0843 7.88782C10.0637 7.88259 9.35609 7.70297 9.03994 7.55937C8.71891 7.4135 8.80582 6.82964 8.80582 6.82964C8.81386 6.80459 9.40877 4.94947 9.4975 4.4964C9.58664 4.04034 8.7399 3.85803 8.7399 3.85803L0.144049 6.48326L0.144557 2.38062ZM11.5636 5.04573L13.3028 5.04634C13.3925 5.04592 13.4051 4.79419 13.4051 4.702L13.4054 4.29246L11.5639 4.2923L11.5636 5.04573Z" fill="currentColor"/>
</g>
<defs>
<clipPath id="clip0_4894_19859">
<rect width="32" height="32" fill="white"/>
</clipPath>
</defs>
</svg>
