<svg width="24" height="24" viewBox="0 0 24 24" fill="none" xmlns="http://www.w3.org/2000/svg">
<path d="M1 12.8281C1 14.57 1.15524 16.3051 1.16211 16.3818L1.16309 16.3936C1.182 16.5684 1.36742 18.0977 2.12891 18.8906C2.96089 19.7922 4.01306 19.9114 4.5791 19.9756C4.66856 19.9857 4.74629 19.9948 4.79883 20.0039L4.84961 20.0107C6.52813 20.1689 11.7871 20.2468 12.0166 20.25L12.0303 20.25C12.0742 20.2498 16.4666 20.2211 19.375 20.0117L19.4131 20.0078C19.4498 20.003 19.4918 19.9988 19.5371 19.9941C20.0115 19.9443 20.9989 19.8402 21.874 18.8867C22.6031 18.1017 22.8144 16.5758 22.8359 16.4043L22.8379 16.3818C22.8446 16.3073 23 14.5712 23 12.8281L23 11.1982C22.9998 9.45607 22.8447 7.7207 22.8379 7.64453L22.8369 7.63477C22.8183 7.45944 22.6327 5.89979 21.8672 5.10645C20.9821 4.17338 19.9786 4.05923 19.4961 4.00488C19.4562 4.0004 19.4194 3.9965 19.3867 3.99219L19.3486 3.98828C16.4429 3.77906 12.0558 3.75022 12.0039 3.75L11.9961 3.75C11.9521 3.75017 7.5596 3.77887 4.625 3.98828L4.58594 3.99219C4.55484 3.99632 4.52064 4.00058 4.4834 4.00488C4.00638 4.0594 3.01354 4.17284 2.12598 5.13965C1.3968 5.9245 1.18571 7.45056 1.16406 7.62207L1.16211 7.64453C1.15531 7.72031 1 9.45595 1 11.1982L1 12.8281ZM9.00098 9.46289C9.00107 9.15645 9.1733 8.87993 9.46191 8.72363C9.75035 8.56766 10.0984 8.56289 10.3926 8.70996L15.5117 11.2686C15.8147 11.4201 16.0022 11.71 16.001 12.0254C15.9995 12.3407 15.8096 12.6289 15.5059 12.7783L10.3867 15.2939C10.2462 15.3631 10.0928 15.3975 9.94043 15.3975C9.77429 15.3974 9.60855 15.356 9.45898 15.2744C9.17226 15.1179 9.001 14.8422 9.00098 14.5371L9.00098 9.46289Z" fill="#010B13"/>
</svg>
